<svg id="Layer_1" data-name="Layer 1" xmlns="http://www.w3.org/2000/svg" viewBox="0 0 54.28654 54.28654"><defs><style>.cls-1{fill:#efefef;opacity:0.5;}.cls-2{fill:#fff;}</style></defs><title>back-to-top_icon</title><rect class="cls-1" width="54.28654" height="54.28654" rx="12.49648"/><path class="cls-2" d="M497.4913,543.392l-1.86488-1.86488a2.00779,2.00779,0,0,1,0-2.84773l16.32191-16.33031a2.00777,2.00777,0,0,1,2.84772,0L531.118,538.671a2.00777,2.00777,0,0,1,0,2.84773l-1.86488,1.86488a2.01836,2.01836,0,0,1-2.88132-.0336l-9.63522-10.114V557.3786a2.01125,2.01125,0,0,1-2.01609,2.01608h-2.68812a2.01124,2.01124,0,0,1-2.01608-2.01608V533.236l-9.64362,10.12244A2.00384,2.00384,0,0,1,497.4913,543.392Z" transform="translate(-485.80548 -512.70826)"/></svg>