<svg id="Layer_1" data-name="Layer 1" xmlns="http://www.w3.org/2000/svg" xmlns:xlink="http://www.w3.org/1999/xlink" viewBox="0 0 1401.63154 3177"><defs><style>.cls-1{fill:none;}.cls-2{fill:#efefef;}.cls-3{fill:#fff;}.cls-4{fill:url(#linear-gradient);}.cls-5{clip-path:url(#clip-path);}.cls-6{opacity:0.47;}.cls-7{clip-path:url(#clip-path-2);}.cls-8{fill:url(#linear-gradient-2);}.cls-9{fill:url(#linear-gradient-3);}.cls-10{clip-path:url(#clip-path-3);}.cls-11{fill:url(#linear-gradient-4);}.cls-12{clip-path:url(#clip-path-4);}</style><linearGradient id="linear-gradient" x1="491.30494" y1="297.12688" x2="1023.5633" y2="297.12688" gradientUnits="userSpaceOnUse"><stop offset="0" stop-color="#5772b0"/><stop offset="0.47758" stop-color="#623d8b"/><stop offset="0.71335" stop-color="#552b6d"/><stop offset="0.98965" stop-color="#431344"/></linearGradient><clipPath id="clip-path" transform="translate(144.06285 0)"><rect class="cls-1" x="713.09965" y="52.11353" width="307.07069" height="619.51288"/></clipPath><clipPath id="clip-path-2" transform="translate(144.06285 0)"><rect class="cls-1" x="0.03177" y="708.58447" width="278.64785" height="821.58575"/></clipPath><linearGradient id="linear-gradient-2" x1="-102.46496" y1="1097.81769" x2="237.17196" y2="1097.81769" xlink:href="#linear-gradient"/><linearGradient id="linear-gradient-3" x1="768.7077" y1="2757.52607" x2="174.61688" y2="3351.61688" xlink:href="#linear-gradient"/><clipPath id="clip-path-3" transform="translate(144.06285 0)"><polygon class="cls-1" points="684.23 2298.579 1024 2285 1023.5 1519.535 684.23 1519.535 684.23 2298.579"/></clipPath><linearGradient id="linear-gradient-4" x1="767.5258" y1="1918.99253" x2="1181.91094" y2="1918.99253" xlink:href="#linear-gradient"/><clipPath id="clip-path-4" transform="translate(144.06285 0)"><rect class="cls-1" x="0.76589" y="2874.19668" width="148.66373" height="278.11608" transform="translate(150.1955 6026.50945) rotate(-180)"/></clipPath></defs><title>desktop-home-bcg</title><rect class="cls-2" x="144.06285" y="504.97145" width="1024" height="1387.92155"/><path class="cls-3" d="M.76589,504s297.25982,207.0199,1021.53153,88.93436L1021.76565,504Z" transform="translate(144.06285 0)"/><path class="cls-3" d="M.76589,1811.211s890.71593-340.97459,1020.99976-217.28311v954.31732H.76589Z" transform="translate(144.06285 0)"/><path class="cls-4" d="M1023.5633,594.25377S366.29471,283.69967,512.53165.26589L1023.29742,0Z" transform="translate(144.06285 0)"/><g id="BCG-logo-white"><g class="cls-5"><g class="cls-6"><path class="cls-3" d="M927.43719,94.52937l1.1143,4.70219a20.34347,20.34347,0,0,0,1.117,3.36626c1.984,4.59922,2.56392,6.08866,6.15181,9.80631,11.25556,11.66285,16.60505,33.754,17.29254,36.76583.01531.06776-5.29628-11.52351-9.42544-16.35776-3.97718-4.65664-9.154-7.21483-9.11346-7.01042,3.69507,18.64877,8.617,48.35825,16.84927,47.4139,2.46325-.2825,5.47275-.7629,8.7123-1.44541a.13159.13159,0,0,0,.09761-.09493c-.00651.02679-.01072.05129-.01723.07809,12.99343-2.74844,29.63905-8.75326,29.63905-18.37622,0-12.04487-37.28107-67.33659-58.3127-68.583a5.27953,5.27953,0,0,0-4.93378,5.1091,5.40838,5.40838,0,0,0,.22317,1.75433A23.861,23.861,0,0,1,927.43719,94.52937Zm1.70112-2.54708c.10565.02832.235.067.34719.098C929.37334,92.04927,929.244,92.01061,929.13831,91.98229Zm3.896,1.25325c.751.28173,1.56714.62242,2.41.99372C934.60187,93.858,933.78577,93.51727,933.03435,93.23554Zm30.80885,51.816c.01187-.90147.0467-1.82783.03139-2.69982C963.8899,143.2237,963.85469,144.15044,963.8432,145.05153Zm-2.94365,23.58331c.25838-1.17211.54509-2.371.76711-3.50789C961.44464,166.26383,961.15793,167.46312,960.89955,168.63484Zm1.2632-6.401c.19216-1.11162.41074-2.24927.56845-3.32683C962.57349,159.98455,962.35491,161.1222,962.16275,162.23382Zm.86664-5.79008c.142-1.13995.30585-2.30248.41-3.40339C963.33562,154.14126,963.17179,155.30379,963.02939,156.44374Zm.55773-5.57113c.08268-1.1231.18259-2.265.22584-3.34673C963.76971,148.60726,963.6698,149.74951,963.58712,150.87261Zm-3.32683-29.76536c.21245.58987.39389,1.22569.59026,1.83892C960.65418,122.33294,960.47274,121.69712,960.26029,121.10725Zm1.17325,3.65909c.18565.6561.33571,1.36043.5026,2.04218C961.76925,126.12677,961.61919,125.42244,961.43354,124.76634Zm.97,3.94426c.14087.66835.24345,1.38532.36556,2.07779C962.647,130.09592,962.5444,129.37934,962.40353,128.7106Zm.74491,4.24017c.11216.78587.18029,1.62456.26795,2.4399C963.32911,134.575,963.26021,133.73664,963.14844,132.95077Zm.49686,4.53721c.06354.80883.08039,1.67088.11905,2.50766C963.7253,139.15886,963.70846,138.29681,963.6453,137.488Zm-8.78656-27.06861c-.29705-.44174-.58644-.90262-.89229-1.32446C954.2723,109.51675,954.56131,109.97763,954.85874,110.41937Zm4.67578,8.87192c-.21092-.52213-.40614-1.068-.62893-1.571C959.128,118.22369,959.3236,118.76916,959.53452,119.29129Zm-1.40408-3.17065c-.24728-.50834-.48193-1.03813-.74069-1.52618C957.64851,115.08251,957.88316,115.6123,958.13044,116.12064Zm-1.52771-2.89351c-.28824-.50222-.56691-1.02358-.86625-1.5036C956.0362,112.20317,956.31449,112.72491,956.60273,113.22713Zm-5.325-7.45483c-.37093-.41993-.73764-.854-1.11469-1.2502C950.5401,104.91829,950.90681,105.35237,951.27774,105.7723Zm1.798,2.1773c-.3246-.41838-.64232-.85438-.9742-1.2521C952.433,107.09522,952.7511,107.53122,953.0757,107.9496ZM938.22422,95.5564c.44288.2312.89917.49112,1.35392.748C939.12339,96.04752,938.6671,95.7876,938.22422,95.5564Zm1.91892,1.06032c.35561.20748.71926.44289,1.07985.66644C940.8624,97.05961,940.49875,96.8242,940.14314,96.61672Zm1.97749,1.22072c.22815.14891.45974.3204.689.47581C942.58,98.15745,942.34839,97.98635,942.12063,97.83744ZM944.13526,99.23c.15426.11292.30968.24384.46432.35982C944.44494,99.47349,944.28952,99.343,944.13526,99.23Zm2.02266,1.56867c.43332.356.86472.74836,1.29613,1.13115C947.02226,101.54668,946.59162,101.15508,946.15792,100.7987Zm2.01539,1.75931c.43676.40461.86664.84673,1.298,1.28081C949.04,103.40474,948.61007,102.96262,948.17331,102.558Zm-20.94359-11.0167c-.13551-.02526-.227-.04134-.227-.04134S927.0946,91.51605,927.22972,91.54131Z" transform="translate(144.06285 0)"/><path class="cls-3" d="M1079.90705,172.74791c-.00651-.02641-.01034-.05129-.01685-.0777a.13121.13121,0,0,0,.09723.09455c3.23955.68289,6.24905,1.16291,8.7123,1.44541,8.23228.94434,13.1542-28.76514,16.84927-47.4139.04057-.20441-5.13666,2.35416-9.11385,7.0108-4.12877,4.83425-9.44037,16.42514-9.42505,16.35776.68749-3.01217,6.03659-25.10336,17.29253-36.76621,3.5879-3.71766,4.16744-5.20671,6.15144-9.80593a20.32026,20.32026,0,0,0,1.11736-3.36626l1.11431-4.70257a23.76584,23.76584,0,0,1,.60557-2.87131,5.42261,5.42261,0,0,0,.22317-1.75471,5.27953,5.27953,0,0,0-4.93417-5.10871c-21.03125,1.24636-58.31231,56.5377-58.31231,68.58257C1050.268,163.995,1066.91324,169.99948,1079.90705,172.74791Zm22.15933-76.28009a46.66418,46.66418,0,0,1,5.0222-2.23779A46.70822,46.70822,0,0,0,1102.06638,96.46782Zm8.57105-3.39305c.11215-.031.24154-.06967.34719-.098C1110.879,93.00472,1110.74958,93.04376,1110.63743,93.07477Zm2.25578-.539c.13512-.02526.227-.04134.227-.04134S1113.02872,92.51054,1112.89321,92.5358Zm-10.9945,4.01508c-.44288.23121-.89917.49112-1.35392.748C1100.99954,97.042,1101.45583,96.78209,1101.89871,96.55088Zm-1.91892,1.06033c-.35561.20709-.71926.44289-1.07985.66644C1099.26053,98.0541,1099.62418,97.81868,1099.97979,97.61121Zm-1.9775,1.22034c-.36977.24154-.74452.51332-1.11774.77285C1097.25738,99.34525,1097.63214,99.07309,1098.00229,98.83155Zm-2.01041,1.38991c-.55849.40882-1.11889.85017-1.67892,1.30148C1094.873,101.072,1095.43339,100.62989,1095.99188,100.22146Zm-2.023,1.56867c-.40117.3292-.79927.69323-1.19852,1.0454C1093.16957,102.48336,1093.56805,102.11971,1093.96884,101.79013Zm-2.02267,1.76543c-.53858.49992-1.071,1.037-1.60159,1.58092C1090.87513,104.59215,1091.40721,104.05548,1091.94617,103.55556Zm-1.98361,1.958c-.42528.44672-.83946.93324-1.2567,1.40981C1089.1231,106.44639,1089.53766,105.96025,1089.96256,105.51353Zm-3.11132,3.68244c.38815-.50758.7717-1.02626,1.17019-1.504C1087.62294,108.16971,1087.239,108.68839,1086.85124,109.196Zm-.69285.89113c-.39313.542-.76826,1.1277-1.14722,1.70265C1085.39013,111.21442,1085.76526,110.62952,1086.15839,110.0871Zm-5.61821,10.31887c.22585-.56461.43829-1.15066.67792-1.69269C1080.97847,119.25569,1080.766,119.84174,1080.54018,120.406Zm1.38532-3.15265c.26833-.55658.52557-1.13191.80768-1.66438C1082.45107,116.12141,1082.19383,116.69712,1081.9255,117.25332Zm1.51431-2.892c.31427-.552.62051-1.12043.94817-1.64562C1084.06032,113.24091,1083.75408,113.809,1083.43981,114.36134Zm-3.57717,7.74039c-.21245.58988-.39351,1.2257-.59026,1.83893C1079.46875,123.32743,1079.65019,122.69161,1079.86264,122.10173Zm-1.17325,3.65909c-.18565.65611-.33571,1.36044-.5026,2.04219C1078.35368,127.12126,1078.50374,126.41693,1078.68939,125.76082Zm-.97,3.94427c-.14048.66835-.24345,1.38532-.36556,2.07779C1077.476,131.09041,1077.57853,130.37344,1077.7194,129.70509Zm-.74491,4.24017c-.09646.67754-.15273,1.40407-.2312,2.10343C1076.82176,135.34933,1076.878,134.6228,1076.97449,133.94526Zm-.49763,4.54333c-.05512.70816-.06737,1.46609-.10411,2.19568C1076.40949,139.95468,1076.42174,139.19675,1076.47686,138.48859Zm-.22852,4.85761c-.0134.75945.0199,1.56944.02718,2.35148C1076.26863,144.91564,1076.23494,144.10527,1076.24834,143.3462Zm2.8158,25.55621c-.19828-.92061-.431-1.87453-.60672-2.77294C1078.63312,167.02827,1078.86624,167.9818,1079.06414,168.90241Zm-1.15985-6.00139c-.17-.99908-.37054-2.028-.51256-2.99954C1077.53375,160.873,1077.73433,161.90194,1077.90429,162.901Zm-.85171-5.80118c-.12441-1.02052-.27484-2.06783-.36824-3.05658C1076.77774,155.03239,1076.92817,156.07932,1077.05258,157.09984Zm-.565-5.94626c-.05818-.87429-.14354-1.77768-.17761-2.62632C1076.34365,149.3759,1076.42978,150.27929,1076.48758,151.15358Z" transform="translate(144.06285 0)"/><path class="cls-3" d="M895.83175,244.73c-49.048-23.35593-113.27751-1.75164-113.27751-1.75164,2.73924,21.36772,19.2306,33.60858,35.967,40.58492a129.47918,129.47918,0,0,0,29.205,7.98577,3.706,3.706,0,0,0,3.57143-5.84214c-2.86365-3.94618-6.77576-9.71253-11.52083-17.62059C829.26649,250.56912,895.83175,244.73,895.83175,244.73Z" transform="translate(144.06285 0)"/><path class="cls-3" d="M1144.29118,244.73s66.56488,5.83908,56.055,23.35632c-4.74507,7.90806-8.65718,13.67441-11.52083,17.62059a3.70586,3.70586,0,0,0,3.57105,5.84214,129.47631,129.47631,0,0,0,29.20534-7.98577c16.73635-6.97634,33.22732-19.2172,35.967-40.58492C1257.56869,242.9784,1193.33921,221.37411,1144.29118,244.73Z" transform="translate(144.06285 0)"/><path class="cls-3" d="M981.44657,520.56929a15.45681,15.45681,0,0,0-.129,1.89634c0,13.42215,17.36641,24.303,38.78811,24.303,21.42207,0,38.78773-10.8808,38.78773-24.303a15.53389,15.53389,0,0,0-.12824-1.89634Z" transform="translate(144.06285 0)"/><path class="cls-3" d="M1129.80257,232.06008c-.01416-.01417-.02067-.03331-.03521-.04747a268.03591,268.03591,0,0,0-20.96924-18.85853c-.356-.29016-.67907-.55926-1.0477-.85707-.05856-.04746-.10756-.08881-.16651-.13627.00689.00574.0111.01263.018.01837-14.66889-11.85539-32.12144-23.18827-44.34392-22.19684-22.80089,1.84887-31.03777,8.62885-43.12589,11.28235V201.03c-12.11837-2.64431-20.34376-9.445-43.1791-11.29652-12.22248-.99142-29.675,10.34146-44.34392,22.19685.00689-.00574.0111-.01263.018-.01838-.05895.04747-.108.08881-.16651.13628-.36863.29781-.69171.56691-1.0477.85706a268.03578,268.03578,0,0,0-20.96924,18.85854c-.01454.01416-.02105.0333-.03521.04746-5.18566,4.3351-10.14394,20.61631,9.95943,33.46886,9.7776,6.25173,19.31175,18.64953,22.3289,22.79247.6117.926,1.03009,1.58705,1.03009,1.58705s-.02182-.12326-.03139-.18183c.0134.02182.08881.14049.08881.14049l14.59387-30.253c.40729.77362,2.68986,5.18336,5.921,12.48891,12.44413,28.305,38.89645,100.41845,22.6271,171.07345-.96616,4.195-2.04869,8.38425-3.328,12.55934-.09417.30661-.16652.61514-.26221.92175,0,0,33.11669,8.72379,36.74286,44.66624v.6006c.01149-.1202.02488-.23848.03675-.35791.00383.03789.013.07081.01646.10909v-.26948c.01493-.14508.02871-.2913.04479-.436,3.92436-35.45171,36.69807-44.06372,36.69807-44.06372-.09569-.30662-.168-.61515-.26221-.92176.22355.459.37475.75639.37475.75639-.54853-1.68159-1.03162-3.37008-1.5147-5.05857-.75869-2.75073-1.553-5.49916-2.188-8.25716-16.26934-70.655,10.183-142.76842,22.6271-171.07345,3.23113-7.30554,5.5137-11.71528,5.921-12.4889l14.59387,30.253s.07541-.11867.08881-.14048c-.00957.05856-.03139.18182-.03139.18182s.41839-.66108,1.03009-1.58705c3.01715-4.14332,12.5513-16.54112,22.32929-22.79246C1139.94689,252.67562,1134.98861,236.39479,1129.80257,232.06008Z" transform="translate(144.06285 0)"/><path class="cls-3" d="M1108.69438,307.673c-10.73228-5.1891-21.91166,27.82-30.50836,55.50723-7.12755,22.9563-4.45223,74.80176-3.32989,91.84931a21.72964,21.72964,0,0,1-2.02725,10.69516L1059.34969,484.262l3.64722-20.88694s-31.24791,11.6039-31.39873,42.79784l.18719-.01225-.00077.01225,23.44665-1.522a12.06231,12.06231,0,0,0,8.16109-4.44993,62.49315,62.49315,0,0,0,5.43715-8.483c-.09417.119-.2626.307-.47237.52289,12.74346-22.81658,28.30388-71.30153,34.636-100.89234,8.03744-37.56089,24.9981-47.30443,29.11692-59.46566S1119.42705,312.86169,1108.69438,307.673Z" transform="translate(144.06285 0)"/><path class="cls-3" d="M1008.42637,506.17294l-.00076-.01225.18718.01225c-.15082-31.19394-31.39873-42.79784-31.39873-42.79784l3.64722,20.88694L967.3821,465.72467a21.72954,21.72954,0,0,1-2.02726-10.69516c1.12234-17.04755,3.79766-68.893-3.32989-91.84931-8.5967-27.6872-19.77608-60.69633-30.50836-55.50723-10.73267,5.18872-27.53447,12.0487-23.41565,24.20994s21.07948,21.90477,29.11692,59.46566c6.33211,29.59081,21.89253,78.07576,34.636,100.89234-.20977-.21589-.3782-.40384-.47236-.52289a62.4932,62.4932,0,0,0,5.43714,8.483,12.06231,12.06231,0,0,0,8.16109,4.44993Z" transform="translate(144.06285 0)"/></g></g></g><g class="cls-7"><path class="cls-8" d="M-.23411,708.83651s534.16367,771.879,0,777.95579C-230.25351,1489.40905-.23411,708.83651-.23411,708.83651Z" transform="translate(144.06285 0)"/></g><path id="BCG-footer-purple" class="cls-9" d="M0,2852s1023.9995,70.34574,1023.99973,167.81046c.00027,114.24816-.26667,156.924-.26667,156.924L0,3177Z" transform="translate(144.06285 0)"/><path class="cls-2" d="M1023.0512,2151.68511S278.75538,2137.32523,0,2391.60019v328.87629s1024.94749,286.49712,1023.99934-80.20519Z" transform="translate(144.06285 0)"/><g class="cls-10"><path class="cls-11" d="M1023.23388,1539.03108S446.7151,1905.2757,1025,2232c274.65957,155.17949,8-8,8-8S1374.46843,1801.01481,1023.23388,1539.03108Z" transform="translate(144.06285 0)"/></g><g id="logo-bcg-footer-white"><g class="cls-12"><g class="cls-6"><path class="cls-3" d="M57.70869,2896.56681a2.851,2.851,0,0,0,.13615-.99242,3.0995,3.0995,0,0,0-3.00994-2.89022c-12.83069.70507-35.57461,31.98359-35.57461,38.79737,0,5.44371,10.15494,8.84064,18.08179,10.39543l-.01051-.04418a.07778.07778,0,0,0,.05955.05371c1.97634.3861,3.81233.65786,5.31508.81767,5.02223.53421,8.02493-16.27244,10.27917-26.822a16.30763,16.30763,0,0,0-5.55982,3.96579c-2.51906,2.73474-5.75948,9.29191-5.75014,9.25359.41941-1.70378,3.683-14.20076,10.54959-20.79843a13.92124,13.92124,0,0,0,3.753-5.54744,10.93318,10.93318,0,0,0,.68143-1.90429l.6798-2.66A12.64789,12.64789,0,0,1,57.70869,2896.56681Zm-1.619.23906c.06842-.01754.14735-.03941.2118-.05543C56.237,2896.76646,56.15807,2896.78833,56.08965,2896.80587Zm-3.63532,1.21568c.51422-.21005,1.0121-.40277,1.47028-.56215C53.4662,2897.61878,52.96832,2897.8115,52.45433,2898.02155ZM35.11,2925.24442c-.00934.49329.01191,1.01732.01915,1.52728C35.12216,2926.262,35.10068,2925.73771,35.11,2925.24442Zm1.347,12.88395c.13544.64314.31035,1.32135.468,1.98441C36.76736,2939.44994,36.59245,2938.77151,36.457,2938.12837Zm-.64944-3.51863c.09621.60957.22955,1.25314.34679,1.882C36.03712,2935.86288,35.90378,2935.21931,35.80757,2934.60974Zm-.432-3.31876c.06352.62279.16347,1.28043.25011,1.9253C35.53878,2932.57141,35.43883,2931.91377,35.37554,2931.291Zm-.22792-3.11953c.02639.61195.08734,1.2579.13778,1.89324C35.235,2929.42935,35.174,2928.78318,35.14762,2928.17145Zm1.80727-13.90474c.1198-.34691.23049-.70659.3601-1.04028C37.18538,2913.56012,37.07469,2913.9198,36.95489,2914.26671Zm-.66229,2.18493c.10182-.38567.19336-.78411.30663-1.15527C36.486,2915.66753,36.39442,2916.066,36.2926,2916.45164Zm-.50815,2.25141c.07449-.39173.13708-.79732.223-1.1754C35.92153,2917.906,35.85894,2918.31132,35.78445,2918.70305Zm-.3949,2.60351c.05348-.46124.09505-.93569.16347-1.38025C35.48483,2920.37087,35.4428,2920.8451,35.38955,2921.30656Zm-.21227,2.605c.02358-.47337.03386-.961.07262-1.41858C35.21137,2922.95056,35.2011,2923.43822,35.17728,2923.91159Zm5.97736-17.48054c-.18659.23863-.36313.49935-.54435.74924C40.79174,2906.9304,40.96805,2906.66968,41.15464,2906.43105Zm-3.0132,4.87939c-.13591.28454-.255.59333-.38369.8887C37.88643,2911.90377,38.00576,2911.5952,38.14144,2911.31044Zm.92477-1.7683c-.15787.2761-.301.57579-.45188.86336C38.76519,2910.11793,38.90834,2909.81824,39.06621,2909.54214Zm1.0086-1.62408c-.18262.27155-.35262.56648-.52847.85059C39.72219,2908.48454,39.892,2908.18939,40.07481,2907.91806Zm3.40016-4.07385c-.23.22413-.45374.46969-.68.70724C43.02123,2904.3139,43.24494,2904.06834,43.475,2903.84421Zm-1.18258,1.23062c-.20247.225-.3963.47164-.59433.70832C41.89609,2905.54647,42.09015,2905.29982,42.29239,2905.07483Zm7.64008-5.87939c.27743-.1453.55579-.29234.826-.42313C50.48826,2898.9031,50.2099,2899.05014,49.93247,2899.19544Zm-1.00347.5537c.22-.12646.44183-.25963.65878-.377C49.37083,2899.48951,49.149,2899.62268,48.929,2899.74914Zm-.968.58272c.13988-.08791.28116-.18493.42035-.26916C48.24243,2900.14693,48.10114,2900.24373,47.961,2900.33186Zm-1.092.72218c.09435-.06561.18916-.13967.28327-.20355C47.05821,2900.91437,46.9634,2900.98821,46.86905,2901.054Zm-1.74141,1.32373c.26319-.21654.52637-.4385.79072-.63988C45.65378,2901.93949,45.39106,2902.161,45.12764,2902.37777Zm-1.23069,1.07991c.26319-.24556.52544-.49567.79189-.72456C44.42239,2902.962,44.16014,2903.21212,43.89695,2903.45768Zm13.70735-6.98009s-.05581.0091-.13848.02339C57.54826,2896.48669,57.6043,2896.47759,57.6043,2896.47759Z" transform="translate(144.06285 0)"/><path class="cls-3" d="M-17.59569,2932.04413c0-6.81379-22.74392-38.09209-35.57437-38.79716a3.09954,3.09954,0,0,0-3.01017,2.89,2.85823,2.85823,0,0,0,.13615.99264,12.60125,12.60125,0,0,1,.36944,1.6243l.67979,2.66024a10.92253,10.92253,0,0,0,.68167,1.90429,13.91993,13.91993,0,0,0,3.75278,5.54722c6.86687,6.59767,10.13018,19.09466,10.5496,20.79864.00934.03812-3.23109-6.51885-5.74991-9.25358a16.30994,16.30994,0,0,0-5.56-3.966c2.25424,10.5496,5.25693,27.35625,10.27917,26.822,1.50275-.15981,3.33874-.43136,5.31508-.81767a.07757.07757,0,0,0,.05932-.05349c-.004.01494-.00631.029-.01028.044C-27.75039,2940.88476-17.59569,2937.48805-17.59569,2932.04413ZM-52.26,2898.022a29.64093,29.64093,0,0,1,3.06388,1.26591A29.66892,29.66892,0,0,0-52.26,2898.022Zm-2.37684-.709c.06445.016.14339.03789.21181.05543C-54.49346,2897.35091-54.5724,2897.32883-54.63685,2897.313Zm-1.30285-.27285s.056.0091.13848.02339C-55.88388,2897.04927-55.9397,2897.04017-55.9397,2897.04017Zm7.67184,2.71785c-.27743-.1453-.55579-.29233-.826-.42313C-48.82365,2899.46569-48.54529,2899.61272-48.26786,2899.758Zm1.00347.5537c-.22-.12646-.44184-.25985-.65878-.377C-47.70623,2900.05209-47.48438,2900.18526-47.26439,2900.31172Zm1.22952.75055c-.22769-.14682-.45631-.30057-.6819-.43721C-46.49095,2900.7617-46.26233,2900.91567-46.03487,2901.06227Zm1.56883,1.08532c-.34165-.25531-.68353-.505-1.02425-.73625C-45.14957,2901.64239-44.80769,2901.8925-44.466,2902.14759Zm.94112.74253c-.24357-.19922-.48644-.40516-.73117-.59138C-44.01159,2902.48518-43.76849,2902.6909-43.52492,2902.89012Zm1.47986,1.30165c-.32367-.30771-.6485-.61153-.97708-.89433C-42.69333,2903.58024-42.36873,2903.88384-42.04506,2904.19177Zm.99973,1.01082c-.25454-.26959-.50722-.54482-.76667-.79753C-41.55278,2904.65777-41.29987,2904.93278-41.04533,2905.20259Zm.41755.43483c.2431.27024.4771.56366.71389.8508C-40.15045,2906.20108-40.38468,2905.90766-40.62778,2905.63742Zm1.83646,2.3181c-.23119-.32525-.46005-.65656-.69988-.96319C-39.25137,2907.29918-39.02251,2907.63006-38.79132,2907.95552Zm2.314,3.91664c.14619.30663.2758.63815.41358.95756C-36.2015,2912.51053-36.33111,2912.179-36.4773,2911.87216Zm-.9243-1.76744c.17211.30122.329.62668.49274.94154C-37.07256,2910.73162-37.22949,2910.40594-37.4016,2910.10472Zm-1.00954-1.62538c.1999.2971.38672.61867.57845.93093C-38.02442,2909.09779-38.21124,2908.77644-38.41114,2908.47934Zm3.12086,6.35c-.12-.34691-.23049-.70659-.3601-1.04028C-35.52077,2914.1227-35.41008,2914.48238-35.29028,2914.82929Zm.66228,2.18493c-.10182-.38567-.19336-.78411-.30662-1.15526C-34.82136,2916.23011-34.72982,2916.62855-34.628,2917.01422Zm.50816,2.25141c-.0745-.39173-.13732-.79732-.223-1.1754C-34.25692,2918.46831-34.19434,2918.8739-34.11984,2919.26563Zm.37247,2.41317c-.04787-.39563-.0822-.80663-.14105-1.18991C-33.82957,2920.87217-33.79524,2921.28317-33.74737,2921.6788Zm.22606,2.62235c-.02242-.41273-.02989-.84149-.06352-1.2421C-33.5512,2923.45966-33.54373,2923.88842-33.52131,2924.30115Zm.05931,2.83608c.00444-.4424.02476-.90061.01658-1.33023C-33.43724,2926.23641-33.45779,2926.69483-33.462,2927.13723Zm-1.3311,11.55827c-.10719.50823-.24918,1.04786-.37014,1.56865C-35.04251,2939.74336-34.90029,2939.204-34.7931,2938.6955Zm.65014-3.52318c-.08664.54959-.209,1.13166-.31269,1.69685C-34.352,2936.304-34.2296,2935.72191-34.143,2935.17232Zm.43156-3.314c-.057.55933-.14876,1.1518-.22466,1.72911C-33.86016,2933.01013-33.76838,2932.41788-33.7114,2931.85833Zm.22839-3.1204c-.02079.48008-.07286.99112-.10836,1.48571C-33.55611,2929.72905-33.50356,2929.218-33.483,2928.73793Z" transform="translate(144.06285 0)"/><path class="cls-3" d="M76.62066,2983.15984c29.92256-13.21245,69.1068-.99091,69.1068-.99091-1.67112,12.08772-11.73194,19.01237-21.94222,22.95889a83.9436,83.9436,0,0,1-17.817,4.51755,2.11613,2.11613,0,0,1-2.17881-3.3049c1.747-2.23235,4.13367-5.49438,7.02847-9.968C117.22989,2986.463,76.62066,2983.15984,76.62066,2983.15984Z" transform="translate(144.06285 0)"/><path class="cls-3" d="M-74.95606,2983.15984s-40.609,3.30317-34.19727,13.21267c2.89481,4.47358,5.28146,7.73561,7.02847,9.968a2.116,2.116,0,0,1-2.17857,3.3049,83.94164,83.94164,0,0,1-17.8172-4.51755c-10.21028-3.94652-20.27087-10.87117-21.94222-22.95889C-144.06285,2982.16893-104.87861,2969.94739-74.95606,2983.15984Z" transform="translate(144.06285 0)"/><path class="cls-3" d="M24.39,3139.20209a8.11958,8.11958,0,0,1,.0787,1.07276c0,7.59291-10.59467,13.74818-23.66332,13.74818-13.06889,0-23.66309-6.15527-23.66309-13.74818a8.1586,8.1586,0,0,1,.07824-1.07276Z" transform="translate(144.06285 0)"/><path class="cls-3" d="M-66.11705,2975.99244c.00864-.008.01261-.01884.02148-.02685a159.96189,159.96189,0,0,1,12.79263-10.66827c.21718-.16414.41428-.31637.63916-.48485.03573-.02685.06562-.05023.10159-.07709l-.011.0104c8.949-6.70659,19.59621-13.11761,27.05274-12.55676,13.91005,1.04591,18.93509,4.88135,26.30965,6.38243v-.13274c7.393-1.49589,12.411-5.343,26.34211-6.39044,7.45652-.56085,18.10373,5.85016,27.05273,12.55675l-.011-.01039c.036.02685.06585.05024.10158.07709.22489.16847.422.3207.63917.48484a159.96543,159.96543,0,0,1,12.79262,10.66827c.00887.008.01284.01884.02148.02686,3.1636,2.45236,6.18848,11.66264-6.07591,18.93333-5.965,3.5366-11.78145,10.55-13.62211,12.8937-.37318.52382-.62842.89779-.62842.89779s.01331-.06973.01915-.10286l-.05418.07947L38.46324,2991.439c-.24847.43763-1.641,2.93222-3.6122,7.065-7.59174,16.01215-23.72941,56.80672-13.804,96.77624.58942,2.37311,1.24984,4.743,2.03028,7.10482.05745.17345.10159.348.16.52144,0,0-20.20338,4.93505-22.41558,25.26769v.33976c-.007-.068-.01518-.13491-.02242-.20247-.00234.02144-.00794.04006-.01.06171v-.15244c-.00911-.08207-.01752-.16479-.02733-.24665-2.39412-20.055-22.38826-24.92685-22.38826-24.92685.05839-.17345.10252-.348.16-.52143-.13638.25963-.22862.42789-.22862.42789.33464-.95128.62935-1.90646.92406-2.86164.46286-1.55608.94742-3.11087,1.33485-4.67107,9.92537-39.96953-6.2123-80.76409-13.804-96.77625-1.9712-4.13274-3.36372-6.62733-3.6122-7.065l-8.90322,17.11415-.05418-.07948c.00584.03314.01915.10286.01915.10286s-.25525-.374-.62842-.89779c-1.84067-2.34388-7.65713-9.35731-13.62235-12.8937C-72.30576,2987.65465-69.28088,2978.44459-66.11705,2975.99244Z" transform="translate(144.06285 0)"/><path class="cls-3" d="M-53.23966,3018.76665c6.54741-2.93547,13.36757,15.73779,18.61213,31.40044,4.34828,12.98638,2.71616,42.31535,2.03145,51.95915a11.52268,11.52268,0,0,0,1.23676,6.05025l8.2232,10.48659-2.22505-11.81574s19.0633,6.56432,19.15531,24.21074l-.11419-.00693.00046.00693-14.304-.861a7.53136,7.53136,0,0,1-4.9788-2.51733,35.162,35.162,0,0,1-3.317-4.79884c.05744.06735.1602.17367.28817.2958-7.77436-12.90734-17.26724-40.33527-21.13025-57.0748-4.90337-21.24819-15.2505-26.76011-17.76325-33.63972S-59.78729,3021.70191-53.23966,3018.76665Z" transform="translate(144.06285 0)"/><path class="cls-3" d="M7.93048,3131.05808l.00047-.00693-.1142.00693c.092-17.64642,19.15531-24.21074,19.15531-24.21074l-2.225,11.81574,8.2232-10.48659a11.52258,11.52258,0,0,0,1.23676-6.05025c-.6847-9.6438-2.31682-38.97277,2.03146-51.95915,5.24455-15.66265,12.06472-34.33591,18.61212-31.40044,6.54764,2.93526,16.79785,6.816,14.2851,13.69556s-12.85988,12.39153-17.76326,33.63972c-3.863,16.73953-13.35589,44.16746-21.13024,57.0748.128-.12213.23072-.22845.28817-.2958a35.16287,35.16287,0,0,1-3.317,4.79884,7.53136,7.53136,0,0,1-4.97881,2.51733Z" transform="translate(144.06285 0)"/></g></g></g></svg>