<svg id="Layer_1" data-name="Layer 1" xmlns="http://www.w3.org/2000/svg" xmlns:xlink="http://www.w3.org/1999/xlink" viewBox="0 0 1465.6307 5862.15845"><defs><style>.cls-1{fill:none;}.cls-2{fill:#fff;}.cls-3{fill:url(#linear-gradient);}.cls-4{clip-path:url(#clip-path);}.cls-5{opacity:0.47;}.cls-6{clip-path:url(#clip-path-2);}.cls-7{fill:#efefef;}.cls-8{fill:url(#linear-gradient-2);}</style><linearGradient id="linear-gradient" x1="768.7077" y1="5442.52607" x2="174.61688" y2="6036.61688" gradientUnits="userSpaceOnUse"><stop offset="0" stop-color="#5772b0"/><stop offset="0.47758" stop-color="#623d8b"/><stop offset="0.71335" stop-color="#552b6d"/><stop offset="0.98965" stop-color="#431344"/></linearGradient><clipPath id="clip-path" transform="translate(144.06285 0.15845)"><rect class="cls-1" x="0.76589" y="5559.19668" width="148.66373" height="278.11608" transform="translate(150.1955 11396.50945) rotate(-180)"/></clipPath><clipPath id="clip-path-2" transform="translate(144.06285 0.15845)"><rect class="cls-1" x="712.47327" y="221" width="308.52673" height="622.45042"/></clipPath><linearGradient id="linear-gradient-2" x1="1010.65332" y1="2680.51397" x2="1287.02408" y2="2201.82577" gradientTransform="matrix(0, -1, -1, 0, 3193.79396, 1231.5)" gradientUnits="userSpaceOnUse"><stop offset="0" stop-color="#5772b0"/><stop offset="0.27803" stop-color="#623d8b"/><stop offset="0.37484" stop-color="#5c357d"/><stop offset="0.62732" stop-color="#4e225e"/><stop offset="0.84125" stop-color="#46174b"/><stop offset="0.98965" stop-color="#431344"/></linearGradient></defs><title>desktop-about-contact-bcg</title><path class="cls-2" d="M.76589,1811.211s890.71593-340.97459,1020.99976-217.28311v954.31732H.76589Z" transform="translate(144.06285 0.15845)"/><path id="BCG-footer-purple" class="cls-3" d="M0,5537s1023.9995,70.34574,1023.99973,167.81046c.00027,114.24816-.26667,156.924-.26667,156.924L0,5862Z" transform="translate(144.06285 0.15845)"/><g id="logo-bcg-footer-white"><g class="cls-4"><g class="cls-5"><path class="cls-2" d="M57.70869,5581.56681a2.851,2.851,0,0,0,.13615-.99242,3.0995,3.0995,0,0,0-3.00994-2.89022c-12.83069.70507-35.57461,31.98359-35.57461,38.79737,0,5.44371,10.15494,8.84064,18.08179,10.39543l-.01051-.04418a.07778.07778,0,0,0,.05955.05371c1.97634.3861,3.81233.65786,5.31508.81767,5.02223.53421,8.02493-16.27244,10.27917-26.822a16.30763,16.30763,0,0,0-5.55982,3.96579c-2.51906,2.73474-5.75948,9.29191-5.75014,9.25359.41941-1.70378,3.683-14.20076,10.54959-20.79843a13.92124,13.92124,0,0,0,3.753-5.54744,10.93318,10.93318,0,0,0,.68143-1.90429l.6798-2.66A12.64789,12.64789,0,0,1,57.70869,5581.56681Zm-1.619.23906c.06842-.01754.14735-.03941.2118-.05543C56.237,5581.76646,56.15807,5581.78833,56.08965,5581.80587Zm-3.63532,1.21568c.51422-.21005,1.0121-.40277,1.47028-.56215C53.4662,5582.61878,52.96832,5582.8115,52.45433,5583.02155ZM35.11,5610.24442c-.00934.49329.01191,1.01732.01915,1.52728C35.12216,5611.262,35.10068,5610.73771,35.11,5610.24442Zm1.347,12.884c.13544.64314.31035,1.32135.468,1.98441C36.76736,5624.44994,36.59245,5623.77151,36.457,5623.12837Zm-.64944-3.51863c.09621.60957.22955,1.25314.34679,1.882C36.03712,5620.86288,35.90378,5620.21931,35.80757,5619.60974Zm-.432-3.31876c.06352.62279.16347,1.28043.25011,1.9253C35.53878,5617.57141,35.43883,5616.91377,35.37554,5616.291Zm-.22792-3.11953c.02639.612.08734,1.2579.13778,1.89324C35.235,5614.42935,35.174,5613.78318,35.14762,5613.17145Zm1.80727-13.90474c.1198-.34691.23049-.70659.3601-1.04028C37.18538,5598.56012,37.07469,5598.9198,36.95489,5599.26671Zm-.66229,2.18493c.10182-.38567.19336-.78411.30663-1.15527C36.486,5600.66753,36.39442,5601.066,36.2926,5601.45164Zm-.50815,2.25141c.07449-.39173.13708-.79732.223-1.1754C35.92153,5602.906,35.85894,5603.31132,35.78445,5603.70305Zm-.3949,2.60351c.05348-.46124.09505-.93569.16347-1.38025C35.48483,5605.37087,35.4428,5605.8451,35.38955,5606.30656Zm-.21227,2.605c.02358-.47337.03386-.961.07262-1.41858C35.21137,5607.95056,35.2011,5608.43822,35.17728,5608.91159Zm5.97736-17.48054c-.18659.23863-.36313.49935-.54435.74924C40.79174,5591.9304,40.96805,5591.66968,41.15464,5591.43105Zm-3.0132,4.87939c-.13591.28454-.255.59333-.38369.8887C37.88643,5596.90377,38.00576,5596.5952,38.14144,5596.31044Zm.92477-1.7683c-.15787.2761-.301.57579-.45188.86336C38.76519,5595.11793,38.90834,5594.81824,39.06621,5594.54214Zm1.0086-1.62408c-.18262.27155-.35262.56648-.52847.85059C39.72219,5593.48454,39.892,5593.18939,40.07481,5592.91806Zm3.40016-4.07385c-.23.22413-.45374.46969-.68.70724C43.02123,5589.3139,43.24494,5589.06834,43.475,5588.84421Zm-1.18258,1.23062c-.20247.225-.3963.47164-.59433.70832C41.89609,5590.54647,42.09015,5590.29982,42.29239,5590.07483Zm7.64008-5.87939c.27743-.1453.55579-.29234.826-.42313C50.48826,5583.9031,50.2099,5584.05014,49.93247,5584.19544Zm-1.00347.5537c.22-.12646.44183-.25963.65878-.377C49.37083,5584.48951,49.149,5584.62268,48.929,5584.74914Zm-.968.58272c.13988-.08791.28116-.18493.42035-.26916C48.24243,5585.14693,48.10114,5585.24373,47.961,5585.33186Zm-1.092.72218c.09435-.06561.18916-.13967.28327-.20355C47.05821,5585.91437,46.9634,5585.98821,46.86905,5586.054Zm-1.74141,1.32373c.26319-.21654.52637-.4385.79072-.63988C45.65378,5586.93949,45.39106,5587.161,45.12764,5587.37777Zm-1.23069,1.07991c.26319-.24556.52544-.49567.79189-.72456C44.42239,5587.962,44.16014,5588.21212,43.89695,5588.45768Zm13.70735-6.98009s-.05581.0091-.13848.02339C57.54826,5581.48669,57.6043,5581.47759,57.6043,5581.47759Z" transform="translate(144.06285 0.15845)"/><path class="cls-2" d="M-17.59569,5617.04413c0-6.81379-22.74392-38.09209-35.57437-38.79716a3.09954,3.09954,0,0,0-3.01017,2.89,2.85823,2.85823,0,0,0,.13615.99264,12.60125,12.60125,0,0,1,.36944,1.6243l.67979,2.66024a10.92253,10.92253,0,0,0,.68167,1.90429,13.91993,13.91993,0,0,0,3.75278,5.54722c6.86687,6.59767,10.13018,19.09466,10.5496,20.79864.00934.03812-3.23109-6.51885-5.74991-9.25358a16.30994,16.30994,0,0,0-5.56-3.966c2.25424,10.5496,5.25693,27.35625,10.27917,26.822,1.50275-.15981,3.33874-.43136,5.31508-.81767a.07757.07757,0,0,0,.05932-.05349c-.004.01494-.00631.029-.01028.044C-27.75039,5625.88476-17.59569,5622.48805-17.59569,5617.04413ZM-52.26,5583.022a29.64093,29.64093,0,0,1,3.06388,1.26591A29.66892,29.66892,0,0,0-52.26,5583.022Zm-2.37684-.709c.06445.016.14339.03789.21181.05543C-54.49346,5582.35091-54.5724,5582.32883-54.63685,5582.313Zm-1.30285-.27285s.056.0091.13848.02339C-55.88388,5582.04927-55.9397,5582.04017-55.9397,5582.04017Zm7.67184,2.71785c-.27743-.1453-.55579-.29233-.826-.42313C-48.82365,5584.46569-48.54529,5584.61272-48.26786,5584.758Zm1.00347.5537c-.22-.12646-.44184-.25985-.65878-.377C-47.70623,5585.05209-47.48438,5585.18526-47.26439,5585.31172Zm1.22952.75055c-.22769-.14682-.45631-.30057-.6819-.43721C-46.49095,5585.7617-46.26233,5585.91567-46.03487,5586.06227Zm1.56883,1.08532c-.34165-.25531-.68353-.505-1.02425-.73625C-45.14957,5586.64239-44.80769,5586.8925-44.466,5587.14759Zm.94112.74253c-.24357-.19922-.48644-.40516-.73117-.59138C-44.01159,5587.48518-43.76849,5587.6909-43.52492,5587.89012Zm1.47986,1.30165c-.32367-.30771-.6485-.61153-.97708-.89433C-42.69333,5588.58024-42.36873,5588.88384-42.04506,5589.19177Zm.99973,1.01082c-.25454-.26959-.50722-.54482-.76667-.79753C-41.55278,5589.65777-41.29987,5589.93278-41.04533,5590.20259Zm.41755.43483c.2431.27024.4771.56366.71389.8508C-40.15045,5591.20108-40.38468,5590.90766-40.62778,5590.63742Zm1.83646,2.3181c-.23119-.32525-.46005-.65656-.69988-.96319C-39.25137,5592.29918-39.02251,5592.63006-38.79132,5592.95552Zm2.314,3.91664c.14619.30663.2758.63815.41358.95756C-36.2015,5597.51053-36.33111,5597.179-36.4773,5596.87216Zm-.9243-1.76744c.17211.30122.329.62668.49274.94154C-37.07256,5595.73162-37.22949,5595.40594-37.4016,5595.10472Zm-1.00954-1.62538c.1999.2971.38672.61867.57845.93093C-38.02442,5594.09779-38.21124,5593.77644-38.41114,5593.47934Zm3.12086,6.34995c-.12-.34691-.23049-.70659-.3601-1.04028C-35.52077,5599.1227-35.41008,5599.48238-35.29028,5599.82929Zm.66228,2.18493c-.10182-.38567-.19336-.78411-.30662-1.15526C-34.82136,5601.23011-34.72982,5601.62855-34.628,5602.01422Zm.50816,2.25141c-.0745-.39173-.13732-.79732-.223-1.1754C-34.25692,5603.46831-34.19434,5603.8739-34.11984,5604.26563Zm.37247,2.41317c-.04787-.39563-.0822-.80663-.14105-1.18991C-33.82957,5605.87217-33.79524,5606.28317-33.74737,5606.6788Zm.22606,2.62235c-.02242-.41273-.02989-.84149-.06352-1.2421C-33.5512,5608.45966-33.54373,5608.88842-33.52131,5609.30115Zm.05931,2.83608c.00444-.4424.02476-.90061.01658-1.33023C-33.43724,5611.23641-33.45779,5611.69483-33.462,5612.13723Zm-1.3311,11.55827c-.10719.50823-.24918,1.04786-.37014,1.56865C-35.04251,5624.74336-34.90029,5624.204-34.7931,5623.6955Zm.65014-3.52318c-.08664.54959-.209,1.13166-.31269,1.69685C-34.352,5621.304-34.2296,5620.72191-34.143,5620.17232Zm.43156-3.314c-.057.55933-.14876,1.1518-.22466,1.72911C-33.86016,5618.01013-33.76838,5617.41788-33.7114,5616.85833Zm.22839-3.1204c-.02079.48008-.07286.99112-.10836,1.48571C-33.55611,5614.72905-33.50356,5614.218-33.483,5613.73793Z" transform="translate(144.06285 0.15845)"/><path class="cls-2" d="M76.62066,5668.15984c29.92256-13.21245,69.1068-.99091,69.1068-.99091-1.67112,12.08772-11.73194,19.01237-21.94222,22.95889a83.9436,83.9436,0,0,1-17.817,4.51755,2.11613,2.11613,0,0,1-2.17881-3.3049c1.747-2.23235,4.13367-5.49438,7.02847-9.968C117.22989,5671.463,76.62066,5668.15984,76.62066,5668.15984Z" transform="translate(144.06285 0.15845)"/><path class="cls-2" d="M-74.95606,5668.15984s-40.609,3.30317-34.19727,13.21267c2.89481,4.47358,5.28146,7.73561,7.02847,9.968a2.116,2.116,0,0,1-2.17857,3.3049,83.94164,83.94164,0,0,1-17.8172-4.51755c-10.21028-3.94652-20.27087-10.87117-21.94222-22.95889C-144.06285,5667.16893-104.87861,5654.94739-74.95606,5668.15984Z" transform="translate(144.06285 0.15845)"/><path class="cls-2" d="M24.39,5824.20209a8.11958,8.11958,0,0,1,.0787,1.07276c0,7.59291-10.59467,13.74818-23.66332,13.74818-13.06889,0-23.66309-6.15527-23.66309-13.74818a8.1586,8.1586,0,0,1,.07824-1.07276Z" transform="translate(144.06285 0.15845)"/><path class="cls-2" d="M-66.11705,5660.99244c.00864-.008.01261-.01884.02148-.02685a159.96189,159.96189,0,0,1,12.79263-10.66827c.21718-.16414.41428-.31637.63916-.48485.03573-.02685.06562-.05023.10159-.07709l-.011.0104c8.949-6.70659,19.59621-13.11761,27.05274-12.55676,13.91005,1.04591,18.93509,4.88135,26.30965,6.38243v-.13274c7.393-1.49589,12.411-5.343,26.34211-6.39044,7.45652-.56085,18.10373,5.85016,27.05273,12.55675l-.011-.01039c.036.02685.06585.05024.10158.07709.22489.16847.422.3207.63917.48484a159.96543,159.96543,0,0,1,12.79262,10.66827c.00887.008.01284.01884.02148.02686,3.1636,2.45236,6.18848,11.66264-6.07591,18.93333-5.965,3.5366-11.78145,10.55-13.62211,12.8937-.37318.52382-.62842.89779-.62842.89779s.01331-.06973.01915-.10286l-.05418.07947L38.46324,5676.439c-.24847.43763-1.641,2.93222-3.6122,7.065-7.59174,16.01215-23.72941,56.80672-13.804,96.77624.58942,2.37311,1.24984,4.743,2.03028,7.10482.05745.17345.10159.348.16.52144,0,0-20.20338,4.93505-22.41558,25.26769v.33976c-.007-.068-.01518-.13491-.02242-.20247-.00234.02144-.00794.04006-.01.06171v-.15244c-.00911-.08207-.01752-.16479-.02733-.24665-2.39412-20.055-22.38826-24.92685-22.38826-24.92685.05839-.17345.10252-.348.16-.52143-.13638.25963-.22862.42789-.22862.42789.33464-.95128.62935-1.90646.92406-2.86164.46286-1.55608.94742-3.11087,1.33485-4.67107,9.92537-39.96953-6.2123-80.76409-13.804-96.77625-1.9712-4.13274-3.36372-6.62733-3.6122-7.065l-8.90322,17.11415-.05418-.07948c.00584.03314.01915.10286.01915.10286s-.25525-.374-.62842-.89779c-1.84067-2.34388-7.65713-9.35731-13.62235-12.8937C-72.30576,5672.65465-69.28088,5663.44459-66.11705,5660.99244Z" transform="translate(144.06285 0.15845)"/><path class="cls-2" d="M-53.23966,5703.76665c6.54741-2.93547,13.36757,15.73779,18.61213,31.40044,4.34828,12.98638,2.71616,42.31535,2.03145,51.95915a11.52268,11.52268,0,0,0,1.23676,6.05025l8.2232,10.48659-2.22505-11.81574s19.0633,6.56432,19.15531,24.21074l-.11419-.00693.00046.00693-14.304-.861a7.53136,7.53136,0,0,1-4.9788-2.51733,35.162,35.162,0,0,1-3.317-4.79884c.05744.06735.1602.17367.28817.2958-7.77436-12.90734-17.26724-40.33527-21.13025-57.0748-4.90337-21.24819-15.2505-26.76011-17.76325-33.63972S-59.78729,5706.70191-53.23966,5703.76665Z" transform="translate(144.06285 0.15845)"/><path class="cls-2" d="M7.93048,5816.05808l.00047-.00693-.1142.00693c.092-17.64642,19.15531-24.21074,19.15531-24.21074l-2.225,11.81574,8.2232-10.48659a11.52258,11.52258,0,0,0,1.23676-6.05025c-.6847-9.6438-2.31682-38.97277,2.03146-51.95915,5.24455-15.66265,12.06472-34.33591,18.61212-31.40044,6.54764,2.93526,16.79785,6.816,14.2851,13.69556s-12.85988,12.39153-17.76326,33.63972c-3.863,16.73953-13.35589,44.16746-21.13024,57.0748.128-.12213.23072-.22845.28817-.2958a35.16287,35.16287,0,0,1-3.317,4.79884,7.53136,7.53136,0,0,1-4.97881,2.51733Z" transform="translate(144.06285 0.15845)"/></g></g></g><g id="BCG-logo-white"><g class="cls-6"><path class="cls-7" d="M903.59143,274.7023l1.41081,5.9534a25.75657,25.75657,0,0,0,1.4142,4.262c2.51192,5.823,3.24616,7.70879,7.78876,12.41568,14.25056,14.76622,21.0235,42.73568,21.89392,46.54888.01939.08578-6.70557-14.58981-11.93346-20.71042-5.03548-5.89573-11.58984-9.13462-11.53847-8.87582,4.67829,23.611,10.90988,61.22592,21.3327,60.0303,3.1187-.35767,6.929-.9659,11.03056-1.83a.1666.1666,0,0,0,.12359-.12019c-.00824.03393-.01357.06494-.02181.09887,16.45085-3.47977,37.52572-11.08242,37.52572-23.266,0-15.2499-47.20121-85.25423-73.82916-86.83224a6.68437,6.68437,0,0,0-6.24662,6.46858,6.84755,6.84755,0,0,0,.28255,2.22114A30.21025,30.21025,0,0,1,903.59143,274.7023Zm2.15377-3.22484c.13377.03586.29758.08481.43958.12407C906.04278,271.56227,905.879,271.51332,905.7452,271.47746Zm4.93274,1.58673c.95088.3567,1.98414.788,3.05134,1.25815C912.66257,273.85223,911.6293,273.42089,910.67794,273.06419Zm39.0068,65.60374c.015-1.14134.05913-2.31419.03974-3.41821C949.74387,336.35374,949.69928,337.52707,949.68474,338.66793Zm-3.72693,29.85861c.32713-1.484.69013-3.0019.97123-4.4413C946.64794,365.52464,946.28494,367.043,945.95781,368.52654Zm1.59933-8.10426c.24329-1.40742.52-2.84779.7197-4.21207C948.07717,357.57449,947.80043,359.01486,947.55714,360.42228Zm1.09724-7.33077c.17981-1.44328.38724-2.91515.51906-4.309C949.0421,350.17636,948.83467,351.64823,948.65438,353.09151Zm.70613-7.05355c.10469-1.422.23118-2.86766.28594-4.23727C949.59169,343.16982,949.4652,344.616,949.36051,346.038Zm-4.21206-37.68566c.269.74684.4987,1.55184.74732,2.32825C945.64715,309.90414,945.41743,309.09914,945.14845,308.3523Zm1.48544,4.63274c.23505.83069.425,1.72244.63634,2.58559C947.05893,314.70748,946.86894,313.81573,946.63389,312.985Zm1.2281,4.9938c.17835.8462.30823,1.75394.46283,2.63067C948.17022,319.73278,948.04034,318.82552,947.862,317.97884Zm.94312,5.36844c.142.995.22827,2.05684.33925,3.08914C949.03386,325.40363,948.94662,324.34226,948.80511,323.34728Zm.62907,5.74452c.08045,1.02405.10178,2.11548.15072,3.17492C949.53547,331.20728,949.51415,330.11585,949.43418,329.0918ZM938.3096,294.82048c-.37609-.55929-.74248-1.1428-1.12972-1.67688C937.56712,293.67768,937.933,294.26119,938.3096,294.82048Zm5.92,11.23266c-.267-.66106-.51421-1.35217-.79628-1.989C943.71486,304.70146,943.96252,305.39208,944.22956,306.05314Zm-1.77769-4.01433c-.31308-.64361-.61017-1.31436-.93779-1.93229C941.8417,300.72445,942.13879,301.3952,942.45187,302.03881Zm-1.93422-3.66345c-.36494-.63585-.71777-1.29594-1.09676-1.90369C939.80037,297.07893,940.15271,297.73951,940.51765,298.37536Zm-6.74193-9.4385c-.46962-.53165-.93391-1.08124-1.41129-1.58285C932.84181,287.85562,933.3061,288.40521,933.77572,288.93686Zm2.27639,2.75668c-.411-.52972-.81324-1.08174-1.23343-1.58528C935.23839,290.6118,935.64113,291.16382,936.05211,291.69354Zm-18.80333-15.69093c.56074.29273,1.13844.6218,1.7142.947C918.38722,276.62441,917.80952,276.29534,917.24878,276.00261Zm2.42954,1.34247c.45023.26268.91065.56074,1.36718.84377C920.589,277.90582,920.12855,277.60776,919.67832,277.34508Zm2.50368,1.54554c.28885.18853.58206.40565.87237.60242C922.76358,279.29578,922.47037,279.07915,922.182,278.89062Zm2.5507,1.76314c.19531.143.39208.30872.58787.45557C925.12478,280.962,924.928,280.79674,924.7327,280.65376Zm2.56087,1.98609c.54862.45072,1.09482.94748,1.641,1.43213C928.3879,283.58685,927.84268,283.09105,927.29357,282.63985Zm2.55167,2.22743c.553.51228,1.09724,1.072,1.64344,1.62163C930.94248,285.93932,930.39822,285.37956,929.84524,284.86728Zm-26.51649-13.94813c-.17156-.032-.28739-.05234-.28739-.05234S903.15767,270.88716,903.32875,270.91915Z" transform="translate(144.06285 0.15845)"/><path class="cls-7" d="M1096.63209,373.73407c-.00823-.03344-.01308-.06494-.02132-.09838a.16607.16607,0,0,0,.1231.11971c4.10157.86461,7.91186,1.47235,11.03056,1.83,10.42282,1.19563,16.65441-36.41927,21.3327-60.0303.05138-.2588-6.50347,2.98058-11.539,8.87631-5.2274,6.12061-11.95236,20.79571-11.933,20.71042.87043-3.81369,7.64288-31.78315,21.89392-46.54937,4.5426-4.70689,5.27635-6.59216,7.78828-12.4152a25.72743,25.72743,0,0,0,1.41468-4.262l1.41081-5.95389a30.09,30.09,0,0,1,.76671-3.63533,6.86522,6.86522,0,0,0,.28255-2.22162,6.68435,6.68435,0,0,0-6.2471-6.4681c-26.62747,1.578-73.82868,71.58186-73.82868,86.83175C1059.10637,362.65214,1080.18076,370.25431,1096.63209,373.73407Zm28.05573-96.57752a59.08308,59.08308,0,0,1,6.35856-2.83324A59.13533,59.13533,0,0,0,1124.68782,277.15655Zm10.85172-4.29591c.142-.03925.30582-.0882.43958-.12407C1135.84536,272.772,1135.68155,272.82139,1135.53954,272.86064Zm2.856-.68238c.17108-.032.28739-.05234.28739-.05234S1138.56713,272.14627,1138.39557,272.17826Zm-13.92,5.08346c-.56074.29273-1.13843.6218-1.71419.947C1123.33711,277.88352,1123.9148,277.55445,1124.47554,277.26172Zm-2.42953,1.34247c-.45024.2622-.91065.56074-1.36719.84377C1121.13536,279.16493,1121.59577,278.86687,1122.046,278.60419Zm-2.50369,1.54506c-.46817.30581-.94264.64991-1.41517.9785C1118.5992,280.79964,1119.07367,280.45506,1119.54232,280.14925ZM1116.997,281.909c-.7071.5176-1.41663,1.0764-2.12567,1.6478C1115.58033,282.98589,1116.28986,282.42612,1116.997,281.909Zm-2.56136,1.98608c-.50791.4168-1.012.8777-1.51743,1.32357C1113.42365,284.77278,1113.92817,284.31236,1114.4356,283.89508Zm-2.56088,2.23519c-.6819.63295-1.356,1.31291-2.02776,2.0016C1110.51868,287.4427,1111.19234,286.76322,1111.87472,286.13027Zm-2.51144,2.479c-.53844.56559-1.06283,1.18157-1.59109,1.785C1108.30045,289.79033,1108.82532,289.17483,1109.36328,288.60924Zm-3.93921,4.66231c.49143-.64265.977-1.29934,1.48157-1.90418C1106.40112,291.97221,1105.915,292.6289,1105.42407,293.27155Zm-.87721,1.12825c-.49773.68626-.97268,1.42777-1.45248,2.15571C1103.57418,295.82709,1104.04913,295.08655,1104.54686,294.3998Zm-7.11316,13.06463c.28594-.71486.55492-1.45685.85831-2.14311C1097.98862,306.00807,1097.71964,306.75006,1097.4337,307.46443Zm1.75394-3.99155c.33973-.70468.66542-1.4331,1.0226-2.10725C1099.85306,302.03978,1099.52737,302.76869,1099.18764,303.47288Zm1.91726-3.66151c.3979-.69886.78561-1.41856,1.20047-2.0835C1101.89051,298.39281,1101.5028,299.112,1101.1049,299.81137Zm-4.529,9.8c-.269.74685-.49822,1.55184-.74733,2.32825C1096.07717,311.16325,1096.3069,310.35826,1096.57588,309.61141Zm-1.48545,4.63274c-.23505.83069-.425,1.72244-.63634,2.5856C1094.6654,315.96659,1094.85538,315.07484,1095.09043,314.24415Zm-1.22809,4.99381c-.17787.84619-.30824,1.75393-.46284,2.63066C1093.5541,320.99189,1093.684,320.08415,1093.86234,319.238Zm-.94313,5.36843c-.12213.85782-.19337,1.77768-.29272,2.66313C1092.72584,326.38407,1092.79708,325.46421,1092.91921,324.60639Zm-.63,5.75227c-.06979.8966-.08529,1.8562-.13182,2.77994C1092.20388,332.21486,1092.21938,331.25526,1092.28917,330.35866Zm-.28933,6.15017c-.017.96154.0252,1.98705.03441,2.97719C1092.02553,338.49588,1091.98288,337.46989,1091.99984,336.50883Zm3.56506,32.35648c-.25105-1.16558-.54571-2.37332-.76816-3.51078C1095.01919,366.49248,1095.31434,367.69973,1095.5649,368.86531Zm-1.46848-7.59829c-.21518-1.26493-.46914-2.56766-.64894-3.7977C1093.62728,358.69936,1093.88124,360.00209,1094.09642,361.267Zm-1.07834-7.34483c-.15751-1.29207-.348-2.61806-.46623-3.8699C1092.67011,351.30462,1092.86057,352.63012,1093.01808,353.92219Zm-.71534-7.5285c-.07366-1.10694-.18174-2.2507-.22487-3.32516C1092.12052,344.143,1092.22956,345.28675,1092.30274,346.39369Z" transform="translate(144.06285 0.15845)"/><path class="cls-7" d="M863.57608,464.87c-62.09926-29.57073-143.41961-2.21775-143.41961-2.21775,3.46813,27.05347,24.34769,42.55151,45.53742,51.3842A163.93191,163.93191,0,0,0,802.67,524.14713a4.69214,4.69214,0,0,0,4.52176-7.39668c-3.62564-4.99622-8.57874-12.29694-14.58642-22.30926C779.29841,472.26278,863.57608,464.87,863.57608,464.87Z" transform="translate(144.06285 0.15845)"/><path class="cls-7" d="M1178.14824,464.87s84.27718,7.3928,70.97072,29.57121c-6.00768,10.01232-10.96077,17.313-14.58642,22.30926a4.692,4.692,0,0,0,4.52127,7.39668,163.92822,163.92822,0,0,0,36.97662-10.1107c21.18973-8.83269,42.0688-24.33073,45.53742-51.3842C1321.56785,462.65223,1240.2475,435.29925,1178.14824,464.87Z" transform="translate(144.06285 0.15845)"/><path class="cls-7" d="M971.9722,814.10748a19.57112,19.57112,0,0,0-.16333,2.40094c0,16.99365,21.98746,30.76974,49.10927,30.76974,27.12229,0,49.10878-13.77609,49.10878-30.76974a19.666,19.666,0,0,0-.16236-2.40094Z" transform="translate(144.06285 0.15845)"/><path class="cls-7" d="M1159.80436,448.82865c-.01793-.01793-.02617-.04216-.04459-.0601a339.3571,339.3571,0,0,0-26.54895-23.87661c-.45073-.36736-.85977-.70807-1.32648-1.08512-.07415-.0601-.13619-.11244-.21082-.17254.00872.00727.014.016.02277.02327-18.57215-15.01-40.66865-29.35846-56.14343-28.10322-28.868,2.34084-39.29662,10.92491-54.60128,14.28448v-.29709c-15.343-3.34794-25.757-11.95818-54.66865-14.30241-15.47478-1.25524-37.57128,13.09322-56.14343,28.10321.00872-.00726.014-.016.02277-.02326-.07463.0601-.13667.11244-.21082.17254-.46671.377-.87575.71776-1.32648,1.08512A339.3571,339.3571,0,0,0,882.076,448.45353c-.01842.01793-.02666.04217-.04459.0601-6.56551,5.48862-12.84314,26.10211,12.60954,42.37461,12.37934,7.91526,24.45044,23.612,28.27043,28.85733.77446,1.17236,1.30418,2.00935,1.30418,2.00935s-.02762-.15606-.03974-.23021c.017.02762.11244.17787.11244.17787l18.47716-38.3031c.51566.97947,3.40561,6.5626,7.49652,15.81209,15.75538,35.83673,49.24642,127.13886,28.648,216.5945-1.22325,5.31124-2.59383,10.61522-4.21352,15.90126-.11923.3882-.21082.77883-.332,1.167,0,0,41.92874,11.0451,46.5198,56.5515v.76042c.01454-.15218.0315-.30194.04653-.45315.00485.048.01648.08966.02084.13813v-.3412c.0189-.18368.03635-.36881.0567-.552,4.9686-44.88508,46.4631-55.78867,46.4631-55.78867-.12116-.3882-.21276-.77883-.332-1.167.283.58109.47447.95766.47447.95766-.6945-2.12905-1.30612-4.26683-1.91774-6.4046-.96057-3.48268-1.96622-6.96244-2.77025-10.45432-20.59846-89.45564,12.89258-180.75777,28.648-216.5945,4.09091-9.24949,6.98086-14.83262,7.49652-15.81209l18.47716,38.3031s.09548-.15024.11244-.17787c-.01211.07415-.03974.23021-.03974.23021s.52972-.837,1.30419-2.00935c3.82-5.24582,15.89108-20.94256,28.2709-28.85733C1172.648,474.92979,1166.37035,454.31679,1159.80436,448.82865Z" transform="translate(144.06285 0.15845)"/><path class="cls-7" d="M1133.07948,544.56143c-13.58805-6.56987-27.74216,35.22268-38.62636,70.27719-9.02412,29.06475-5.63693,94.70581-4.21594,116.28956a27.51166,27.51166,0,0,1-2.56669,13.541l-17.06587,23.47,4.61771-26.44476s-39.56269,14.69158-39.75364,54.18594l.237-.01551-.001.01551,29.68559-1.927a15.272,15.272,0,0,0,10.33267-5.634,79.12132,79.12132,0,0,0,6.88393-10.74026c-.11922.15072-.33247.38868-.59806.662,16.13438-28.88786,35.83528-90.2742,43.85231-127.73885,10.17613-47.55549,31.64986-59.89169,36.86466-75.28893S1146.668,551.13082,1133.07948,544.56143Z" transform="translate(144.06285 0.15845)"/><path class="cls-7" d="M1006.13108,795.88039l-.001-.01551.237.01551c-.191-39.49436-39.75364-54.18594-39.75364-54.18594l4.61771,26.44476-17.06587-23.47a27.51178,27.51178,0,0,1-2.56669-13.541c1.421-21.58375,4.80818-87.22481-4.21594-116.28956-10.8842-35.05451-25.03831-76.84706-38.62636-70.27719-13.58852,6.56939-34.86113,15.25474-29.64633,30.652s26.68853,27.73344,36.86466,75.28893c8.017,37.46465,27.71793,98.851,43.85231,127.73885-.26559-.27334-.47883-.5113-.59806-.662a79.12132,79.12132,0,0,0,6.88393,10.74026,15.272,15.272,0,0,0,10.33267,5.634Z" transform="translate(144.06285 0.15845)"/></g></g><path class="cls-8" d="M385.68262-.15845s333.58148,284.21472,638.0317,220.97924l.2856-220.86427Z" transform="translate(144.06285 0.15845)"/><path class="cls-7" d="M-1,843s364,264,1024,125V2030S284,1738-1,1831Z" transform="translate(144.06285 0.15845)"/><path class="cls-7" d="M1016.81581,3104.55649S278.90267,3066.0158,2.53775,3748.468v882.67572S1007.521,5340.86085,1018,4972C1023,4796,1016.81581,3104.55649,1016.81581,3104.55649Z" transform="translate(144.06285 0.15845)"/></svg>