<?xml version="1.0" encoding="utf-8"?>
<!-- Generator: Adobe Illustrator 23.0.6, SVG Export Plug-In . SVG Version: 6.00 Build 0)  -->
<svg version="1.1" id="Layer_1" xmlns="http://www.w3.org/2000/svg" xmlns:xlink="http://www.w3.org/1999/xlink" x="0px" y="0px"
	 viewBox="0 0 50.2 50.2" style="enable-background:new 0 0 50.2 50.2;" xml:space="preserve">
<style type="text/css">
	.st0{fill:#CE0037;}
	.st1{fill:#FFFFFF;}
</style>
<title>facebook-icon_orange</title>
<path class="st0" d="M50.2,25.1C50.2,39,39,50.2,25.1,50.2C11.2,50.2,0,39,0,25.1C0,11.2,11.2,0,25.1,0c0,0,0,0,0,0
	C39,0,50.2,11.2,50.2,25.1z"/>
<path class="st1" d="M20.9,40.8h6.3V25.1h4.7l0.6-6.3h-5v-2.5c-0.1-0.7,0.4-1.4,1.1-1.5c0.1,0,0.2,0,0.3,0h3.5V9.4l-4.8,0
	c-5.4,0-6.6,4-6.6,6.6v2.8h-3.1v6.3h3.1L20.9,40.8z"/>
</svg>
