<svg id="Layer_1" data-name="Layer 1" xmlns="http://www.w3.org/2000/svg" viewBox="0 0 34.85041 34.85041"><defs><style>.cls-1,.cls-2{fill:#fff;}.cls-1{opacity:0.2;}</style></defs><title>instagram-icon_white</title><path class="cls-1" d="M530,540.5066a17.42521,17.42521,0,1,1-17.42448-17.42506A17.42572,17.42572,0,0,1,530,540.5066Z" transform="translate(-495.14959 -523.08154)"/><path class="cls-2" d="M519.25533,529.616H505.89288a4.21279,4.21279,0,0,0-4.20884,4.20884v13.36383a4.21279,4.21279,0,0,0,4.20884,4.20884h13.36245a4.214,4.214,0,0,0,4.21022-4.20884V533.82483A4.214,4.214,0,0,0,519.25533,529.616Zm1.20822,2.51141.48072-.00283v3.69124l-3.67847.0127-.01277-3.69117Zm-10.99712,6.14449a3.82558,3.82558,0,1,1-.726,2.23485A3.83056,3.83056,0,0,1,509.46643,538.27189Zm11.87767,8.91677a2.09031,2.09031,0,0,1-2.08877,2.08739H505.89288a2.08913,2.08913,0,0,1-2.08739-2.08739v-8.91677h3.25161a5.95656,5.95656,0,1,0,11.034,0h3.253Z" transform="translate(-495.14959 -523.08154)"/></svg>