<?xml version="1.0" encoding="utf-8"?>
<!-- Generator: Adobe Illustrator 23.0.6, SVG Export Plug-In . SVG Version: 6.00 Build 0)  -->
<svg version="1.1" id="Layer_1" xmlns="http://www.w3.org/2000/svg" xmlns:xlink="http://www.w3.org/1999/xlink" x="0px" y="0px"
	 viewBox="0 0 50.2 50.2" style="enable-background:new 0 0 50.2 50.2;" xml:space="preserve">
<style type="text/css">
	.st0{fill:#CE0037;}
	.st1{fill:#FFFFFF;}
</style>
<title>instagram-icon_orange</title>
<path class="st0" d="M50.2,25.1C50.2,39,39,50.2,25.1,50.2C11.2,50.2,0,39,0,25.1C0,11.2,11.2,0,25.1,0c0,0,0,0,0,0
	C39,0,50.2,11.2,50.2,25.1z"/>
<path class="st1" d="M34.7,9.4H15.5c-3.3,0-6.1,2.7-6.1,6.1v19.3c0,3.3,2.7,6.1,6.1,6.1h19.2c3.3,0,6.1-2.7,6.1-6.1V15.5
	C40.8,12.1,38.1,9.4,34.7,9.4z M36.5,13l0.7,0v5.3l-5.3,0l0-5.3L36.5,13z M20.6,21.9c1.8-2.5,5.2-3,7.7-1.2c2.5,1.8,3,5.2,1.2,7.7
	c-1.8,2.5-5.2,3-7.7,1.2c-1.4-1-2.3-2.7-2.3-4.5C19.6,23.9,19.9,22.8,20.6,21.9L20.6,21.9z M37.7,34.7c0,1.7-1.3,3-3,3H15.5
	c-1.7,0-3-1.3-3-3V21.9h4.7c-1.8,4.4,0.3,9.4,4.7,11.2c4.4,1.8,9.4-0.3,11.2-4.7c0.8-2.1,0.8-4.4,0-6.5h4.7L37.7,34.7z"/>
</svg>
