<svg id="Layer_1" data-name="Layer 1" xmlns="http://www.w3.org/2000/svg" viewBox="0 0 50.20284 50.20284"><defs><style>.cls-1{fill:#ff0037;}.cls-2{fill:#fff;}</style></defs><title>instagram-icon_orange</title><path class="cls-1" d="M537.43842,540.115a25.10142,25.10142,0,1,1-25.10037-25.1012A25.10216,25.10216,0,0,1,537.43842,540.115Z" transform="translate(-487.23558 -515.01382)"/><path class="cls-2" d="M521.96047,524.42685H502.71155a6.06862,6.06862,0,0,0-6.06294,6.06293v19.25091a6.06862,6.06862,0,0,0,6.06294,6.06293h19.24892a6.07032,6.07032,0,0,0,6.06492-6.06293V530.48978A6.07032,6.07032,0,0,0,521.96047,524.42685Zm1.74047,3.61774.69248-.00408v5.31732l-5.29891.0183-.01841-5.31721Zm-15.84161,8.85128a5.51083,5.51083,0,1,1-1.0459,3.21936A5.518,5.518,0,0,1,507.85933,536.89587Zm17.11006,12.84482a3.01114,3.01114,0,0,1-3.00892,3.00694H502.71155a3.00945,3.00945,0,0,1-3.00694-3.00694V536.89587h4.684a8.58056,8.58056,0,1,0,15.89474,0h4.686Z" transform="translate(-487.23558 -515.01382)"/></svg>