<svg id="Layer_1" data-name="Layer 1" xmlns="http://www.w3.org/2000/svg" viewBox="0 0 46.61761 46.61761"><defs><style>.cls-1{fill:#35aaa6;}.cls-2{fill:#fff;}</style></defs><title>instagram-icon_blue</title><path class="cls-1" d="M536.5,540.6685a23.30881,23.30881,0,1,1-23.30783-23.30861A23.30949,23.30949,0,0,1,536.5,540.6685Z" transform="translate(-489.88239 -517.35989)"/><path class="cls-2" d="M522.1274,526.10069H504.25315a5.63523,5.63523,0,0,0-5.63,5.63v17.87611a5.63523,5.63523,0,0,0,5.63,5.63H522.1274a5.63682,5.63682,0,0,0,5.6318-5.63V531.73064A5.63681,5.63681,0,0,0,522.1274,526.10069Zm1.61618,3.35938.643-.00378v4.93758l-4.92049.017-.01709-4.93748Zm-14.71028,8.21917a5.11728,5.11728,0,1,1-.9712,2.98945A5.12394,5.12394,0,0,1,509.0333,537.67924Zm15.88815,11.92751a2.79611,2.79611,0,0,1-2.79405,2.7922H504.25315a2.79453,2.79453,0,0,1-2.7922-2.7922V537.67924h4.34951a7.96779,7.96779,0,1,0,14.75962,0h4.35137Z" transform="translate(-489.88239 -517.35989)"/></svg>