<svg id="Layer_1" data-name="Layer 1" xmlns="http://www.w3.org/2000/svg" viewBox="0 0 47.84397 47.84397"><defs><style>.cls-1{fill:#ffd668;}.cls-2{fill:#fff;}</style></defs><title>instagram-icon_yellow</title><path class="cls-1" d="M536.5,540.42136a23.922,23.922,0,1,1-23.921-23.92179A23.92269,23.92269,0,0,1,536.5,540.42136Z" transform="translate(-488.65603 -516.49957)"/><path class="cls-2" d="M521.74931,525.47032H503.40483a5.78347,5.78347,0,0,0-5.77805,5.77805v18.34637a5.78348,5.78348,0,0,0,5.77805,5.77806h18.34448a5.7851,5.7851,0,0,0,5.77995-5.77806V531.24837A5.7851,5.7851,0,0,0,521.74931,525.47032Zm1.65869,3.44775.65994-.00388v5.06747l-5.04993.01744-.01754-5.06737Zm-15.09727,8.43539a5.2519,5.2519,0,1,1-.99675,3.0681A5.25878,5.25878,0,0,1,508.31073,537.35346Zm16.30612,12.24128a2.86966,2.86966,0,0,1-2.86754,2.86565H503.40483a2.868,2.868,0,0,1-2.86565-2.86565V537.35346h4.46394a8.17739,8.17739,0,1,0,15.1479,0h4.46583Z" transform="translate(-488.65603 -516.49957)"/></svg>