<svg id="Layer_1" data-name="Layer 1" xmlns="http://www.w3.org/2000/svg" viewBox="0 0 47.09612 47.09612"><defs><style>.cls-1{fill:#9cb72e;}.cls-2{fill:#fff;}</style></defs><title>instagram-icon_green</title><path class="cls-1" d="M536.5,540.21379a23.54806,23.54806,0,1,1-23.54708-23.54787A23.54875,23.54875,0,0,1,536.5,540.21379Z" transform="translate(-489.40388 -516.66592)"/><path class="cls-2" d="M521.97987,525.49644H503.92214a5.69308,5.69308,0,0,0-5.68774,5.68774v18.0596a5.69308,5.69308,0,0,0,5.68774,5.68774h18.05773a5.69467,5.69467,0,0,0,5.68961-5.68774v-18.0596A5.69467,5.69467,0,0,0,521.97987,525.49644Zm1.63277,3.39387.64963-.00383v4.98827l-4.971.01717-.01726-4.98817Zm-14.86128,8.30353a5.16981,5.16981,0,1,1-.98117,3.02014A5.17654,5.17654,0,0,1,508.75136,537.19384Zm16.05124,12.04994a2.82481,2.82481,0,0,1-2.82273,2.82086H503.92214a2.82322,2.82322,0,0,1-2.82086-2.82086V537.19384h4.39417a8.04957,8.04957,0,1,0,14.91112,0h4.396Z" transform="translate(-489.40388 -516.66592)"/></svg>