<svg id="Layer_1" data-name="Layer 1" xmlns="http://www.w3.org/2000/svg" xmlns:xlink="http://www.w3.org/1999/xlink" viewBox="0 0 582.52333 1537.15581"><defs><style>.cls-1{fill:none;}.cls-2{fill:url(#linear-gradient);}.cls-3{clip-path:url(#clip-path);}.cls-4{opacity:0.47;}.cls-5{fill:#fff;}.cls-6{fill:#efefef;}.cls-7{fill:url(#linear-gradient-2);}.cls-8{clip-path:url(#clip-path-2);}</style><linearGradient id="linear-gradient" x1="300.27647" y1="1373.14026" x2="68.20973" y2="1605.207" gradientUnits="userSpaceOnUse"><stop offset="0" stop-color="#5772b0"/><stop offset="0.47758" stop-color="#623d8b"/><stop offset="0.71335" stop-color="#552b6d"/><stop offset="0.98965" stop-color="#431344"/></linearGradient><clipPath id="clip-path" transform="translate(56.27456 0.15853)"><rect class="cls-1" x="0.29917" y="1418.71472" width="58.07177" height="108.6391" transform="translate(58.67012 2946.06855) rotate(-180)"/></clipPath><linearGradient id="linear-gradient-2" x1="829.49453" y1="2677.36098" x2="936.8481" y2="2491.41914" gradientTransform="matrix(0, -1, -1, 0, 2881.79396, 919.5)" gradientUnits="userSpaceOnUse"><stop offset="0" stop-color="#5772b0"/><stop offset="0.27803" stop-color="#623d8b"/><stop offset="0.37484" stop-color="#5c357d"/><stop offset="0.62732" stop-color="#4e225e"/><stop offset="0.84125" stop-color="#46174b"/><stop offset="0.98965" stop-color="#431344"/></linearGradient><clipPath id="clip-path-2" transform="translate(56.27456 0.15853)"><rect class="cls-1" x="265.65995" y="101.10774" width="131.99694" height="266.30286"/></clipPath></defs><title>mobile-contact-bcg</title><path id="BCG-footer-purple" class="cls-2" d="M0,1410.04414s399.99983,27.47881,399.99992,65.551c.00011,44.62819-.10416,61.29845-.10416,61.29845L0,1536.99728Z" transform="translate(56.27456 0.15853)"/><g id="logo-bcg-footer-white"><g class="cls-3"><g class="cls-4"><path class="cls-5" d="M22.54246,1427.45305a1.11376,1.11376,0,0,0,.05318-.38766,1.21073,1.21073,0,0,0-1.17575-1.129c-5.012.27541-13.89634,12.49359-13.89634,15.15522,0,2.12645,3.96677,3.45338,7.0632,4.06072l-.00411-.01726a.03041.03041,0,0,0,.02327.021c.772.15082,1.48919.257,2.0762.3194,1.96181.20868,3.13474-6.35642,4.0153-10.47736a6.3702,6.3702,0,0,0-2.1718,1.54914,21.19523,21.19523,0,0,0-2.24615,3.61468c.16383-.66554,1.43865-5.54717,4.12093-8.12439a5.438,5.438,0,0,0,1.466-2.167,4.27149,4.27149,0,0,0,.26618-.74387l.26555-1.03907A4.94014,4.94014,0,0,1,22.54246,1427.45305Zm-.63244.09339c.02673-.00685.05756-.0154.08274-.02166C21.96758,1427.531,21.93675,1427.53959,21.91,1427.54644Zm-1.42.47487c.20087-.082.39536-.15733.57433-.21959C20.88524,1427.864,20.69075,1427.93926,20.49,1428.02131Zm-6.77512,10.63393c-.00365.1927.00466.3974.00748.5966C13.7196,1439.05272,13.7112,1438.84794,13.71485,1438.65524Zm.52617,5.0328c.05291.25122.12123.51615.18281.77516C14.36225,1444.20428,14.29393,1443.93926,14.241,1443.688Zm-.25369-1.37447c.03759.23812.08967.48951.13547.73516C14.077,1442.80308,14.02492,1442.55169,13.98733,1442.31357Zm-.16876-1.29639c.02481.24328.06386.50017.0977.75207C13.88234,1441.51735,13.84329,1441.26046,13.81857,1441.01718Zm-.089-1.21856c.01031.239.03412.49136.05382.73954C13.76366,1440.29,13.73985,1440.03758,13.72954,1439.79862Zm.706-5.43154c.0468-.13551.09-.276.14067-.40636C14.52554,1434.09107,14.4823,1434.23157,14.4355,1434.36708Zm-.2587.85348c.03977-.15065.07553-.30629.11977-.45127C14.25233,1434.91427,14.21657,1435.06991,14.1768,1435.22056Zm-.1985.87946c.0291-.153.05355-.31145.08712-.45914C14.03185,1435.78865,14.0074,1435.947,13.9783,1436.1Zm-.15425,1.017c.02089-.18017.03712-.3655.06385-.53916C13.86126,1436.75152,13.84484,1436.93676,13.82405,1437.117Zm-.08292,1.01759c.00921-.18491.01322-.3754.02836-.55414C13.75444,1437.75921,13.75043,1437.9497,13.74113,1438.13461Zm2.3349-6.82834c-.07288.09322-.14185.19506-.21263.29268C15.93427,1431.50133,16.00315,1431.39949,16.076,1431.30627Zm-1.177,1.906c-.05309.11115-.09961.23177-.14988.34715C14.79939,1433.44405,14.846,1433.32352,14.899,1433.21228Zm.36124-.69074c-.06167.10785-.11759.22492-.17652.33725C15.14265,1432.74646,15.19857,1432.62939,15.26024,1432.52154Zm.394-.6344c-.07133.10607-.13774.22128-.20643.33226C15.51648,1432.10842,15.5828,1431.99312,15.65422,1431.88714Zm1.32819-1.59135c-.08985.08755-.17724.18347-.26564.27626C16.80517,1430.47926,16.89256,1430.38334,16.98241,1430.29579Zm-.462.48071c-.07908.08789-.1548.18423-.23215.27669C16.36566,1430.96073,16.44147,1430.86439,16.52046,1430.7765Zm2.98441-2.29664c.10837-.05676.21711-.11419.32265-.16528C19.722,1428.36567,19.61324,1428.4231,19.50487,1428.47986Zm-.392.21629c.08593-.0494.17259-.10142.25734-.14727C19.28548,1428.59473,19.19882,1428.64675,19.11289,1428.69615Zm-.37811.22763c.05464-.03435.10983-.07224.1642-.10515C18.8447,1428.85154,18.78951,1428.88935,18.73478,1428.92378Zm-.42655.2821c.03685-.02563.07389-.05456.11065-.07952C18.38212,1429.15132,18.34508,1429.18016,18.30823,1429.20588Zm-.68024.51708c.1028-.08459.20561-.17129.30887-.25C17.83351,1429.55176,17.73088,1429.63829,17.628,1429.723Zm-.48074.42184c.10281-.09592.20525-.19362.30933-.283C17.3525,1429.95118,17.25006,1430.04888,17.14725,1430.1448Zm5.35443-2.7266-.05409.00914Z" transform="translate(56.27456 0.15853)"/><path class="cls-5" d="M-6.87332,1441.31138c0-2.66163-8.88434-14.87972-13.89624-15.15514a1.21076,1.21076,0,0,0-1.17584,1.12891,1.11643,1.11643,0,0,0,.05318.38775,4.92032,4.92032,0,0,1,.14431.63449l.26555,1.03916a4.26618,4.26618,0,0,0,.26627.74386,5.43741,5.43741,0,0,0,1.46593,2.16688c2.68237,2.57722,3.95711,7.45885,4.12094,8.12447a21.196,21.196,0,0,0-2.24606-3.61468,6.371,6.371,0,0,0-2.17189-1.54922c.88056,4.12094,2.05349,10.686,4.0153,10.47736.587-.06243,1.30419-.1685,2.0762-.3194a.03031.03031,0,0,0,.02317-.0209l-.004.01717C-10.84,1444.76475-6.87332,1443.43791-6.87332,1441.31138Zm-13.54075-13.2899a11.581,11.581,0,0,1,1.19683.4945A11.58964,11.58964,0,0,0-20.41407,1428.02148Zm-.92845-.27694c.02518.00626.056.0148.08274.02166C-21.28651,1427.75934-21.31734,1427.75072-21.34252,1427.74454Zm-.50893-.10658.0541.00914Zm2.99682,1.06166c-.10838-.05676-.21711-.11419-.32265-.16528C-19.07174,1428.58543-18.963,1428.64286-18.85463,1428.69962Zm.392.21629c-.08594-.0494-.1726-.1015-.25734-.14727C-18.63525,1428.81449-18.54859,1428.86651-18.46265,1428.91591Zm.48028.29318c-.08894-.05735-.17825-.11741-.26637-.17078C-18.16053,1429.09168-18.07122,1429.15183-17.98237,1429.20909Zm.61282.42395c-.13345-.09972-.267-.19725-.40009-.28759C-17.63655,1429.4357-17.503,1429.5334-17.36955,1429.633Zm.36763.29006c-.09515-.07783-.19-.15827-.28562-.231C-17.192,1429.76492-17.09707,1429.84527-17.00192,1429.9231Zm.57807.50845c-.12644-.1202-.25332-.23887-.38167-.34935C-16.67708,1430.19268-16.55029,1430.31127-16.42385,1430.43155Zm.39052.39486c-.09943-.10532-.19814-.21283-.29948-.31154C-16.23156,1430.61358-16.13276,1430.721-16.03333,1430.82641Zm.1631.16985c.095.10556.18637.22018.27887.33234C-15.68377,1431.21644-15.77527,1431.10182-15.87023,1430.99626Zm.71737.90551c-.09031-.12705-.17971-.25647-.27339-.37625C-15.33257,1431.64538-15.24317,1431.77463-15.15286,1431.90177Zm.90391,1.52994c.05711.11977.10774.24927.16156.374C-14.14121,1433.68107-14.19184,1433.55157-14.24895,1433.43171Zm-.361-.69041c.06723.11766.12853.2448.19248.36779C-14.48147,1432.98618-14.54277,1432.859-14.61,1432.7413Zm-.39435-.63491c.07808.11605.15106.24166.226.36364C-14.85329,1432.348-14.92627,1432.22244-15.00435,1432.10639Zm1.21908,2.48044c-.04688-.13551-.09-.276-.14066-.40636C-13.8753,1434.31082-13.83206,1434.45132-13.78527,1434.58683Zm.25871.85349c-.03978-.15065-.07553-.30629-.11978-.45127C-13.60209,1435.134-13.56634,1435.28967-13.52656,1435.44032Zm.1985.87946c-.0291-.153-.05364-.31145-.08712-.45914C-13.38161,1436.00833-13.35716,1436.16676-13.32806,1436.31978Zm.14549.94264c-.0187-.15454-.03211-.31508-.05509-.4648C-13.21468,1436.94734-13.20127,1437.10788-13.18257,1437.26242Zm.08831,1.02436c-.00876-.16122-.01168-.32871-.02482-.48519C-13.10594,1437.95807-13.103,1438.12556-13.09426,1438.28678Zm.02317,1.10784c.00173-.17281.00967-.3518.00647-.51962C-13.06142,1439.04274-13.06945,1439.22181-13.07109,1439.39462Zm-.52,4.51495c-.04187.19853-.09733.40932-.14458.61276C-13.68848,1444.31889-13.63293,1444.10819-13.59106,1443.90957Zm.254-1.37624c-.03384.21469-.08164.44206-.12214.66283C-13.41874,1442.97539-13.37094,1442.748-13.3371,1442.53333Zm.16858-1.29453c-.02226.21849-.05811.44993-.08775.67544C-13.22663,1441.68873-13.19078,1441.45738-13.16852,1441.2388Zm.08922-1.2189c-.00812.18753-.02846.38715-.04233.58035C-13.10786,1440.40705-13.08733,1440.20743-13.0793,1440.0199Z" transform="translate(56.27456 0.15853)"/><path class="cls-5" d="M29.93,1461.27846c11.6885-5.16112,26.99484-.38708,26.99484-.38708-.65278,4.72177-4.58279,7.42671-8.57118,8.96832a32.79075,32.79075,0,0,1-6.95975,1.76467.82662.82662,0,0,1-.8511-1.291c.68243-.872,1.61472-2.14624,2.7455-3.89373C45.79293,1462.56876,29.93,1461.27846,29.93,1461.27846Z" transform="translate(56.27456 0.15853)"/><path class="cls-5" d="M-29.27971,1461.27846s-15.86289,1.2903-13.35831,5.1612c1.13078,1.74749,2.06307,3.02172,2.7455,3.89373a.82658.82658,0,0,1-.851,1.291,32.78989,32.78989,0,0,1-6.95984-1.76467c-3.9884-1.54161-7.91831-4.24655-8.57119-8.96832C-56.27456,1460.89138-40.96821,1456.11734-29.27971,1461.27846Z" transform="translate(56.27456 0.15853)"/><path class="cls-5" d="M9.52733,1522.23247a3.17268,3.17268,0,0,1,.03074.419c0,2.966-4.13854,5.37039-9.24349,5.37039s-9.24339-2.40441-9.24339-5.37039a3.18624,3.18624,0,0,1,.03056-.419Z" transform="translate(56.27456 0.15853)"/><path class="cls-5" d="M-25.827,1458.47869l.00839-.01049a62.48788,62.48788,0,0,1,4.99712-4.16729c.08483-.06412.16182-.12358.24967-.18939l.03968-.03012-.00429.00406c3.49571-2.61976,7.65477-5.12406,10.56748-4.905,5.43361.40856,7.39652,1.90678,10.27721,2.49314v-.05185c2.88789-.58434,4.84806-2.08712,10.28989-2.49627,2.9127-.21908,7.07177,2.28522,10.56747,4.905l-.00429-.00406.03969.03012c.08784.0658.16483.12527.24967.18939a62.48362,62.48362,0,0,1,4.99712,4.16729l.00839.01049c1.23578.95795,2.41737,4.55572-2.3734,7.39583a22.8771,22.8771,0,0,0-5.32114,5.0366c-.14577.20462-.24548.3507-.24548.3507l.00748-.04017-.02116.031-3.47783-6.68521c-.09706.17095-.641,1.1454-1.411,2.75975-2.96552,6.25475-9.2693,22.19013-5.3922,37.80322.23024.927.48822,1.85273.79308,2.77532.02244.06776.03968.13594.06249.20369,0,0-7.89195,1.92775-8.75609,9.87019v.13272l-.00876-.07909-.00392.02411v-.05955c-.00356-.03206-.00684-.06437-.01067-.09635-.93521-7.834-8.74542-9.73705-8.74542-9.73705.02281-.06775.04005-.13593.06249-.20368-.05328.10142-.08931.16714-.08931.16714.13072-.37159.24584-.74471.361-1.11782.18081-.60785.37009-1.21519.52143-1.82464,3.8771-15.6131-2.42668-31.54848-5.3922-37.80323-.77-1.61435-1.314-2.5888-1.411-2.75975l-3.47782,6.68521-.02117-.031.00748.04018s-.0997-.14609-.24547-.3507a22.87247,22.87247,0,0,0-5.32123-5.0366C-28.24444,1463.03424-27.06284,1459.43656-25.827,1458.47869Z" transform="translate(56.27456 0.15853)"/><path class="cls-5" d="M-20.79674,1475.18737c2.55758-1.14667,5.22171,6.14757,7.27036,12.2658,1.69855,5.0728,1.061,16.52943.79354,20.29654a4.50092,4.50092,0,0,0,.48311,2.36338l3.21218,4.09633-.86916-4.61553s7.4466,2.56419,7.48255,9.45732l-.04461-.00271.00018.00271-5.5875-.33632a2.94194,2.94194,0,0,1-1.94485-.98333,13.73511,13.73511,0,0,1-1.29571-1.87455c.02244.02631.06258.06784.11257.11555-3.03686-5.04193-6.745-15.756-8.254-22.29484-1.91538-8.30008-5.95722-10.45317-6.93877-13.14052S-23.35441,1476.334-20.79674,1475.18737Z" transform="translate(56.27456 0.15853)"/><path class="cls-5" d="M3.09784,1519.05121l.00019-.00271-.04461.00271c.03594-6.89313,7.48254-9.45732,7.48254-9.45732l-.86916,4.61553,3.21219-4.09633a4.50111,4.50111,0,0,0,.48311-2.36338c-.26746-3.76711-.905-15.22374.79354-20.29654,2.04865-6.11823,4.71278-13.41247,7.27036-12.2658s6.56166,2.66248,5.58011,5.34983-5.02339,4.84044-6.93877,13.14052c-1.509,6.53887-5.21714,17.25291-8.254,22.29484.05-.04771.09013-.08924.11257-.11555a13.73508,13.73508,0,0,1-1.29572,1.87455,2.9419,2.9419,0,0,1-1.94484.98333Z" transform="translate(56.27456 0.15853)"/></g></g></g><path class="cls-6" d="M0,304S68.48052,439.52532,400,405.72212V943.155S384.846,838.80174,0,963Z" transform="translate(56.27456 0.15853)"/><path class="cls-7" d="M152.37677-.15853S281.9551,125.04457,400.21752,97.18789l.11094-97.29578Z" transform="translate(56.27456 0.15853)"/><g id="BCG-logo-white"><g class="cls-8"><path class="cls-6" d="M347.426,124.08318l.60358,2.547a11.01949,11.01949,0,0,0,.605,1.8234,13.42768,13.42768,0,0,0,3.33226,5.3118c6.09682,6.31743,8.99448,18.2836,9.36688,19.915.00829.0367-2.86885-6.242-5.10549-8.86053a14.47051,14.47051,0,0,0-4.93651-3.79735c2.00152,10.1015,4.66758,26.19428,9.12677,25.68276,1.33427-.153,2.96443-.41325,4.7192-.78294a.07128.07128,0,0,0,.05288-.05143l-.00933.0423c7.03816-1.48874,16.05462-4.74139,16.05462-9.95387,0-6.52436-20.19409-36.4743-31.58632-37.14942a2.85977,2.85977,0,0,0-2.67249,2.76745,2.92953,2.92953,0,0,0,.12089.95027A12.92639,12.92639,0,0,1,347.426,124.08318Zm.92145-1.37968c.05722.01534.12731.03629.18806.05308C348.47476,122.73979,348.40467,122.71884,348.34745,122.7035Zm2.11037.67885c.40681.15261.84887.33715,1.30545.53827C351.3069,123.7195,350.86484,123.535,350.45782,123.38235Zm16.68827,28.06724c.00643-.4883.0253-.99008.017-1.46242C367.17139,150.45951,367.15231,150.9615,367.14609,151.44959ZM365.5516,164.224c.14-.63489.29526-1.2843.41552-1.90012C365.84686,162.93969,365.69156,163.5893,365.5516,164.224Zm.68424-3.46724c.10409-.60214.22248-1.21837.30791-1.80205C366.45832,159.53838,366.33993,160.15461,366.23584,160.75675Zm.46943-3.13633c.07693-.61747.16567-1.24718.22207-1.84351C366.87115,156.37324,366.78241,157.003,366.70527,157.62042Zm.30211-3.01771c.04478-.60836.0989-1.22687.12233-1.81283C367.10628,153.37563,367.05216,153.99435,367.00738,154.60271Zm-1.80205-16.12305c.11508.31952.21336.66392.31973.99609C365.41869,139.14358,365.32041,138.79918,365.20533,138.47966Zm.63552,1.982c.10056.35539.18184.73691.27224,1.10619C366.02269,141.19859,365.94141,140.81707,365.84085,140.46168Zm.52541,2.1365c.07631.362.13187.75039.198,1.12548C366.49813,143.34857,366.44257,142.96041,366.36626,142.59818Zm.4035,2.29677c.06075.42569.09766.88.14514,1.32163C366.86763,145.77473,366.8303,145.32064,366.76976,144.895Zm.26913,2.45768c.03442.43812.04355.90507.06449,1.35833C367.08223,148.2577,367.07311,147.79075,367.03889,147.35263Zm-4.75943-14.66229c-.1609-.23928-.31765-.48892-.48332-.71742C361.96181,132.20142,362.11836,132.45106,362.27946,132.69034Zm2.53274,4.80567c-.11425-.28282-.22-.5785-.34067-.851C364.592,136.91772,364.698,137.21319,364.8122,137.496Zm-.76055-1.71745c-.13394-.27536-.26105-.56233-.40121-.82669C363.7906,135.21623,363.91771,135.5032,364.05165,135.77856Zm-.82752-1.56734c-.15613-.272-.30708-.55444-.46922-.81445C362.91726,133.65657,363.068,133.93919,363.22413,134.21122Zm-2.88439-4.03807c-.20092-.22745-.39956-.46259-.60379-.67719C359.94018,129.71056,360.13882,129.9457,360.33974,130.17315Zm.9739,1.17939c-.17582-.22663-.34792-.4628-.52769-.67823C360.96551,130.88974,361.13782,131.12591,361.31364,131.35254Zm-8.04462-6.71305c.2399.12524.48706.266.73338.40516C353.75608,124.90552,353.50892,124.76473,353.269,124.63949Zm1.03943.57435c.19262.11238.3896.2399.58492.361C354.69805,125.45374,354.50107,125.32622,354.30845,125.21384Zm1.07115.66123c.12358.08066.249.17355.37322.25773C355.62841,126.04841,355.503,125.95573,355.3796,125.87507Zm1.09126.75433c.08356.06116.16775.13208.25151.1949C356.63861,126.76127,356.55442,126.69056,356.47086,126.6294Zm1.09562.8497c.23472.19283.4684.40536.70208.61271C358.03467,127.88426,357.8014,127.67214,357.56648,127.4791Zm1.09168.953c.23658.21916.46943.45865.70311.69378C359.12759,128.89072,358.89474,128.65123,358.65816,128.43207Zm-11.34454-5.96743c-.0734-.01369-.123-.0224-.123-.0224S347.24042,122.451,347.31362,122.46464Z" transform="translate(56.27456 0.15853)"/><path class="cls-6" d="M430.01455,166.45193l-.00912-.04209a.07105.07105,0,0,0,.05266.05121c1.75478.36991,3.38493.62992,4.71921.78294,4.45919.51153,7.12525-15.58125,9.12676-25.68275a14.4725,14.4725,0,0,0-4.93671,3.79755c-2.23643,2.61858-5.11357,8.897-5.10528,8.86053.3724-1.63161,3.26985-13.59777,9.36687-19.9152a13.42639,13.42639,0,0,0,3.33206-5.3116,11.0072,11.0072,0,0,0,.60525-1.8234l.60358-2.54725a12.87419,12.87419,0,0,1,.328-1.55531,2.93715,2.93715,0,0,0,.12089-.95047,2.85978,2.85978,0,0,0-2.6727-2.76725c-11.392.67512-31.58611,30.62486-31.58611,37.14922C413.95993,161.71075,422.97618,164.96318,430.01455,166.45193Zm12.00308-41.31874A25.27581,25.27581,0,0,1,444.738,123.921,25.299,25.299,0,0,0,442.01763,125.13319Zm4.64269-1.83792c.06075-.0168.13084-.03774.18806-.05308C446.79116,123.25732,446.72107,123.27847,446.66032,123.29527Zm1.22189-.29195c.0732-.01368.123-.02239.123-.02239S447.95561,122.98964,447.88221,123.00332Zm-5.9554,2.17486c-.2399.12524-.48706.266-.73338.40515C441.43975,125.44421,441.68691,125.30342,441.92681,125.17818Zm-1.03943.57435c-.19262.11217-.3896.2399-.58492.361C440.49778,125.99243,440.69476,125.86491,440.88738,125.75253Zm-1.07115.661c-.2003.13083-.40329.278-.60545.41863C439.41273,126.69181,439.61573,126.54438,439.81623,126.41355Zm-1.089.75287c-.30252.22145-.60608.46052-.90942.705C438.12117,127.62715,438.42473,127.38766,438.72725,127.16642Zm-1.09583.84971c-.2173.17832-.43294.3755-.6492.56626C437.19848,128.39163,437.41433,128.19465,437.63142,128.01613Zm-1.09562.95628c-.29173.2708-.58015.5617-.86753.85634C435.95565,129.53391,436.24386,129.24321,436.5358,128.97241Zm-1.07447,1.06058c-.23036.242-.45471.50551-.68071.76365C435.00662,130.53829,435.23118,130.275,435.46133,130.033Zm-1.68531,1.99467c.21025-.27494.418-.5559.63386-.81466C434.194,131.47176,433.98606,131.75272,433.776,132.02766Zm-.37529.4827c-.213.2936-.41615.61084-.62142.92228C432.98458,133.121,433.18778,132.80417,433.40073,132.51036Zm-3.04323,5.58944c.12234-.30584.23741-.62328.36721-.91689C430.59491,137.47672,430.47984,137.79417,430.3575,138.0998Zm.75039-1.70771c.14535-.30148.28469-.61312.4375-.90154C431.39258,135.779,431.25324,136.09082,431.10789,136.39209Zm.82026-1.5665c.17023-.299.33611-.6069.5136-.89138C432.26426,134.21869,432.09838,134.52639,431.92815,134.82559Zm-1.93765,4.19275c-.11508.31952-.21315.66393-.31973.9961C429.77714,139.68227,429.87542,139.33786,429.9905,139.01834Zm-.63552,1.982c-.10056.35539-.18184.73691-.27224,1.10619C429.17314,141.73728,429.25442,141.35576,429.355,141.00037Zm-.52541,2.13649c-.0761.362-.13187.75039-.198,1.12548C428.6977,143.88725,428.75326,143.49889,428.82957,143.13686Zm-.4035,2.29678c-.05225.367-.08273.76055-.12524,1.13937C428.34334,146.19419,428.37382,145.80064,428.42607,145.43364Zm-.26955,2.461c-.02986.3836-.03649.79414-.0564,1.18934C428.12,148.68877,428.12666,148.27823,428.15652,147.89463Zm-.12378,2.63123c-.00726.41138.01078.85012.01472,1.27373C428.04372,151.376,428.02548,150.937,428.03274,150.52586Zm1.52524,13.84307c-.10741-.49867-.23348-1.01538-.32865-1.502C429.3245,163.35376,429.45078,163.87026,429.558,164.36893Zm-.62826-3.25078c-.09207-.54117-.20072-1.09852-.27764-1.62477C428.729,160.01963,428.83765,160.577,428.92972,161.11815Zm-.46135-3.14233c-.06739-.55279-.14887-1.12009-.19947-1.65566C428.3195,156.85594,428.401,157.423,428.46837,157.97582Zm-.306-3.22092c-.03152-.47358-.07776-.96292-.09621-1.42261C428.08436,153.792,428.131,154.28132,428.16233,154.7549Z" transform="translate(56.27456 0.15853)"/><path class="cls-6" d="M330.30624,205.44259c-26.56792-12.65124-61.35919-.94882-61.35919-.94882,1.48377,11.57428,10.41667,18.20481,19.48227,21.98369a70.13437,70.13437,0,0,0,15.81949,4.32566,2.00744,2.00744,0,0,0,1.93454-3.16452c-1.55116-2.13753-3.67024-5.261-6.2405-9.54457C294.24974,208.60545,330.30624,205.44259,330.30624,205.44259Z" transform="translate(56.27456 0.15853)"/><path class="cls-6" d="M464.88959,205.44259s36.05629,3.16286,30.36339,12.65144c-2.57026,4.28357-4.68934,7.407-6.2405,9.54457a2.00735,2.00735,0,0,0,1.93433,3.16452,70.13293,70.13293,0,0,0,15.8197-4.32566c9.0656-3.77888,17.99829-10.40941,19.48227-21.98369C526.24878,204.49377,491.45751,192.79135,464.88959,205.44259Z" transform="translate(56.27456 0.15853)"/><path class="cls-6" d="M376.68133,354.85681a8.37394,8.37394,0,0,0-.06988,1.02719c0,7.2704,9.40689,13.16422,21.01041,13.16422,11.60373,0,21.01021-5.89382,21.01021-13.16422a8.41347,8.41347,0,0,0-.06947-1.02719Z" transform="translate(56.27456 0.15853)"/><path class="cls-6" d="M457.04153,198.57963c-.00767-.00767-.0112-.018-.01907-.02571A145.18621,145.18621,0,0,0,445.664,188.33879c-.19283-.15717-.36783-.30293-.56751-.46425-.03172-.02571-.05826-.0481-.09019-.07381l.00974.01c-7.94572-6.42172-17.39926-12.56042-24.01983-12.02339-12.35059,1.00148-16.81227,4.674-23.36006,6.11132v-.1271c-6.56417-1.43235-11.01963-5.11607-23.38888-6.119-6.62057-.537-16.07411,5.60167-24.01983,12.0234l.00974-.01c-.03193.02571-.05847.04811-.09019.07382-.19968.16131-.37468.30708-.56751.46425a145.18836,145.18836,0,0,0-11.35844,10.21512c-.00788.00768-.0114.018-.01907.02571-2.80892,2.3482-5.49468,11.16727,5.39474,18.12913,5.29624,3.38638,10.46062,10.10191,12.09493,12.346.33133.50157.558.85966.558.85966s-.01181-.06676-.017-.09849l.04811.0761,7.90508-16.38721c.22061.419,1.457,2.80768,3.20723,6.76488,6.74062,15.332,21.06909,54.3938,12.25645,92.66559-.52334,2.27231-1.10971,4.54151-1.80267,6.803-.051.16608-.09019.3332-.142.49929,0,0,17.93837,4.72542,19.90256,24.19442v.32532c.00622-.0651.01348-.12917.0199-.19386.00208.02052.007.03835.00892.05909v-.146c.00809-.07859.01555-.15779.02426-.23617,2.12571-19.20318,19.8783-23.86806,19.8783-23.86806-.05184-.16608-.091-.3332-.142-.49929.12109.24861.203.40972.203.40972-.29713-.91087-.5588-1.82548-.82047-2.74008-.411-1.49-.84121-2.97874-1.18519-4.47267-8.81264-38.27179,5.51582-77.33357,12.25645-92.66559,1.75021-3.95721,2.98662-6.34584,3.20723-6.76488l7.90508,16.3872.04811-.07609c-.00519.03172-.017.09849-.017.09849s.22663-.35809.558-.85966c1.63431-2.24432,6.79868-8.95985,12.09514-12.346C462.53642,209.74648,459.85066,200.92762,457.04153,198.57963Z" transform="translate(56.27456 0.15853)"/><path class="cls-6" d="M445.60783,239.537c-5.81337-2.81079-11.86892,15.06931-16.52551,30.06668-3.86079,12.43477-2.41164,40.518-1.8037,49.75214a11.77037,11.77037,0,0,1-1.09811,5.79326l-7.30129,10.04116,1.9756-11.31386s-16.9261,6.2855-17.0078,23.18237l.1014-.00664-.00042.00664,12.70038-.82441a6.53384,6.53384,0,0,0,4.42063-2.4104,33.85157,33.85157,0,0,0,2.94515-4.595c-.051.06449-.14224.16629-.25587.28324,6.90277-12.35909,15.3314-38.622,18.76132-54.6505,4.35365-20.34565,13.54076-25.62345,15.77181-32.21084S451.42141,242.34755,445.60783,239.537Z" transform="translate(56.27456 0.15853)"/><path class="cls-6" d="M391.29552,347.05872l-.00042-.00664.1014.00664c-.0817-16.89687-17.0078-23.18237-17.0078-23.18237l1.9756,11.31386L369.063,325.14905a11.77026,11.77026,0,0,1-1.09811-5.79326c.60794-9.23417,2.05709-37.31737-1.8037-49.75214-4.65659-14.99737-10.71214-32.87747-16.52551-30.06668-5.81358,2.81058-14.91463,6.52643-12.68359,13.11383s11.41815,11.86519,15.77181,32.21084c3.42992,16.0285,11.85855,42.29141,18.76132,54.6505-.11363-.11695-.20486-.21875-.25587-.28324a33.85157,33.85157,0,0,0,2.94515,4.595,6.53384,6.53384,0,0,0,4.42063,2.4104Z" transform="translate(56.27456 0.15853)"/></g></g></svg>