<svg id="Layer_1" data-name="Layer 1" xmlns="http://www.w3.org/2000/svg" xmlns:xlink="http://www.w3.org/1999/xlink" viewBox="0 0 553.76463 3488.15581"><defs><style>.cls-1{fill:none;}.cls-2{fill:url(#linear-gradient);}.cls-3{clip-path:url(#clip-path);}.cls-4{opacity:0.47;}.cls-5{fill:#fff;}.cls-6{clip-path:url(#clip-path-2);}.cls-7{fill:#efefef;}.cls-8{fill:url(#linear-gradient-2);}</style><linearGradient id="linear-gradient" x1="300.27647" y1="3324.14026" x2="68.20973" y2="3556.207" gradientUnits="userSpaceOnUse"><stop offset="0" stop-color="#5772b0"/><stop offset="0.47758" stop-color="#623d8b"/><stop offset="0.71335" stop-color="#552b6d"/><stop offset="0.98965" stop-color="#431344"/></linearGradient><clipPath id="clip-path" transform="translate(56.27456 0.15853)"><rect class="cls-1" x="0.29917" y="3369.71472" width="58.07177" height="108.6391" transform="translate(58.67012 6848.06855) rotate(-180)"/></clipPath><clipPath id="clip-path-2" transform="translate(56.27456 0.15853)"><rect class="cls-1" x="297.49353" y="116" width="101.30492" height="204.38194"/></clipPath><linearGradient id="linear-gradient-2" x1="829.34921" y1="2678.27708" x2="936.99355" y2="2491.83161" gradientTransform="matrix(0, -1, -1, 0, 2881.79396, 919.5)" gradientUnits="userSpaceOnUse"><stop offset="0" stop-color="#5772b0"/><stop offset="0.27803" stop-color="#623d8b"/><stop offset="0.37484" stop-color="#5c357d"/><stop offset="0.62732" stop-color="#4e225e"/><stop offset="0.84125" stop-color="#46174b"/><stop offset="0.98965" stop-color="#431344"/></linearGradient></defs><title>mobile-about-bcg</title><path id="BCG-footer-purple" class="cls-2" d="M0,3361.04414s399.99983,27.47881,399.99992,65.551c.00011,44.62819-.10416,61.29845-.10416,61.29845L0,3487.99728Z" transform="translate(56.27456 0.15853)"/><g id="logo-bcg-footer-white"><g class="cls-3"><g class="cls-4"><path class="cls-5" d="M22.54246,3378.45305a1.11376,1.11376,0,0,0,.05318-.38766,1.21073,1.21073,0,0,0-1.17575-1.129c-5.012.27541-13.89634,12.49359-13.89634,15.15522,0,2.12645,3.96677,3.45338,7.0632,4.06072l-.00411-.01726a.03041.03041,0,0,0,.02327.021c.772.15082,1.48919.257,2.0762.3194,1.96181.20868,3.13474-6.35642,4.0153-10.47736a6.3702,6.3702,0,0,0-2.1718,1.54914,21.19523,21.19523,0,0,0-2.24615,3.61468c.16383-.66554,1.43865-5.54717,4.12093-8.12439a5.438,5.438,0,0,0,1.466-2.167,4.27149,4.27149,0,0,0,.26618-.74387l.26555-1.03907A4.94014,4.94014,0,0,1,22.54246,3378.45305Zm-.63244.09339c.02673-.00685.05756-.0154.08274-.02166C21.96758,3378.531,21.93675,3378.53959,21.91,3378.54644Zm-1.42.47487c.20087-.082.39536-.15733.57433-.21959C20.88524,3378.864,20.69075,3378.93926,20.49,3379.02131Zm-6.77512,10.63393c-.00365.1927.00466.3974.00748.5966C13.7196,3390.05272,13.7112,3389.84794,13.71485,3389.65524Zm.52617,5.0328c.05291.25122.12123.51615.18281.77516C14.36225,3395.20428,14.29393,3394.93926,14.241,3394.688Zm-.25369-1.37447c.03759.23812.08967.48951.13547.73516C14.077,3393.80308,14.02492,3393.55169,13.98733,3393.31357Zm-.16876-1.29639c.02481.24328.06386.50017.0977.75207C13.88234,3392.51735,13.84329,3392.26046,13.81857,3392.01718Zm-.089-1.21856c.01031.239.03412.49136.05382.73954C13.76366,3391.29,13.73985,3391.03758,13.72954,3390.79862Zm.706-5.43154c.0468-.13551.09-.276.14067-.40636C14.52554,3385.09107,14.4823,3385.23157,14.4355,3385.36708Zm-.2587.85348c.03977-.15065.07553-.30629.11977-.45127C14.25233,3385.91427,14.21657,3386.06991,14.1768,3386.22056Zm-.1985.87946c.0291-.153.05355-.31145.08712-.45914C14.03185,3386.78865,14.0074,3386.947,13.9783,3387.1Zm-.15425,1.017c.02089-.18017.03712-.3655.06385-.53916C13.86126,3387.75152,13.84484,3387.93676,13.82405,3388.117Zm-.08292,1.01759c.00921-.18491.01322-.3754.02836-.55414C13.75444,3388.75921,13.75043,3388.9497,13.74113,3389.13461Zm2.3349-6.82834c-.07288.09322-.14185.19506-.21263.29268C15.93427,3382.50133,16.00315,3382.39949,16.076,3382.30627Zm-1.177,1.906c-.05309.11115-.09961.23177-.14988.34715C14.79939,3384.44405,14.846,3384.32352,14.899,3384.21228Zm.36124-.69074c-.06167.10785-.11759.22492-.17652.33725C15.14265,3383.74646,15.19857,3383.62939,15.26024,3383.52154Zm.394-.6344c-.07133.10607-.13774.22128-.20643.33226C15.51648,3383.10842,15.5828,3382.99312,15.65422,3382.88714Zm1.32819-1.59135c-.08985.08755-.17724.18347-.26564.27626C16.80517,3381.47926,16.89256,3381.38334,16.98241,3381.29579Zm-.462.48071c-.07908.08789-.1548.18423-.23215.27669C16.36566,3381.96073,16.44147,3381.86439,16.52046,3381.7765Zm2.98441-2.29664c.10837-.05676.21711-.11419.32265-.16528C19.722,3379.36567,19.61324,3379.4231,19.50487,3379.47986Zm-.392.21629c.08593-.0494.17259-.10142.25734-.14727C19.28548,3379.59473,19.19882,3379.64675,19.11289,3379.69615Zm-.37811.22763c.05464-.03435.10983-.07224.1642-.10515C18.8447,3379.85154,18.78951,3379.88935,18.73478,3379.92378Zm-.42655.2821c.03685-.02563.07389-.05456.11065-.07952C18.38212,3380.15132,18.34508,3380.18016,18.30823,3380.20588Zm-.68024.51708c.1028-.08459.20561-.17129.30887-.25C17.83351,3380.55176,17.73088,3380.63829,17.628,3380.723Zm-.48074.42184c.10281-.09592.20525-.19362.30933-.283C17.3525,3380.95118,17.25006,3381.04888,17.14725,3381.1448Zm5.35443-2.7266-.05409.00914Z" transform="translate(56.27456 0.15853)"/><path class="cls-5" d="M-6.87332,3392.31138c0-2.66163-8.88434-14.87972-13.89624-15.15514a1.21076,1.21076,0,0,0-1.17584,1.12891,1.11643,1.11643,0,0,0,.05318.38775,4.92032,4.92032,0,0,1,.14431.63449l.26555,1.03916a4.26618,4.26618,0,0,0,.26627.74386,5.43741,5.43741,0,0,0,1.46593,2.16688c2.68237,2.57722,3.95711,7.45885,4.12094,8.12447a21.196,21.196,0,0,0-2.24606-3.61468,6.371,6.371,0,0,0-2.17189-1.54922c.88056,4.12094,2.05349,10.686,4.0153,10.47736.587-.06243,1.30419-.1685,2.0762-.3194a.03031.03031,0,0,0,.02317-.0209l-.004.01717C-10.84,3395.76475-6.87332,3394.43791-6.87332,3392.31138Zm-13.54075-13.2899a11.581,11.581,0,0,1,1.19683.4945A11.58964,11.58964,0,0,0-20.41407,3379.02148Zm-.92845-.27694c.02518.00626.056.0148.08274.02166C-21.28651,3378.75934-21.31734,3378.75072-21.34252,3378.74454Zm-.50893-.10658.0541.00914Zm2.99682,1.06166c-.10838-.05676-.21711-.11419-.32265-.16528C-19.07174,3379.58543-18.963,3379.64286-18.85463,3379.69962Zm.392.21629c-.08594-.0494-.1726-.1015-.25734-.14727C-18.63525,3379.81449-18.54859,3379.86651-18.46265,3379.91591Zm.48028.29318c-.08894-.05735-.17825-.11741-.26637-.17078C-18.16053,3380.09168-18.07122,3380.15183-17.98237,3380.20909Zm.61282.424c-.13345-.09972-.267-.19725-.40009-.28759C-17.63655,3380.4357-17.503,3380.5334-17.36955,3380.633Zm.36763.29006c-.09515-.07783-.19-.15827-.28562-.231C-17.192,3380.76492-17.09707,3380.84527-17.00192,3380.9231Zm.57807.50845c-.12644-.1202-.25332-.23887-.38167-.34935C-16.67708,3381.19268-16.55029,3381.31127-16.42385,3381.43155Zm.39052.39486c-.09943-.10532-.19814-.21283-.29948-.31154C-16.23156,3381.61358-16.13276,3381.721-16.03333,3381.82641Zm.1631.16985c.095.10556.18637.22018.27887.33234C-15.68377,3382.21644-15.77527,3382.10182-15.87023,3381.99626Zm.71737.90551c-.09031-.12705-.17971-.25647-.27339-.37625C-15.33257,3382.64538-15.24317,3382.77463-15.15286,3382.90177Zm.90391,1.52994c.05711.11977.10774.24927.16156.374C-14.14121,3384.68107-14.19184,3384.55157-14.24895,3384.43171Zm-.361-.69041c.06723.11766.12853.2448.19248.36779C-14.48147,3383.98618-14.54277,3383.859-14.61,3383.7413Zm-.39435-.63491c.07808.11605.15106.24166.226.36364C-14.85329,3383.348-14.92627,3383.22244-15.00435,3383.10639Zm1.21908,2.48044c-.04688-.13551-.09-.276-.14066-.40636C-13.8753,3385.31082-13.83206,3385.45132-13.78527,3385.58683Zm.25871.85349c-.03978-.15065-.07553-.30629-.11978-.45127C-13.60209,3386.134-13.56634,3386.28967-13.52656,3386.44032Zm.1985.87946c-.0291-.153-.05364-.31145-.08712-.45914C-13.38161,3387.00833-13.35716,3387.16676-13.32806,3387.31978Zm.14549.94264c-.0187-.15454-.03211-.31508-.05509-.4648C-13.21468,3387.94734-13.20127,3388.10788-13.18257,3388.26242Zm.08831,1.02436c-.00876-.16122-.01168-.32871-.02482-.48519C-13.10594,3388.95807-13.103,3389.12556-13.09426,3389.28678Zm.02317,1.10784c.00173-.17281.00967-.3518.00647-.51962C-13.06142,3390.04274-13.06945,3390.22181-13.07109,3390.39462Zm-.52,4.51495c-.04187.19853-.09733.40932-.14458.61276C-13.68848,3395.31889-13.63293,3395.10819-13.59106,3394.90957Zm.254-1.37624c-.03384.21469-.08164.44206-.12214.66283C-13.41874,3393.97539-13.37094,3393.748-13.3371,3393.53333Zm.16858-1.29453c-.02226.21849-.05811.44993-.08775.67544C-13.22663,3392.68873-13.19078,3392.45738-13.16852,3392.2388Zm.08922-1.2189c-.00812.18753-.02846.38715-.04233.58035C-13.10786,3391.40705-13.08733,3391.20743-13.0793,3391.0199Z" transform="translate(56.27456 0.15853)"/><path class="cls-5" d="M29.93,3412.27846c11.6885-5.16112,26.99484-.38708,26.99484-.38708-.65278,4.72177-4.58279,7.42671-8.57118,8.96832a32.79075,32.79075,0,0,1-6.95975,1.76467.82662.82662,0,0,1-.8511-1.291c.68243-.872,1.61472-2.14624,2.7455-3.89373C45.79293,3413.56876,29.93,3412.27846,29.93,3412.27846Z" transform="translate(56.27456 0.15853)"/><path class="cls-5" d="M-29.27971,3412.27846s-15.86289,1.2903-13.35831,5.1612c1.13078,1.74749,2.06307,3.02172,2.7455,3.89373a.82658.82658,0,0,1-.851,1.291,32.78989,32.78989,0,0,1-6.95984-1.76467c-3.9884-1.54161-7.91831-4.24655-8.57119-8.96832C-56.27456,3411.89138-40.96821,3407.11734-29.27971,3412.27846Z" transform="translate(56.27456 0.15853)"/><path class="cls-5" d="M9.52733,3473.23247a3.17268,3.17268,0,0,1,.03074.419c0,2.966-4.13854,5.37039-9.24349,5.37039s-9.24339-2.40441-9.24339-5.37039a3.18624,3.18624,0,0,1,.03056-.419Z" transform="translate(56.27456 0.15853)"/><path class="cls-5" d="M-25.827,3409.47869l.00839-.01049a62.48788,62.48788,0,0,1,4.99712-4.16729c.08483-.06412.16182-.12358.24967-.18939l.03968-.03012-.00429.00406c3.49571-2.61976,7.65477-5.12406,10.56748-4.905,5.43361.40856,7.39652,1.90678,10.27721,2.49314v-.05185c2.88789-.58434,4.84806-2.08712,10.28989-2.49627,2.9127-.21908,7.07177,2.28522,10.56747,4.905l-.00429-.00406.03969.03012c.08784.0658.16483.12527.24967.18939a62.48362,62.48362,0,0,1,4.99712,4.16729l.00839.01049c1.23578.95795,2.41737,4.55572-2.3734,7.39583a22.8771,22.8771,0,0,0-5.32114,5.0366c-.14577.20462-.24548.3507-.24548.3507l.00748-.04017-.02116.031-3.47783-6.68521c-.09706.171-.641,1.1454-1.411,2.75975-2.96552,6.25475-9.2693,22.19013-5.3922,37.80322.23024.927.48822,1.85273.79308,2.77532.02244.06776.03968.13594.06249.20369,0,0-7.89195,1.92775-8.75609,9.87019v.13272l-.00876-.07909-.00392.02411v-.05955c-.00356-.03206-.00684-.06437-.01067-.09635-.93521-7.834-8.74542-9.737-8.74542-9.737.02281-.06775.04005-.13593.06249-.20368-.05328.10142-.08931.16714-.08931.16714.13072-.37159.24584-.74471.361-1.11782.18081-.60785.37009-1.21519.52143-1.82464,3.8771-15.6131-2.42668-31.54848-5.3922-37.80323-.77-1.61435-1.314-2.5888-1.411-2.75975l-3.47782,6.68521-.02117-.031.00748.04018s-.0997-.14609-.24547-.3507a22.87247,22.87247,0,0,0-5.32123-5.0366C-28.24444,3414.03424-27.06284,3410.43656-25.827,3409.47869Z" transform="translate(56.27456 0.15853)"/><path class="cls-5" d="M-20.79674,3426.18737c2.55758-1.14667,5.22171,6.14757,7.27036,12.2658,1.69855,5.0728,1.061,16.52943.79354,20.29654a4.50092,4.50092,0,0,0,.48311,2.36338l3.21218,4.09633-.86916-4.61553s7.4466,2.56419,7.48255,9.45732l-.04461-.00271.00018.00271-5.5875-.33632a2.94194,2.94194,0,0,1-1.94485-.98333,13.73511,13.73511,0,0,1-1.29571-1.87455c.02244.02631.06258.06784.11257.11555-3.03686-5.04193-6.745-15.756-8.254-22.29484-1.91538-8.30008-5.95722-10.45317-6.93877-13.14052S-23.35441,3427.334-20.79674,3426.18737Z" transform="translate(56.27456 0.15853)"/><path class="cls-5" d="M3.09784,3470.05121l.00019-.00271-.04461.00271c.03594-6.89313,7.48254-9.45732,7.48254-9.45732l-.86916,4.61553,3.21219-4.09633a4.50111,4.50111,0,0,0,.48311-2.36338c-.26746-3.76711-.905-15.22374.79354-20.29654,2.04865-6.11823,4.71278-13.41247,7.27036-12.2658s6.56166,2.66248,5.58011,5.34983-5.02339,4.84044-6.93877,13.14052c-1.509,6.53887-5.21714,17.25291-8.254,22.29484.05-.04771.09013-.08924.11257-.11555a13.73508,13.73508,0,0,1-1.29572,1.87455,2.9419,2.9419,0,0,1-1.94484.98333Z" transform="translate(56.27456 0.15853)"/></g></g></g><g id="BCG-logo-white"><g class="cls-6"><path class="cls-7" d="M360.24729,133.63318l.46323,1.9548a8.45766,8.45766,0,0,0,.46436,1.39943,10.30551,10.30551,0,0,0,2.55744,4.0767c4.67918,4.84849,6.90308,14.03228,7.18888,15.28434a40.56808,40.56808,0,0,0-3.91836-6.80027,11.10568,11.10568,0,0,0-3.78866-2.91438c1.53612,7.75269,3.58227,20.10356,7.0046,19.711,1.024-.11744,2.27514-.31715,3.6219-.60089a.05472.05472,0,0,0,.04058-.03947l-.00717.03247c5.40165-1.14259,12.3216-3.63892,12.3216-7.63939,0-5.00732-15.49855-27.99328-24.24185-28.51142a2.19481,2.19481,0,0,0-2.05108,2.124,2.24852,2.24852,0,0,0,.09277.72931A9.92055,9.92055,0,0,1,360.24729,133.63318Zm.70719-1.05888c.04392.01178.09771.02785.14433.04074C361.05219,132.60215,360.9984,132.58608,360.95448,132.5743Zm1.61966.521c.31222.11712.6515.25875,1.00191.41311C363.2258,133.35406,362.88652,133.21243,362.57414,133.09531Zm12.80791,21.541c.00493-.37476.01941-.75986.01305-1.12237C375.40146,153.87647,375.38682,154.26173,375.38205,154.63633Zm-1.22374,9.80409c.10741-.48727.2266-.98567.3189-1.4583C374.38491,163.45475,374.26572,163.95331,374.15831,164.44042Zm.52514-2.661c.07989-.46212.17075-.93507.23631-1.383C374.8542,160.84431,374.76334,161.31726,374.68345,161.77938Zm.36028-2.40706c.059-.4739.12715-.95719.17043-1.41486C375.171,158.41513,375.10293,158.89842,375.04373,159.37232Zm.23186-2.316c.03437-.4669.07591-.94159.09389-1.39131C375.3515,156.11453,375.31,156.58938,375.27559,157.05628Zm-1.383-12.3741c.08832.24522.16375.50954.24539.76448C374.0563,145.19172,373.98087,144.9274,373.89255,144.68218Zm.48775,1.52116c.07718.27276.13956.56556.20894.849C374.51986,146.7689,374.45748,146.4761,374.3803,146.20334Zm.40325,1.63972c.05856.27785.1012.5759.152.86378C374.88475,148.419,374.84211,148.12106,374.78355,147.84306Zm.30967,1.76273c.04663.3267.075.67536.11139,1.01432C375.16833,150.281,375.13969,149.93249,375.09322,149.60579Zm.20656,1.88621c.02641.33625.03341.69462.04949,1.04249C375.333,152.18662,375.326,151.82825,375.29978,151.492ZM371.647,140.239c-.12348-.18364-.24379-.37523-.37094-.5506C371.40322,139.86376,371.52337,140.05535,371.647,140.239Zm1.94383,3.68826c-.08769-.21706-.16885-.444-.26146-.65309C373.42184,143.48342,373.50315,143.71019,373.59084,143.92725Zm-.58371-1.31811c-.1028-.21133-.20035-.43157-.30792-.63447C372.80678,142.17757,372.90433,142.39781,373.00713,142.60914Zm-.6351-1.2029c-.11983-.20878-.23568-.42552-.36012-.62508C372.13651,140.98056,372.2522,141.19746,372.372,141.40624Zm-2.21372-3.09913c-.1542-.17457-.30665-.355-.46339-.51973C369.85166,137.95208,370.00411,138.13254,370.15831,138.30711Zm.74746.90515c-.135-.17393-.267-.35519-.405-.52053C370.63858,138.85707,370.77082,139.03833,370.90577,139.21226Zm-6.17409-5.15212c.18412.09611.37381.20417.56286.311C365.10549,134.26431,364.9158,134.15625,364.73168,134.06014Zm.79774.4408c.14784.08625.299.18412.44892.277C365.82844,134.68506,365.67726,134.58719,365.52942,134.50094Zm.82209.50748c.09484.0619.19112.13319.28644.1978C366.54247,135.14145,366.44619,135.07032,366.35151,135.00842Zm.83752.57893c.06413.04694.12874.10137.193.14958C367.31777,135.68856,367.25316,135.63429,367.189,135.58735Zm.84087.65213c.18014.148.35948.31111.53882.47024C368.38922,136.55043,368.21019,136.38763,368.0299,136.23948Zm.83784.73138c.18157.1682.36028.352.53962.53246C369.228,137.32286,369.04931,137.13906,368.86774,136.97086ZM360.161,132.391c-.05633-.0105-.09436-.01719-.09436-.01719S360.10486,132.38048,360.161,132.391Z" transform="translate(56.27456 0.15853)"/><path class="cls-7" d="M423.63229,166.15032l-.007-.03231a.05454.05454,0,0,0,.04042.03931c1.34675.28389,2.59787.48345,3.62189.60089,3.42234.39258,5.46849-11.95829,7.00461-19.711a11.10718,11.10718,0,0,0-3.78882,2.91454,40.568,40.568,0,0,0-3.9182,6.80027c.2858-1.25222,2.50954-10.436,7.18888-15.2845a10.30451,10.30451,0,0,0,2.55728-4.07654,8.44733,8.44733,0,0,0,.46451-1.39943l.46324-1.955a9.88063,9.88063,0,0,1,.25175-1.19366,2.25414,2.25414,0,0,0,.09278-.72947,2.19481,2.19481,0,0,0-2.05124-2.12381c-8.74314.51814-24.24169,23.504-24.24169,28.51126C411.3107,162.51156,418.23049,165.00774,423.63229,166.15032Zm9.21212-31.71128a19.39837,19.39837,0,0,1,2.08784-.9303A19.417,19.417,0,0,0,432.84441,134.439Zm3.56317-1.41057c.04662-.01289.10041-.029.14433-.04074C436.508,132.99935,436.4542,133.01558,436.40758,133.02847Zm.93777-.22406c.05618-.0105.09437-.01719.09437-.01719S437.40169,132.79391,437.34535,132.80441Zm-4.57064,1.66916c-.18412.09611-.37381.20417-.56286.31095C432.4009,134.67774,432.59059,134.56968,432.77471,134.47357Zm-.79774.4408c-.14784.08609-.299.18412-.44892.27705C431.678,135.09849,431.82913,135.00062,431.977,134.91437Zm-.82209.50732c-.15372.10041-.30952.2134-.46467.32129C430.8452,135.63525,431.001,135.5221,431.15488,135.42169Zm-.83577.57781c-.23218.17-.46515.35344-.698.54106C429.854,136.3531,430.08693,136.1693,430.31911,135.9995Zm-.841.65214c-.16677.13685-.33227.28819-.49824.43459C429.14581,136.93983,429.31147,136.78865,429.47808,136.65164Zm-.84086.73392c-.2239.20783-.44526.4311-.66582.65723C428.192,137.8165,428.41316,137.59339,428.63722,137.38556Zm-.82463.814c-.1768.18571-.349.388-.52244.58609C427.46361,138.58734,427.636,138.38524,427.81259,138.19953Zm-1.29344,1.53087c.16136-.211.32081-.42664.48647-.62524C426.84,139.30376,426.68035,139.51939,426.51915,139.7304Zm-.288.37047c-.16343.22533-.31938.46881-.47692.70782C425.91173,140.56952,426.06768,140.32636,426.23111,140.10087Zm-2.33561,4.28977c.09389-.23472.18221-.47835.28183-.70369C424.07771,143.91245,423.98939,144.15608,423.8955,144.39064Zm.57591-1.31062c.11155-.23139.21849-.47056.33577-.69192C424.6899,142.60946,424.583,142.84879,424.47141,143.08Zm.62953-1.20226c.13065-.22947.258-.46579.39418-.68412C425.3589,141.412,425.23159,141.64813,425.10094,141.87776Zm-1.48711,3.21785c-.08831.24522-.16359.50954-.24538.76448C423.45009,145.60515,423.52552,145.34083,423.61383,145.09561Zm-.48774,1.52116c-.07718.27276-.13956.56556-.20894.849C422.98653,147.18233,423.04891,146.88953,423.12609,146.61677Zm-.40325,1.63972c-.0584.27785-.10121.5759-.152.86378C422.62163,148.83239,422.66428,148.53434,422.72284,148.25649Zm-.30967,1.76273c-.0401.28166-.0635.5837-.09612.87444C422.34967,150.60292,422.37307,150.30088,422.41317,150.01922Zm-.20688,1.88876c-.02291.2944-.028.60948-.04328.91279C422.17829,152.51746,422.18338,152.20238,422.20629,151.908Zm-.095,2.01941c-.00557.31572.00828.65245.0113.97756C422.11972,154.57984,422.10572,154.243,422.11129,153.92739Zm1.17059,10.62427c-.08243-.38272-.17918-.77928-.25223-1.15277C423.1027,163.77254,423.19961,164.16894,423.28188,164.55166Zm-.48218-2.49491c-.07065-.41534-.154-.84309-.21308-1.247C422.64566,161.21366,422.72905,161.64141,422.7997,162.05675Zm-.35407-2.41167c-.05172-.42426-.11426-.85965-.15309-1.27069C422.33137,158.78559,422.39391,159.22082,422.44563,159.64508Zm-.23488-2.472c-.02419-.36346-.05968-.739-.07384-1.09182C422.15092,156.43407,422.18672,156.80963,422.21075,157.17309Z" transform="translate(56.27456 0.15853)"/><path class="cls-7" d="M347.10822,196.07484c-20.39032-9.70956-47.09191-.72819-47.09191-.72819,1.13877,8.883,7.99458,13.97181,14.95224,16.872a53.82782,53.82782,0,0,0,12.14113,3.31985,1.54066,1.54066,0,0,0,1.48472-2.4287c-1.19048-1.64052-2.81683-4.03771-4.78945-7.32526C319.4356,198.50227,347.10822,196.07484,347.10822,196.07484Z" transform="translate(56.27456 0.15853)"/><path class="cls-7" d="M450.39817,196.07484s27.67246,2.42743,23.30327,9.70973c-1.97262,3.28755-3.599,5.68474-4.78946,7.32526a1.54061,1.54061,0,0,0,1.48457,2.4287,53.82661,53.82661,0,0,0,12.14129-3.31985c6.95766-2.90022,13.81331-7.989,14.95224-16.872C497.49008,195.34665,470.78849,186.36528,450.39817,196.07484Z" transform="translate(56.27456 0.15853)"/><path class="cls-7" d="M382.70015,310.74717a6.42538,6.42538,0,0,0-.05363.78835c0,5.57988,7.21959,10.10326,16.125,10.10326,8.90562,0,16.1249-4.52338,16.1249-10.10326a6.457,6.457,0,0,0-.05331-.78835Z" transform="translate(56.27456 0.15853)"/><path class="cls-7" d="M444.37494,190.80766c-.00589-.00588-.00859-.01384-.01464-.01973a111.429,111.429,0,0,0-8.71736-7.8399c-.148-.12062-.28231-.23249-.43555-.3563-.02435-.01973-.04472-.03692-.06923-.05665l.00748.00764c-6.09817-4.92854-13.35357-9.63987-18.43472-9.22771-9.47882.76862-12.90307,3.5872-17.92837,4.69032v-.09755c-5.03786-1.0993-8.45733-3.92647-17.95048-4.69621-5.08115-.41215-12.33655,4.29917-18.43472,9.22771l.00747-.00764c-.0245.01974-.04487.03692-.06922.05665-.15324.12381-.28755.23568-.43555.35631a111.42708,111.42708,0,0,0-8.71736,7.83989c-.006.00589-.00876.01385-.01464.01974-2.15579,1.80219-4.21706,8.57064,4.14035,13.91373,4.06476,2.599,8.02831,7.753,9.28261,9.47532.25429.38494.42823.65977.42823.65977l-.01305-.07559.03692.0584,6.067-12.57684c.16932.32161,1.11824,2.15483,2.46149,5.1919,5.17329,11.767,16.17009,41.74612,9.40657,71.11893-.40165,1.74395-.85168,3.48551-1.38351,5.22119-.03915.12746-.06922.25573-.109.38319,0,0,13.76733,3.62667,15.2748,18.56872v.24968c.00478-.05.01035-.09914.01528-.14879.00159.01576.00541.02944.00684.04535v-.112c.00621-.06031.01194-.1211.01862-.18125,1.63145-14.738,15.25619-18.31824,15.25619-18.31824-.03979-.12747-.06986-.25573-.109-.3832.09293.19081.15579.31445.15579.31445-.228-.69907-.42886-1.401-.62969-2.103-.31541-1.14354-.64561-2.28612-.90961-3.43268-6.76352-29.37281,4.23328-59.35192,9.40657-71.11893,1.34325-3.03707,2.29217-4.8703,2.46149-5.19191l6.067,12.57685.03692-.05841-.01305.07559s.17394-.27482.42823-.65977c1.2543-1.72246,5.21785-6.8765,9.28277-9.47532C448.59215,199.378,446.53089,192.6097,444.37494,190.80766Z" transform="translate(56.27456 0.15853)"/><path class="cls-7" d="M435.59981,222.24158c-4.46164-2.15723-9.10915,11.56538-12.683,23.07555-2.96308,9.54343-1.85089,31.09671-1.38431,38.18374a9.03355,9.03355,0,0,1-.84277,4.44621l-5.60359,7.70638,1.51623-8.68315s-12.99043,4.824-13.05313,17.792l.07781-.00509-.00032.00509,9.74728-.63272a5.01454,5.01454,0,0,0,3.39274-1.84993,25.97894,25.97894,0,0,0,2.26034-3.52657c-.03914.04949-.10916.12762-.19637.21737,5.29773-9.48534,11.76653-29.64158,14.39893-41.94312,3.34134-15.61487,10.39225-19.66547,12.10453-24.72116S440.06161,224.39864,435.59981,222.24158Z" transform="translate(56.27456 0.15853)"/><path class="cls-7" d="M393.91623,304.7623l-.00031-.00509.07781.00509c-.0627-12.968-13.05313-17.792-13.05313-17.792l1.51623,8.68315-5.60359-7.70638a9.03355,9.03355,0,0,1-.84277-4.44621c.46658-7.087,1.57877-28.64031-1.38431-38.18374-3.57383-11.51017-8.22134-25.23278-12.683-23.07555-4.4618,2.15706-11.44668,5.0089-9.73439,10.06459s8.76319,9.10629,12.10453,24.72116c2.6324,12.30154,9.1012,32.45778,14.39893,41.94312-.08721-.08975-.15723-.16788-.19637-.21737a25.978,25.978,0,0,0,2.26034,3.52657,5.01454,5.01454,0,0,0,3.39273,1.84993Z" transform="translate(56.27456 0.15853)"/></g></g><path class="cls-7" d="M399.62917,1335.79933S108.727,1320.63058-.22241,1589.2284v347.40131s400.59273,302.635,400.22215-84.723Z" transform="translate(56.27456 0.15853)"/><path class="cls-7" d="M.14781,2485.79933s290.426-15.16875,399.197,253.42907v347.40131s-399.937,302.635-399.567-84.723Z" transform="translate(56.27456 0.15853)"/><path class="cls-7" d="M.14756,483.67143s305.59476,70.28288,399.567-124.07272V991.50653S64.52224,961.58689-.22241,865.76318Z" transform="translate(56.27456 0.15853)"/><path class="cls-8" d="M151.37677-.15853s129.92926,125.2031,248.512,97.34642L400-.10788Z" transform="translate(56.27456 0.15853)"/></svg>