<svg id="Layer_1" data-name="Layer 1" xmlns="http://www.w3.org/2000/svg" xmlns:xlink="http://www.w3.org/1999/xlink" viewBox="0 0 538.67754 1790.99728"><defs><style>.cls-1{fill:none;}.cls-2{fill:url(#linear-gradient);}.cls-3{clip-path:url(#clip-path);}.cls-4{opacity:0.47;}.cls-5{fill:#fff;}.cls-6{fill:url(#linear-gradient-2);}.cls-7{clip-path:url(#clip-path-2);}.cls-8{fill:#efefef;}</style><linearGradient id="linear-gradient" x1="300.27647" y1="1627.14026" x2="68.20973" y2="1859.207" gradientUnits="userSpaceOnUse"><stop offset="0" stop-color="#5772b0"/><stop offset="0.47758" stop-color="#623d8b"/><stop offset="0.71335" stop-color="#552b6d"/><stop offset="0.98965" stop-color="#431344"/></linearGradient><clipPath id="clip-path" transform="translate(56.27456)"><rect class="cls-1" x="0.29917" y="1672.71472" width="58.07177" height="108.6391" transform="translate(58.67012 3454.06855) rotate(-180)"/></clipPath><linearGradient id="linear-gradient-2" x1="257.76627" y1="145.34571" x2="399.98032" y2="145.34571" xlink:href="#linear-gradient"/><clipPath id="clip-path-2" transform="translate(56.27456)"><rect class="cls-1" x="307.90897" y="65.58057" width="88.38704" height="178.32021"/></clipPath></defs><title>mobile-tablet-home-bcg</title><path id="BCG-footer-purple" class="cls-2" d="M0,1664.04414s399.99983,27.47881,399.99992,65.551c.00011,44.62819-.10416,61.29845-.10416,61.29845L0,1790.99728Z" transform="translate(56.27456)"/><g id="logo-bcg-footer-white"><g class="cls-3"><g class="cls-4"><path class="cls-5" d="M22.54246,1681.45305a1.11376,1.11376,0,0,0,.05318-.38766,1.21073,1.21073,0,0,0-1.17575-1.129c-5.012.27541-13.89634,12.49359-13.89634,15.15522,0,2.12645,3.96677,3.45338,7.0632,4.06072l-.00411-.01726a.03041.03041,0,0,0,.02327.021c.772.15082,1.48919.257,2.0762.3194,1.96181.20868,3.13474-6.35642,4.0153-10.47736a6.3702,6.3702,0,0,0-2.1718,1.54914,21.19523,21.19523,0,0,0-2.24615,3.61468c.16383-.66554,1.43865-5.54717,4.12093-8.12439a5.438,5.438,0,0,0,1.466-2.167,4.27149,4.27149,0,0,0,.26618-.74387l.26555-1.03907A4.94014,4.94014,0,0,1,22.54246,1681.45305Zm-.63244.09339c.02673-.00685.05756-.0154.08274-.02166C21.96758,1681.531,21.93675,1681.53959,21.91,1681.54644Zm-1.42.47487c.20087-.082.39536-.15733.57433-.21959C20.88524,1681.864,20.69075,1681.93926,20.49,1682.02131Zm-6.77512,10.63393c-.00365.1927.00466.3974.00748.5966C13.7196,1693.05272,13.7112,1692.84794,13.71485,1692.65524Zm.52617,5.0328c.05291.25122.12123.51615.18281.77516C14.36225,1698.20428,14.29393,1697.93926,14.241,1697.688Zm-.25369-1.37447c.03759.23812.08967.48951.13547.73516C14.077,1696.80308,14.02492,1696.55169,13.98733,1696.31357Zm-.16876-1.29639c.02481.24328.06386.50017.0977.75207C13.88234,1695.51735,13.84329,1695.26046,13.81857,1695.01718Zm-.089-1.21856c.01031.239.03412.49136.05382.73954C13.76366,1694.29,13.73985,1694.03758,13.72954,1693.79862Zm.706-5.43154c.0468-.13551.09-.276.14067-.40636C14.52554,1688.09107,14.4823,1688.23157,14.4355,1688.36708Zm-.2587.85348c.03977-.15065.07553-.30629.11977-.45127C14.25233,1688.91427,14.21657,1689.06991,14.1768,1689.22056Zm-.1985.87946c.0291-.153.05355-.31145.08712-.45914C14.03185,1689.78865,14.0074,1689.947,13.9783,1690.1Zm-.15425,1.017c.02089-.18017.03712-.3655.06385-.53916C13.86126,1690.75152,13.84484,1690.93676,13.82405,1691.117Zm-.08292,1.01759c.00921-.18491.01322-.3754.02836-.55414C13.75444,1691.75921,13.75043,1691.9497,13.74113,1692.13461Zm2.3349-6.82834c-.07288.09322-.14185.19506-.21263.29268C15.93427,1685.50133,16.00315,1685.39949,16.076,1685.30627Zm-1.177,1.906c-.05309.11115-.09961.23177-.14988.34715C14.79939,1687.44405,14.846,1687.32352,14.899,1687.21228Zm.36124-.69074c-.06167.10785-.11759.22492-.17652.33725C15.14265,1686.74646,15.19857,1686.62939,15.26024,1686.52154Zm.394-.6344c-.07133.10607-.13774.22128-.20643.33226C15.51648,1686.10842,15.5828,1685.99312,15.65422,1685.88714Zm1.32819-1.59135c-.08985.08755-.17724.18347-.26564.27626C16.80517,1684.47926,16.89256,1684.38334,16.98241,1684.29579Zm-.462.48071c-.07908.08789-.1548.18423-.23215.27669C16.36566,1684.96073,16.44147,1684.86439,16.52046,1684.7765Zm2.98441-2.29664c.10837-.05676.21711-.11419.32265-.16528C19.722,1682.36567,19.61324,1682.4231,19.50487,1682.47986Zm-.392.21629c.08593-.0494.17259-.10142.25734-.14727C19.28548,1682.59473,19.19882,1682.64675,19.11289,1682.69615Zm-.37811.22763c.05464-.03435.10983-.07224.1642-.10515C18.8447,1682.85154,18.78951,1682.88935,18.73478,1682.92378Zm-.42655.2821c.03685-.02563.07389-.05456.11065-.07952C18.38212,1683.15132,18.34508,1683.18016,18.30823,1683.20588Zm-.68024.51708c.1028-.08459.20561-.17129.30887-.25C17.83351,1683.55176,17.73088,1683.63829,17.628,1683.723Zm-.48074.42184c.10281-.09592.20525-.19362.30933-.283C17.3525,1683.95118,17.25006,1684.04888,17.14725,1684.1448Zm5.35443-2.7266-.05409.00914Z" transform="translate(56.27456)"/><path class="cls-5" d="M-6.87332,1695.31138c0-2.66163-8.88434-14.87972-13.89624-15.15514a1.21076,1.21076,0,0,0-1.17584,1.12891,1.11643,1.11643,0,0,0,.05318.38775,4.92032,4.92032,0,0,1,.14431.63449l.26555,1.03916a4.26618,4.26618,0,0,0,.26627.74386,5.43741,5.43741,0,0,0,1.46593,2.16688c2.68237,2.57722,3.95711,7.45885,4.12094,8.12447a21.196,21.196,0,0,0-2.24606-3.61468,6.371,6.371,0,0,0-2.17189-1.54922c.88056,4.12094,2.05349,10.686,4.0153,10.47736.587-.06243,1.30419-.1685,2.0762-.3194a.03031.03031,0,0,0,.02317-.0209l-.004.01717C-10.84,1698.76475-6.87332,1697.43791-6.87332,1695.31138Zm-13.54075-13.2899a11.581,11.581,0,0,1,1.19683.4945A11.58964,11.58964,0,0,0-20.41407,1682.02148Zm-.92845-.27694c.02518.00626.056.0148.08274.02166C-21.28651,1681.75934-21.31734,1681.75072-21.34252,1681.74454Zm-.50893-.10658.0541.00914Zm2.99682,1.06166c-.10838-.05676-.21711-.11419-.32265-.16528C-19.07174,1682.58543-18.963,1682.64286-18.85463,1682.69962Zm.392.21629c-.08594-.0494-.1726-.1015-.25734-.14727C-18.63525,1682.81449-18.54859,1682.86651-18.46265,1682.91591Zm.48028.29318c-.08894-.05735-.17825-.11741-.26637-.17078C-18.16053,1683.09168-18.07122,1683.15183-17.98237,1683.20909Zm.61282.42395c-.13345-.09972-.267-.19725-.40009-.28759C-17.63655,1683.4357-17.503,1683.5334-17.36955,1683.633Zm.36763.29006c-.09515-.07783-.19-.15827-.28562-.231C-17.192,1683.76492-17.09707,1683.84527-17.00192,1683.9231Zm.57807.50845c-.12644-.1202-.25332-.23887-.38167-.34935C-16.67708,1684.19268-16.55029,1684.31127-16.42385,1684.43155Zm.39052.39486c-.09943-.10532-.19814-.21283-.29948-.31154C-16.23156,1684.61358-16.13276,1684.721-16.03333,1684.82641Zm.1631.16985c.095.10556.18637.22018.27887.33234C-15.68377,1685.21644-15.77527,1685.10182-15.87023,1684.99626Zm.71737.90551c-.09031-.12705-.17971-.25647-.27339-.37625C-15.33257,1685.64538-15.24317,1685.77463-15.15286,1685.90177Zm.90391,1.52994c.05711.11977.10774.24927.16156.374C-14.14121,1687.68107-14.19184,1687.55157-14.24895,1687.43171Zm-.361-.69041c.06723.11766.12853.2448.19248.36779C-14.48147,1686.98618-14.54277,1686.859-14.61,1686.7413Zm-.39435-.63491c.07808.11605.15106.24166.226.36364C-14.85329,1686.348-14.92627,1686.22244-15.00435,1686.10639Zm1.21908,2.48044c-.04688-.13551-.09-.276-.14066-.40636C-13.8753,1688.31082-13.83206,1688.45132-13.78527,1688.58683Zm.25871.85349c-.03978-.15065-.07553-.30629-.11978-.45127C-13.60209,1689.134-13.56634,1689.28967-13.52656,1689.44032Zm.1985.87946c-.0291-.153-.05364-.31145-.08712-.45914C-13.38161,1690.00833-13.35716,1690.16676-13.32806,1690.31978Zm.14549.94264c-.0187-.15454-.03211-.31508-.05509-.4648C-13.21468,1690.94734-13.20127,1691.10788-13.18257,1691.26242Zm.08831,1.02436c-.00876-.16122-.01168-.32871-.02482-.48519C-13.10594,1691.95807-13.103,1692.12556-13.09426,1692.28678Zm.02317,1.10784c.00173-.17281.00967-.3518.00647-.51962C-13.06142,1693.04274-13.06945,1693.22181-13.07109,1693.39462Zm-.52,4.51495c-.04187.19853-.09733.40932-.14458.61276C-13.68848,1698.31889-13.63293,1698.10819-13.59106,1697.90957Zm.254-1.37624c-.03384.21469-.08164.44206-.12214.66283C-13.41874,1696.97539-13.37094,1696.748-13.3371,1696.53333Zm.16858-1.29453c-.02226.21849-.05811.44993-.08775.67544C-13.22663,1695.68873-13.19078,1695.45738-13.16852,1695.2388Zm.08922-1.2189c-.00812.18753-.02846.38715-.04233.58035C-13.10786,1694.40705-13.08733,1694.20743-13.0793,1694.0199Z" transform="translate(56.27456)"/><path class="cls-5" d="M29.93,1715.27846c11.6885-5.16112,26.99484-.38708,26.99484-.38708-.65278,4.72177-4.58279,7.42671-8.57118,8.96832a32.79075,32.79075,0,0,1-6.95975,1.76467.82662.82662,0,0,1-.8511-1.291c.68243-.872,1.61472-2.14624,2.7455-3.89373C45.79293,1716.56876,29.93,1715.27846,29.93,1715.27846Z" transform="translate(56.27456)"/><path class="cls-5" d="M-29.27971,1715.27846s-15.86289,1.2903-13.35831,5.1612c1.13078,1.74749,2.06307,3.02172,2.7455,3.89373a.82658.82658,0,0,1-.851,1.291,32.78989,32.78989,0,0,1-6.95984-1.76467c-3.9884-1.54161-7.91831-4.24655-8.57119-8.96832C-56.27456,1714.89138-40.96821,1710.11734-29.27971,1715.27846Z" transform="translate(56.27456)"/><path class="cls-5" d="M9.52733,1776.23247a3.17268,3.17268,0,0,1,.03074.419c0,2.966-4.13854,5.37039-9.24349,5.37039s-9.24339-2.40441-9.24339-5.37039a3.18624,3.18624,0,0,1,.03056-.419Z" transform="translate(56.27456)"/><path class="cls-5" d="M-25.827,1712.47869l.00839-.01049a62.48788,62.48788,0,0,1,4.99712-4.16729c.08483-.06412.16182-.12358.24967-.18939l.03968-.03012-.00429.00406c3.49571-2.61976,7.65477-5.12406,10.56748-4.905,5.43361.40856,7.39652,1.90678,10.27721,2.49314v-.05185c2.88789-.58434,4.84806-2.08712,10.28989-2.49627,2.9127-.21908,7.07177,2.28522,10.56747,4.905l-.00429-.00406.03969.03012c.08784.0658.16483.12527.24967.18939a62.48362,62.48362,0,0,1,4.99712,4.16729l.00839.01049c1.23578.95795,2.41737,4.55572-2.3734,7.39583a22.8771,22.8771,0,0,0-5.32114,5.0366c-.14577.20462-.24548.3507-.24548.3507l.00748-.04017-.02116.031-3.47783-6.68521c-.09706.17095-.641,1.1454-1.411,2.75975-2.96552,6.25475-9.2693,22.19013-5.3922,37.80322.23024.927.48822,1.85273.79308,2.77532.02244.06776.03968.13594.06249.20369,0,0-7.89195,1.92775-8.75609,9.87019v.13272l-.00876-.07909-.00392.02411v-.05955c-.00356-.03206-.00684-.06437-.01067-.09635-.93521-7.834-8.74542-9.73705-8.74542-9.73705.02281-.06775.04005-.13593.06249-.20368-.05328.10142-.08931.16714-.08931.16714.13072-.37159.24584-.74471.361-1.11782.18081-.60785.37009-1.21519.52143-1.82464,3.8771-15.6131-2.42668-31.54848-5.3922-37.80323-.77-1.61435-1.314-2.5888-1.411-2.75975l-3.47782,6.68521-.02117-.031.00748.04018s-.0997-.14609-.24547-.3507a22.87247,22.87247,0,0,0-5.32123-5.0366C-28.24444,1717.03424-27.06284,1713.43656-25.827,1712.47869Z" transform="translate(56.27456)"/><path class="cls-5" d="M-20.79674,1729.18737c2.55758-1.14667,5.22171,6.14757,7.27036,12.2658,1.69855,5.0728,1.061,16.52943.79354,20.29654a4.50092,4.50092,0,0,0,.48311,2.36338l3.21218,4.09633-.86916-4.61553s7.4466,2.56419,7.48255,9.45732l-.04461-.00271.00018.00271-5.5875-.33632a2.94194,2.94194,0,0,1-1.94485-.98333,13.73511,13.73511,0,0,1-1.29571-1.87455c.02244.02631.06258.06784.11257.11555-3.03686-5.04193-6.745-15.756-8.254-22.29484-1.91538-8.30008-5.95722-10.45317-6.93877-13.14052S-23.35441,1730.334-20.79674,1729.18737Z" transform="translate(56.27456)"/><path class="cls-5" d="M3.09784,1773.05121l.00019-.00271-.04461.00271c.03594-6.89313,7.48254-9.45732,7.48254-9.45732l-.86916,4.61553,3.21219-4.09633a4.50111,4.50111,0,0,0,.48311-2.36338c-.26746-3.76711-.905-15.22374.79354-20.29654,2.04865-6.11823,4.71278-13.41247,7.27036-12.2658s6.56166,2.66248,5.58011,5.34983-5.02339,4.84044-6.93877,13.14052c-1.509,6.53887-5.21714,17.25291-8.254,22.29484.05-.04771.09013-.08924.11257-.11555a13.73508,13.73508,0,0,1-1.29572,1.87455,2.9419,2.9419,0,0,1-1.94484.98333Z" transform="translate(56.27456)"/></g></g></g><path class="cls-6" d="M399.98032,290.69141S224.3648,138.77751,263.43783.13006L399.90927,0Z" transform="translate(56.27456)"/><g id="BCG-logo-white"><g class="cls-7"><g class="cls-4"><path class="cls-5" d="M362.66069,80.96526l.40417,1.70554a7.37945,7.37945,0,0,0,.40514,1.221,8.99135,8.99135,0,0,0,2.23133,3.55686c4.08252,4.23024,6.02284,12.243,6.2722,13.33537a35.39556,35.39556,0,0,0-3.41871-5.93314,9.68945,9.68945,0,0,0-3.30556-2.54275c1.34025,6.76411,3.12548,17.54006,6.11142,17.19753.89345-.10246,1.985-.27671,3.16-.52426a.04774.04774,0,0,0,.03541-.03444l-.00625.02833c4.71286-.99689,10.75041-3.1749,10.75041-6.66526,0-4.3688-13.52225-24.42371-21.15066-24.87578a1.91493,1.91493,0,0,0-1.78953,1.85312,1.96185,1.96185,0,0,0,.08094.63632A8.65374,8.65374,0,0,1,362.66069,80.96526Zm.617-.92385c.03832.01027.08525.02429.12593.03554C363.363,80.0657,363.316,80.05168,363.27771,80.04141Zm1.41313.45456c.27241.10219.56842.22576.87415.36044C365.2594,80.72173,364.96339,80.59816,364.69084,80.496ZM375.86555,99.2902c.0043-.327.01694-.663.01138-.97926C375.88249,98.62723,375.86971,98.96336,375.86555,99.2902Zm-1.0677,8.55392c.09372-.42513.19771-.86.27824-1.27235C374.99556,106.98413,374.89157,107.41913,374.79785,107.84412Zm.45818-2.32172c.0697-.40319.149-.81583.20618-1.20667C375.405,104.70657,375.32573,105.11921,375.256,105.5224Zm.31434-2.10012c.05151-.41347.11094-.83514.1487-1.23445C375.68144,102.58714,375.622,103.00881,375.57037,103.42228Zm.20229-2.02071c.03-.40736.06623-.82153.08192-1.2139C375.83889,100.5799,375.80265,100.99421,375.77266,101.40157ZM374.566,90.60535c.077.21395.14287.44457.21409.667C374.70886,91.04992,374.643,90.8193,374.566,90.60535Zm.42555,1.32719c.06734.238.12176.49344.1823.74072C375.1133,92.426,375.05888,92.17051,374.99154,91.93254Zm.35182,1.43063c.0511.24241.08831.50247.1326.75363C375.43167,93.86564,375.39446,93.60572,375.34336,93.36317Zm.27019,1.538c.04068.285.06539.58925.09719.885C375.67908,95.49023,375.65409,95.18616,375.61355,94.90112Zm.18022,1.6457c.02305.29337.02915.606.04318.90955C375.82279,97.15286,375.81668,96.84019,375.79377,96.54682Zm-3.187-9.81808c-.10775-.16023-.21271-.32739-.32365-.4804C372.39408,86.40135,372.49891,86.56851,372.60679,86.72874Zm1.69595,3.21794c-.0765-.18938-.14731-.38737-.22812-.56981C374.15529,89.55945,374.22624,89.7573,374.30274,89.94668Zm-.50927-1.15c-.08969-.18438-.1748-.37654-.26866-.55356C373.61867,88.42011,373.70378,88.61227,373.79347,88.79665Zm-.55412-1.04951c-.10455-.18216-.20562-.37126-.3142-.54537C373.03386,87.37574,373.1348,87.565,373.23935,87.74714Zm-1.93143-2.704c-.13454-.15231-.26755-.30975-.40431-.45346C371.04037,84.73344,371.17338,84.89088,371.30792,85.04319Zm.65214.78974c-.11774-.15176-.233-.3099-.35335-.45416C371.72694,85.523,371.84232,85.68117,371.96006,85.83293Zm-5.3868-4.49516c.16064.08386.32614.17814.49109.2713C366.8994,81.51591,366.7339,81.42163,366.57326,81.33777Zm.696.3846c.129.07525.26088.16064.39167.24172C367.53016,81.883,367.39826,81.79762,367.26928,81.72237Zm.71726.44276c.08275.054.16675.11621.24991.17258C368.15315,82.28121,368.06915,82.21914,367.98654,82.16513Zm.73072.50511c.056.041.11233.08844.16842.13051C368.82959,82.75855,368.77322,82.7112,368.71726,82.67024Zm.73364.569c.15717.12912.31365.27143.47012.41027C369.76441,83.51051,369.60821,83.36848,369.4509,83.23922Zm.731.63811c.15842.14676.31434.30712.47081.46457C370.49625,84.18445,370.34033,84.02409,370.18191,83.87733Zm-7.59647-3.99587-.08233-.015Z" transform="translate(56.27456)"/><path class="cls-5" d="M417.96317,109.336l-.00611-.02819a.04758.04758,0,0,0,.03527.0343c1.175.24769,2.26659.4218,3.16.52427,2.98594.34252,4.77117-10.43343,6.11142-17.19754a9.69084,9.69084,0,0,0-3.30569,2.54289,35.39608,35.39608,0,0,0-3.41858,5.93314c.24937-1.09255,2.18954-9.10527,6.2722-13.33551a8.99056,8.99056,0,0,0,2.23119-3.55671,7.37074,7.37074,0,0,0,.40528-1.221l.40417-1.70568a8.61885,8.61885,0,0,1,.21965-1.04145,1.96667,1.96667,0,0,0,.08094-.63645,1.91493,1.91493,0,0,0-1.78967-1.853c-7.62827.45207-21.15052,20.50684-21.15052,24.87565C407.21276,106.16122,413.25018,108.33909,417.96317,109.336Zm8.03743-27.66762a16.926,16.926,0,0,1,1.82161-.81167A16.93954,16.93954,0,0,0,426.0006,81.66836Zm3.10882-1.2307c.04068-.01125.0876-.02527.12592-.03554C429.197,80.41225,429.1501,80.42641,429.10942,80.43766Zm.81819-.19549.08234-.015Zm-3.98782,1.45632c-.16064.08386-.32614.17813-.49109.27129C425.61365,81.87662,425.77915,81.78235,425.93979,81.69849Zm-.696.38459c-.129.07511-.26088.16064-.39167.24172C424.98289,82.24372,425.11479,82.15833,425.24377,82.08308Zm-.71726.44263c-.13412.08761-.27.18618-.40541.28032C424.25633,82.712,424.39225,82.61332,424.52651,82.52571Zm-.72919.50413c-.20257.14829-.40584.30837-.609.47207C423.39148,83.33835,423.59475,83.178,423.79732,83.02984Zm-.73378.569c-.14551.1194-.28991.25144-.43472.37918C422.77363,83.85026,422.91817,83.71836,423.06354,83.59882Zm-.73365.64034c-.19535.18133-.38848.37612-.58091.57342C421.94141,84.61514,422.1344,84.42049,422.32989,84.23916Zm-.71948.71017c-.15425.162-.30448.3385-.45581.51136C421.30593,85.28769,421.4563,85.11136,421.61041,84.94933Zm-1.1285,1.33567c.14078-.18411.2799-.37224.42444-.54551C420.76181,85.91276,420.62255,86.10089,420.48191,86.285Zm-.25131.32322c-.14259.1966-.27866.409-.41611.61757C419.95194,87.01711,420.088,86.805,420.2306,86.60822ZM418.19282,90.351c.08191-.2048.159-.41736.24588-.614C418.35179,89.93377,418.27473,90.14633,418.19282,90.351Zm.50247-1.14351c.09732-.20187.19063-.41055.293-.60368C418.88592,88.79693,418.79261,89.00575,418.69529,89.20748Zm.54925-1.049c.114-.20021.22507-.40639.34392-.59688C419.46961,87.75214,419.35853,87.95818,419.24454,88.15853Zm-1.29748,2.80753c-.07705.21395-.14272.44457-.21409.667C417.8042,91.41063,417.87,91.18,417.94706,90.96606Zm-.42555,1.32719c-.06733.238-.12176.49344-.1823.74072C417.39975,92.78669,417.45418,92.53122,417.52151,92.29325Zm-.35182,1.43063c-.051.24242-.08831.50247-.1326.75363C417.08138,94.22635,417.11859,93.9663,417.16969,93.72388Zm-.27019,1.538c-.035.24575-.0554.50928-.08386.76294C416.8441,95.77111,416.86451,95.50758,416.8995,95.26183Zm-.18049,1.64792c-.02.25686-.02444.53176-.03777.7964C416.69457,97.44151,416.699,97.16661,416.719,96.90975Zm-.08289,1.76191c-.00486.27546.00722.56925.00986.8529C416.64348,99.24091,416.63126,98.947,416.63612,98.67166Zm1.02132,9.26951c-.07192-.33391-.15634-.67991-.22006-1.00577C417.5011,107.2614,417.58566,107.60726,417.65744,107.94117Zm-.42069-2.17676c-.06165-.36238-.1344-.73559-.18591-1.088C417.10235,105.02882,417.1751,105.402,417.23675,105.76441Zm-.30892-2.10416c-.04513-.37015-.09969-.75-.13357-1.10865C416.82814,102.91037,416.8827,103.2901,416.92783,103.66025Zm-.20494-2.15677c-.0211-.31712-.05206-.64478-.06442-.9526C416.67069,100.8587,416.70193,101.18636,416.72289,101.50348Z" transform="translate(56.27456)"/><path class="cls-5" d="M351.19705,135.44468c-17.79025-8.47145-41.087-.63534-41.087-.63534.99356,7.75031,6.97515,12.1902,13.04561,14.7206a46.96347,46.96347,0,0,0,10.593,2.89652,1.34421,1.34421,0,0,0,1.29539-2.119c-1.03867-1.43132-2.45764-3.52284-4.17873-6.39118C327.05311,137.56258,351.19705,135.44468,351.19705,135.44468Z" transform="translate(56.27456)"/><path class="cls-5" d="M441.316,135.44468s24.14381,2.1179,20.33176,8.47159c-1.72109,2.86834-3.14006,4.95986-4.17873,6.39118a1.34415,1.34415,0,0,0,1.29525,2.119,46.96241,46.96241,0,0,0,10.5931-2.89652c6.07046-2.5304,12.05191-6.97029,13.04561-14.7206C482.403,134.80934,459.10625,126.97323,441.316,135.44468Z" transform="translate(56.27456)"/><path class="cls-5" d="M382.25048,235.49458a5.60625,5.60625,0,0,0-.04679.68783c0,4.86836,6.299,8.81495,14.06887,8.81495s14.06873-3.94659,14.06873-8.81495a5.63391,5.63391,0,0,0-.04651-.68783Z" transform="translate(56.27456)"/><path class="cls-5" d="M436.06082,130.84915c-.00513-.00514-.00749-.01208-.01277-.01722a97.21921,97.21921,0,0,0-7.60577-6.84019c-.12912-.10525-.24631-.20285-.38-.31087l-.0604-.04943.00653.00667c-5.32057-4.30008-11.6508-8.41064-16.084-8.051-8.27013.67061-11.25773,3.12978-15.64223,4.09223v-.08511c-4.39546-.95912-7.3789-3.42579-15.66153-4.09737-4.43323-.3596-10.76345,3.751-16.084,8.051l.00652-.00667-.06039.04943c-.13371.108-.25089.20563-.38.31087a97.21756,97.21756,0,0,0-7.60577,6.84019c-.00528.00514-.00764.01208-.01278.01722-1.88089,1.57239-3.67931,7.47776,3.6124,12.13952,3.54644,2.26757,7.00458,6.76439,8.09893,8.26708.22187.33586.37363.57564.37363.57564l-.01139-.066.03221.051L373.8833,140.753c.14773.2806.97564,1.88006,2.14761,4.52987,4.51362,10.26654,14.10816,36.42286,8.2071,62.0502-.35044,1.52157-.74309,3.04106-1.2071,4.55541-.03415.11121-.06039.22312-.0951.33433,0,0,12.01178,3.16421,13.327,16.20093v.21785c.00417-.0436.009-.0865.01333-.12982.00139.01374.00472.02568.006.03957v-.09775c.00542-.05262.01042-.10565.01625-.15814,1.42341-12.85872,13.31079-15.98239,13.31079-15.98239-.03471-.11121-.06095-.22312-.09511-.33433.08109.16647.13593.27435.13593.27435-.199-.60993-.37418-1.22237-.5494-1.8348-.27518-.99772-.56328-1.9946-.79362-2.995-5.90107-25.62734,3.69348-51.78367,8.2071-62.05021,1.172-2.6498,1.99988-4.24926,2.14761-4.52986l5.29335,10.97311.03221-.051-.01138.06595s.15175-.23978.37362-.57564c1.09435-1.50282,4.5525-5.99964,8.09908-8.26707C439.74028,138.32663,437.94186,132.4214,436.06082,130.84915Z" transform="translate(56.27456)"/><path class="cls-5" d="M428.40465,158.27477c-3.89271-1.88214-7.9476,10.09063-11.06571,20.13308-2.58524,8.3265-1.61488,27.13141-1.20779,33.31474a7.88159,7.88159,0,0,1-.73531,3.87925l-4.889,6.72371,1.32289-7.57592s-11.334,4.20886-11.38866,15.52324l.06789-.00444-.00028.00444,8.50436-.552a4.37516,4.37516,0,0,0,2.96012-1.614,22.66788,22.66788,0,0,0,1.97211-3.07688c-.03416.04318-.09525.11135-.17133.18965,4.62219-8.27582,10.26612-25.86184,12.56285-36.59475,2.91527-13.62374,9.06708-17.15783,10.561-21.56884S432.29751,160.15677,428.40465,158.27477Z" transform="translate(56.27456)"/><path class="cls-5" d="M392.03635,230.27287l-.00028-.00444.0679.00444c-.05471-11.31438-11.38867-15.52324-11.38867-15.52324l1.32289,7.57592-4.889-6.72371a7.88159,7.88159,0,0,1-.7353-3.87925c.40708-6.18333,1.37745-24.98824-1.20779-33.31474-3.11812-10.04245-7.173-22.01522-11.06572-20.13308s-9.98705,4.37019-8.49311,8.78121,7.64576,7.9451,10.561,21.56884c2.29672,10.73291,7.94065,28.31893,12.56285,36.59475-.07609-.0783-.13718-.14647-.17133-.18965a22.66691,22.66691,0,0,0,1.97211,3.07688,4.37516,4.37516,0,0,0,2.96011,1.614Z" transform="translate(56.27456)"/></g></g></g><path class="cls-8" d="M56.27456,352.43h400a0,0,0,0,1,0,0V987.70727A65.29273,65.29273,0,0,1,390.98183,1053H256.27909A200.00454,200.00454,0,0,1,56.27456,852.99546V352.43a0,0,0,0,1,0,0Z"/><path class="cls-5" d="M-.08213,349.7731s115.788,144.50445,397.9046,62.07814l-.20714-62.07814Z" transform="translate(56.27456)"/><path class="cls-8" d="M399.62937,1239.08411S108.88882,1230.91727,0,1375.53015v187.04063s400.37011,162.93848,399.99974-45.61481Z" transform="translate(56.27456)"/></svg>