<svg id="Layer_1" data-name="Layer 1" xmlns="http://www.w3.org/2000/svg" viewBox="0 0 33.58649 33.58649"><defs><style>.cls-1{fill:#32352a;}.cls-2{fill:#fff;}</style></defs><title>p1_instagram</title><path class="cls-1" d="M529.39531,540.4554a16.79325,16.79325,0,1,1-16.79254-16.79311A16.79373,16.79373,0,0,1,529.39531,540.4554Z" transform="translate(-495.80882 -523.66229)"/><path class="cls-2" d="M519.04032,529.95976H506.16249a4.06,4.06,0,0,0-4.0562,4.0562v12.87916a4.06,4.06,0,0,0,4.0562,4.05619h12.87783a4.06113,4.06113,0,0,0,4.05753-4.05619V534.016A4.06114,4.06114,0,0,0,519.04032,529.95976Zm1.1644,2.42032.46328-.00272v3.55736l-3.54505.01225-.01232-3.5573Zm-10.59829,5.92165a3.68684,3.68684,0,1,1-.69972,2.15381A3.69167,3.69167,0,0,1,509.60643,538.30173Zm11.44691,8.59339a2.01451,2.01451,0,0,1-2.013,2.01169H506.16249a2.01336,2.01336,0,0,1-2.01169-2.01169v-8.59339h3.13369a5.74053,5.74053,0,1,0,10.63383,0h3.135Z" transform="translate(-495.80882 -523.66229)"/></svg>