<svg id="Layer_1" data-name="Layer 1" xmlns="http://www.w3.org/2000/svg" viewBox="0 0 33.58859 33.58649"><defs><style>.cls-1{fill:#32352a;}.cls-2{fill:#fff;}</style></defs><title>p1_twitter</title><path class="cls-1" d="M529.51417,540.45554a16.7943,16.7943,0,1,1-16.79325-16.79325A16.79408,16.79408,0,0,1,529.51417,540.45554Z" transform="translate(-495.92558 -523.66229)"/><path class="cls-2" d="M522.63719,532.36833a8.70517,8.70517,0,0,1-2.736,1.02977,4.32927,4.32927,0,0,0-3.14328-1.33919,4.24319,4.24319,0,0,0-4.19558,5.20563,12.29363,12.29363,0,0,1-8.877-4.42943,4.171,4.171,0,0,0-.58356,2.13169,4.22246,4.22246,0,0,0,1.91673,3.528,4.348,4.348,0,0,1-1.95088-.53v.05318a4.26126,4.26126,0,0,0,3.45549,4.15758,4.391,4.391,0,0,1-1.94606.07264,4.30564,4.30564,0,0,0,4.02338,2.9442,8.73152,8.73152,0,0,1-5.34969,1.81472,8.94054,8.94054,0,0,1-1.02775-.05913,12.34139,12.34139,0,0,0,6.603,1.90422,12.06844,12.06844,0,0,0,12.25326-12.06189c0-.18361-.00272-.36728-.01091-.54879a8.66473,8.66473,0,0,0,2.14835-2.195,8.68419,8.68419,0,0,1-2.47365.66733A4.26244,4.26244,0,0,0,522.63719,532.36833Z" transform="translate(-495.92558 -523.66229)"/></svg>