<svg id="Layer_1" data-name="Layer 1" xmlns="http://www.w3.org/2000/svg" viewBox="0 0 33.91917 33.91917"><defs><style>.cls-1{fill:#32352a;}.cls-2{fill:#fff;}</style></defs><title>p2_instagram</title><path class="cls-1" d="M529.88888,540.29111A16.95959,16.95959,0,1,1,512.93,523.33166,16.96008,16.96008,0,0,1,529.88888,540.29111Z" transform="translate(-495.96971 -523.33166)"/><path class="cls-2" d="M519.43132,529.69151H506.42593a4.10021,4.10021,0,0,0-4.09637,4.09637v13.00673a4.10022,4.10022,0,0,0,4.09637,4.09638h13.00539a4.10137,4.10137,0,0,0,4.09772-4.09638V533.78788A4.10136,4.10136,0,0,0,519.43132,529.69151Zm1.17594,2.4443.46787-.00276v3.59261l-3.58017.01236-.01244-3.59253Zm-10.70327,5.9803a3.72335,3.72335,0,1,1-.70665,2.17514A3.72823,3.72823,0,0,1,509.904,538.11611Zm11.56029,8.6785a2.03446,2.03446,0,0,1-2.033,2.03162H506.42593a2.03331,2.03331,0,0,1-2.03161-2.03162v-8.6785h3.16473a5.79739,5.79739,0,1,0,10.73916,0h3.16607Z" transform="translate(-495.96971 -523.33166)"/></svg>