<svg id="Layer_1" data-name="Layer 1" xmlns="http://www.w3.org/2000/svg" viewBox="0 0 33.92129 33.91917"><defs><style>.cls-1{fill:#32352a;}.cls-2{fill:#fff;}</style></defs><title>p2_twitter</title><path class="cls-1" d="M529.89954,540.29125A16.96065,16.96065,0,1,1,512.94,523.33166,16.96043,16.96043,0,0,1,529.89954,540.29125Z" transform="translate(-495.97825 -523.33166)"/><path class="cls-2" d="M522.95445,532.12394a8.79141,8.79141,0,0,1-2.76307,1.04,4.37212,4.37212,0,0,0-3.17441-1.35245,4.28523,4.28523,0,0,0-4.23714,5.25718,12.41535,12.41535,0,0,1-8.96491-4.4733,4.2123,4.2123,0,0,0-.58935,2.15281,4.26432,4.26432,0,0,0,1.93573,3.56293,4.39117,4.39117,0,0,1-1.97021-.53529v.0537a4.30347,4.30347,0,0,0,3.48972,4.19877,4.434,4.434,0,0,1-1.96534.07335,4.34829,4.34829,0,0,0,4.06324,2.97337,8.818,8.818,0,0,1-5.40269,1.8327,9.028,9.028,0,0,1-1.03792-.05972,12.46362,12.46362,0,0,0,6.66836,1.92308,12.188,12.188,0,0,0,12.37463-12.18136c0-.18543-.00275-.37092-.011-.55423a8.75061,8.75061,0,0,0,2.16963-2.21669,8.77068,8.77068,0,0,1-2.49815.67394A4.3047,4.3047,0,0,0,522.95445,532.12394Z" transform="translate(-495.97825 -523.33166)"/></svg>