<svg id="Layer_1" data-name="Layer 1" xmlns="http://www.w3.org/2000/svg" viewBox="0 0 33.47453 33.47453"><defs><style>.cls-1{fill:#5e332e;}.cls-2{fill:#fff;}</style></defs><title>p3_instagram</title><path class="cls-1" d="M529.94557,539.84722A16.73727,16.73727,0,1,1,513.209,523.11009,16.73776,16.73776,0,0,1,529.94557,539.84722Z" transform="translate(-496.47103 -523.11009)"/><path class="cls-2" d="M519.62509,529.38657H506.79018a4.04646,4.04646,0,0,0-4.04267,4.04268v12.83622a4.04646,4.04646,0,0,0,4.04267,4.04268h12.83491a4.0476,4.0476,0,0,0,4.044-4.04268V533.42925A4.0476,4.0476,0,0,0,519.62509,529.38657Zm1.16052,2.41226.46174-.00272v3.54551l-3.53324.0122-.01227-3.54544Zm-10.563,5.90191a3.67454,3.67454,0,1,1-.69739,2.14662A3.67933,3.67933,0,0,1,510.22265,537.70074Zm11.40875,8.56473a2.00779,2.00779,0,0,1-2.00631,2.005H506.79018a2.00666,2.00666,0,0,1-2.005-2.005v-8.56473h3.12324a5.7214,5.7214,0,1,0,10.59839,0h3.12457Z" transform="translate(-496.47103 -523.11009)"/></svg>