<svg id="Layer_1" data-name="Layer 1" xmlns="http://www.w3.org/2000/svg" viewBox="0 0 33.47663 33.47453"><defs><style>.cls-1{fill:#5e332e;}.cls-2{fill:#fff;}</style></defs><title>p3_twitter</title><path class="cls-1" d="M529.43736,539.84736a16.73831,16.73831,0,1,1-16.73726-16.73727A16.7381,16.7381,0,0,1,529.43736,539.84736Z" transform="translate(-495.96074 -523.11009)"/><path class="cls-2" d="M522.58331,531.78711a8.67617,8.67617,0,0,1-2.72685,1.02634,4.3148,4.3148,0,0,0-3.1328-1.33472,4.22908,4.22908,0,0,0-4.1816,5.18827,12.2526,12.2526,0,0,1-8.84738-4.41466,4.157,4.157,0,0,0-.58162,2.12458,4.20838,4.20838,0,0,0,1.91035,3.51622,4.33336,4.33336,0,0,1-1.94439-.52827v.053a4.24707,4.24707,0,0,0,3.444,4.14372,4.37594,4.37594,0,0,1-1.93957.07239,4.29131,4.29131,0,0,0,4.01,2.9344,8.70242,8.70242,0,0,1-5.33186,1.80867,8.913,8.913,0,0,1-1.02432-.05893,12.30032,12.30032,0,0,0,6.58095,1.89786,12.02822,12.02822,0,0,0,12.21242-12.02168c0-.183-.00272-.36606-.01088-.547a8.63594,8.63594,0,0,0,2.14119-2.18763,8.65542,8.65542,0,0,1-2.46541.6651A4.24822,4.24822,0,0,0,522.58331,531.78711Z" transform="translate(-495.96074 -523.11009)"/></svg>