<svg id="Layer_1" data-name="Layer 1" xmlns="http://www.w3.org/2000/svg" viewBox="0 0 17.73499 17.73388"><defs><style>.cls-1{fill:#5e332e;}.cls-2{fill:#fff;}</style></defs><title>project3_twitter-icon</title><path class="cls-1" d="M521.47032,539.93577a8.8675,8.8675,0,1,1-8.86694-8.86694A8.86738,8.86738,0,0,1,521.47032,539.93577Z" transform="translate(-503.73533 -531.06883)"/><path class="cls-2" d="M517.83923,535.66568a4.5965,4.5965,0,0,1-1.44461.54372,2.28586,2.28586,0,0,0-1.65967-.7071,2.24044,2.24044,0,0,0-2.21529,2.74861,6.49111,6.49111,0,0,1-4.6871-2.33877,2.20222,2.20222,0,0,0-.30813,1.12555,2.22949,2.22949,0,0,0,1.012,1.86279,2.2958,2.2958,0,0,1-1.03008-.27986v.02808a2.25,2.25,0,0,0,1.82452,2.19523,2.31845,2.31845,0,0,1-1.02753.03835,2.2734,2.2734,0,0,0,2.12437,1.55456,4.61028,4.61028,0,0,1-2.82467.95819,4.72327,4.72327,0,0,1-.54266-.03122,6.51636,6.51636,0,0,0,3.48641,1.00543,6.37222,6.37222,0,0,0,6.4698-6.36875c0-.09695-.00144-.19393-.00577-.28976a4.57525,4.57525,0,0,0,1.13435-1.159,4.58553,4.58553,0,0,1-1.30611.35235A2.25056,2.25056,0,0,0,517.83923,535.66568Z" transform="translate(-503.73533 -531.06883)"/></svg>