<svg id="Layer_1" data-name="Layer 1" xmlns="http://www.w3.org/2000/svg" viewBox="0 0 17.73388 17.73388"><defs><style>.cls-1{fill:#5e332e;}.cls-2{fill:#fff;}</style></defs><title>project3_instagram-icon</title><path class="cls-1" d="M521.54428,539.9357a8.86694,8.86694,0,1,1-8.86657-8.86687A8.8672,8.8672,0,0,1,521.54428,539.9357Z" transform="translate(-503.8104 -531.06883)"/><path class="cls-2" d="M516.07678,534.39393H509.2772a2.14371,2.14371,0,0,0-2.1417,2.1417v6.80028a2.14371,2.14371,0,0,0,2.1417,2.1417h6.79958a2.14431,2.14431,0,0,0,2.1424-2.1417v-6.80028A2.14431,2.14431,0,0,0,516.07678,534.39393Zm.61481,1.278.24461-.00144v1.87832l-1.87181.00646-.0065-1.87828Zm-5.596,3.12667a1.94668,1.94668,0,1,1-.36945,1.13722A1.94924,1.94924,0,0,1,511.09562,538.79855Zm6.044,4.53736a1.06367,1.06367,0,0,1-1.06288,1.06219H509.2772a1.06308,1.06308,0,0,1-1.06219-1.06219v-4.53736h1.65461a3.031,3.031,0,1,0,5.61473,0h1.65531Z" transform="translate(-503.8104 -531.06883)"/></svg>