<svg id="Layer_1" data-name="Layer 1" xmlns="http://www.w3.org/2000/svg" xmlns:xlink="http://www.w3.org/1999/xlink" viewBox="0 0 227.17836 94.48931"><defs><style>.cls-1{fill:#714192;}.cls-2{fill:url(#linear-gradient);}.cls-3{fill:url(#linear-gradient-2);}.cls-4{fill:url(#linear-gradient-3);}.cls-5{fill:url(#linear-gradient-4);}.cls-6{fill:url(#linear-gradient-5);}.cls-7{fill:url(#linear-gradient-6);}.cls-8{fill:url(#linear-gradient-7);}.cls-9{fill:url(#linear-gradient-8);}.cls-10{fill:url(#linear-gradient-9);}.cls-11{fill:url(#linear-gradient-10);}.cls-12{fill:url(#linear-gradient-11);}.cls-13{fill:url(#linear-gradient-12);}.cls-14{fill:url(#linear-gradient-13);}.cls-15{fill:url(#linear-gradient-14);}.cls-16{fill:url(#linear-gradient-15);}.cls-17{fill:url(#linear-gradient-16);}.cls-18{fill:url(#linear-gradient-17);}.cls-19{fill:url(#linear-gradient-18);}.cls-20{fill:url(#linear-gradient-19);}.cls-21{fill:url(#linear-gradient-20);}.cls-22{fill:url(#linear-gradient-21);}.cls-23{fill:url(#linear-gradient-22);}.cls-24{fill:url(#linear-gradient-23);}.cls-25{fill:url(#linear-gradient-24);}.cls-26{fill:url(#linear-gradient-25);}.cls-27{fill:url(#linear-gradient-26);}.cls-28{fill:url(#linear-gradient-27);}.cls-29{fill:url(#linear-gradient-28);}.cls-30{fill:url(#linear-gradient-29);}.cls-31{fill:url(#linear-gradient-30);}.cls-32{fill:url(#linear-gradient-31);}.cls-33{fill:url(#linear-gradient-32);}.cls-34{fill:url(#linear-gradient-33);}.cls-35{fill:url(#linear-gradient-34);}.cls-36{fill:url(#linear-gradient-35);}.cls-37{fill:url(#linear-gradient-36);}.cls-38{stroke:#dbb4ee;stroke-miterlimit:10;stroke-width:0.0025px;fill:url(#linear-gradient-37);}.cls-39{fill:url(#linear-gradient-38);}</style><linearGradient id="linear-gradient" x1="428.98783" y1="501.97995" x2="441.84812" y2="501.97995" gradientUnits="userSpaceOnUse"><stop offset="0.27033" stop-color="#745793"/><stop offset="0.66271" stop-color="#714192"/><stop offset="0.7568" stop-color="#663a8b"/><stop offset="0.91922" stop-color="#4a2878"/><stop offset="1" stop-color="#3a1d6d"/></linearGradient><linearGradient id="linear-gradient-2" x1="436.05085" y1="500.57777" x2="429.50884" y2="504.3548" gradientUnits="userSpaceOnUse"><stop offset="0" stop-color="#8478f8"/><stop offset="0.18722" stop-color="#7e6bd0"/><stop offset="0.44705" stop-color="#745793"/><stop offset="0.66271" stop-color="#714192"/><stop offset="0.7568" stop-color="#663a8b"/><stop offset="0.91922" stop-color="#4a2878"/><stop offset="1" stop-color="#3a1d6d"/></linearGradient><linearGradient id="linear-gradient-3" x1="207.28829" y1="502.18217" x2="220.14858" y2="502.18217" gradientTransform="matrix(-1, 0, 0, 1, 674.27995, 0)" xlink:href="#linear-gradient"/><linearGradient id="linear-gradient-4" x1="214.35131" y1="500.77999" x2="207.8093" y2="504.55702" gradientTransform="matrix(-1, 0, 0, 1, 674.27995, 0)" xlink:href="#linear-gradient-2"/><linearGradient id="linear-gradient-5" x1="409.63442" y1="535.0674" x2="416.98301" y2="522.33927" gradientUnits="userSpaceOnUse"><stop offset="0.06384" stop-color="#714192"/><stop offset="0.22038" stop-color="#663a8b"/><stop offset="0.49062" stop-color="#4a2878"/><stop offset="0.5933" stop-color="#3e2070"/><stop offset="1" stop-color="#3a1d6d"/></linearGradient><linearGradient id="linear-gradient-6" x1="231.95754" y1="535.0674" x2="239.30613" y2="522.33927" gradientTransform="matrix(-1, 0, 0, 1, 718.3026, 0)" xlink:href="#linear-gradient-5"/><linearGradient id="linear-gradient-7" x1="447.99872" y1="587.06876" x2="447.99872" y2="581.7419" gradientUnits="userSpaceOnUse"><stop offset="0.06384" stop-color="#714192"/><stop offset="0.17879" stop-color="#623888"/><stop offset="0.42807" stop-color="#482677"/><stop offset="0.57553" stop-color="#3e2070"/><stop offset="1" stop-color="#3a1d6d"/></linearGradient><linearGradient id="linear-gradient-8" x1="465.9253" y1="514.51427" x2="465.9253" y2="578.64283" gradientUnits="userSpaceOnUse"><stop offset="0.06384" stop-color="#714192"/><stop offset="0.22986" stop-color="#663a8b"/><stop offset="0.51648" stop-color="#4a2878"/><stop offset="0.62538" stop-color="#3e2070"/><stop offset="1" stop-color="#3a1d6d"/></linearGradient><linearGradient id="linear-gradient-9" x1="-117.11085" y1="519.03596" x2="-117.11085" y2="534.84372" gradientTransform="matrix(-1, 0, 0, 1, 350.15303, 0)" xlink:href="#linear-gradient-8"/><linearGradient id="linear-gradient-10" x1="-115.64882" y1="519.03596" x2="-115.64882" y2="534.84372" gradientTransform="matrix(-1, 0, 0, 1, 350.15303, 0)" xlink:href="#linear-gradient-8"/><linearGradient id="linear-gradient-11" x1="467.26124" y1="514.51427" x2="467.26124" y2="578.64283" xlink:href="#linear-gradient-8"/><linearGradient id="linear-gradient-12" x1="-117.23308" y1="519.03965" x2="-117.23308" y2="534.8474" gradientTransform="matrix(-1, 0, 0, 1, 350.15303, 0)" xlink:href="#linear-gradient"/><linearGradient id="linear-gradient-13" x1="-119.13682" y1="528.64534" x2="-119.13682" y2="577.15005" gradientTransform="matrix(-1, 0, 0, 1, 335.98437, 0)" xlink:href="#linear-gradient-8"/><linearGradient id="linear-gradient-14" x1="60.84642" y1="35.54008" x2="60.84728" y2="35.54008" xlink:href="#linear-gradient-8"/><linearGradient id="linear-gradient-15" x1="456.49747" y1="514.51427" x2="456.49747" y2="578.64283" xlink:href="#linear-gradient-8"/><linearGradient id="linear-gradient-16" x1="458.13066" y1="514.51424" x2="458.13066" y2="578.6428" xlink:href="#linear-gradient-8"/><linearGradient id="linear-gradient-17" x1="-123.9629" y1="528.64534" x2="-123.9629" y2="577.15005" gradientTransform="matrix(-1, 0, 0, 1, 335.98437, 0)" xlink:href="#linear-gradient-8"/><linearGradient id="linear-gradient-18" x1="456.41427" y1="514.51427" x2="456.41427" y2="578.64283" xlink:href="#linear-gradient-8"/><linearGradient id="linear-gradient-19" x1="-120.4299" y1="528.68052" x2="-120.4299" y2="577.18523" gradientTransform="matrix(-1, 0, 0, 1, 335.98437, 0)" gradientUnits="userSpaceOnUse"><stop offset="0.06384" stop-color="#714192"/><stop offset="0.22986" stop-color="#663a8b"/><stop offset="0.51648" stop-color="#4a2878"/><stop offset="0.62538" stop-color="#3e2070"/><stop offset="1" stop-color="#291d07"/></linearGradient><linearGradient id="linear-gradient-20" x1="460.55823" y1="514.51427" x2="460.55823" y2="578.64283" xlink:href="#linear-gradient-8"/><linearGradient id="linear-gradient-21" x1="-124.57386" y1="528.64534" x2="-124.57386" y2="577.15005" gradientTransform="matrix(-1, 0, 0, 1, 335.98437, 0)" xlink:href="#linear-gradient-8"/><linearGradient id="linear-gradient-22" x1="35.75114" y1="35.48952" x2="35.752" y2="35.48952" xlink:href="#linear-gradient-8"/><linearGradient id="linear-gradient-23" x1="285.85096" y1="514.46371" x2="285.85096" y2="578.59227" gradientTransform="matrix(-1, 0, 0, 1, 725.35092, 0)" xlink:href="#linear-gradient-8"/><linearGradient id="linear-gradient-24" x1="287.48415" y1="514.46368" x2="287.48415" y2="578.59224" gradientTransform="matrix(-1, 0, 0, 1, 725.35092, 0)" xlink:href="#linear-gradient-8"/><linearGradient id="linear-gradient-25" x1="295.27879" y1="514.46371" x2="295.27879" y2="578.59227" gradientTransform="matrix(-1, 0, 0, 1, 725.35092, 0)" xlink:href="#linear-gradient-8"/><linearGradient id="linear-gradient-26" x1="53.53566" y1="518.98541" x2="53.53566" y2="534.79316" gradientTransform="translate(375.19789)" xlink:href="#linear-gradient-8"/><linearGradient id="linear-gradient-27" x1="54.99769" y1="518.98541" x2="54.99769" y2="534.79316" gradientTransform="translate(375.19789)" xlink:href="#linear-gradient-8"/><linearGradient id="linear-gradient-28" x1="296.61473" y1="514.46371" x2="296.61473" y2="578.59227" gradientTransform="matrix(-1, 0, 0, 1, 725.35092, 0)" xlink:href="#linear-gradient-8"/><linearGradient id="linear-gradient-29" x1="53.41343" y1="518.98909" x2="53.41343" y2="534.79684" gradientTransform="translate(375.19789)" xlink:href="#linear-gradient"/><linearGradient id="linear-gradient-30" x1="46.68361" y1="528.59478" x2="46.68361" y2="577.0995" gradientTransform="translate(389.36655)" xlink:href="#linear-gradient-8"/><linearGradient id="linear-gradient-31" x1="285.76776" y1="514.46371" x2="285.76776" y2="578.59227" gradientTransform="matrix(-1, 0, 0, 1, 725.35092, 0)" xlink:href="#linear-gradient-8"/><linearGradient id="linear-gradient-32" x1="50.21661" y1="528.62996" x2="50.21661" y2="577.13467" gradientTransform="translate(389.36655)" xlink:href="#linear-gradient-19"/><linearGradient id="linear-gradient-33" x1="289.91172" y1="514.46371" x2="289.91172" y2="578.59227" gradientTransform="matrix(-1, 0, 0, 1, 725.35092, 0)" xlink:href="#linear-gradient-8"/><linearGradient id="linear-gradient-34" x1="46.07265" y1="528.59478" x2="46.07265" y2="577.09949" gradientTransform="translate(389.36655)" xlink:href="#linear-gradient-8"/><linearGradient id="linear-gradient-35" x1="216.28615" y1="537.65035" x2="214.07891" y2="600.85738" gradientTransform="matrix(-1, 0, 0, 1, 676.09933, 0)" gradientUnits="userSpaceOnUse"><stop offset="0.06384" stop-color="#714192"/><stop offset="0.15121" stop-color="#663a8b"/><stop offset="0.30204" stop-color="#4a2878"/><stop offset="0.35936" stop-color="#3e2070"/><stop offset="0.5338" stop-color="#3a1d6d"/><stop offset="0.65342" stop-color="#3a1d6d"/><stop offset="0.65761" stop-color="#2e1756"/><stop offset="0.66375" stop-color="#20103b"/><stop offset="0.67081" stop-color="#140a25"/><stop offset="0.67906" stop-color="#0b0514"/><stop offset="0.68925" stop-color="#050209"/><stop offset="0.70356" stop-color="#010002"/><stop offset="0.74328"/></linearGradient><linearGradient id="linear-gradient-36" x1="452.35415" y1="579.9584" x2="455.50977" y2="574.49271" gradientUnits="userSpaceOnUse"><stop offset="0" stop-color="#9cc3fa" stop-opacity="0.15"/><stop offset="0.09217" stop-color="#88a2de" stop-opacity="0.3203"/><stop offset="0.29159" stop-color="#6668ac" stop-opacity="0.61831"/><stop offset="0.49939" stop-color="#4d3e89" stop-opacity="0.83172"/><stop offset="0.71898" stop-color="#3f2574" stop-opacity="0.95881"/><stop offset="0.96995" stop-color="#3a1d6d"/></linearGradient><linearGradient id="linear-gradient-37" x1="458.82735" y1="537.65035" x2="456.62011" y2="600.85738" gradientTransform="translate(-22.64309)" gradientUnits="userSpaceOnUse"><stop offset="0.06384" stop-color="#714192"/><stop offset="0.15121" stop-color="#663a8b"/><stop offset="0.30204" stop-color="#4a2878"/><stop offset="0.35936" stop-color="#3e2070"/><stop offset="0.5338" stop-color="#3a1d6d"/><stop offset="0.65342" stop-color="#3a1d6d"/></linearGradient><linearGradient id="linear-gradient-38" x1="209.81295" y1="579.9584" x2="212.96857" y2="574.49271" gradientTransform="matrix(-1, 0, 0, 1, 653.45623, 0)" xlink:href="#linear-gradient-36"/></defs><title>purple-goat_logo</title><g id="Logo"><path class="cls-1" d="M510.73039,527.42975a12.04959,12.04959,0,0,0-.19912,1.82476,9.23677,9.23677,0,0,0,.99524,4.81047,6.8226,6.8226,0,0,1-4.147,1.493,3.60068,3.60068,0,0,1-3.08526-1.244,6.1737,6.1737,0,0,1-.92909-3.716q0-2.47087,2.09-14.01664l-1.75829-3.55a12.89391,12.89391,0,0,1,6.83435-2.42177,6.503,6.503,0,0,1,1.89091.31521,3.88084,3.88084,0,0,1,1.45995.71344,12.53228,12.53228,0,0,1,4.54487-.96217,6.07029,6.07029,0,0,1,4.92657,2.173,7.95094,7.95094,0,0,1,1.80822,5.25831,9.52906,9.52906,0,0,1-2.68737,6.63523,9.11391,9.11391,0,0,1-3.48348,2.28914,12.07112,12.07112,0,0,1-4.46186.86261A13.21672,13.21672,0,0,1,510.73039,527.42975Zm.63041-3.78183a4.58707,4.58707,0,0,0,.96183.09956,5.49713,5.49713,0,0,0,3.78216-1.493,4.7602,4.7602,0,0,0,1.65872-3.68261,3.92562,3.92562,0,0,0-.87914-2.58747,3.03092,3.03092,0,0,0-2.47172-1.06172,5.27519,5.27519,0,0,0-1.52609.26526Q512.2229,519.73381,511.3608,523.64792Z" transform="translate(-399.69951 -493.13966)"/><path class="cls-1" d="M532.56008,535.52493q-2.9199,0-4.08084-1.42654a5.51511,5.51511,0,0,1-1.16094-3.59958,33.43,33.43,0,0,1,.72964-5.95521,32.8751,32.8751,0,0,0,.73-5.474,4.45236,4.45236,0,0,0-.69656-2.6543,11.7395,11.7395,0,0,1,5.20836-1.62531,2.92463,2.92463,0,0,1,1.97427.5474,2.27219,2.27219,0,0,1,.61354,1.77481,41.73569,41.73569,0,0,1-1.01177,6.02136,42.78967,42.78967,0,0,0-1.01177,5.9218,2.43524,2.43524,0,0,0,.63008,1.77515,2.21123,2.21123,0,0,0,1.65906.647,3.87157,3.87157,0,0,0,2.18959-.813,5.90053,5.90053,0,0,0,1.89091-2.30568q.4642-2.687,1.82476-8.49307l-1.9908-2.654a11.01586,11.01586,0,0,1,6.37-2.42177,3.31175,3.31175,0,0,1,2.13964.5474,2.05162,2.05162,0,0,1,.647,1.65872,44.79686,44.79686,0,0,1-1.21089,6.3531,38.48872,38.48872,0,0,0-1.21088,7.44789,3.94946,3.94946,0,0,0,1.02864,3.10214,5.86287,5.86287,0,0,1-3.89825,1.62565,4.03668,4.03668,0,0,1-2.93609-.896,3.18443,3.18443,0,0,1-.89568-2.35528l-.33175-.16605a7.4094,7.4094,0,0,1-3.03565,2.5048A9.66673,9.66673,0,0,1,532.56008,535.52493Z" transform="translate(-399.69951 -493.13966)"/><path class="cls-1" d="M552.33281,531.411a36.33365,36.33365,0,0,1,.68-5.14221q.67935-3.8149,1.41-6.967l-1.72521-2.654q4.147-1.85784,5.82224-1.85784,1.6751,0,1.6756,2.1231a22.38276,22.38276,0,0,1-1.09479,4.84354l.33174.166q2.38836-7.13268,5.93834-7.13268a3.11533,3.11533,0,0,1,2.48825.99524,3.31187,3.31187,0,0,1,.86261,2.22265,4.14925,4.14925,0,0,1-1.3604,3.11867,5.72019,5.72019,0,0,1-4.08049,1.29391q-4.11408,0-4.11391,8.45966a5.195,5.195,0,0,0,.6969,3.01912,6.31657,6.31657,0,0,1-3.78216,1.62565Q552.332,535.52493,552.33281,531.411Z" transform="translate(-399.69951 -493.13966)"/><path class="cls-1" d="M573.56482,541.29722a3.49643,3.49643,0,0,1-2.86961-1.01177,4.56794,4.56794,0,0,1-.81266-2.91956,69.47028,69.47028,0,0,1,.81266-7.68008q.81249-5.77245,1.576-9.85312l-1.85784-2.6543a30.12465,30.12465,0,0,1,3.54964-1.80789,7.72473,7.72473,0,0,1,2.95263-.61388q2.38887,0,2.3887,3.15174,0,.43182-.13263,1.75829l.33174.166a8.39157,8.39157,0,0,1,2.78659-3.73222,7.04576,7.04576,0,0,1,4.29648-1.34385,4.48783,4.48783,0,0,1,3.93133,2.23953,9.97117,9.97117,0,0,1,1.45961,5.557,12.16745,12.16745,0,0,1-3.11833,8.09484,11.027,11.027,0,0,1-4.08083,2.903,14.15756,14.15756,0,0,1-5.70615,1.11132,24.7917,24.7917,0,0,1-2.52133-.166q-.09972,1.16078-.09956,2.15651a3.82881,3.82881,0,0,0,1.02831,3.01912A5.88,5.88,0,0,1,573.56482,541.29722Zm4.34609-13.73451-.763,3.84831a8.74811,8.74811,0,0,0,6.41958-2.63742,7.93131,7.93131,0,0,0,2.40523-5.557,4.54493,4.54493,0,0,0-.61354-2.50479,1.9892,1.9892,0,0,0-1.77515-.94563Q579.46991,519.7662,577.91091,527.56271Z" transform="translate(-399.69951 -493.13966)"/><path class="cls-1" d="M598.41329,514.06006l-1.85784-2.654q4.147-2.42178,6.53567-2.42211a2.72337,2.72337,0,0,1,1.92433.5474,2.86333,2.86333,0,0,1,.56393,2.057,64.60219,64.60219,0,0,1-1.47648,8.50961,56.11267,56.11267,0,0,0-1.47615,9.82005,6.01685,6.01685,0,0,0,1.02831,3.98128,7.57875,7.57875,0,0,1-4.21313,1.62565,3.15714,3.15714,0,0,1-2.77039-1.2443,5.8639,5.8639,0,0,1-.87914-3.43354,64.124,64.124,0,0,1,1.22776-8.95745Q598.24674,515.12145,598.41329,514.06006Z" transform="translate(-399.69951 -493.13966)"/><path class="cls-1" d="M617.22386,535.52493q-4.54588,0-7.01693-2.35563a8.382,8.382,0,0,1-2.47138-6.36963,11.1816,11.1816,0,0,1,3.66573-8.67565,13.16367,13.16367,0,0,1,9.20651-3.334,6.96866,6.96866,0,0,1,4.6775,1.37659,4.568,4.568,0,0,1,1.59258,3.633,6.03382,6.03382,0,0,1-3.00224,5.12534q-3.00291,2.04059-9.27266,2.07349a6.17071,6.17071,0,0,0,.96183,3.33433,2.56741,2.56741,0,0,0,2.15651,1.21088,3.21085,3.21085,0,0,0,2.23953-.8626,3.65958,3.65958,0,0,0,.94529-2.82q4.84355,0,4.84388,2.28914,0,1.95807-2.3887,3.66607A10.302,10.302,0,0,1,617.22386,535.52493Zm2.81966-16.85352a4.03225,4.03225,0,0,0-3.10179,1.69214,10.46724,10.46724,0,0,0-2.04042,3.98093,9.66846,9.66846,0,0,0,4.99305-1.50955,3.40905,3.40905,0,0,0,1.67526-2.63742,1.51782,1.51782,0,0,0-.41443-1.0948A1.47249,1.47249,0,0,0,620.04352,518.67141Z" transform="translate(-399.69951 -493.13966)"/><path class="cls-1" d="M522.5908,570.56038l-2.43137-5.00631q5.10136-3.38514,9.20216-3.38539,3.43244,0,3.43243,3.86216a48.87361,48.87361,0,0,1-1.311,6.69852,40.85839,40.85839,0,0,0-1.311,8.55854,6.398,6.398,0,0,0,1.28723,4.38646,9.31627,9.31627,0,0,1-5.57862,1.9546,4.50941,4.50941,0,0,1-4.12407-1.90707,10.45575,10.45575,0,0,1-1.21593-5.57814,18.727,18.727,0,0,1-5.34.76293,14.10249,14.10249,0,0,1-10.46513-4.00524q-3.98172-4.005-3.98148-11.82413a17.69123,17.69123,0,0,1,1.43031-6.79455,22.7369,22.7369,0,0,1,4.05277-6.41285,19.7288,19.7288,0,0,1,6.84208-4.839,21.18654,21.18654,0,0,1,8.7249-1.88331,12.80566,12.80566,0,0,1,7.05646,1.66845,5.24408,5.24408,0,0,1,2.55117,4.62508,5.71633,5.71633,0,0,1-1.93133,4.60084,6.61018,6.61018,0,0,1-4.41022,1.64516,9.20018,9.20018,0,0,1-4.45776-1.07285,8.17083,8.17083,0,0,1-3.17053-3.07547,10.32563,10.32563,0,0,0-4.43447,4.86323,16.39209,16.39209,0,0,0-1.85954,7.58076q0,3.95842,1.54961,5.93607a4.74487,4.74487,0,0,0,3.88593,1.97886Q519.96858,573.89776,522.5908,570.56038Z" transform="translate(-399.69951 -493.13966)"/><path class="cls-1" d="M535.89277,568.36715a16.60383,16.60383,0,0,1,4.93453-12.46823,17.29227,17.29227,0,0,1,12.56329-4.79145,15.78768,15.78768,0,0,1,3.43293.38122,10.67683,10.67683,0,0,1,.57231,3.576,7.30213,7.30213,0,0,1,2.00262-.33368,5.98926,5.98926,0,0,1,4.60084,2.14521q1.93083,2.14618,1.93083,6.22223a19.5107,19.5107,0,0,1-1.4303,7.53323,16.00789,16.00789,0,0,1-3.76661,5.64992,17.26785,17.26785,0,0,1-5.29247,3.40915,15.785,15.785,0,0,1-6.0549,1.21593q-6.24721,0-9.86953-3.43292A11.95762,11.95762,0,0,1,535.89277,568.36715Zm14.9709,6.67475a5.33459,5.33459,0,0,0,3.36163-1.21593,7.27673,7.27673,0,0,0,2.31206-3.79037,9.13041,9.13041,0,0,1-3.26608-3.38491,9.68,9.68,0,0,1-1.16791-4.79193,8.97232,8.97232,0,0,1,1.90707-5.31623,9.6054,9.6054,0,0,0-6.29353,4.14832,12.02409,12.02409,0,0,0-2.19323,6.74653,9.69683,9.69683,0,0,0,1.40654,5.53061A4.48755,4.48755,0,0,0,550.86367,575.0419Z" transform="translate(-399.69951 -493.13966)"/><path class="cls-1" d="M588.19611,573.85022l-.47677-.23862a12.15245,12.15245,0,0,1-3.69532,5.36376,8.365,8.365,0,0,1-5.36376,1.93132,7.8721,7.8721,0,0,1-6.48414-3.0517,12.706,12.706,0,0,1-2.43185-8.15307,18.20421,18.20421,0,0,1,18.5469-18.59444,17.385,17.385,0,0,1,3.76661.38122,14.6834,14.6834,0,0,1,.33418,2.33631,8.995,8.995,0,0,1,4.91075-1.52585q3.47973,0,3.48046,3.76661a60.75931,60.75931,0,0,1-1.50209,8.058,50.94115,50.94115,0,0,0-1.5016,9.9646q0,3.24327,1.47784,4.482a8.375,8.375,0,0,1-5.55437,2.33631,4.9437,4.9437,0,0,1-4.19585-1.71646Q588.19538,577.47327,588.19611,573.85022Zm-9.48832-6.48462a5.7724,5.7724,0,0,0,.97779,3.59977,3.31566,3.31566,0,0,0,2.78883,1.26346,5.89016,5.89016,0,0,0,3.576-1.33476,10.46231,10.46231,0,0,0,2.95615-3.67155,94.15776,94.15776,0,0,1,1.85954-11.3949,11.967,11.967,0,0,0-8.48676,3.48045A10.79281,10.79281,0,0,0,578.70779,567.3656Z" transform="translate(-399.69951 -493.13966)"/><path class="cls-1" d="M606.12268,562.50237a10.25558,10.25558,0,0,1-.33369-2.47939,4.40227,4.40227,0,0,1,1.38277-3.528,5.28484,5.28484,0,0,1,3.576-1.19216,13.41006,13.41006,0,0,0-1.28722-5.38753,24.821,24.821,0,0,1,4.26714-2.5987,9.70839,9.70839,0,0,1,4.07654-.88175,4.35062,4.35062,0,0,1,2.97992.78669,3.16428,3.16428,0,0,1,.83422,2.4076,29.63409,29.63409,0,0,1-.66737,5.05384,34.77019,34.77019,0,0,0,3.86216-.81046,8.32411,8.32411,0,0,1,.33368,2.57494,4.3235,4.3235,0,0,1-1.21592,2.9319,4.51922,4.51922,0,0,1-3.55224,1.359h-.71491a59.97978,59.97978,0,0,0-1.71646,11.96721q0,4.19634,1.47783,5.86478a8.50219,8.50219,0,0,1-5.67368,2.33631,4.9932,4.9932,0,0,1-4.31516-1.78824q-1.31172-1.78752-1.311-5.55437a105.3564,105.3564,0,0,1,1.66893-12.01523A23.0799,23.0799,0,0,0,606.12268,562.50237Z" transform="translate(-399.69951 -493.13966)"/><path class="cls-2" d="M429.992,493.13966h0a1.07344,1.07344,0,0,0-1.00318,1.03876,1.10047,1.10047,0,0,0,.04538.35672l.03477-.0321s10.31058,1.62561,6.753,16.31719c2.64185-.5588,6.02622-1.77967,6.02622-3.73624C441.84812,504.635,434.26809,493.39306,429.992,493.13966Z" transform="translate(-399.69951 -493.13966)"/><path class="cls-3" d="M429.06893,494.503l-.03477.0321h0a4.8449,4.8449,0,0,1,.12309.58381l.22657.95611a4.13808,4.13808,0,0,0,.22716.68442,5.03982,5.03982,0,0,0,1.25076,1.99379c2.28852,2.3713,3.37615,6.86292,3.51593,7.47532a19.839,19.839,0,0,0-1.91634-3.32588,5.43158,5.43158,0,0,0-1.853-1.42538c.75129,3.79167,1.752,9.83225,3.42579,9.64025.50083-.05746,1.11274-.15509,1.77139-.29391a.02676.02676,0,0,0,.02028-.01969C439.37189,496.12745,429.06893,494.503,429.06893,494.503Z" transform="translate(-399.69951 -493.13966)"/><path class="cls-4" d="M465.98752,493.34188h0a1.07346,1.07346,0,0,1,1.00318,1.03877,1.10064,1.10064,0,0,1-.04537.35671l-.03478-.0321s-10.31058,1.62561-6.753,16.3172c-2.64185-.5588-6.02622-1.77968-6.02622-3.73624C454.13136,504.83726,461.71139,493.59528,465.98752,493.34188Z" transform="translate(-399.69951 -493.13966)"/><path class="cls-5" d="M466.91055,494.70526l.03478.0321h0a4.84316,4.84316,0,0,0-.1231.58382l-.22657.9561a4.136,4.136,0,0,1-.22716.68443,5.03978,5.03978,0,0,1-1.25076,1.99379c-2.28852,2.37129-3.37615,6.86291-3.51593,7.47531a19.83985,19.83985,0,0,1,1.91634-3.32588,5.43147,5.43147,0,0,1,1.853-1.42537c-.75129,3.79167-1.752,9.83224-3.42578,9.64024-.50084-.05745-1.11275-.15508-1.7714-.2939a.02678.02678,0,0,1-.02028-.01969C456.60759,496.32967,466.91055,494.70526,466.91055,494.70526Z" transform="translate(-399.69951 -493.13966)"/><path class="cls-1" d="M422.7312,525.658c-9.97247-4.74882-23.03169-.35615-23.03169-.35615.557,4.34446,3.91,6.83327,7.31286,8.25172-.04473-.0634-.08954-.12684-.13426-.19232C406.87811,533.36124,397.12714,525.6728,422.7312,525.658Z" transform="translate(-399.69951 -493.13966)"/><path class="cls-6" d="M413.6765,533.98944c-.58228-.80239-1.37767-1.97476-2.34246-3.58264-2.1369-3.56163,11.39716-4.74881,11.39716-4.74881-25.60406.01481-15.85309,7.70325-15.85309,7.70325.04472.06548.08953.12892.13426.19232a26.32229,26.32229,0,0,0,5.938,1.62366A.75347.75347,0,0,0,413.6765,533.98944Z" transform="translate(-399.69951 -493.13966)"/><path class="cls-1" d="M473.24828,525.658c9.97247-4.74882,23.03169-.35615,23.03169-.35615-.557,4.34446-3.91,6.83327-7.31286,8.25172.04473-.0634.08954-.12684.13426-.19232C489.10137,533.36124,498.85234,525.6728,473.24828,525.658Z" transform="translate(-399.69951 -493.13966)"/><path class="cls-7" d="M482.303,533.98944c.58229-.80239,1.37767-1.97476,2.34246-3.58264,2.1369-3.56163-11.39716-4.74881-11.39716-4.74881,25.60406.01481,15.85309,7.70325,15.85309,7.70325-.04472.06548-.08953.12892-.13426.19232a26.32229,26.32229,0,0,1-5.938,1.62366A.75347.75347,0,0,1,482.303,533.98944Z" transform="translate(-399.69951 -493.13966)"/><path class="cls-8" d="M440.13851,581.7419a3.14054,3.14054,0,0,0-.02622.38556c0,2.729,3.53094,4.9413,7.88643,4.9413s7.88642-2.21229,7.88642-4.9413a3.15835,3.15835,0,0,0-.02612-.38556Z" transform="translate(-399.69951 -493.13966)"/><path class="cls-9" d="M465.81879,519.06362c.075.06055.14063.11526.213.17426C465.96059,519.17966,465.8907,519.12176,465.81879,519.06362Z" transform="translate(-399.69951 -493.13966)"/><path class="cls-10" d="M470.29529,523.07222a54.49485,54.49485,0,0,0-4.26348-3.83434c1.74181,1.4256,3.27295,2.86552,4.25181,3.82593a2.34994,2.34994,0,0,1,.48565,2.66737c-.70653,1.52187-1.92074,3.76608-3.29326,4.70026a16.69336,16.69336,0,0,0-3.94151,4.37525l-.00639.037a16.88327,16.88327,0,0,1,3.95957-4.40381c1.3726-.93419,2.58681-3.17839,3.29335-4.70027A2.35021,2.35021,0,0,0,470.29529,523.07222Z" transform="translate(-399.69951 -493.13966)"/><path class="cls-11" d="M465.78493,519.03591l.00366.00374.0302.024Z" transform="translate(-399.69951 -493.13966)"/><path class="cls-12" d="M467.476,530.43144c1.37252-.93418,2.58673-3.17839,3.29326-4.70026a2.34994,2.34994,0,0,0-.48565-2.66737c-.97886-.96041-2.51-2.40033-4.25181-3.82593-.07239-.059-.13807-.11371-.213-.17426l-.0302-.024a5.67376,5.67376,0,0,1,.83666.8597,8.8194,8.8194,0,0,1,1.40513,7.03265c-.53079,1.79475-1.33975,2.60371-2.55311,4.09507a8.67478,8.67478,0,0,0-1.94277,3.77962A16.69336,16.69336,0,0,1,467.476,530.43144Z" transform="translate(-399.69951 -493.13966)"/><path class="cls-13" d="M470.28362,523.06381c-1.06666-.86185-2.51-2.40033-4.25181-3.82593-.07239-.059-.13807-.11371-.213-.17426l-.0302-.024a5.67376,5.67376,0,0,1,.83666.8597c1.36809,1.73692,2.70073,4.3451,2.07358,6.46532-.53079,1.79475-2.0082,3.171-3.22156,4.6624a8.67478,8.67478,0,0,0-1.94277,3.77962,21.1948,21.1948,0,0,1,4.743-4.9199C472.38947,527.25784,471.34463,523.9211,470.28362,523.06381Z" transform="translate(-399.69951 -493.13966)"/><path class="cls-14" d="M455.49761,568.71365c-.293-.89831-.535-1.80206-.75284-2.70737.19644.85293.41654,1.70469.67665,2.55358C455.46687,568.65317,455.49761,568.71365,455.49761,568.71365Z" transform="translate(-399.69951 -493.13966)"/><polygon class="cls-15" points="60.847 35.539 60.846 35.541 60.847 35.54 60.847 35.539"/><path class="cls-16" d="M454.74477,566.00628c-3.3079-14.36566,2.07041-29.02784,4.60057-34.78285C456.774,537.0365,451.32526,551.7941,454.74477,566.00628Z" transform="translate(-399.69951 -493.13966)"/><path class="cls-17" d="M468.03038,526.932a8.8194,8.8194,0,0,0-1.40513-7.03265,5.67376,5.67376,0,0,0-.83666-.8597c-2.9825-2.41045-6.531-4.71467-9.01606-4.51309-4.6429.37646-6.3153,1.75918-8.77922,2.29682v61.077q.00925-.09765.01992-.194a10.60876,10.60876,0,0,1,7.4615-8.95912c-.01946-.06234-.03417-.12507-.05331-.18741-.86072-1.76618-9.069-19.84756,5.12451-39.87934l.00078-.00156.00008.00023.02288-.03385-.02047.03883,2.96724,6.15109.01806-.02857a8.67478,8.67478,0,0,1,1.94277-3.77962C466.69063,529.53571,467.49959,528.72675,468.03038,526.932Z" transform="translate(-399.69951 -493.13966)"/><path class="cls-18" d="M460.54593,528.68052c-.00374.007-.49071.92819-1.20059,2.54291.65695-1.48537,1.121-2.382,1.20386-2.53926l-.00241-.005Z" transform="translate(-399.69951 -493.13966)"/><path class="cls-19" d="M455.42142,568.55986c-.26011-.84889-.48021-1.70065-.67665-2.55358-3.41951-14.21218,2.02924-28.96978,4.60057-34.78285.70988-1.61472,1.19685-2.53591,1.20059-2.54291C446.35244,548.7123,454.5607,566.79368,455.42142,568.55986Z" transform="translate(-399.69951 -493.13966)"/><path class="cls-20" d="M455.42142,568.55986c-.26011-.84889-.48021-1.70065-.67665-2.55358-3.41951-14.21218,2.02924-28.96978,4.60057-34.78285.70988-1.61472,1.19685-2.53591,1.20059-2.54291C446.35244,548.7123,454.5607,566.79368,455.42142,568.55986Z" transform="translate(-399.69951 -493.13966)"/><path class="cls-21" d="M460.54679,528.67919l.00241.005.02047-.03883Z" transform="translate(-399.69951 -493.13966)"/><path class="cls-22" d="M460.54679,528.67919l.00241.005.02047-.03883Z" transform="translate(-399.69951 -493.13966)"/><polygon class="cls-23" points="35.751 35.489 35.752 35.49 35.751 35.489 35.751 35.489"/><path class="cls-24" d="M441.25266,565.95572c3.30791-14.36565-2.07041-29.02783-4.60056-34.78284C439.22342,536.986,444.67217,551.74355,441.25266,565.95572Z" transform="translate(-399.69951 -493.13966)"/><path class="cls-25" d="M427.96705,526.88145a8.81945,8.81945,0,0,1,1.40513-7.03266,5.67424,5.67424,0,0,1,.83666-.8597c2.9825-2.41045,6.531-4.71466,9.01606-4.51309,4.64291.37646,6.3153,1.75918,8.77922,2.29682v61.077a10.60414,10.60414,0,0,0-7.48142-9.15312c.01946-.06234.03417-.12507.05332-.18741.86071-1.76618,9.069-19.84756-5.12452-39.87934l-.00078-.00156-.00007.00024-.02288-.03386.02046.03884L432.481,534.7847l-.01805-.02856a8.675,8.675,0,0,0-1.94278-3.77963C429.3068,529.48515,428.49785,528.67619,427.96705,526.88145Z" transform="translate(-399.69951 -493.13966)"/><path class="cls-26" d="M430.17865,519.01306c-.075.06055-.14064.11527-.213.17426C430.03684,519.12911,430.10673,519.0712,430.17865,519.01306Z" transform="translate(-399.69951 -493.13966)"/><path class="cls-27" d="M425.70214,523.02166a54.49725,54.49725,0,0,1,4.26349-3.83434c-1.74182,1.4256-3.273,2.86552-4.25182,3.82593a2.35,2.35,0,0,0-.48565,2.66737c.70653,1.52187,1.92075,3.76608,3.29327,4.70027a16.69343,16.69343,0,0,1,3.94151,4.37525l.00638.037a16.88325,16.88325,0,0,0-3.95957-4.40382c-1.37259-.93418-2.58681-3.17839-3.29334-4.70027A2.35021,2.35021,0,0,1,425.70214,523.02166Z" transform="translate(-399.69951 -493.13966)"/><path class="cls-28" d="M430.2125,518.98535l-.00366.00374-.03019.024Z" transform="translate(-399.69951 -493.13966)"/><path class="cls-29" d="M428.52143,530.38089c-1.37252-.93419-2.58674-3.1784-3.29327-4.70027a2.35,2.35,0,0,1,.48565-2.66737c.97886-.96041,2.51-2.40033,4.25182-3.82593.07238-.059.13807-.11371.213-.17426l.03019-.024a5.67424,5.67424,0,0,0-.83666.8597,8.81945,8.81945,0,0,0-1.40513,7.03266c.5308,1.79474,1.33975,2.6037,2.55311,4.09506a8.675,8.675,0,0,1,1.94278,3.77963A16.69343,16.69343,0,0,0,428.52143,530.38089Z" transform="translate(-399.69951 -493.13966)"/><path class="cls-30" d="M425.71381,523.01325c1.06667-.86185,2.51-2.40033,4.25182-3.82593.07238-.059.13807-.11371.213-.17426l.03019-.024a5.67424,5.67424,0,0,0-.83666.8597c-1.36808,1.73692-2.70073,4.3451-2.07358,6.46533.5308,1.79474,2.0082,3.171,3.22156,4.66239a8.675,8.675,0,0,1,1.94278,3.77963,21.19479,21.19479,0,0,0-4.743-4.91991C423.608,527.20729,424.6528,523.87054,425.71381,523.01325Z" transform="translate(-399.69951 -493.13966)"/><path class="cls-31" d="M435.4515,528.63c.00374.007.49072.92819,1.2006,2.54292-.657-1.48538-1.12106-2.382-1.20387-2.53926l.00242-.005Z" transform="translate(-399.69951 -493.13966)"/><path class="cls-32" d="M440.576,568.5093c.2601-.84888.4802-1.70065.67664-2.55358,3.41951-14.21217-2.02924-28.96977-4.60056-34.78284-.70988-1.61473-1.19686-2.53592-1.2006-2.54292C449.645,548.66174,441.43673,566.74312,440.576,568.5093Z" transform="translate(-399.69951 -493.13966)"/><path class="cls-33" d="M440.576,568.5093c.2601-.84888.4802-1.70065.67664-2.55358,3.41951-14.21217-2.02924-28.96977-4.60056-34.78284-.70988-1.61473-1.19686-2.53592-1.2006-2.54292C449.645,548.66174,441.43673,566.74312,440.576,568.5093Z" transform="translate(-399.69951 -493.13966)"/><path class="cls-34" d="M435.45065,528.62864l-.00242.005-.02046-.03884Z" transform="translate(-399.69951 -493.13966)"/><path class="cls-35" d="M435.45065,528.62864l-.00242.005-.02046-.03884Z" transform="translate(-399.69951 -493.13966)"/><path class="cls-36" d="M466.0107,538.45554c-2.1821-1.05505-4.45511,5.6564-6.203,11.28579-1.44918,4.6675-.90523,15.20878-.677,18.67491a4.41813,4.41813,0,0,1-.41219,2.17455l-2.7406,3.769.74156-4.24676s-6.35336,2.35932-6.384,8.70171l4.76728-.30945a2.45252,2.45252,0,0,0,1.65924-.90477c2.71609-3.4206,6.622-15.27392,8.08958-22.132,1.63418-7.63692,5.08264-9.618,5.92008-12.09063S468.19287,539.51052,466.0107,538.45554Z" transform="translate(-399.69951 -493.13966)"/><path class="cls-37" d="M455.14053,578.50533l-4.7672.30945a9.04577,9.04577,0,0,1,.07339-1.09335l.03316-.01642c5.72286.02319,7.21555-1.56367,7.42546-1.82922a12.70608,12.70608,0,0,1-1.10549,1.72477A2.45253,2.45253,0,0,1,455.14053,578.50533Z" transform="translate(-399.69951 -493.13966)"/><path class="cls-38" d="M429.98674,538.45554c2.1821-1.05505,4.4551,5.6564,6.203,11.28579,1.44918,4.6675.90523,15.20878.677,18.67491a4.418,4.418,0,0,0,.41218,2.17455l2.7406,3.769-.74155-4.24676s6.35336,2.35932,6.384,8.70171l-4.76728-.30945a2.45252,2.45252,0,0,1-1.65924-.90477c-2.71608-3.4206-6.622-15.27392-8.08957-22.132-1.63419-7.63692-5.08265-9.618-5.92009-12.09063S427.80456,539.51052,429.98674,538.45554Z" transform="translate(-399.69951 -493.13966)"/><path class="cls-39" d="M440.8569,578.50533l4.7672.30945a9.04577,9.04577,0,0,0-.07339-1.09335l-.03316-.01642c-5.72286.02319-7.21555-1.56367-7.42546-1.82922a12.70608,12.70608,0,0,0,1.10549,1.72477A2.45253,2.45253,0,0,0,440.8569,578.50533Z" transform="translate(-399.69951 -493.13966)"/></g></svg>