<svg id="Layer_1" data-name="Layer 1" xmlns="http://www.w3.org/2000/svg" viewBox="0 0 225.60325 93.83417"><defs><style>.cls-1{fill:#fff;}</style></defs><title>purple-goat_logo_white</title><g id="Logo"><path class="cls-1" d="M511.91049,527.86516a11.96612,11.96612,0,0,0-.19773,1.81211,9.17273,9.17273,0,0,0,.98833,4.77712,6.7752,6.7752,0,0,1-4.11822,1.48267,3.57575,3.57575,0,0,1-3.06387-1.23533,6.131,6.131,0,0,1-.92265-3.69025q0-2.45375,2.07554-13.91946l-1.74609-3.52536a12.80445,12.80445,0,0,1,6.787-2.405,6.458,6.458,0,0,1,1.8778.313,3.854,3.854,0,0,1,1.44983.70849,12.44539,12.44539,0,0,1,4.51335-.95549,6.02818,6.02818,0,0,1,4.89241,2.158,7.89575,7.89575,0,0,1,1.79569,5.22185,9.463,9.463,0,0,1-2.66874,6.58923,9.05076,9.05076,0,0,1-3.45933,2.27327,11.9874,11.9874,0,0,1-4.43092.85662A13.12479,13.12479,0,0,1,511.91049,527.86516Zm.626-3.7556a4.55528,4.55528,0,0,0,.95515.09887,5.459,5.459,0,0,0,3.75594-1.48267,4.72718,4.72718,0,0,0,1.64723-3.65707,3.89841,3.89841,0,0,0-.87305-2.56954,3.00992,3.00992,0,0,0-2.45458-1.05436,5.23875,5.23875,0,0,0-1.51551.26342Q513.39265,520.22258,512.53654,524.10956Z" transform="translate(-401.64943 -493.81282)"/><path class="cls-1" d="M533.58883,535.90422q-2.89965,0-4.05254-1.41665a5.47685,5.47685,0,0,1-1.15289-3.57463,33.19769,33.19769,0,0,1,.72458-5.91391,32.64717,32.64717,0,0,0,.72491-5.436,4.42153,4.42153,0,0,0-.69173-2.63589,11.658,11.658,0,0,1,5.17225-1.61405,2.90443,2.90443,0,0,1,1.96058.5436,2.2565,2.2565,0,0,1,.60929,1.76252,41.4476,41.4476,0,0,1-1.00476,5.9796,42.492,42.492,0,0,0-1.00476,5.88074,2.41835,2.41835,0,0,0,.62571,1.76285,2.19591,2.19591,0,0,0,1.64756.64247,3.8447,3.8447,0,0,0,2.1744-.80736,5.85957,5.85957,0,0,0,1.87781-2.28969q.461-2.66841,1.81211-8.43419l-1.977-2.63556a10.93947,10.93947,0,0,1,6.3258-2.405,3.28885,3.28885,0,0,1,2.12481.5436,2.03742,2.03742,0,0,1,.64246,1.64723,44.48639,44.48639,0,0,1-1.20249,6.309,38.22212,38.22212,0,0,0-1.20249,7.39625,3.92208,3.92208,0,0,0,1.02152,3.08063,5.82225,5.82225,0,0,1-3.87123,1.61438,4.00872,4.00872,0,0,1-2.91574-.88981,3.16237,3.16237,0,0,1-.88946-2.33895l-.32945-.16489a7.35808,7.35808,0,0,1-3.0146,2.48742A9.59968,9.59968,0,0,1,533.58883,535.90422Z" transform="translate(-401.64943 -493.81282)"/><path class="cls-1" d="M553.22447,531.81883a36.08252,36.08252,0,0,1,.67531-5.10656q.67464-3.78844,1.40023-6.91867l-1.71325-2.63556q4.11822-1.845,5.78187-1.845,1.66348,0,1.664,2.10838a22.227,22.227,0,0,1-1.0872,4.81l.32945.16489q2.3718-7.08322,5.89716-7.08323a3.09373,3.09373,0,0,1,2.471.98834,3.28889,3.28889,0,0,1,.85662,2.20724,4.12051,4.12051,0,0,1-1.351,3.09705,5.68062,5.68062,0,0,1-4.05221,1.28494q-4.08555,0-4.08538,8.401a5.159,5.159,0,0,0,.69207,2.99819,6.27278,6.27278,0,0,1-3.75594,1.61438Q553.22363,535.90422,553.22447,531.81883Z" transform="translate(-401.64943 -493.81282)"/><path class="cls-1" d="M574.30927,541.63649a3.47219,3.47219,0,0,1-2.84971-1.00476,4.53626,4.53626,0,0,1-.807-2.89931,68.98938,68.98938,0,0,1,.807-7.62683q.80685-5.73244,1.56511-9.78481l-1.845-2.6359a29.91421,29.91421,0,0,1,3.525-1.79535,7.67109,7.67109,0,0,1,2.93216-.60963q2.3723,0,2.37213,3.1299,0,.4288-.13171,1.74609l.32945.16489a8.3333,8.3333,0,0,1,2.76727-3.70634,6.99687,6.99687,0,0,1,4.26669-1.33454,4.45672,4.45672,0,0,1,3.90407,2.224,9.902,9.902,0,0,1,1.44949,5.51845,12.08311,12.08311,0,0,1-3.09671,8.03872A10.95053,10.95053,0,0,1,585.445,533.944a14.05942,14.05942,0,0,1-5.66659,1.10362,24.61972,24.61972,0,0,1-2.50384-.16489q-.099,1.15272-.09887,2.14156a3.80221,3.80221,0,0,0,1.02118,2.99818A5.83919,5.83919,0,0,1,574.30927,541.63649Zm4.316-13.63928-.75776,3.82162a8.68751,8.68751,0,0,0,6.37508-2.61913,7.87635,7.87635,0,0,0,2.38856-5.51845,4.51342,4.51342,0,0,0-.60929-2.48743,1.97543,1.97543,0,0,0-1.76285-.93907Q580.17342,520.25475,578.62523,527.99721Z" transform="translate(-401.64943 -493.81282)"/><path class="cls-1" d="M598.98545,514.58817l-1.845-2.63556q4.11824-2.405,6.49037-2.40531a2.70449,2.70449,0,0,1,1.911.5436,2.84347,2.84347,0,0,1,.56,2.04269,64.15227,64.15227,0,0,1-1.46625,8.45061,55.72421,55.72421,0,0,0-1.46591,9.752,5.97516,5.97516,0,0,0,1.02118,3.95368,7.52619,7.52619,0,0,1-4.18392,1.61438,3.13524,3.13524,0,0,1-2.75118-1.23567,5.82333,5.82333,0,0,1-.873-3.40974,63.67946,63.67946,0,0,1,1.21924-8.89534Q598.82006,515.64219,598.98545,514.58817Z" transform="translate(-401.64943 -493.81282)"/><path class="cls-1" d="M617.6656,535.90422q-4.51436,0-6.96827-2.3393a8.32383,8.32383,0,0,1-2.45425-6.32547,11.10409,11.10409,0,0,1,3.64032-8.6155,13.07243,13.07243,0,0,1,9.14268-3.31087,6.92037,6.92037,0,0,1,4.64507,1.367,4.53634,4.53634,0,0,1,1.58153,3.6078,5.992,5.992,0,0,1-2.98142,5.08981q-2.98211,2.02643-9.20837,2.05911a6.12788,6.12788,0,0,0,.95516,3.3112,2.54959,2.54959,0,0,0,2.14155,1.20249,3.18855,3.18855,0,0,0,2.224-.85662,3.63422,3.63422,0,0,0,.93873-2.80045q4.81,0,4.8103,2.27327,0,1.94449-2.37214,3.64065A10.23052,10.23052,0,0,1,617.6656,535.90422Zm2.80012-16.73667a4.00431,4.00431,0,0,0-3.08029,1.6804,10.39484,10.39484,0,0,0-2.02627,3.95334,9.60134,9.60134,0,0,0,4.95842-1.49909,3.38536,3.38536,0,0,0,1.66365-2.61914,1.50732,1.50732,0,0,0-.41155-1.0872A1.4623,1.4623,0,0,0,620.46572,519.16755Z" transform="translate(-401.64943 -493.81282)"/><path class="cls-1" d="M523.68868,570.69675l-2.41452-4.97159q5.066-3.36168,9.13835-3.36192,3.40864,0,3.40864,3.83538a48.53452,48.53452,0,0,1-1.3019,6.65207,40.5757,40.5757,0,0,0-1.3019,8.49921,6.35362,6.35362,0,0,0,1.2783,4.356,9.25162,9.25162,0,0,1-5.53994,1.941,4.47812,4.47812,0,0,1-4.09547-1.89385,10.38325,10.38325,0,0,1-1.2075-5.53946,18.59721,18.59721,0,0,1-5.303.75764,14.00472,14.00472,0,0,1-10.39257-3.97747q-3.95411-3.97722-3.95387-11.74215a17.56857,17.56857,0,0,1,1.42039-6.74744,22.57932,22.57932,0,0,1,4.02467-6.36839,19.592,19.592,0,0,1,6.79464-4.80542,21.03971,21.03971,0,0,1,8.66441-1.87025,12.71686,12.71686,0,0,1,7.00753,1.65688,5.20775,5.20775,0,0,1,2.53348,4.593,5.67668,5.67668,0,0,1-1.91793,4.56893,6.56438,6.56438,0,0,1-4.37965,1.63376,9.13645,9.13645,0,0,1-4.42685-1.06541,8.11424,8.11424,0,0,1-3.14855-3.05415,10.254,10.254,0,0,0-4.40372,4.82951,16.2785,16.2785,0,0,0-1.84665,7.5282q0,3.931,1.53887,5.89492a4.71193,4.71193,0,0,0,3.859,1.96513Q521.08463,574.011,523.68868,570.69675Z" transform="translate(-401.64943 -493.81282)"/><path class="cls-1" d="M536.89842,568.51873a16.48874,16.48874,0,0,1,4.90031-12.38179,17.17244,17.17244,0,0,1,12.47619-4.75822,15.67738,15.67738,0,0,1,3.40912.37858,10.60261,10.60261,0,0,1,.56835,3.55121,7.25105,7.25105,0,0,1,1.98873-.33138,5.94772,5.94772,0,0,1,4.56894,2.13034,8.94516,8.94516,0,0,1,1.91745,6.17909,19.37539,19.37539,0,0,1-1.42039,7.481,15.89667,15.89667,0,0,1-3.7405,5.61074,17.148,17.148,0,0,1-5.25577,3.38552,15.67551,15.67551,0,0,1-6.01292,1.2075q-6.20389,0-9.8011-3.40912A11.87471,11.87471,0,0,1,536.89842,568.51873Zm14.8671,6.62847a5.29765,5.29765,0,0,0,3.33832-1.20749,7.22635,7.22635,0,0,0,2.296-3.7641,9.06713,9.06713,0,0,1-3.24344-3.36144,9.61291,9.61291,0,0,1-1.15981-4.75871,8.91007,8.91007,0,0,1,1.89385-5.27937,9.53882,9.53882,0,0,0-6.2499,4.11956,11.94083,11.94083,0,0,0-2.178,6.69976,9.62955,9.62955,0,0,0,1.39679,5.49226A4.45644,4.45644,0,0,0,551.76552,575.1472Z" transform="translate(-401.64943 -493.81282)"/><path class="cls-1" d="M588.83911,573.96379l-.47346-.237a12.06819,12.06819,0,0,1-3.66969,5.32657,8.307,8.307,0,0,1-5.32658,1.91793,7.8175,7.8175,0,0,1-6.43918-3.03054,12.61788,12.61788,0,0,1-2.415-8.09655,18.078,18.078,0,0,1,18.41831-18.46551,17.26365,17.26365,0,0,1,3.74049.37858,14.58229,14.58229,0,0,1,.33186,2.32011,8.93264,8.93264,0,0,1,4.87671-1.51527q3.4556,0,3.45632,3.74049a60.33868,60.33868,0,0,1-1.49167,8.00214,50.58788,50.58788,0,0,0-1.49119,9.89551q0,3.2208,1.46759,4.45093a8.31689,8.31689,0,0,1-5.51586,2.32011,4.90947,4.90947,0,0,1-4.16676-1.70456Q588.8384,577.56171,588.83911,573.96379Zm-9.42252-6.43967a5.73243,5.73243,0,0,0,.971,3.57481,3.29265,3.29265,0,0,0,2.76949,1.2547,5.8493,5.8493,0,0,0,3.55121-1.3255A10.38973,10.38973,0,0,0,589.644,567.382a93.50161,93.50161,0,0,1,1.84665-11.3159,11.884,11.884,0,0,0-8.42792,3.45633A10.71792,10.71792,0,0,0,579.41659,567.52412Z" transform="translate(-401.64943 -493.81282)"/><path class="cls-1" d="M606.64139,562.69461a10.18425,10.18425,0,0,1-.33137-2.46219,4.37176,4.37176,0,0,1,1.37318-3.50353,5.24821,5.24821,0,0,1,3.55121-1.18389,13.31717,13.31717,0,0,0-1.2783-5.35018,24.64887,24.64887,0,0,1,4.23756-2.58068,9.641,9.641,0,0,1,4.04827-.87564,4.32046,4.32046,0,0,1,2.95926.78124,3.14235,3.14235,0,0,1,.82844,2.39091,29.42856,29.42856,0,0,1-.66275,5.0188,34.52985,34.52985,0,0,0,3.83538-.80484,8.26641,8.26641,0,0,1,.33138,2.55708,4.29351,4.29351,0,0,1-1.2075,2.91158,4.48792,4.48792,0,0,1-3.52761,1.34958h-.71a59.56355,59.56355,0,0,0-1.70456,11.88424q0,4.16724,1.46759,5.82412a8.44324,8.44324,0,0,1-5.63435,2.32011,4.95858,4.95858,0,0,1-4.28524-1.77585q-1.30263-1.77512-1.3019-5.51586a104.62727,104.62727,0,0,1,1.65736-11.93192A22.92027,22.92027,0,0,0,606.64139,562.69461Z" transform="translate(-401.64943 -493.81282)"/><path class="cls-1" d="M431.73186,493.81282h0a1.066,1.066,0,0,0-.99623,1.03156,1.09309,1.09309,0,0,0,.04506.35424l.03453-.03188s10.2391,1.61434,6.70615,16.20407c2.62354-.55493,5.98444-1.76734,5.98444-3.71034C443.50581,505.22849,435.97834,494.06446,431.73186,493.81282Z" transform="translate(-401.64943 -493.81282)"/><path class="cls-1" d="M430.81522,495.16674l-.03453.03188h0a4.8085,4.8085,0,0,1,.12224.57977l.225.94948a4.10884,4.10884,0,0,0,.22559.67968,5.005,5.005,0,0,0,1.24208,1.98c2.27266,2.35485,3.35274,6.81533,3.49156,7.42348a19.70152,19.70152,0,0,0-1.90306-3.30282,5.394,5.394,0,0,0-1.84014-1.4155c.74609,3.76539,1.73987,9.76408,3.402,9.57341.49736-.05705,1.105-.154,1.75911-.29187a.02658.02658,0,0,0,.02014-.01955C441.04675,496.77989,430.81522,495.16674,430.81522,495.16674Z" transform="translate(-401.64943 -493.81282)"/><path class="cls-1" d="M467.47785,494.01364h0a1.066,1.066,0,0,1,.99622,1.03157,1.09288,1.09288,0,0,1-.04506.35424l-.03453-.03188s-10.23909,1.61434-6.70615,16.20407c-2.62354-.55494-5.98444-1.76734-5.98444-3.71034C455.70389,505.42931,463.23136,494.26529,467.47785,494.01364Z" transform="translate(-401.64943 -493.81282)"/><path class="cls-1" d="M468.39448,495.36757l.03453.03188h0a4.81027,4.81027,0,0,0-.12224.57976l-.225.94948a4.1088,4.1088,0,0,1-.22558.67968,5.00494,5.00494,0,0,1-1.24209,1.98c-2.27266,2.35485-3.35274,6.81533-3.49155,7.42348a19.70162,19.70162,0,0,1,1.90305-3.30282,5.394,5.394,0,0,1,1.84014-1.41549c-.74608,3.76538-1.73986,9.76408-3.402,9.57341-.49736-.05706-1.105-.154-1.75912-.29187a.02661.02661,0,0,1-.02014-.01955C458.163,496.98072,468.39448,495.36757,468.39448,495.36757Z" transform="translate(-401.64943 -493.81282)"/><path class="cls-1" d="M424.52144,526.10569c-9.90333-4.71589-22.872-.35368-22.872-.35368.55313,4.31433,3.88287,6.78589,7.26216,8.1945-.04441-.063-.08891-.12595-.13333-.191C408.77826,533.75553,399.0949,526.12039,424.52144,526.10569Z" transform="translate(-401.64943 -493.81282)"/><path class="cls-1" d="M415.52952,534.37938c-.57825-.79683-1.36812-1.96107-2.32622-3.5578-2.12208-3.53694,11.31814-4.71589,11.31814-4.71589-25.42654.0147-15.74318,7.64984-15.74318,7.64984.04442.065.08892.128.13333.191a26.14,26.14,0,0,0,5.89683,1.61241A.74825.74825,0,0,0,415.52952,534.37938Z" transform="translate(-401.64943 -493.81282)"/><path class="cls-1" d="M474.68826,526.10569c9.90333-4.71589,22.872-.35368,22.872-.35368-.55313,4.31433-3.88287,6.78589-7.26216,8.1945.04442-.063.08892-.12595.13333-.191C490.43144,533.75553,500.1148,526.12039,474.68826,526.10569Z" transform="translate(-401.64943 -493.81282)"/><path class="cls-1" d="M483.68019,534.37938c.57824-.79683,1.36812-1.96107,2.32621-3.5578,2.12209-3.53694-11.31814-4.71589-11.31814-4.71589,25.42654.0147,15.74318,7.64984,15.74318,7.64984-.04441.065-.08891.128-.13333.191a26.14,26.14,0,0,1-5.89682,1.61241A.74824.74824,0,0,1,483.68019,534.37938Z" transform="translate(-401.64943 -493.81282)"/><path class="cls-1" d="M441.80805,581.80074a3.11917,3.11917,0,0,0-.026.38289c0,2.7101,3.50645,4.907,7.83175,4.907s7.83174-2.19694,7.83174-4.907a3.137,3.137,0,0,0-.02594-.38289Z" transform="translate(-401.64943 -493.81282)"/><path class="cls-1" d="M467.31028,519.557c.07443.06013.13966.11447.21154.173C467.4511,519.67228,467.3817,519.61478,467.31028,519.557Z" transform="translate(-401.64943 -493.81282)"/><path class="cls-1" d="M471.75575,523.53784a54.11971,54.11971,0,0,0-4.23393-3.80775c1.72975,1.41572,3.25027,2.84565,4.22234,3.79941a2.33366,2.33366,0,0,1,.48229,2.64887c-.70164,1.51132-1.90744,3.74-3.27044,4.66768a16.57768,16.57768,0,0,0-3.91418,4.34491l-.00634.03671a16.76649,16.76649,0,0,1,3.93211-4.37328c1.36309-.9277,2.56888-3.15635,3.27052-4.66767A2.33394,2.33394,0,0,0,471.75575,523.53784Z" transform="translate(-401.64943 -493.81282)"/><path class="cls-1" d="M467.27666,519.52952l.00363.00371.03.02381Z" transform="translate(-401.64943 -493.81282)"/><path class="cls-1" d="M468.956,530.84605c1.363-.92771,2.5688-3.15636,3.27044-4.66768a2.33366,2.33366,0,0,0-.48229-2.64887c-.97207-.95376-2.49259-2.38369-4.22234-3.79941-.07188-.05858-.13711-.11292-.21154-.173l-.03-.02381a5.63516,5.63516,0,0,1,.83087.85375,8.75827,8.75827,0,0,1,1.39539,6.98389c-.52712,1.7823-1.33047,2.58565-2.53541,4.06667a8.61477,8.61477,0,0,0-1.92931,3.75342A16.57768,16.57768,0,0,1,468.956,530.84605Z" transform="translate(-401.64943 -493.81282)"/><path class="cls-1" d="M471.74416,523.5295c-1.05927-.85588-2.49259-2.38369-4.22234-3.79941-.07188-.05858-.13711-.11292-.21154-.173l-.03-.02381a5.63516,5.63516,0,0,1,.83087.85375c1.3586,1.72487,2.682,4.315,2.0592,6.42049-.52712,1.7823-1.99428,3.149-3.19922,4.63007a8.61477,8.61477,0,0,0-1.92931,3.75342,21.048,21.048,0,0,1,4.71014-4.88579C473.83541,527.69445,472.79782,524.38084,471.74416,523.5295Z" transform="translate(-401.64943 -493.81282)"/><path class="cls-1" d="M457.06067,568.86282c-.29092-.89207-.53129-1.78956-.74763-2.68859.19508.847.41366,1.69287.672,2.53587C457.03014,568.80277,457.06067,568.86282,457.06067,568.86282Z" transform="translate(-401.64943 -493.81282)"/><polygon class="cls-1" points="60.425 35.293 60.425 35.294 60.425 35.293 60.425 35.293"/><path class="cls-1" d="M456.313,566.17423c-3.285-14.266,2.05606-28.82658,4.56867-34.54168C458.32822,537.40531,452.91725,552.06059,456.313,566.17423Z" transform="translate(-401.64943 -493.81282)"/><path class="cls-1" d="M469.50655,527.37087a8.75827,8.75827,0,0,0-1.39539-6.98389,5.63516,5.63516,0,0,0-.83087-.85375c-2.96181-2.39373-6.48568-4.682-8.95354-4.48179-4.61072.37385-6.27152,1.747-8.71835,2.28089v60.65354q.00918-.097.01978-.19265a10.53522,10.53522,0,0,1,7.40976-8.897c-.01932-.06191-.03393-.1242-.05294-.18611-.85475-1.75393-9.0061-19.71,5.089-39.60284l.00078-.00155.00007.00024.02273-.03362-.02033.03856,2.94667,6.10844.01793-.02837a8.61477,8.61477,0,0,1,1.92931-3.75342C468.17608,529.95652,468.97943,529.15317,469.50655,527.37087Z" transform="translate(-401.64943 -493.81282)"/><path class="cls-1" d="M462.074,529.10726c-.00371.007-.48731.92176-1.19227,2.52529.65241-1.47508,1.11328-2.36545,1.19552-2.52166l-.0024-.00494Z" transform="translate(-401.64943 -493.81282)"/><path class="cls-1" d="M456.985,568.7101c-.2583-.843-.47688-1.68886-.672-2.53587-3.39579-14.11364,2.01518-28.76892,4.56867-34.54168.705-1.60353,1.18856-2.51833,1.19227-2.52529C447.9789,549.00015,456.13025,566.95617,456.985,568.7101Z" transform="translate(-401.64943 -493.81282)"/><path class="cls-1" d="M456.985,568.7101c-.2583-.843-.47688-1.68886-.672-2.53587-3.39579-14.11364,2.01518-28.76892,4.56867-34.54168.705-1.60353,1.18856-2.51833,1.19227-2.52529C447.9789,549.00015,456.13025,566.95617,456.985,568.7101Z" transform="translate(-401.64943 -493.81282)"/><path class="cls-1" d="M462.07483,529.106l.0024.00494.02033-.03856Z" transform="translate(-401.64943 -493.81282)"/><path class="cls-1" d="M462.07483,529.106l.0024.00494.02033-.03856Z" transform="translate(-401.64943 -493.81282)"/><polygon class="cls-1" points="35.503 35.243 35.504 35.244 35.503 35.243 35.503 35.243"/><path class="cls-1" d="M442.91449,566.124c3.285-14.266-2.05606-28.82657-4.56867-34.54168C440.89931,537.3551,446.31029,552.01039,442.91449,566.124Z" transform="translate(-401.64943 -493.81282)"/><path class="cls-1" d="M429.721,527.32066a8.7583,8.7583,0,0,1,1.39538-6.98389,5.63464,5.63464,0,0,1,.83087-.85374c2.96182-2.39374,6.48568-4.682,8.95354-4.4818,4.61072.37385,6.27152,1.747,8.71835,2.2809v60.65353a10.53059,10.53059,0,0,0-7.42954-9.08965c.01932-.06191.03393-.12421.05294-.18612.85475-1.75393,9.0061-19.70994-5.089-39.60284l-.00078-.00154-.00007.00023-.02273-.03362.02033.03857-2.94667,6.10843-.01793-.02836a8.61477,8.61477,0,0,0-1.9293-3.75342C431.05145,529.90631,430.2481,529.103,429.721,527.32066Z" transform="translate(-401.64943 -493.81282)"/><path class="cls-1" d="M431.91725,519.50683c-.07443.06013-.13966.11447-.21154.17306C431.77643,519.62207,431.84583,519.56457,431.91725,519.50683Z" transform="translate(-401.64943 -493.81282)"/><path class="cls-1" d="M427.47178,523.48764a54.11567,54.11567,0,0,1,4.23393-3.80775c-1.72975,1.41571-3.25026,2.84565-4.22234,3.7994a2.33364,2.33364,0,0,0-.48228,2.64887c.70163,1.51132,1.90743,3.74,3.27043,4.66768a16.57765,16.57765,0,0,1,3.91418,4.34492l.00634.03671a16.76611,16.76611,0,0,0-3.93211-4.37328c-1.36308-.92771-2.56888-3.15636-3.27052-4.66768A2.33393,2.33393,0,0,1,427.47178,523.48764Z" transform="translate(-401.64943 -493.81282)"/><path class="cls-1" d="M431.95087,519.47932l-.00363.00371-.03.0238Z" transform="translate(-401.64943 -493.81282)"/><path class="cls-1" d="M430.27152,530.79584c-1.363-.92771-2.5688-3.15636-3.27043-4.66768a2.33364,2.33364,0,0,1,.48228-2.64887c.97208-.95375,2.49259-2.38369,4.22234-3.7994.07188-.05859.13711-.11293.21154-.17306l.03-.0238a5.63464,5.63464,0,0,0-.83087.85374,8.7583,8.7583,0,0,0-1.39538,6.98389c.52711,1.7823,1.33046,2.58565,2.53541,4.06668a8.61477,8.61477,0,0,1,1.9293,3.75342A16.57765,16.57765,0,0,0,430.27152,530.79584Z" transform="translate(-401.64943 -493.81282)"/><path class="cls-1" d="M427.48337,523.47929c1.05927-.85588,2.49259-2.38369,4.22234-3.7994.07188-.05859.13711-.11293.21154-.17306l.03-.0238a5.63464,5.63464,0,0,0-.83087.85374c-1.35859,1.72487-2.682,4.315-2.0592,6.4205.52712,1.7823,1.99428,3.149,3.19923,4.63007a8.61477,8.61477,0,0,1,1.9293,3.75342,21.04794,21.04794,0,0,0-4.71014-4.8858C425.39212,527.64424,426.42972,524.33064,427.48337,523.47929Z" transform="translate(-401.64943 -493.81282)"/><path class="cls-1" d="M437.15355,529.05705c.00371.007.48731.92176,1.19227,2.52529-.6524-1.47507-1.11328-2.36545-1.19552-2.52165l.0024-.005Z" transform="translate(-401.64943 -493.81282)"/><path class="cls-1" d="M442.24253,568.65989c.2583-.843.47688-1.68885.672-2.53587,3.3958-14.11363-2.01518-28.76892-4.56867-34.54168-.705-1.60353-1.18856-2.51833-1.19227-2.52529C451.24863,548.94995,443.09728,566.906,442.24253,568.65989Z" transform="translate(-401.64943 -493.81282)"/><path class="cls-1" d="M442.24253,568.65989c.2583-.843.47688-1.68885.672-2.53587,3.3958-14.11363-2.01518-28.76892-4.56867-34.54168-.705-1.60353-1.18856-2.51833-1.19227-2.52529C451.24863,548.94995,443.09728,566.906,442.24253,568.65989Z" transform="translate(-401.64943 -493.81282)"/><path class="cls-1" d="M437.1527,529.05574l-.0024.005-.02033-.03857Z" transform="translate(-401.64943 -493.81282)"/><path class="cls-1" d="M437.1527,529.05574l-.0024.005-.02033-.03857Z" transform="translate(-401.64943 -493.81282)"/><path class="cls-1" d="M467.50086,538.81451c-2.167-1.04774-4.42421,5.61718-6.16,11.20754-1.43914,4.63514-.899,15.10333-.67235,18.54543a4.38751,4.38751,0,0,1-.40932,2.15947l-2.7216,3.74291.73641-4.21731s-6.30931,2.343-6.33976,8.64137l4.73422-.30731a2.43544,2.43544,0,0,0,1.64774-.89849c2.69726-3.39688,6.57612-15.168,8.03349-21.97855,1.62285-7.584,5.0474-9.5513,5.879-12.0068S469.66791,539.86217,467.50086,538.81451Z" transform="translate(-401.64943 -493.81282)"/><path class="cls-1" d="M456.70606,578.58661l-4.73414.30731a8.9822,8.9822,0,0,1,.07288-1.08577l.03293-.0163c5.68318.023,7.16552-1.55283,7.374-1.81654a12.618,12.618,0,0,1-1.09782,1.71281A2.43548,2.43548,0,0,1,456.70606,578.58661Z" transform="translate(-401.64943 -493.81282)"/><path class="cls-1" d="M431.72667,538.81451c2.167-1.04774,4.42421,5.61718,6.16,11.20754,1.43913,4.63514.899,15.10333.67234,18.54543a4.38751,4.38751,0,0,0,.40932,2.15947l2.72161,3.74291-.73642-4.21731s6.30931,2.343,6.33976,8.64137l-4.73422-.30731a2.43546,2.43546,0,0,1-1.64774-.89849c-2.69726-3.39688-6.57611-15.168-8.03349-21.97855-1.62285-7.584-5.0474-9.5513-5.879-12.0068S429.55962,539.86217,431.72667,538.81451Z" transform="translate(-401.64943 -493.81282)"/><path class="cls-1" d="M442.52147,578.58661l4.73415.30731a8.98217,8.98217,0,0,0-.07289-1.08577l-.03292-.0163c-5.68319.023-7.16553-1.55283-7.374-1.81654a12.618,12.618,0,0,0,1.09782,1.71281A2.43548,2.43548,0,0,0,442.52147,578.58661Z" transform="translate(-401.64943 -493.81282)"/></g></svg>