<?xml version="1.0" encoding="utf-8"?>
<!-- Generator: Adobe Illustrator 23.0.6, SVG Export Plug-In . SVG Version: 6.00 Build 0)  -->
<svg version="1.1" id="Layer_1" xmlns="http://www.w3.org/2000/svg" xmlns:xlink="http://www.w3.org/1999/xlink" x="0px" y="0px"
	 viewBox="0 0 227.2 94.5" style="enable-background:new 0 0 227.2 94.5;" xml:space="preserve">
<style type="text/css">
	.st0{fill:#714192;}
	.st1{fill:url(#SVGID_1_);}
	.st2{fill:url(#SVGID_2_);}
	.st3{fill:url(#SVGID_3_);}
	.st4{fill:url(#SVGID_4_);}
	.st5{fill:url(#SVGID_5_);}
	.st6{fill:url(#SVGID_6_);}
	.st7{fill:url(#SVGID_7_);}
	.st8{fill:url(#SVGID_8_);}
	.st9{fill:url(#SVGID_9_);}
	.st10{fill:url(#SVGID_10_);}
	.st11{fill:url(#SVGID_11_);}
	.st12{fill:url(#SVGID_12_);}
	.st13{fill:url(#SVGID_13_);}
	.st14{fill:url(#SVGID_14_);}
	.st15{fill:url(#SVGID_15_);}
	.st16{fill:url(#SVGID_16_);}
	.st17{fill:url(#SVGID_17_);}
	.st18{fill:url(#SVGID_18_);}
	.st19{fill:url(#SVGID_19_);}
	.st20{fill:url(#SVGID_20_);}
	.st21{fill:url(#SVGID_21_);}
	.st22{fill:url(#SVGID_22_);}
	.st23{fill:url(#SVGID_23_);}
	.st24{fill:url(#SVGID_24_);}
	.st25{fill:url(#SVGID_25_);}
	.st26{fill:url(#SVGID_26_);}
	.st27{fill:url(#SVGID_27_);}
	.st28{fill:url(#SVGID_28_);}
	.st29{fill:url(#SVGID_29_);}
	.st30{fill:url(#SVGID_30_);}
	.st31{fill:url(#SVGID_31_);}
	.st32{fill:url(#SVGID_32_);}
	.st33{fill:url(#SVGID_33_);}
	.st34{fill:url(#SVGID_34_);}
	.st35{fill:url(#SVGID_35_);}
	.st36{fill:url(#SVGID_36_);stroke:#DBB4EE;stroke-width:2.500000e-03;stroke-miterlimit:10;}
	.st37{fill:url(#SVGID_37_);}
</style>
<title>purple-goat_logo</title>
<g id="Logo">
	<path class="st0" d="M111,34.3c-0.1,0.6-0.2,1.2-0.2,1.8c-0.1,1.7,0.2,3.3,1,4.8c-1.2,0.9-2.6,1.5-4.1,1.5
		c-1.2,0.1-2.3-0.4-3.1-1.2c-0.7-1.1-1-2.4-0.9-3.7c0-1.6,0.7-6.3,2.1-14l-1.8-3.5c2-1.4,4.4-2.3,6.8-2.4c0.6,0,1.3,0.1,1.9,0.3
		c0.5,0.1,1,0.4,1.5,0.7c1.4-0.6,3-0.9,4.5-1c1.9-0.1,3.7,0.7,4.9,2.2c1.2,1.5,1.9,3.3,1.8,5.3c0,2.5-1,4.9-2.7,6.6
		c-1,1-2.2,1.8-3.5,2.3c-1.4,0.6-2.9,0.9-4.5,0.9C113.5,34.8,112.3,34.6,111,34.3z M111.7,30.5c0.3,0.1,0.6,0.1,1,0.1
		c1.4,0,2.8-0.5,3.8-1.5c1.1-0.9,1.7-2.3,1.7-3.7c0-0.9-0.3-1.9-0.9-2.6c-0.6-0.7-1.5-1.1-2.5-1.1c-0.5,0-1,0.1-1.5,0.3
		C112.7,25.1,112.2,27.9,111.7,30.5L111.7,30.5z"/>
	<path class="st0" d="M132.9,42.4c-1.9,0-3.3-0.5-4.1-1.4c-0.8-1-1.2-2.3-1.2-3.6c0.1-2,0.3-4,0.7-6c0.4-1.8,0.6-3.6,0.7-5.5
		c0.1-0.9-0.2-1.9-0.7-2.7c1.6-0.9,3.4-1.5,5.2-1.6c0.7-0.1,1.4,0.1,2,0.5c0.5,0.5,0.7,1.1,0.6,1.8c-0.2,2-0.5,4-1,6
		c-0.5,1.9-0.8,3.9-1,5.9c0,0.7,0.2,1.3,0.6,1.8c0.4,0.4,1,0.7,1.7,0.6c0.8,0,1.6-0.3,2.2-0.8c0.8-0.6,1.5-1.4,1.9-2.3
		c0.3-1.8,0.9-4.6,1.8-8.5l-2-2.7c1.8-1.5,4-2.3,6.4-2.4c0.8-0.1,1.5,0.1,2.1,0.5c0.5,0.4,0.7,1,0.6,1.7c-0.2,2.1-0.7,4.3-1.2,6.4
		c-0.6,2.4-1.1,4.9-1.2,7.4c-0.1,1.1,0.3,2.3,1,3.1c-1.1,1-2.4,1.6-3.9,1.6c-1.1,0.1-2.1-0.2-2.9-0.9c-0.6-0.6-0.9-1.5-0.9-2.4
		l-0.3-0.2c-0.8,1.1-1.8,2-3,2.5C135.7,42.1,134.3,42.4,132.9,42.4z"/>
	<path class="st0" d="M152.6,38.3c0.1-1.7,0.3-3.4,0.7-5.1c0.5-2.5,0.9-4.9,1.4-7l-1.7-2.7c2.8-1.2,4.7-1.9,5.8-1.9
		c1.1,0,1.7,0.7,1.7,2.1c-0.2,1.7-0.6,3.3-1.1,4.8l0.3,0.2c1.6-4.8,3.6-7.1,5.9-7.1c0.9-0.1,1.9,0.3,2.5,1c0.6,0.6,0.9,1.4,0.9,2.2
		c0,1.2-0.5,2.3-1.4,3.1c-1.1,0.9-2.6,1.4-4.1,1.3c-2.7,0-4.1,2.8-4.1,8.5c-0.1,1.1,0.2,2.1,0.7,3c-1,0.9-2.4,1.5-3.8,1.6
		C153.9,42.4,152.6,41,152.6,38.3z"/>
	<path class="st0" d="M173.9,48.2c-1.1,0.1-2.1-0.3-2.9-1c-0.6-0.9-0.9-1.9-0.8-2.9c0.1-2.6,0.4-5.1,0.8-7.7
		c0.5-3.8,1.1-7.1,1.6-9.9l-1.9-2.7c1.1-0.7,2.3-1.3,3.5-1.8c0.9-0.4,1.9-0.6,3-0.6c1.6,0,2.4,1.1,2.4,3.2c0,0.3,0,0.9-0.1,1.8
		l0.3,0.2c0.6-1.5,1.5-2.8,2.8-3.7c1.2-0.9,2.8-1.4,4.3-1.3c1.6,0,3.1,0.8,3.9,2.2c1,1.7,1.5,3.6,1.5,5.6c0,3-1.1,5.9-3.1,8.1
		c-1.1,1.3-2.5,2.3-4.1,2.9c-1.8,0.8-3.7,1.1-5.7,1.1c-0.8,0-1.7-0.1-2.5-0.2c-0.1,0.8-0.1,1.5-0.1,2.2c-0.1,1.1,0.3,2.2,1,3
		C176.7,47.5,175.3,48.1,173.9,48.2z M178.2,34.4l-0.8,3.8c2.4,0,4.7-0.9,6.4-2.6c1.5-1.5,2.4-3.5,2.4-5.6c0-0.9-0.2-1.7-0.6-2.5
		c-0.4-0.6-1.1-1-1.8-0.9C181.1,26.6,179.3,29.2,178.2,34.4L178.2,34.4z"/>
	<path class="st0" d="M198.7,20.9l-1.9-2.7c2.8-1.6,4.9-2.4,6.5-2.4c0.7-0.1,1.4,0.1,1.9,0.5c0.4,0.6,0.6,1.3,0.6,2.1
		c-0.3,2.9-0.8,5.7-1.5,8.5c-0.8,3.2-1.3,6.5-1.5,9.8c-0.1,1.4,0.2,2.8,1,4c-1.2,1-2.7,1.5-4.2,1.6c-1.1,0.1-2.1-0.4-2.8-1.2
		c-0.6-1-0.9-2.2-0.9-3.4c0.2-3,0.6-6,1.2-9C198.1,24.2,198.6,21.6,198.7,20.9z"/>
	<path class="st0" d="M217.5,42.4c-3,0-5.4-0.8-7-2.4c-1.7-1.7-2.6-4-2.5-6.4c-0.1-3.3,1.2-6.5,3.7-8.7c2.5-2.3,5.8-3.4,9.2-3.3
		c1.7-0.1,3.3,0.4,4.7,1.4c1.1,0.9,1.6,2.2,1.6,3.6c0,2.1-1.2,4.1-3,5.1c-2,1.4-5.1,2.1-9.3,2.1c0,1.2,0.3,2.3,1,3.3
		c0.5,0.7,1.3,1.2,2.2,1.2c0.8,0,1.6-0.3,2.2-0.9c0.7-0.8,1-1.8,0.9-2.8c3.2,0,4.8,0.8,4.8,2.3c0,1.3-0.8,2.5-2.4,3.7
		C221.8,41.9,219.7,42.5,217.5,42.4z M220.3,25.5c-1.2,0.1-2.4,0.7-3.1,1.7c-1,1.2-1.7,2.5-2,4c1.8,0,3.5-0.6,5-1.5
		c1-0.6,1.6-1.5,1.7-2.6c0-0.4-0.1-0.8-0.4-1.1C221.2,25.7,220.8,25.5,220.3,25.5z"/>
	<path class="st0" d="M122.9,77.4l-2.4-5c3.4-2.3,6.5-3.4,9.2-3.4c2.3,0,3.4,1.3,3.4,3.9c-0.3,2.3-0.7,4.5-1.3,6.7
		c-0.7,2.8-1.2,5.7-1.3,8.6c-0.1,1.6,0.3,3.1,1.3,4.4c-1.6,1.2-3.6,1.9-5.6,2c-1.6,0.2-3.2-0.6-4.1-1.9c-0.9-1.7-1.3-3.6-1.2-5.6
		c-1.7,0.5-3.5,0.8-5.3,0.8c-3.9,0.2-7.7-1.3-10.5-4c-2.7-2.7-4-6.6-4-11.8c0-2.3,0.5-4.6,1.4-6.8c1-2.3,2.4-4.5,4.1-6.4
		c1.9-2.1,4.2-3.7,6.8-4.8c2.7-1.2,5.7-1.9,8.7-1.9c2.5-0.1,4.9,0.4,7.1,1.7c1.6,1,2.6,2.7,2.6,4.6c0.1,1.7-0.6,3.4-1.9,4.6
		c-1.2,1.1-2.8,1.7-4.4,1.6c-1.6,0-3.1-0.3-4.5-1.1c-1.3-0.7-2.4-1.8-3.2-3.1c-2,1.1-3.5,2.8-4.4,4.9c-1.2,2.3-1.9,4.9-1.9,7.6
		c0,2.6,0.5,4.6,1.5,5.9c0.9,1.3,2.3,2,3.9,2C119.1,80.8,121.1,79.6,122.9,77.4z"/>
	<path class="st0" d="M136.2,75.2c-0.2-4.7,1.6-9.2,4.9-12.5c3.4-3.2,7.9-5,12.6-4.8c1.2,0,2.3,0.1,3.4,0.4c0.4,1.2,0.6,2.4,0.6,3.6
		c0.6-0.2,1.3-0.3,2-0.3c1.8,0,3.5,0.8,4.6,2.1c1.3,1.4,1.9,3.5,1.9,6.2c0,2.6-0.5,5.1-1.4,7.5c-0.8,2.1-2.1,4.1-3.8,5.6
		c-1.5,1.5-3.3,2.6-5.3,3.4c-1.9,0.8-4,1.2-6.1,1.2c-4.2,0-7.5-1.1-9.9-3.4C137.4,82,136,78.6,136.2,75.2z M151.2,81.9
		c1.2,0,2.4-0.4,3.4-1.2c1.1-1,2-2.3,2.3-3.8c-1.4-0.8-2.5-2-3.3-3.4c-0.8-1.5-1.2-3.1-1.2-4.8c0-1.9,0.7-3.8,1.9-5.3
		c-2.6,0.5-4.8,2-6.3,4.1c-1.4,2-2.2,4.3-2.2,6.7c-0.1,1.9,0.4,3.9,1.4,5.5C148.1,81.2,149.6,82,151.2,81.9z"/>
	<path class="st0" d="M188.5,80.7l-0.5-0.2c-0.7,2.1-2,3.9-3.7,5.4c-1.5,1.3-3.4,1.9-5.4,1.9c-2.5,0.1-4.9-1.1-6.5-3.1
		c-1.7-2.4-2.6-5.2-2.4-8.2c-0.2-10.1,7.8-18.4,17.8-18.6c0.2,0,0.5,0,0.7,0c1.3,0,2.5,0.1,3.8,0.4c0.2,0.8,0.3,1.5,0.3,2.3
		c1.5-1,3.2-1.5,4.9-1.5c2.3,0,3.5,1.3,3.5,3.8c-0.3,2.7-0.8,5.4-1.5,8.1c-0.8,3.3-1.3,6.6-1.5,10c0,2.2,0.5,3.7,1.5,4.5
		c-1.5,1.4-3.5,2.3-5.6,2.3c-1.6,0.1-3.2-0.5-4.2-1.7C188.9,84.9,188.5,83.1,188.5,80.7z M179,74.2c-0.1,1.3,0.3,2.5,1,3.6
		c0.7,0.9,1.7,1.3,2.8,1.3c1.3,0,2.6-0.5,3.6-1.3c1.3-1,2.3-2.2,3-3.7c0.4-3.8,1-7.6,1.9-11.4c-3.2,0-6.2,1.2-8.5,3.5
		C180.4,68.2,179,71.1,179,74.2z"/>
	<path class="st0" d="M206.4,69.4c-0.2-0.8-0.3-1.6-0.3-2.5c-0.1-1.3,0.4-2.6,1.4-3.5c1-0.8,2.3-1.2,3.6-1.2c0-1.9-0.5-3.7-1.3-5.4
		c1.3-1,2.8-1.9,4.3-2.6c1.3-0.6,2.7-0.9,4.1-0.9c1.1-0.1,2.1,0.2,3,0.8c0.6,0.7,0.9,1.5,0.8,2.4c-0.1,1.7-0.3,3.4-0.7,5.1
		c1.3-0.2,2.6-0.5,3.9-0.8c0.2,0.8,0.4,1.7,0.3,2.6c0,1.1-0.5,2.1-1.2,2.9c-0.9,1-2.2,1.5-3.6,1.4H220c-1,3.9-1.5,7.9-1.7,12
		c0,2.8,0.5,4.8,1.5,5.9c-1.5,1.5-3.6,2.3-5.7,2.3c-1.6,0.2-3.3-0.5-4.3-1.8c-0.9-1.2-1.3-3-1.3-5.6c0.3-4,0.9-8,1.7-12
		C208.8,68.6,207.6,68.9,206.4,69.4z"/>
	
		<linearGradient id="SVGID_1_" gradientUnits="userSpaceOnUse" x1="428.988" y1="-405.9799" x2="441.8482" y2="-405.9799" gradientTransform="matrix(1 0 0 -1 -399.6995 -397.1396)">
		<stop  offset="0.2703" style="stop-color:#745793"/>
		<stop  offset="0.6627" style="stop-color:#714192"/>
		<stop  offset="0.7568" style="stop-color:#663A8B"/>
		<stop  offset="0.9192" style="stop-color:#4A2878"/>
		<stop  offset="1" style="stop-color:#3A1D6D"/>
	</linearGradient>
	<path class="st1" d="M30.3,0L30.3,0c-0.6,0-1,0.5-1,1c0,0.1,0,0.2,0,0.4l0,0c0,0,10.3,1.6,6.8,16.3c2.6-0.6,6-1.8,6-3.7
		C42.1,11.5,34.6,0.3,30.3,0z"/>
	
		<linearGradient id="SVGID_2_" gradientUnits="userSpaceOnUse" x1="436.0508" y1="-404.5777" x2="429.5088" y2="-408.3548" gradientTransform="matrix(1 0 0 -1 -399.6995 -397.1396)">
		<stop  offset="0" style="stop-color:#8478F8"/>
		<stop  offset="0.1872" style="stop-color:#7E6BD0"/>
		<stop  offset="0.4471" style="stop-color:#745793"/>
		<stop  offset="0.6627" style="stop-color:#714192"/>
		<stop  offset="0.7568" style="stop-color:#663A8B"/>
		<stop  offset="0.9192" style="stop-color:#4A2878"/>
		<stop  offset="1" style="stop-color:#3A1D6D"/>
	</linearGradient>
	<path class="st2" d="M29.4,1.4L29.4,1.4L29.4,1.4c0,0.2,0.1,0.4,0.1,0.6l0.2,1c0.1,0.2,0.1,0.5,0.2,0.7c0.3,0.8,0.7,1.4,1.3,2
		c2.3,2.4,3.4,6.9,3.5,7.5c-0.5-1.2-1.2-2.3-1.9-3.3c-0.5-0.6-1.1-1.1-1.9-1.4c0.8,3.8,1.8,9.8,3.4,9.6c0.5-0.1,1.1-0.2,1.8-0.3
		c0,0,0,0,0,0C39.7,3,29.4,1.4,29.4,1.4z"/>
	
		<linearGradient id="SVGID_3_" gradientUnits="userSpaceOnUse" x1="-174.7115" y1="-406.1822" x2="-161.8513" y2="-406.1822" gradientTransform="matrix(-1 0 0 -1 -107.4196 -397.1396)">
		<stop  offset="0.2703" style="stop-color:#745793"/>
		<stop  offset="0.6627" style="stop-color:#714192"/>
		<stop  offset="0.7568" style="stop-color:#663A8B"/>
		<stop  offset="0.9192" style="stop-color:#4A2878"/>
		<stop  offset="1" style="stop-color:#3A1D6D"/>
	</linearGradient>
	<path class="st3" d="M66.3,0.2L66.3,0.2c0.6,0,1,0.5,1,1c0,0.1,0,0.2,0,0.4l0,0c0,0-10.3,1.6-6.8,16.3c-2.6-0.6-6-1.8-6-3.7
		C54.4,11.7,62,0.5,66.3,0.2z"/>
	
		<linearGradient id="SVGID_4_" gradientUnits="userSpaceOnUse" x1="-167.6487" y1="-404.78" x2="-174.1907" y2="-408.557" gradientTransform="matrix(-1 0 0 -1 -107.4196 -397.1396)">
		<stop  offset="0" style="stop-color:#8478F8"/>
		<stop  offset="0.1872" style="stop-color:#7E6BD0"/>
		<stop  offset="0.4471" style="stop-color:#745793"/>
		<stop  offset="0.6627" style="stop-color:#714192"/>
		<stop  offset="0.7568" style="stop-color:#663A8B"/>
		<stop  offset="0.9192" style="stop-color:#4A2878"/>
		<stop  offset="1" style="stop-color:#3A1D6D"/>
	</linearGradient>
	<path class="st4" d="M67.2,1.6L67.2,1.6L67.2,1.6c0,0.2-0.1,0.4-0.1,0.6l-0.2,1c-0.1,0.2-0.1,0.5-0.2,0.7c-0.3,0.8-0.7,1.4-1.3,2
		c-2.3,2.4-3.4,6.9-3.5,7.5c0.5-1.2,1.2-2.3,1.9-3.3c0.5-0.6,1.1-1.1,1.9-1.4c-0.8,3.8-1.8,9.8-3.4,9.6c-0.5-0.1-1.1-0.2-1.8-0.3
		c0,0,0,0,0,0C56.9,3.2,67.2,1.6,67.2,1.6z"/>
	<path class="st0" d="M23,32.5c-10-4.7-23-0.4-23-0.4c0.6,4.3,3.9,6.8,7.3,8.3c0-0.1-0.1-0.1-0.1-0.2C7.2,40.2-2.6,32.5,23,32.5z"/>
	
		<linearGradient id="SVGID_5_" gradientUnits="userSpaceOnUse" x1="409.6344" y1="-439.0674" x2="416.983" y2="-426.3392" gradientTransform="matrix(1 0 0 -1 -399.6995 -397.1396)">
		<stop  offset="6.384000e-02" style="stop-color:#714192"/>
		<stop  offset="0.2204" style="stop-color:#663A8B"/>
		<stop  offset="0.4906" style="stop-color:#4A2878"/>
		<stop  offset="0.5933" style="stop-color:#3E2070"/>
		<stop  offset="1" style="stop-color:#3A1D6D"/>
	</linearGradient>
	<path class="st5" d="M14,40.8c-0.6-0.8-1.4-2-2.3-3.6C9.5,33.7,23,32.5,23,32.5c-25.6,0-15.9,7.7-15.9,7.7c0,0.1,0.1,0.1,0.1,0.2
		c1.9,0.8,3.9,1.3,5.9,1.6c0.4,0.1,0.8-0.2,0.9-0.6C14.1,41.2,14.1,41,14,40.8z"/>
	<path class="st0" d="M73.5,32.5c10-4.7,23-0.4,23-0.4c-0.6,4.3-3.9,6.8-7.3,8.3c0-0.1,0.1-0.1,0.1-0.2
		C89.4,40.2,99.2,32.5,73.5,32.5z"/>
	
		<linearGradient id="SVGID_6_" gradientUnits="userSpaceOnUse" x1="-150.0425" y1="-439.0674" x2="-142.6939" y2="-426.3392" gradientTransform="matrix(-1 0 0 -1 -63.3969 -397.1396)">
		<stop  offset="6.384000e-02" style="stop-color:#714192"/>
		<stop  offset="0.2204" style="stop-color:#663A8B"/>
		<stop  offset="0.4906" style="stop-color:#4A2878"/>
		<stop  offset="0.5933" style="stop-color:#3E2070"/>
		<stop  offset="1" style="stop-color:#3A1D6D"/>
	</linearGradient>
	<path class="st6" d="M82.6,40.8c0.6-0.8,1.4-2,2.3-3.6c2.1-3.6-11.4-4.7-11.4-4.7c25.6,0,15.9,7.7,15.9,7.7c0,0.1-0.1,0.1-0.1,0.2
		c-1.9,0.8-3.9,1.3-5.9,1.6c-0.4,0.1-0.8-0.2-0.9-0.6C82.4,41.2,82.5,41,82.6,40.8z"/>
	
		<linearGradient id="SVGID_7_" gradientUnits="userSpaceOnUse" x1="447.9987" y1="-491.0687" x2="447.9987" y2="-485.7419" gradientTransform="matrix(1 0 0 -1 -399.6995 -397.1396)">
		<stop  offset="6.384000e-02" style="stop-color:#714192"/>
		<stop  offset="0.1788" style="stop-color:#623888"/>
		<stop  offset="0.4281" style="stop-color:#482677"/>
		<stop  offset="0.5755" style="stop-color:#3E2070"/>
		<stop  offset="1" style="stop-color:#3A1D6D"/>
	</linearGradient>
	<path class="st7" d="M40.4,88.6c0,0.1,0,0.3,0,0.4c0,2.7,3.5,4.9,7.9,4.9s7.9-2.2,7.9-4.9c0-0.1,0-0.3,0-0.4H40.4z"/>
	
		<linearGradient id="SVGID_8_" gradientUnits="userSpaceOnUse" x1="465.9253" y1="-418.5143" x2="465.9253" y2="-482.6428" gradientTransform="matrix(1 0 0 -1 -399.6995 -397.1396)">
		<stop  offset="6.384000e-02" style="stop-color:#714192"/>
		<stop  offset="0.2299" style="stop-color:#663A8B"/>
		<stop  offset="0.5165" style="stop-color:#4A2878"/>
		<stop  offset="0.6254" style="stop-color:#3E2070"/>
		<stop  offset="1" style="stop-color:#3A1D6D"/>
	</linearGradient>
	<path class="st8" d="M66.1,25.9c0.1,0.1,0.1,0.1,0.2,0.2C66.3,26,66.2,26,66.1,25.9z"/>
	
		<linearGradient id="SVGID_9_" gradientUnits="userSpaceOnUse" x1="-499.1109" y1="-423.0359" x2="-499.1109" y2="-438.8438" gradientTransform="matrix(-1 0 0 -1 -431.5465 -397.1396)">
		<stop  offset="6.384000e-02" style="stop-color:#714192"/>
		<stop  offset="0.2299" style="stop-color:#663A8B"/>
		<stop  offset="0.5165" style="stop-color:#4A2878"/>
		<stop  offset="0.6254" style="stop-color:#3E2070"/>
		<stop  offset="1" style="stop-color:#3A1D6D"/>
	</linearGradient>
	<path class="st9" d="M70.6,29.9c-1.4-1.4-2.8-2.6-4.3-3.8C68.1,27.5,69.6,29,70.6,29.9c0.7,0.7,0.9,1.8,0.5,2.7
		c-0.7,1.5-1.9,3.8-3.3,4.7c-1.6,1.2-2.9,2.7-3.9,4.4l0,0c1.1-1.7,2.4-3.2,4-4.4c1.4-0.9,2.6-3.2,3.3-4.7
		C71.5,31.7,71.3,30.6,70.6,29.9z"/>
	
		<linearGradient id="SVGID_10_" gradientUnits="userSpaceOnUse" x1="-497.6489" y1="-423.0359" x2="-497.6489" y2="-438.8438" gradientTransform="matrix(-1 0 0 -1 -431.5465 -397.1396)">
		<stop  offset="6.384000e-02" style="stop-color:#714192"/>
		<stop  offset="0.2299" style="stop-color:#663A8B"/>
		<stop  offset="0.5165" style="stop-color:#4A2878"/>
		<stop  offset="0.6254" style="stop-color:#3E2070"/>
		<stop  offset="1" style="stop-color:#3A1D6D"/>
	</linearGradient>
	<path class="st10" d="M66.1,25.9L66.1,25.9L66.1,25.9L66.1,25.9z"/>
	
		<linearGradient id="SVGID_11_" gradientUnits="userSpaceOnUse" x1="467.2613" y1="-418.5143" x2="467.2613" y2="-482.6428" gradientTransform="matrix(1 0 0 -1 -399.6995 -397.1396)">
		<stop  offset="6.384000e-02" style="stop-color:#714192"/>
		<stop  offset="0.2299" style="stop-color:#663A8B"/>
		<stop  offset="0.5165" style="stop-color:#4A2878"/>
		<stop  offset="0.6254" style="stop-color:#3E2070"/>
		<stop  offset="1" style="stop-color:#3A1D6D"/>
	</linearGradient>
	<path class="st11" d="M67.8,37.3c1.4-0.9,2.6-3.2,3.3-4.7c0.4-0.9,0.2-2-0.5-2.7c-1-1-2.5-2.4-4.3-3.8c-0.1-0.1-0.1-0.1-0.2-0.2
		l0,0c0.3,0.3,0.6,0.5,0.8,0.9c1.4,2,2,4.6,1.4,7c-0.5,1.8-1.3,2.6-2.6,4.1c-1,1.1-1.6,2.4-1.9,3.8C64.9,40,66.2,38.5,67.8,37.3z"/>
	
		<linearGradient id="SVGID_12_" gradientUnits="userSpaceOnUse" x1="-499.2331" y1="-423.0396" x2="-499.2331" y2="-438.8474" gradientTransform="matrix(-1 0 0 -1 -431.5465 -397.1396)">
		<stop  offset="0.2703" style="stop-color:#745793"/>
		<stop  offset="0.6627" style="stop-color:#714192"/>
		<stop  offset="0.7568" style="stop-color:#663A8B"/>
		<stop  offset="0.9192" style="stop-color:#4A2878"/>
		<stop  offset="1" style="stop-color:#3A1D6D"/>
	</linearGradient>
	<path class="st12" d="M70.6,29.9c-1.1-0.9-2.5-2.4-4.3-3.8c-0.1-0.1-0.1-0.1-0.2-0.2l0,0c0.3,0.3,0.6,0.5,0.8,0.9
		c1.4,1.7,2.7,4.3,2.1,6.5c-0.5,1.8-2,3.2-3.2,4.7c-1,1.1-1.6,2.4-1.9,3.8c1.3-1.9,2.9-3.5,4.7-4.9C72.7,34.1,71.6,30.8,70.6,29.9z"
		/>
	
		<linearGradient id="SVGID_13_" gradientUnits="userSpaceOnUse" x1="-501.1368" y1="-432.6453" x2="-501.1368" y2="-481.15" gradientTransform="matrix(-1 0 0 -1 -445.7151 -397.1396)">
		<stop  offset="6.384000e-02" style="stop-color:#714192"/>
		<stop  offset="0.2299" style="stop-color:#663A8B"/>
		<stop  offset="0.5165" style="stop-color:#4A2878"/>
		<stop  offset="0.6254" style="stop-color:#3E2070"/>
		<stop  offset="1" style="stop-color:#3A1D6D"/>
	</linearGradient>
	<path class="st13" d="M55.8,75.6c-0.3-0.9-0.5-1.8-0.8-2.7c0.2,0.9,0.4,1.7,0.7,2.6C55.8,75.5,55.8,75.6,55.8,75.6z"/>
	
		<linearGradient id="SVGID_14_" gradientUnits="userSpaceOnUse" x1="60.8464" y1="60.46" x2="60.8473" y2="60.46" gradientTransform="matrix(1 0 0 -1 0 96)">
		<stop  offset="6.384000e-02" style="stop-color:#714192"/>
		<stop  offset="0.2299" style="stop-color:#663A8B"/>
		<stop  offset="0.5165" style="stop-color:#4A2878"/>
		<stop  offset="0.6254" style="stop-color:#3E2070"/>
		<stop  offset="1" style="stop-color:#3A1D6D"/>
	</linearGradient>
	<polygon class="st14" points="60.8,35.5 60.8,35.5 60.8,35.5 	"/>
	
		<linearGradient id="SVGID_15_" gradientUnits="userSpaceOnUse" x1="456.4975" y1="-418.5143" x2="456.4975" y2="-482.6428" gradientTransform="matrix(1 0 0 -1 -399.6995 -397.1396)">
		<stop  offset="6.384000e-02" style="stop-color:#714192"/>
		<stop  offset="0.2299" style="stop-color:#663A8B"/>
		<stop  offset="0.5165" style="stop-color:#4A2878"/>
		<stop  offset="0.6254" style="stop-color:#3E2070"/>
		<stop  offset="1" style="stop-color:#3A1D6D"/>
	</linearGradient>
	<path class="st15" d="M55,72.9c-3.3-14.4,2.1-29,4.6-34.8C57.1,43.9,51.6,58.7,55,72.9z"/>
	
		<linearGradient id="SVGID_16_" gradientUnits="userSpaceOnUse" x1="-505.9629" y1="-432.6453" x2="-505.9629" y2="-481.15" gradientTransform="matrix(-1 0 0 -1 -445.7151 -397.1396)">
		<stop  offset="6.384000e-02" style="stop-color:#714192"/>
		<stop  offset="0.2299" style="stop-color:#663A8B"/>
		<stop  offset="0.5165" style="stop-color:#4A2878"/>
		<stop  offset="0.6254" style="stop-color:#3E2070"/>
		<stop  offset="1" style="stop-color:#3A1D6D"/>
	</linearGradient>
	<path class="st16" d="M60.8,35.5c0,0-0.5,0.9-1.2,2.5C60.3,36.6,60.8,35.7,60.8,35.5L60.8,35.5L60.8,35.5z"/>
	
		<linearGradient id="SVGID_17_" gradientUnits="userSpaceOnUse" x1="456.4143" y1="-418.5143" x2="456.4143" y2="-482.6428" gradientTransform="matrix(1 0 0 -1 -399.6995 -397.1396)">
		<stop  offset="6.384000e-02" style="stop-color:#714192"/>
		<stop  offset="0.2299" style="stop-color:#663A8B"/>
		<stop  offset="0.5165" style="stop-color:#4A2878"/>
		<stop  offset="0.6254" style="stop-color:#3E2070"/>
		<stop  offset="1" style="stop-color:#3A1D6D"/>
	</linearGradient>
	<path class="st17" d="M55.7,75.4c-0.3-0.8-0.5-1.7-0.7-2.6c-3.4-14.2,2-29,4.6-34.8c0.7-1.6,1.2-2.5,1.2-2.5
		C46.7,55.6,54.9,73.7,55.7,75.4z"/>
	
		<linearGradient id="SVGID_18_" gradientUnits="userSpaceOnUse" x1="-502.4299" y1="-432.6805" x2="-502.4299" y2="-481.1852" gradientTransform="matrix(-1 0 0 -1 -445.7151 -397.1396)">
		<stop  offset="6.384000e-02" style="stop-color:#714192"/>
		<stop  offset="0.2299" style="stop-color:#663A8B"/>
		<stop  offset="0.5165" style="stop-color:#4A2878"/>
		<stop  offset="0.6254" style="stop-color:#3E2070"/>
		<stop  offset="1" style="stop-color:#291D07"/>
	</linearGradient>
	<path class="st18" d="M55.7,75.4c-0.3-0.8-0.5-1.7-0.7-2.6c-3.4-14.2,2-29,4.6-34.8c0.7-1.6,1.2-2.5,1.2-2.5
		C46.7,55.6,54.9,73.7,55.7,75.4z"/>
	
		<linearGradient id="SVGID_19_" gradientUnits="userSpaceOnUse" x1="460.5582" y1="-418.5143" x2="460.5582" y2="-482.6428" gradientTransform="matrix(1 0 0 -1 -399.6995 -397.1396)">
		<stop  offset="6.384000e-02" style="stop-color:#714192"/>
		<stop  offset="0.2299" style="stop-color:#663A8B"/>
		<stop  offset="0.5165" style="stop-color:#4A2878"/>
		<stop  offset="0.6254" style="stop-color:#3E2070"/>
		<stop  offset="1" style="stop-color:#3A1D6D"/>
	</linearGradient>
	<path class="st19" d="M60.8,35.5L60.8,35.5L60.8,35.5L60.8,35.5z"/>
	
		<linearGradient id="SVGID_20_" gradientUnits="userSpaceOnUse" x1="-506.5739" y1="-432.6453" x2="-506.5739" y2="-481.15" gradientTransform="matrix(-1 0 0 -1 -445.7151 -397.1396)">
		<stop  offset="6.384000e-02" style="stop-color:#714192"/>
		<stop  offset="0.2299" style="stop-color:#663A8B"/>
		<stop  offset="0.5165" style="stop-color:#4A2878"/>
		<stop  offset="0.6254" style="stop-color:#3E2070"/>
		<stop  offset="1" style="stop-color:#3A1D6D"/>
	</linearGradient>
	<path class="st20" d="M60.8,35.5L60.8,35.5L60.8,35.5L60.8,35.5z"/>
	
		<linearGradient id="SVGID_21_" gradientUnits="userSpaceOnUse" x1="35.7511" y1="60.5105" x2="35.752" y2="60.5105" gradientTransform="matrix(1 0 0 -1 0 96)">
		<stop  offset="6.384000e-02" style="stop-color:#714192"/>
		<stop  offset="0.2299" style="stop-color:#663A8B"/>
		<stop  offset="0.5165" style="stop-color:#4A2878"/>
		<stop  offset="0.6254" style="stop-color:#3E2070"/>
		<stop  offset="1" style="stop-color:#3A1D6D"/>
	</linearGradient>
	<polygon class="st21" points="35.8,35.5 35.8,35.5 35.8,35.5 	"/>
	
		<linearGradient id="SVGID_22_" gradientUnits="userSpaceOnUse" x1="-96.1491" y1="-418.4637" x2="-96.1491" y2="-482.5923" gradientTransform="matrix(-1 0 0 -1 -56.3486 -397.1396)">
		<stop  offset="6.384000e-02" style="stop-color:#714192"/>
		<stop  offset="0.2299" style="stop-color:#663A8B"/>
		<stop  offset="0.5165" style="stop-color:#4A2878"/>
		<stop  offset="0.6254" style="stop-color:#3E2070"/>
		<stop  offset="1" style="stop-color:#3A1D6D"/>
	</linearGradient>
	<path class="st22" d="M41.6,72.8c3.3-14.4-2.1-29-4.6-34.8C39.5,43.8,45,58.6,41.6,72.8z"/>
	<linearGradient id="SVGID_23_" gradientUnits="userSpaceOnUse" x1="48.2992" y1="21.3241" x2="48.2992" y2="85.5038">
		<stop  offset="6.384000e-02" style="stop-color:#714192"/>
		<stop  offset="0.2299" style="stop-color:#663A8B"/>
		<stop  offset="0.5165" style="stop-color:#4A2878"/>
		<stop  offset="0.6254" style="stop-color:#3E2070"/>
		<stop  offset="1" style="stop-color:#3A1D6D"/>
	</linearGradient>
	<path class="st23" d="M66.9,26.8c-0.2-0.3-0.5-0.6-0.8-0.9c-3-2.4-6.5-4.7-9-4.5c-4.6,0.4-6.3,1.8-8.8,2.3v0
		c-2.5-0.5-4.1-1.9-8.8-2.3c-2.5-0.2-6,2.1-9,4.5c-0.3,0.3-0.6,0.5-0.8,0.9c-1.4,2-2,4.6-1.4,7c0.5,1.8,1.3,2.6,2.6,4.1
		c1,1.1,1.6,2.4,1.9,3.8l0,0l3-6.2l0,0l0,0l0,0l0,0c14.2,20,6,38.1,5.1,39.9c0,0.1,0,0.1-0.1,0.2c4.1,1.2,7,4.8,7.5,9.1v0.1
		c0,0,0,0,0-0.1c0,0,0,0,0,0v-0.1c0,0,0-0.1,0-0.1c0.5-4.2,3.4-7.7,7.5-9c0-0.1,0-0.1-0.1-0.2c-0.9-1.8-9.1-19.8,5.1-39.9l0,0l0,0
		l0,0l0,0l3,6.2l0,0c0.3-1.4,1-2.7,1.9-3.8c1.2-1.5,2-2.3,2.6-4.1C68.9,31.4,68.4,28.8,66.9,26.8z"/>
	
		<linearGradient id="SVGID_24_" gradientUnits="userSpaceOnUse" x1="-86.7213" y1="-418.4637" x2="-86.7213" y2="-482.5923" gradientTransform="matrix(-1 0 0 -1 -56.3486 -397.1396)">
		<stop  offset="6.384000e-02" style="stop-color:#714192"/>
		<stop  offset="0.2299" style="stop-color:#663A8B"/>
		<stop  offset="0.5165" style="stop-color:#4A2878"/>
		<stop  offset="0.6254" style="stop-color:#3E2070"/>
		<stop  offset="1" style="stop-color:#3A1D6D"/>
	</linearGradient>
	<path class="st24" d="M30.5,25.9c-0.1,0.1-0.1,0.1-0.2,0.2C30.3,26,30.4,25.9,30.5,25.9z"/>
	
		<linearGradient id="SVGID_25_" gradientUnits="userSpaceOnUse" x1="53.5357" y1="-422.9854" x2="53.5357" y2="-438.7932" gradientTransform="matrix(1 0 0 -1 -24.5016 -397.1396)">
		<stop  offset="6.384000e-02" style="stop-color:#714192"/>
		<stop  offset="0.2299" style="stop-color:#663A8B"/>
		<stop  offset="0.5165" style="stop-color:#4A2878"/>
		<stop  offset="0.6254" style="stop-color:#3E2070"/>
		<stop  offset="1" style="stop-color:#3A1D6D"/>
	</linearGradient>
	<path class="st25" d="M26,29.9c1.4-1.4,2.8-2.6,4.3-3.8C28.5,27.5,27,28.9,26,29.9c-0.7,0.7-0.9,1.8-0.5,2.7
		c0.7,1.5,1.9,3.8,3.3,4.7c1.6,1.2,2.9,2.7,3.9,4.4l0,0c-1.1-1.7-2.4-3.2-4-4.4c-1.4-0.9-2.6-3.2-3.3-4.7
		C25.1,31.6,25.3,30.6,26,29.9z"/>
	
		<linearGradient id="SVGID_26_" gradientUnits="userSpaceOnUse" x1="54.9977" y1="-422.9854" x2="54.9977" y2="-438.7932" gradientTransform="matrix(1 0 0 -1 -24.5016 -397.1396)">
		<stop  offset="6.384000e-02" style="stop-color:#714192"/>
		<stop  offset="0.2299" style="stop-color:#663A8B"/>
		<stop  offset="0.5165" style="stop-color:#4A2878"/>
		<stop  offset="0.6254" style="stop-color:#3E2070"/>
		<stop  offset="1" style="stop-color:#3A1D6D"/>
	</linearGradient>
	<path class="st26" d="M30.5,25.8L30.5,25.8L30.5,25.8L30.5,25.8z"/>
	
		<linearGradient id="SVGID_27_" gradientUnits="userSpaceOnUse" x1="-85.3853" y1="-418.4637" x2="-85.3853" y2="-482.5923" gradientTransform="matrix(-1 0 0 -1 -56.3486 -397.1396)">
		<stop  offset="6.384000e-02" style="stop-color:#714192"/>
		<stop  offset="0.2299" style="stop-color:#663A8B"/>
		<stop  offset="0.5165" style="stop-color:#4A2878"/>
		<stop  offset="0.6254" style="stop-color:#3E2070"/>
		<stop  offset="1" style="stop-color:#3A1D6D"/>
	</linearGradient>
	<path class="st27" d="M28.8,37.2c-1.4-0.9-2.6-3.2-3.3-4.7c-0.4-0.9-0.2-2,0.5-2.7c1-1,2.5-2.4,4.3-3.8c0.1-0.1,0.1-0.1,0.2-0.2
		l0,0c-0.3,0.3-0.6,0.5-0.8,0.9c-1.4,2-2,4.6-1.4,7c0.5,1.8,1.3,2.6,2.6,4.1c1,1.1,1.6,2.4,1.9,3.8C31.7,39.9,30.4,38.5,28.8,37.2z"
		/>
	
		<linearGradient id="SVGID_28_" gradientUnits="userSpaceOnUse" x1="53.4134" y1="-422.9891" x2="53.4134" y2="-438.7968" gradientTransform="matrix(1 0 0 -1 -24.5016 -397.1396)">
		<stop  offset="0.2703" style="stop-color:#745793"/>
		<stop  offset="0.6627" style="stop-color:#714192"/>
		<stop  offset="0.7568" style="stop-color:#663A8B"/>
		<stop  offset="0.9192" style="stop-color:#4A2878"/>
		<stop  offset="1" style="stop-color:#3A1D6D"/>
	</linearGradient>
	<path class="st28" d="M26,29.9c1.1-0.9,2.5-2.4,4.3-3.8c0.1-0.1,0.1-0.1,0.2-0.2l0,0c-0.3,0.3-0.6,0.5-0.8,0.9
		c-1.4,1.7-2.7,4.3-2.1,6.5c0.5,1.8,2,3.2,3.2,4.7c1,1.1,1.6,2.4,1.9,3.8c-1.3-1.9-2.9-3.5-4.7-4.9C23.9,34.1,25,30.7,26,29.9z"/>
	
		<linearGradient id="SVGID_29_" gradientUnits="userSpaceOnUse" x1="46.6836" y1="-432.5948" x2="46.6836" y2="-481.0995" gradientTransform="matrix(1 0 0 -1 -10.333 -397.1396)">
		<stop  offset="6.384000e-02" style="stop-color:#714192"/>
		<stop  offset="0.2299" style="stop-color:#663A8B"/>
		<stop  offset="0.5165" style="stop-color:#4A2878"/>
		<stop  offset="0.6254" style="stop-color:#3E2070"/>
		<stop  offset="1" style="stop-color:#3A1D6D"/>
	</linearGradient>
	<path class="st29" d="M35.8,35.5c0,0,0.5,0.9,1.2,2.5C36.3,36.5,35.8,35.7,35.8,35.5L35.8,35.5L35.8,35.5z"/>
	
		<linearGradient id="SVGID_30_" gradientUnits="userSpaceOnUse" x1="-96.2323" y1="-418.4637" x2="-96.2323" y2="-482.5923" gradientTransform="matrix(-1 0 0 -1 -56.3486 -397.1396)">
		<stop  offset="6.384000e-02" style="stop-color:#714192"/>
		<stop  offset="0.2299" style="stop-color:#663A8B"/>
		<stop  offset="0.5165" style="stop-color:#4A2878"/>
		<stop  offset="0.6254" style="stop-color:#3E2070"/>
		<stop  offset="1" style="stop-color:#3A1D6D"/>
	</linearGradient>
	<path class="st30" d="M40.9,75.4c0.3-0.8,0.5-1.7,0.7-2.6c3.4-14.2-2-29-4.6-34.8c-0.7-1.6-1.2-2.5-1.2-2.5
		C49.9,55.5,41.7,73.6,40.9,75.4z"/>
	
		<linearGradient id="SVGID_31_" gradientUnits="userSpaceOnUse" x1="50.2166" y1="-432.6299" x2="50.2166" y2="-481.1346" gradientTransform="matrix(1 0 0 -1 -10.333 -397.1396)">
		<stop  offset="6.384000e-02" style="stop-color:#714192"/>
		<stop  offset="0.2299" style="stop-color:#663A8B"/>
		<stop  offset="0.5165" style="stop-color:#4A2878"/>
		<stop  offset="0.6254" style="stop-color:#3E2070"/>
		<stop  offset="1" style="stop-color:#291D07"/>
	</linearGradient>
	<path class="st31" d="M40.9,75.4c0.3-0.8,0.5-1.7,0.7-2.6c3.4-14.2-2-29-4.6-34.8c-0.7-1.6-1.2-2.5-1.2-2.5
		C49.9,55.5,41.7,73.6,40.9,75.4z"/>
	
		<linearGradient id="SVGID_32_" gradientUnits="userSpaceOnUse" x1="-92.0883" y1="-418.4637" x2="-92.0883" y2="-482.5923" gradientTransform="matrix(-1 0 0 -1 -56.3486 -397.1396)">
		<stop  offset="6.384000e-02" style="stop-color:#714192"/>
		<stop  offset="0.2299" style="stop-color:#663A8B"/>
		<stop  offset="0.5165" style="stop-color:#4A2878"/>
		<stop  offset="0.6254" style="stop-color:#3E2070"/>
		<stop  offset="1" style="stop-color:#3A1D6D"/>
	</linearGradient>
	<path class="st32" d="M35.8,35.5L35.8,35.5L35.8,35.5L35.8,35.5z"/>
	
		<linearGradient id="SVGID_33_" gradientUnits="userSpaceOnUse" x1="46.0727" y1="-432.5948" x2="46.0727" y2="-481.0995" gradientTransform="matrix(1 0 0 -1 -10.333 -397.1396)">
		<stop  offset="6.384000e-02" style="stop-color:#714192"/>
		<stop  offset="0.2299" style="stop-color:#663A8B"/>
		<stop  offset="0.5165" style="stop-color:#4A2878"/>
		<stop  offset="0.6254" style="stop-color:#3E2070"/>
		<stop  offset="1" style="stop-color:#3A1D6D"/>
	</linearGradient>
	<path class="st33" d="M35.8,35.5L35.8,35.5L35.8,35.5L35.8,35.5z"/>
	
		<linearGradient id="SVGID_34_" gradientUnits="userSpaceOnUse" x1="-165.7139" y1="-441.6503" x2="-167.9211" y2="-504.8574" gradientTransform="matrix(-1 0 0 -1 -105.6002 -397.1396)">
		<stop  offset="6.384000e-02" style="stop-color:#714192"/>
		<stop  offset="0.1512" style="stop-color:#663A8B"/>
		<stop  offset="0.302" style="stop-color:#4A2878"/>
		<stop  offset="0.3594" style="stop-color:#3E2070"/>
		<stop  offset="0.5338" style="stop-color:#3A1D6D"/>
		<stop  offset="0.6534" style="stop-color:#3A1D6D"/>
		<stop  offset="0.6576" style="stop-color:#2E1756"/>
		<stop  offset="0.6637" style="stop-color:#20103B"/>
		<stop  offset="0.6708" style="stop-color:#140A25"/>
		<stop  offset="0.6791" style="stop-color:#0B0514"/>
		<stop  offset="0.6893" style="stop-color:#050209"/>
		<stop  offset="0.7036" style="stop-color:#010002"/>
		<stop  offset="0.7433" style="stop-color:#000000"/>
	</linearGradient>
	<path class="st34" d="M66.3,45.3c-2.2-1.1-4.5,5.7-6.2,11.3c-1.4,4.7-0.9,15.2-0.7,18.7c0,0.7-0.1,1.5-0.4,2.2l-2.7,3.8L57,77
		c0,0-6.4,2.4-6.4,8.7l4.8-0.3c0.7-0.1,1.2-0.4,1.7-0.9c2.7-3.4,6.6-15.3,8.1-22.1c1.6-7.6,5.1-9.6,5.9-12.1S68.5,46.4,66.3,45.3z"
		/>
	
		<linearGradient id="SVGID_35_" gradientUnits="userSpaceOnUse" x1="452.3556" y1="-483.9592" x2="455.5112" y2="-478.4935" gradientTransform="matrix(1 0 0 -1 -399.6995 -397.1396)">
		<stop  offset="0" style="stop-color:#9CC3FA;stop-opacity:0.15"/>
		<stop  offset="9.217000e-02" style="stop-color:#88A2DE;stop-opacity:0.3203"/>
		<stop  offset="0.2916" style="stop-color:#6668AC;stop-opacity:0.6183"/>
		<stop  offset="0.4994" style="stop-color:#4D3E89;stop-opacity:0.8317"/>
		<stop  offset="0.719" style="stop-color:#3F2574;stop-opacity:0.9588"/>
		<stop  offset="0.97" style="stop-color:#3A1D6D"/>
	</linearGradient>
	<path class="st35" d="M55.4,85.4l-4.8,0.3c0-0.4,0-0.7,0.1-1.1l0,0c5.7,0,7.2-1.6,7.4-1.8c-0.3,0.6-0.7,1.2-1.1,1.7
		C56.7,85,56.1,85.3,55.4,85.4z"/>
	
		<linearGradient id="SVGID_36_" gradientUnits="userSpaceOnUse" x1="458.8273" y1="-441.6503" x2="456.62" y2="-504.8574" gradientTransform="matrix(1 0 0 -1 -422.3426 -397.1396)">
		<stop  offset="6.384000e-02" style="stop-color:#714192"/>
		<stop  offset="0.1512" style="stop-color:#663A8B"/>
		<stop  offset="0.302" style="stop-color:#4A2878"/>
		<stop  offset="0.3594" style="stop-color:#3E2070"/>
		<stop  offset="0.5338" style="stop-color:#3A1D6D"/>
		<stop  offset="0.6534" style="stop-color:#3A1D6D"/>
	</linearGradient>
	<path class="st36" d="M30.3,45.3c2.2-1.1,4.5,5.7,6.2,11.3c1.4,4.7,0.9,15.2,0.7,18.7c0,0.7,0.1,1.5,0.4,2.2l2.7,3.8L39.6,77
		c0,0,6.4,2.4,6.4,8.7l-4.8-0.3c-0.7-0.1-1.2-0.4-1.7-0.9c-2.7-3.4-6.6-15.3-8.1-22.1c-1.6-7.6-5.1-9.6-5.9-12.1
		S28.1,46.4,30.3,45.3z"/>
	
		<linearGradient id="SVGID_37_" gradientUnits="userSpaceOnUse" x1="-172.1856" y1="-483.9592" x2="-169.03" y2="-478.4935" gradientTransform="matrix(-1 0 0 -1 -128.2433 -397.1396)">
		<stop  offset="0" style="stop-color:#9CC3FA;stop-opacity:0.15"/>
		<stop  offset="9.217000e-02" style="stop-color:#88A2DE;stop-opacity:0.3203"/>
		<stop  offset="0.2916" style="stop-color:#6668AC;stop-opacity:0.6183"/>
		<stop  offset="0.4994" style="stop-color:#4D3E89;stop-opacity:0.8317"/>
		<stop  offset="0.719" style="stop-color:#3F2574;stop-opacity:0.9588"/>
		<stop  offset="0.97" style="stop-color:#3A1D6D"/>
	</linearGradient>
	<path class="st37" d="M41.2,85.4l4.8,0.3c0-0.4,0-0.7-0.1-1.1l0,0c-5.7,0-7.2-1.6-7.4-1.8c0.3,0.6,0.7,1.2,1.1,1.7
		C39.9,85,40.5,85.3,41.2,85.4z"/>
</g>
</svg>
