<?xml version="1.0" encoding="utf-8"?>
<!-- Generator: Adobe Illustrator 23.0.6, SVG Export Plug-In . SVG Version: 6.00 Build 0)  -->
<svg version="1.1" id="Layer_1" xmlns="http://www.w3.org/2000/svg" xmlns:xlink="http://www.w3.org/1999/xlink" x="0px" y="0px"
	 viewBox="0 0 65.81 72.72" style="enable-background:new 0 0 65.81 72.72;" xml:space="preserve">
<style type="text/css">
	.st0{fill:#9CB72E;}
</style>
<path class="st0" d="M54.63-0.44c-1.78,0-3.54,0.47-5.08,1.36L27.32,13.75l-7.44,4.29v-8c0-5.57-4.51-10.08-10.08-10.08
	S-0.27,4.48-0.27,10.05V62.2c0,5.57,4.51,10.08,10.08,10.08s10.08-4.51,10.08-10.08v-9.45l7.44,4.29l22.22,12.84
	c4.88,2.81,11.11,1.14,13.92-3.74c0.89-1.55,1.36-3.31,1.36-5.1V35.4V9.74C64.82,4.11,60.25-0.44,54.63-0.44z"/>
</svg>
