<?xml version="1.0" encoding="utf-8"?>
<!-- Generator: Adobe Illustrator 23.0.6, SVG Export Plug-In . SVG Version: 6.00 Build 0)  -->
<svg version="1.1" id="Layer_1" xmlns="http://www.w3.org/2000/svg" xmlns:xlink="http://www.w3.org/1999/xlink" x="0px" y="0px"
	 viewBox="0 0 768 3626.9" style="enable-background:new 0 0 768 3626.9;" xml:space="preserve">
<style type="text/css">
	.st0{fill:url(#BCG-footer-purple_1_);}
	.st1{clip-path:url(#SVGID_2_);}
	.st2{opacity:0.47;}
	.st3{fill:#FFFFFF;}
	.st4{fill:url(#SVGID_3_);}
	.st5{clip-path:url(#SVGID_5_);}
	.st6{fill:#EFEFEF;}
</style>
<title>tablet-home-bcg</title>
<linearGradient id="BCG-footer-purple_1_" gradientUnits="userSpaceOnUse" x1="470.4837" y1="313.6054" x2="24.9156" y2="-131.9627" gradientTransform="matrix(1 0 0 -1 108.0471 3625.8748)">
	<stop  offset="0" style="stop-color:#5772B0"/>
	<stop  offset="0.4776" style="stop-color:#623D8B"/>
	<stop  offset="0.7133" style="stop-color:#552B6D"/>
	<stop  offset="0.9897" style="stop-color:#431344"/>
</linearGradient>
<path id="BCG-footer-purple" class="st0" d="M2,3383.1c0,0,768,52.8,768,125.9c0,85.7-0.2,117.7-0.2,117.7L2,3626.9V3383.1z"/>
<g id="logo-bcg-footer-white">
	<g>
		<defs>
			<rect id="SVGID_1_" x="2.6" y="3399.8" width="111.5" height="208.6"/>
		</defs>
		<clipPath id="SVGID_2_">
			<use xlink:href="#SVGID_1_"  style="overflow:visible;"/>
		</clipPath>
		<g class="st1">
			<g class="st2">
				<path class="st3" d="M45.3,3416.5c0.1-0.2,0.1-0.5,0.1-0.7c-0.1-1.2-1.1-2.1-2.3-2.2c-9.6,0.5-26.7,24-26.7,29.1
					c0,4.1,7.6,6.6,13.6,7.8l0,0c0,0,0,0,0,0c1.5,0.3,2.9,0.5,4,0.6c3.8,0.4,6-12.2,7.7-20.1c-1.6,0.7-3,1.7-4.2,3
					c-1.9,2.1-4.3,7-4.3,6.9c0.3-1.3,2.8-10.7,7.9-15.6c1.3-1.1,2.2-2.6,2.8-4.2c0.2-0.5,0.4-0.9,0.5-1.4l0.5-2
					C45.1,3417.4,45.2,3416.9,45.3,3416.5z M44.1,3416.7c0.1,0,0.1,0,0.2,0C44.2,3416.7,44.1,3416.7,44.1,3416.7L44.1,3416.7z
					 M41.3,3417.6c0.4-0.2,0.8-0.3,1.1-0.4C42.1,3417.3,41.7,3417.5,41.3,3417.6z M28.3,3438.1c0,0.4,0,0.8,0,1.1
					C28.3,3438.8,28.3,3438.4,28.3,3438.1z M29.3,3447.7c0.1,0.5,0.2,1,0.4,1.5C29.6,3448.7,29.4,3448.2,29.3,3447.7L29.3,3447.7z
					 M28.9,3445.1c0.1,0.5,0.2,0.9,0.3,1.4C29,3446,28.9,3445.5,28.9,3445.1L28.9,3445.1z M28.5,3442.6c0,0.5,0.1,1,0.2,1.4
					C28.7,3443.6,28.6,3443.1,28.5,3442.6L28.5,3442.6z M28.4,3440.3c0,0.5,0.1,0.9,0.1,1.4C28.4,3441.2,28.4,3440.7,28.4,3440.3
					L28.4,3440.3z M29.7,3429.8c0.1-0.3,0.2-0.5,0.3-0.8C29.9,3429.3,29.8,3429.6,29.7,3429.8z M29.2,3431.5
					c0.1-0.3,0.1-0.6,0.2-0.9C29.4,3430.9,29.3,3431.2,29.2,3431.5z M28.8,3433.2c0.1-0.3,0.1-0.6,0.2-0.9
					C28.9,3432.6,28.9,3432.9,28.8,3433.2L28.8,3433.2z M28.5,3435.1c0-0.3,0.1-0.7,0.1-1C28.6,3434.4,28.6,3434.8,28.5,3435.1
					L28.5,3435.1z M28.4,3437.1c0-0.4,0-0.7,0.1-1.1C28.4,3436.3,28.4,3436.7,28.4,3437.1L28.4,3437.1z M32.9,3423.9
					c-0.1,0.2-0.3,0.4-0.4,0.6C32.6,3424.3,32.7,3424.1,32.9,3423.9L32.9,3423.9z M30.6,3427.6c-0.1,0.2-0.2,0.4-0.3,0.7
					C30.4,3428.1,30.5,3427.8,30.6,3427.6L30.6,3427.6z M31.3,3426.3c-0.1,0.2-0.2,0.4-0.3,0.6C31.1,3426.7,31.2,3426.5,31.3,3426.3
					L31.3,3426.3z M32.1,3425.1c-0.1,0.2-0.3,0.4-0.4,0.6C31.8,3425.5,31.9,3425.3,32.1,3425.1L32.1,3425.1z M34.6,3422
					c-0.2,0.2-0.3,0.4-0.5,0.5C34.3,3422.4,34.4,3422.2,34.6,3422L34.6,3422z M33.7,3422.9c-0.2,0.2-0.3,0.4-0.4,0.5
					C33.4,3423.3,33.6,3423.1,33.7,3422.9L33.7,3422.9z M39.4,3418.5c0.2-0.1,0.4-0.2,0.6-0.3C39.9,3418.3,39.7,3418.4,39.4,3418.5
					L39.4,3418.5z M38.7,3418.9c0.2-0.1,0.3-0.2,0.5-0.3C39,3418.7,38.9,3418.8,38.7,3418.9L38.7,3418.9z M38,3419.4
					c0.1-0.1,0.2-0.1,0.3-0.2C38.2,3419.2,38.1,3419.3,38,3419.4L38,3419.4z M37.2,3419.9c0.1,0,0.1-0.1,0.2-0.2
					C37.3,3419.8,37.2,3419.9,37.2,3419.9L37.2,3419.9z M35.8,3420.9c0.2-0.2,0.4-0.3,0.6-0.5C36.2,3420.6,36,3420.7,35.8,3420.9
					L35.8,3420.9z M34.9,3421.7c0.2-0.2,0.4-0.4,0.6-0.5C35.3,3421.3,35.1,3421.5,34.9,3421.7L34.9,3421.7z M45.2,3416.5
					c0,0,0,0-0.1,0C45.2,3416.5,45.2,3416.5,45.2,3416.5L45.2,3416.5z"/>
				<path class="st3" d="M-11.2,3443.2c0-5.1-17.1-28.6-26.7-29.1c-1.2,0-2.2,1-2.3,2.2c0,0.3,0,0.5,0.1,0.7
					c0.1,0.4,0.2,0.8,0.3,1.2l0.5,2c0.1,0.5,0.3,1,0.5,1.4c0.6,1.6,1.6,3,2.8,4.2c5.2,4.9,7.6,14.3,7.9,15.6c0,0-2.4-4.9-4.3-6.9
					c-1.2-1.3-2.6-2.3-4.2-3c1.7,7.9,3.9,20.5,7.7,20.1c1.1-0.1,2.5-0.3,4-0.6c0,0,0,0,0,0l0,0
					C-18.8,3449.8-11.2,3447.2-11.2,3443.2z M-37.2,3417.6c0.8,0.3,1.6,0.6,2.3,0.9C-35.6,3418.2-36.4,3417.9-37.2,3417.6z
					 M-39,3417.1c0,0,0.1,0,0.2,0C-38.9,3417.1-38.9,3417.1-39,3417.1L-39,3417.1z M-40,3416.9c0,0,0,0,0.1,0
					C-39.9,3416.9-40,3416.9-40,3416.9L-40,3416.9z M-34.2,3418.9c-0.2-0.1-0.4-0.2-0.6-0.3C-34.6,3418.7-34.4,3418.8-34.2,3418.9
					L-34.2,3418.9z M-33.4,3419.4c-0.2-0.1-0.3-0.2-0.5-0.3C-33.8,3419.2-33.6,3419.3-33.4,3419.4L-33.4,3419.4z M-32.5,3419.9
					c-0.2-0.1-0.3-0.2-0.5-0.3C-32.9,3419.7-32.7,3419.8-32.5,3419.9L-32.5,3419.9z M-31.3,3420.7c-0.3-0.2-0.5-0.4-0.8-0.6
					C-31.9,3420.4-31.6,3420.5-31.3,3420.7L-31.3,3420.7z M-30.6,3421.3c-0.2-0.1-0.4-0.3-0.5-0.4C-31,3421-30.8,3421.1-30.6,3421.3
					L-30.6,3421.3z M-29.5,3422.3c-0.2-0.2-0.5-0.5-0.7-0.7C-30,3421.8-29.8,3422-29.5,3422.3L-29.5,3422.3z M-28.8,3423
					c-0.2-0.2-0.4-0.4-0.6-0.6C-29.2,3422.6-29,3422.8-28.8,3423L-28.8,3423z M-28.5,3423.4c0.2,0.2,0.4,0.4,0.5,0.6
					C-28.1,3423.8-28.3,3423.6-28.5,3423.4L-28.5,3423.4z M-27.1,3425.1c-0.2-0.2-0.3-0.5-0.5-0.7
					C-27.4,3424.6-27.3,3424.8-27.1,3425.1L-27.1,3425.1z M-25.4,3428c0.1,0.2,0.2,0.5,0.3,0.7C-25.2,3428.5-25.2,3428.3-25.4,3428
					L-25.4,3428z M-26.1,3426.7c0.1,0.2,0.2,0.5,0.4,0.7C-25.8,3427.2-25.9,3426.9-26.1,3426.7L-26.1,3426.7z M-26.8,3425.5
					c0.1,0.2,0.3,0.5,0.4,0.7C-26.5,3425.9-26.7,3425.7-26.8,3425.5L-26.8,3425.5z M-24.5,3430.2c-0.1-0.3-0.2-0.5-0.3-0.8
					C-24.6,3429.7-24.6,3430-24.5,3430.2L-24.5,3430.2z M-24,3431.9c-0.1-0.3-0.1-0.6-0.2-0.9C-24.1,3431.3-24,3431.6-24,3431.9
					L-24,3431.9z M-23.6,3433.6c-0.1-0.3-0.1-0.6-0.2-0.9C-23.7,3433-23.6,3433.3-23.6,3433.6L-23.6,3433.6z M-23.3,3435.4
					c0-0.3-0.1-0.6-0.1-0.9C-23.4,3434.8-23.3,3435.1-23.3,3435.4L-23.3,3435.4z M-23.1,3437.4c0-0.3,0-0.6,0-0.9
					C-23.2,3436.7-23.2,3437-23.1,3437.4L-23.1,3437.4z M-23.1,3439.5c0-0.3,0-0.7,0-1C-23.1,3438.8-23.1,3439.1-23.1,3439.5
					L-23.1,3439.5z M-24.1,3448.1c-0.1,0.4-0.2,0.8-0.3,1.2C-24.3,3448.9-24.2,3448.5-24.1,3448.1L-24.1,3448.1z M-23.6,3445.5
					c-0.1,0.4-0.2,0.8-0.2,1.3C-23.8,3446.4-23.7,3445.9-23.6,3445.5L-23.6,3445.5z M-23.3,3443c0,0.4-0.1,0.9-0.2,1.3
					C-23.4,3443.9-23.3,3443.4-23.3,3443L-23.3,3443z M-23.1,3440.7c0,0.4-0.1,0.7-0.1,1.1C-23.2,3441.4-23.1,3441-23.1,3440.7
					L-23.1,3440.7z"/>
				<path class="st3" d="M59.5,3481.5c22.4-9.9,51.8-0.7,51.8-0.7c-1.3,9.1-8.8,14.3-16.5,17.2c-4.3,1.6-8.8,2.8-13.4,3.4
					c-0.9,0.2-1.7-0.3-1.9-1.2c-0.1-0.4,0-0.9,0.3-1.3c1.3-1.7,3.1-4.1,5.3-7.5C89.9,3484,59.5,3481.5,59.5,3481.5z"/>
				<path class="st3" d="M-54.2,3481.5c0,0-30.5,2.5-25.6,9.9c2.2,3.4,4,5.8,5.3,7.5c0.5,0.7,0.4,1.7-0.4,2.2
					c-0.4,0.3-0.8,0.4-1.3,0.3c-4.6-0.6-9-1.8-13.4-3.4c-7.7-3-15.2-8.2-16.5-17.2C-106,3480.8-76.7,3471.6-54.2,3481.5z"/>
				<path class="st3" d="M20.3,3598.5c0,0.3,0.1,0.5,0.1,0.8c0,5.7-7.9,10.3-17.7,10.3c-9.8,0-17.7-4.6-17.7-10.3
					c0-0.3,0-0.5,0.1-0.8H20.3z"/>
				<path class="st3" d="M-47.6,3476.1C-47.6,3476.1-47.6,3476.1-47.6,3476.1c3.1-2.9,6.3-5.5,9.6-8c0.2-0.1,0.3-0.2,0.5-0.4
					c0,0,0,0,0.1-0.1l0,0c6.7-5,14.7-9.8,20.3-9.4c10.4,0.8,14.2,3.7,19.7,4.8v-0.1c5.5-1.1,9.3-4,19.8-4.8
					c5.6-0.4,13.6,4.4,20.3,9.4l0,0c0,0,0,0,0.1,0.1c0.2,0.1,0.3,0.2,0.5,0.4c3.3,2.5,6.5,5.2,9.6,8c0,0,0,0,0,0
					c2.4,1.8,4.6,8.7-4.6,14.2c-4.5,2.7-8.8,7.9-10.2,9.7c-0.3,0.4-0.5,0.7-0.5,0.7l0-0.1l0,0.1l-6.7-12.8c-0.2,0.3-1.2,2.2-2.7,5.3
					c-5.7,12-17.8,42.6-10.4,72.6c0.4,1.8,0.9,3.6,1.5,5.3c0,0.1,0.1,0.3,0.1,0.4c0,0-15.2,3.7-16.8,19v0.3c0-0.1,0-0.1,0-0.2
					c0,0,0,0,0,0v-0.1c0-0.1,0-0.1,0-0.2c-1.8-15-16.8-18.7-16.8-18.7c0-0.1,0.1-0.3,0.1-0.4c-0.1,0.2-0.2,0.3-0.2,0.3
					c0.3-0.7,0.5-1.4,0.7-2.1c0.3-1.2,0.7-2.3,1-3.5c7.4-30-4.7-60.6-10.4-72.6c-1.5-3.1-2.5-5-2.7-5.3l-6.7,12.8l0-0.1l0,0.1
					c0,0-0.2-0.3-0.5-0.7c-1.4-1.8-5.7-7-10.2-9.7C-52.2,3484.9-50,3478-47.6,3476.1z"/>
				<path class="st3" d="M-37.9,3508.2c4.9-2.2,10,11.8,14,23.6c3.3,9.7,2,31.7,1.5,39c-0.1,1.6,0.2,3.1,0.9,4.5l6.2,7.9l-1.7-8.9
					c0,0,14.3,4.9,14.4,18.2l-0.1,0l0,0l-10.7-0.6c-1.4-0.1-2.8-0.8-3.7-1.9c-0.9-1.1-1.8-2.3-2.5-3.6c0,0.1,0.1,0.1,0.2,0.2
					c-5.8-9.7-13-30.3-15.8-42.8c-3.7-15.9-11.4-20.1-13.3-25.2S-42.8,3510.4-37.9,3508.2z"/>
				<path class="st3" d="M7.9,3592.4L7.9,3592.4L7.9,3592.4c0-13.2,14.3-18.2,14.3-18.2l-1.7,8.9l6.2-7.9c0.7-1.4,1-3,0.9-4.5
					c-0.5-7.2-1.7-29.2,1.5-39c3.9-11.7,9-25.8,14-23.6c4.9,2.2,12.6,5.1,10.7,10.3s-9.6,9.3-13.3,25.2c-2.9,12.6-10,33.1-15.8,42.8
					c0.1-0.1,0.2-0.2,0.2-0.2c-0.7,1.3-1.6,2.5-2.5,3.6c-1,1.1-2.3,1.8-3.7,1.9L7.9,3592.4z"/>
			</g>
		</g>
	</g>
</g>
<linearGradient id="SVGID_3_" gradientUnits="userSpaceOnUse" x1="388.8641" y1="3346.811" x2="661.9151" y2="3346.811" gradientTransform="matrix(1 0 0 -1 108.0471 3625.8748)">
	<stop  offset="0" style="stop-color:#5772B0"/>
	<stop  offset="0.4776" style="stop-color:#623D8B"/>
	<stop  offset="0.7133" style="stop-color:#552B6D"/>
	<stop  offset="0.9897" style="stop-color:#431344"/>
</linearGradient>
<path class="st4" d="M770,558.1c0,0-337.2-291.7-262.2-557.9l262-0.2L770,558.1z"/>
<g id="BCG-logo-white">
	<g>
		<defs>
			<rect id="SVGID_4_" x="598.2" y="125.9" width="169.7" height="342.4"/>
		</defs>
		<clipPath id="SVGID_5_">
			<use xlink:href="#SVGID_4_"  style="overflow:visible;"/>
		</clipPath>
		<g class="st5">
			<g class="st2">
				<path class="st3" d="M703.3,155.5l0.8,3.3c0.2,0.8,0.5,1.6,0.8,2.3c1.4,3.2,1.8,4.2,4.3,6.8c7.8,8.1,11.6,23.5,12,25.6
					c0,0-3.7-8-6.6-11.4c-1.7-2.1-3.9-3.7-6.3-4.9c2.6,13,6,33.7,11.7,33c1.7-0.2,3.8-0.5,6.1-1c0,0,0.1,0,0.1-0.1c0,0,0,0,0,0.1
					c9-1.9,20.6-6.1,20.6-12.8c0-8.4-26-46.9-40.6-47.8c-1.9,0.1-3.4,1.7-3.4,3.6c0,0.4,0,0.8,0.2,1.2
					C703.1,154.1,703.2,154.8,703.3,155.5z M704.5,153.7c0.1,0,0.2,0,0.2,0.1C704.7,153.7,704.6,153.7,704.5,153.7z M707.2,154.6
					c0.5,0.2,1.1,0.4,1.7,0.7C708.3,155,707.7,154.7,707.2,154.6z M728.7,190.6c0-0.6,0-1.3,0-1.9
					C728.7,189.4,728.7,190,728.7,190.6L728.7,190.6z M726.6,207.1c0.2-0.8,0.4-1.7,0.5-2.4C727,205.4,726.8,206.2,726.6,207.1z
					 M727.5,202.6c0.1-0.8,0.3-1.6,0.4-2.3C727.8,201,727.6,201.8,727.5,202.6z M728.1,198.6c0.1-0.8,0.2-1.6,0.3-2.4
					C728.3,197,728.2,197.8,728.1,198.6z M728.5,194.7c0.1-0.8,0.1-1.6,0.2-2.3C728.6,193.1,728.5,193.9,728.5,194.7z M726.2,174
					c0.1,0.4,0.3,0.9,0.4,1.3C726.4,174.8,726.3,174.4,726.2,174z M727,176.5c0.1,0.5,0.2,0.9,0.3,1.4
					C727.2,177.5,727.1,177,727,176.5z M727.7,179.3c0.1,0.5,0.2,1,0.3,1.4C727.8,180.2,727.8,179.7,727.7,179.3L727.7,179.3z
					 M728.2,182.2c0.1,0.5,0.1,1.1,0.2,1.7C728.3,183.3,728.3,182.8,728.2,182.2L728.2,182.2z M728.5,185.4c0,0.6,0.1,1.2,0.1,1.7
					C728.6,186.5,728.6,185.9,728.5,185.4L728.5,185.4z M722.4,166.5c-0.2-0.3-0.4-0.6-0.6-0.9C722,165.9,722.2,166.2,722.4,166.5z
					 M725.7,172.7c-0.1-0.4-0.3-0.7-0.4-1.1C725.4,172,725.5,172.3,725.7,172.7z M724.7,170.5c-0.2-0.4-0.3-0.7-0.5-1.1
					C724.3,169.8,724.5,170.1,724.7,170.5L724.7,170.5z M723.6,168.5c-0.2-0.3-0.4-0.7-0.6-1C723.2,167.8,723.4,168.1,723.6,168.5
					L723.6,168.5z M719.9,163.3c-0.3-0.3-0.5-0.6-0.8-0.9C719.4,162.7,719.7,163,719.9,163.3L719.9,163.3z M721.2,164.8
					c-0.2-0.3-0.4-0.6-0.7-0.9C720.7,164.2,720.9,164.5,721.2,164.8L721.2,164.8z M710.8,156.2c0.3,0.2,0.6,0.3,0.9,0.5
					C711.4,156.5,711.1,156.3,710.8,156.2L710.8,156.2z M712.2,156.9c0.2,0.1,0.5,0.3,0.8,0.5C712.7,157.2,712.4,157.1,712.2,156.9
					L712.2,156.9z M713.5,157.8c0.2,0.1,0.3,0.2,0.5,0.3C713.9,158,713.7,157.9,713.5,157.8L713.5,157.8z M714.9,158.7
					c0.1,0.1,0.2,0.2,0.3,0.3C715.2,158.9,715,158.8,714.9,158.7L714.9,158.7z M716.3,159.8c0.3,0.2,0.6,0.5,0.9,0.8
					C716.9,160.3,716.6,160.1,716.3,159.8L716.3,159.8z M717.7,161c0.3,0.3,0.6,0.6,0.9,0.9C718.4,161.6,718.1,161.3,717.7,161
					L717.7,161z M703.2,153.4c-0.1,0-0.2,0-0.2,0S703.1,153.4,703.2,153.4z"/>
				<path class="st3" d="M809.5,209.9C809.5,209.9,809.5,209.9,809.5,209.9C809.5,209.9,809.5,209.9,809.5,209.9
					c2.3,0.5,4.4,0.8,6.1,1c5.7,0.7,9.2-20,11.7-33c-2.4,1.1-4.6,2.8-6.3,4.9c-2.9,3.4-6.6,11.4-6.6,11.4c0.5-2.1,4.2-17.5,12-25.6
					c2.5-2.6,2.9-3.6,4.3-6.8c0.3-0.8,0.6-1.5,0.8-2.3l0.8-3.3c0.1-0.7,0.2-1.3,0.4-2c0.1-0.4,0.2-0.8,0.2-1.2
					c-0.1-1.9-1.5-3.4-3.4-3.6c-14.6,0.9-40.6,39.4-40.6,47.8C788.8,203.8,800.4,208,809.5,209.9z M824.9,156.8
					c1.1-0.6,2.3-1.1,3.5-1.6C827.2,155.7,826.1,156.2,824.9,156.8L824.9,156.8z M830.9,154.4c0.1,0,0.2,0,0.2-0.1
					C831.1,154.4,831,154.4,830.9,154.4L830.9,154.4z M832.5,154.1c0.1,0,0.2,0,0.2,0S832.6,154,832.5,154.1L832.5,154.1z
					 M824.8,156.9c-0.3,0.2-0.6,0.3-0.9,0.5C824.2,157.2,824.5,157,824.8,156.9L824.8,156.9z M823.5,157.6c-0.2,0.1-0.5,0.3-0.8,0.5
					C823,157.9,823.2,157.7,823.5,157.6L823.5,157.6z M822.1,158.4c-0.3,0.2-0.5,0.4-0.8,0.5C821.6,158.8,821.8,158.6,822.1,158.4
					L822.1,158.4z M820.7,159.4c-0.4,0.3-0.8,0.6-1.2,0.9C819.9,160,820.3,159.7,820.7,159.4L820.7,159.4z M819.3,160.5
					c-0.3,0.2-0.6,0.5-0.8,0.7C818.7,161,819,160.7,819.3,160.5z M817.9,161.7c-0.4,0.3-0.7,0.7-1.1,1.1
					C817.1,162.5,817.5,162.1,817.9,161.7L817.9,161.7z M816.5,163.1c-0.3,0.3-0.6,0.6-0.9,1C815.9,163.8,816.2,163.4,816.5,163.1z
					 M814.3,165.7c0.3-0.4,0.5-0.7,0.8-1C814.9,165,814.6,165.3,814.3,165.7L814.3,165.7z M813.8,166.3c-0.3,0.4-0.5,0.8-0.8,1.2
					C813.3,167.1,813.6,166.7,813.8,166.3L813.8,166.3z M809.9,173.5c0.2-0.4,0.3-0.8,0.5-1.2C810.2,172.7,810.1,173.1,809.9,173.5
					L809.9,173.5z M810.9,171.3c0.2-0.4,0.4-0.8,0.6-1.2C811.3,170.5,811.1,170.9,810.9,171.3L810.9,171.3z M811.9,169.3
					c0.2-0.4,0.4-0.8,0.7-1.1C812.4,168.5,812.2,168.9,811.9,169.3L811.9,169.3z M809.5,174.7c-0.1,0.4-0.3,0.9-0.4,1.3
					C809.2,175.5,809.3,175.1,809.5,174.7L809.5,174.7z M808.6,177.2c-0.1,0.5-0.2,0.9-0.3,1.4C808.4,178.2,808.5,177.7,808.6,177.2
					L808.6,177.2z M808,179.9c-0.1,0.5-0.2,1-0.3,1.4C807.8,180.9,807.9,180.4,808,179.9L808,179.9z M807.4,182.9
					c-0.1,0.5-0.1,1-0.2,1.5C807.3,183.9,807.4,183.4,807.4,182.9z M807.1,186.1c0,0.5,0,1-0.1,1.5
					C807.1,187.1,807.1,186.6,807.1,186.1z M806.9,189.4c0,0.5,0,1.1,0,1.6C807,190.5,806.9,190,806.9,189.4L806.9,189.4z
					 M808.9,207.2c-0.1-0.6-0.3-1.3-0.4-1.9C808.6,205.9,808.8,206.6,808.9,207.2L808.9,207.2z M808.1,203.1
					c-0.1-0.7-0.3-1.4-0.4-2.1C807.8,201.7,808,202.4,808.1,203.1L808.1,203.1z M807.5,199c-0.1-0.7-0.2-1.4-0.3-2.1
					C807.3,197.6,807.4,198.3,807.5,199L807.5,199z M807.1,194.9c0-0.6-0.1-1.2-0.1-1.8C807,193.6,807.1,194.3,807.1,194.9
					L807.1,194.9z"/>
				<path class="st3" d="M681.3,260.1c-34.2-16.3-78.9-1.2-78.9-1.2c1.9,14.9,13.4,23.4,25,28.3c6.5,2.6,13.4,4.5,20.3,5.6
					c1.4,0.2,2.7-0.7,3-2.1c0.1-0.7-0.1-1.4-0.5-1.9c-2-2.7-4.7-6.8-8-12.3C634.9,264.1,681.3,260.1,681.3,260.1z"/>
				<path class="st3" d="M854.3,260.1c0,0,46.4,4.1,39,16.3c-3.3,5.5-6,9.5-8,12.3c-0.8,1.2-0.6,2.8,0.6,3.6
					c0.6,0.4,1.2,0.6,1.9,0.5c7-1.1,13.8-2.9,20.3-5.6c11.7-4.9,23.1-13.4,25-28.3C933.2,258.8,888.5,243.8,854.3,260.1z"/>
				<path class="st3" d="M740.9,452.1c-0.1,0.4-0.1,0.9-0.1,1.3c0,9.3,12.1,16.9,27,16.9c14.9,0,27-7.6,27-16.9c0-0.4,0-0.9-0.1-1.3
					H740.9z"/>
				<path class="st3" d="M844.2,251.2C844.2,251.2,844.2,251.2,844.2,251.2c-4.7-4.7-9.5-9-14.6-13.2c-0.2-0.2-0.5-0.4-0.7-0.6
					c0,0-0.1-0.1-0.1-0.1l0,0c-10.2-8.3-22.4-16.1-30.9-15.5c-15.9,1.3-21.6,6-30,7.9v-0.2c-8.4-1.8-14.2-6.6-30.1-7.9
					c-8.5-0.7-20.7,7.2-30.9,15.5l0,0c0,0-0.1,0.1-0.1,0.1c-0.3,0.2-0.5,0.4-0.7,0.6c-5.1,4.1-10,8.5-14.6,13.1c0,0,0,0,0,0
					c-3.6,3-7.1,14.4,6.9,23.3c6.8,4.4,13.4,13,15.6,15.9c0.4,0.6,0.7,1.1,0.7,1.1s0-0.1,0-0.1c0,0,0.1,0.1,0.1,0.1l10.2-21.1
					c0.3,0.5,1.9,3.6,4.1,8.7c8.7,19.7,27.1,69.9,15.8,119.1c-0.7,2.9-1.4,5.8-2.3,8.7c-0.1,0.2-0.1,0.4-0.2,0.6
					c0,0,23.1,6.1,25.6,31.1v0.4c0-0.1,0-0.2,0-0.2c0,0,0,0,0,0.1v-0.2c0-0.1,0-0.2,0-0.3c2.7-24.7,25.6-30.7,25.6-30.7
					c-0.1-0.2-0.1-0.4-0.2-0.6c0.2,0.3,0.3,0.5,0.3,0.5c-0.4-1.2-0.7-2.3-1.1-3.5c-0.5-1.9-1.1-3.8-1.5-5.8
					c-11.3-49.2,7.1-99.4,15.8-119.1c2.3-5.1,3.8-8.2,4.1-8.7l10.2,21.1c0,0,0.1-0.1,0.1-0.1c0,0,0,0.1,0,0.1s0.3-0.5,0.7-1.1
					c2.1-2.9,8.7-11.5,15.6-15.9C851.3,265.6,847.8,254.2,844.2,251.2z"/>
				<path class="st3" d="M829.5,303.9c-7.5-3.6-15.3,19.4-21.2,38.7c-5,16-3.1,52.1-2.3,64c0.2,2.6-0.3,5.1-1.4,7.4l-9.4,12.9
					l2.5-14.5c0,0-21.8,8.1-21.9,29.8l0.1,0l0,0l16.3-1.1c2.2-0.2,4.3-1.3,5.7-3.1c1.4-1.9,2.7-3.8,3.8-5.9
					c-0.1,0.1-0.2,0.2-0.3,0.4c8.9-15.9,19.7-49.7,24.1-70.3c5.6-26.2,17.4-32.9,20.3-41.4C848.7,312.3,837,307.5,829.5,303.9z"/>
				<path class="st3" d="M759.7,442.1L759.7,442.1h0.1c-0.1-21.7-21.9-29.8-21.9-29.8l2.5,14.5l-9.4-12.9c-1.1-2.3-1.6-4.9-1.4-7.4
					c0.8-11.9,2.6-48-2.3-64c-6-19.3-13.8-42.3-21.2-38.7c-7.5,3.6-19.2,8.4-16.3,16.9s14.7,15.3,20.3,41.4
					c4.4,20.6,15.2,54.4,24.1,70.3c-0.1-0.2-0.3-0.3-0.3-0.4c1.1,2.1,2.4,4,3.8,5.9c1.4,1.8,3.5,2.9,5.7,3.1L759.7,442.1z"/>
			</g>
		</g>
	</g>
</g>
<path class="st6" d="M2,792.3h768l0,0v1269.4c0,36.1-29.2,65.3-65.3,65.3H202c-110.5,0-200-89.5-200-200L2,792.3L2,792.3z"/>
<path class="st6" d="M769.3,2481.5c0,0-558.2-15.6-767.3,259.9v356.3c0,0,768.7,310.4,768-86.9L769.3,2481.5z"/>
<path class="st3" d="M4.1,786.9c0,0,222,277.1,762.9,119l-0.4-119H4.1z"/>
</svg>
