<?xml version="1.0" encoding="utf-8"?>
<!-- Generator: Adobe Illustrator 23.0.3, SVG Export Plug-In . SVG Version: 6.00 Build 0)  -->
<svg version="1.1" id="Layer_1" xmlns="http://www.w3.org/2000/svg" xmlns:xlink="http://www.w3.org/1999/xlink" x="0px" y="0px"
	 viewBox="0 0 768 3626.9" style="enable-background:new 0 0 768 3626.9;" xml:space="preserve">
<style type="text/css">
	.st0{fill:url(#BCG-footer-purple_1_);}
	.st1{clip-path:url(#SVGID_2_);}
	.st2{opacity:0.47;}
	.st3{fill:#FFFFFF;}
	.st4{fill:url(#SVGID_3_);}
	.st5{clip-path:url(#SVGID_5_);}
	.st6{fill:#EFEFEF;}
</style>
<title>tablet-home-bcg</title>
<linearGradient id="BCG-footer-purple_1_" gradientUnits="userSpaceOnUse" x1="468.4837" y1="313.6054" x2="22.9156" y2="-131.9627" gradientTransform="matrix(1 0 0 -1 108.0471 3625.8748)">
	<stop  offset="0" style="stop-color:#5772B0"/>
	<stop  offset="0.4776" style="stop-color:#623D8B"/>
	<stop  offset="0.7133" style="stop-color:#552B6D"/>
	<stop  offset="0.9897" style="stop-color:#431344"/>
</linearGradient>
<path id="BCG-footer-purple" class="st0" d="M0,3383.1c0,0,768,52.8,768,125.9c0,85.7-0.2,117.7-0.2,117.7L0,3626.9V3383.1z"/>
<g id="logo-bcg-footer-white">
	<g>
		<defs>
			<rect id="SVGID_1_" x="0.6" y="3399.8" width="111.5" height="208.6"/>
		</defs>
		<clipPath id="SVGID_2_">
			<use xlink:href="#SVGID_1_"  style="overflow:visible;"/>
		</clipPath>
		<g class="st1">
			<g class="st2">
				<path class="st3" d="M43.3,3416.5c0.1-0.2,0.1-0.5,0.1-0.7c-0.1-1.2-1.1-2.1-2.3-2.2c-9.6,0.5-26.7,24-26.7,29.1
					c0,4.1,7.6,6.6,13.6,7.8l0,0c0,0,0,0,0,0c1.5,0.3,2.9,0.5,4,0.6c3.8,0.4,6-12.2,7.7-20.1c-1.6,0.7-3,1.7-4.2,3
					c-1.9,2.1-4.3,7-4.3,6.9c0.3-1.3,2.8-10.7,7.9-15.6c1.3-1.1,2.2-2.6,2.8-4.2c0.2-0.5,0.4-0.9,0.5-1.4l0.5-2
					C43.1,3417.4,43.2,3416.9,43.3,3416.5z M42.1,3416.7c0.1,0,0.1,0,0.2,0C42.2,3416.7,42.1,3416.7,42.1,3416.7L42.1,3416.7z
					 M39.3,3417.6c0.4-0.2,0.8-0.3,1.1-0.4C40.1,3417.3,39.7,3417.5,39.3,3417.6z M26.3,3438.1c0,0.4,0,0.8,0,1.1
					C26.3,3438.8,26.3,3438.4,26.3,3438.1z M27.3,3447.7c0.1,0.5,0.2,1,0.4,1.5C27.6,3448.7,27.4,3448.2,27.3,3447.7L27.3,3447.7z
					 M26.9,3445.1c0.1,0.5,0.2,0.9,0.3,1.4C27,3446,26.9,3445.5,26.9,3445.1L26.9,3445.1z M26.5,3442.6c0,0.5,0.1,1,0.2,1.4
					C26.7,3443.6,26.6,3443.1,26.5,3442.6L26.5,3442.6z M26.4,3440.3c0,0.5,0.1,0.9,0.1,1.4C26.4,3441.2,26.4,3440.7,26.4,3440.3
					L26.4,3440.3z M27.7,3429.8c0.1-0.3,0.2-0.5,0.3-0.8C27.9,3429.3,27.8,3429.6,27.7,3429.8z M27.2,3431.5
					c0.1-0.3,0.1-0.6,0.2-0.9C27.4,3430.9,27.3,3431.2,27.2,3431.5z M26.8,3433.2c0.1-0.3,0.1-0.6,0.2-0.9
					C26.9,3432.6,26.9,3432.9,26.8,3433.2L26.8,3433.2z M26.5,3435.1c0-0.3,0.1-0.7,0.1-1C26.6,3434.4,26.6,3434.8,26.5,3435.1
					L26.5,3435.1z M26.4,3437.1c0-0.4,0-0.7,0.1-1.1C26.4,3436.3,26.4,3436.7,26.4,3437.1L26.4,3437.1z M30.9,3423.9
					c-0.1,0.2-0.3,0.4-0.4,0.6C30.6,3424.3,30.7,3424.1,30.9,3423.9L30.9,3423.9z M28.6,3427.6c-0.1,0.2-0.2,0.4-0.3,0.7
					C28.4,3428.1,28.5,3427.8,28.6,3427.6L28.6,3427.6z M29.3,3426.3c-0.1,0.2-0.2,0.4-0.3,0.6C29.1,3426.7,29.2,3426.5,29.3,3426.3
					L29.3,3426.3z M30.1,3425.1c-0.1,0.2-0.3,0.4-0.4,0.6C29.8,3425.5,29.9,3425.3,30.1,3425.1L30.1,3425.1z M32.6,3422
					c-0.2,0.2-0.3,0.4-0.5,0.5C32.3,3422.4,32.4,3422.2,32.6,3422L32.6,3422z M31.7,3422.9c-0.2,0.2-0.3,0.4-0.4,0.5
					C31.4,3423.3,31.6,3423.1,31.7,3422.9L31.7,3422.9z M37.4,3418.5c0.2-0.1,0.4-0.2,0.6-0.3C37.9,3418.3,37.7,3418.4,37.4,3418.5
					L37.4,3418.5z M36.7,3418.9c0.2-0.1,0.3-0.2,0.5-0.3C37,3418.7,36.9,3418.8,36.7,3418.9L36.7,3418.9z M36,3419.4
					c0.1-0.1,0.2-0.1,0.3-0.2C36.2,3419.2,36.1,3419.3,36,3419.4L36,3419.4z M35.2,3419.9c0.1,0,0.1-0.1,0.2-0.2
					C35.3,3419.8,35.2,3419.9,35.2,3419.9L35.2,3419.9z M33.8,3420.9c0.2-0.2,0.4-0.3,0.6-0.5C34.2,3420.6,34,3420.7,33.8,3420.9
					L33.8,3420.9z M32.9,3421.7c0.2-0.2,0.4-0.4,0.6-0.5C33.3,3421.3,33.1,3421.5,32.9,3421.7L32.9,3421.7z M43.2,3416.5
					c0,0,0,0-0.1,0C43.2,3416.5,43.2,3416.5,43.2,3416.5L43.2,3416.5z"/>
				<path class="st3" d="M-13.2,3443.2c0-5.1-17.1-28.6-26.7-29.1c-1.2,0-2.2,1-2.3,2.2c0,0.3,0,0.5,0.1,0.7
					c0.1,0.4,0.2,0.8,0.3,1.2l0.5,2c0.1,0.5,0.3,1,0.5,1.4c0.6,1.6,1.6,3,2.8,4.2c5.2,4.9,7.6,14.3,7.9,15.6c0,0-2.4-4.9-4.3-6.9
					c-1.2-1.3-2.6-2.3-4.2-3c1.7,7.9,3.9,20.5,7.7,20.1c1.1-0.1,2.5-0.3,4-0.6c0,0,0,0,0,0l0,0
					C-20.8,3449.8-13.2,3447.2-13.2,3443.2z M-39.2,3417.6c0.8,0.3,1.6,0.6,2.3,0.9C-37.6,3418.2-38.4,3417.9-39.2,3417.6z
					 M-41,3417.1c0,0,0.1,0,0.2,0C-40.9,3417.1-40.9,3417.1-41,3417.1L-41,3417.1z M-42,3416.9c0,0,0,0,0.1,0
					C-41.9,3416.9-42,3416.9-42,3416.9L-42,3416.9z M-36.2,3418.9c-0.2-0.1-0.4-0.2-0.6-0.3C-36.6,3418.7-36.4,3418.8-36.2,3418.9
					L-36.2,3418.9z M-35.4,3419.4c-0.2-0.1-0.3-0.2-0.5-0.3C-35.8,3419.2-35.6,3419.3-35.4,3419.4L-35.4,3419.4z M-34.5,3419.9
					c-0.2-0.1-0.3-0.2-0.5-0.3C-34.9,3419.7-34.7,3419.8-34.5,3419.9L-34.5,3419.9z M-33.3,3420.7c-0.3-0.2-0.5-0.4-0.8-0.6
					C-33.9,3420.4-33.6,3420.5-33.3,3420.7L-33.3,3420.7z M-32.6,3421.3c-0.2-0.1-0.4-0.3-0.5-0.4C-33,3421-32.8,3421.1-32.6,3421.3
					L-32.6,3421.3z M-31.5,3422.3c-0.2-0.2-0.5-0.5-0.7-0.7C-32,3421.8-31.8,3422-31.5,3422.3L-31.5,3422.3z M-30.8,3423
					c-0.2-0.2-0.4-0.4-0.6-0.6C-31.2,3422.6-31,3422.8-30.8,3423L-30.8,3423z M-30.5,3423.4c0.2,0.2,0.4,0.4,0.5,0.6
					C-30.1,3423.8-30.3,3423.6-30.5,3423.4L-30.5,3423.4z M-29.1,3425.1c-0.2-0.2-0.3-0.5-0.5-0.7
					C-29.4,3424.6-29.3,3424.8-29.1,3425.1L-29.1,3425.1z M-27.4,3428c0.1,0.2,0.2,0.5,0.3,0.7C-27.2,3428.5-27.2,3428.3-27.4,3428
					L-27.4,3428z M-28.1,3426.7c0.1,0.2,0.2,0.5,0.4,0.7C-27.8,3427.2-27.9,3426.9-28.1,3426.7L-28.1,3426.7z M-28.8,3425.5
					c0.1,0.2,0.3,0.5,0.4,0.7C-28.5,3425.9-28.7,3425.7-28.8,3425.5L-28.8,3425.5z M-26.5,3430.2c-0.1-0.3-0.2-0.5-0.3-0.8
					C-26.6,3429.7-26.6,3430-26.5,3430.2L-26.5,3430.2z M-26,3431.9c-0.1-0.3-0.1-0.6-0.2-0.9C-26.1,3431.3-26,3431.6-26,3431.9
					L-26,3431.9z M-25.6,3433.6c-0.1-0.3-0.1-0.6-0.2-0.9C-25.7,3433-25.6,3433.3-25.6,3433.6L-25.6,3433.6z M-25.3,3435.4
					c0-0.3-0.1-0.6-0.1-0.9C-25.4,3434.8-25.3,3435.1-25.3,3435.4L-25.3,3435.4z M-25.1,3437.4c0-0.3,0-0.6,0-0.9
					C-25.2,3436.7-25.2,3437-25.1,3437.4L-25.1,3437.4z M-25.1,3439.5c0-0.3,0-0.7,0-1C-25.1,3438.8-25.1,3439.1-25.1,3439.5
					L-25.1,3439.5z M-26.1,3448.1c-0.1,0.4-0.2,0.8-0.3,1.2C-26.3,3448.9-26.2,3448.5-26.1,3448.1L-26.1,3448.1z M-25.6,3445.5
					c-0.1,0.4-0.2,0.8-0.2,1.3C-25.8,3446.4-25.7,3445.9-25.6,3445.5L-25.6,3445.5z M-25.3,3443c0,0.4-0.1,0.9-0.2,1.3
					C-25.4,3443.9-25.3,3443.4-25.3,3443L-25.3,3443z M-25.1,3440.7c0,0.4-0.1,0.7-0.1,1.1C-25.2,3441.4-25.1,3441-25.1,3440.7
					L-25.1,3440.7z"/>
				<path class="st3" d="M57.5,3481.5c22.4-9.9,51.8-0.7,51.8-0.7c-1.3,9.1-8.8,14.3-16.5,17.2c-4.3,1.6-8.8,2.8-13.4,3.4
					c-0.9,0.2-1.7-0.3-1.9-1.2c-0.1-0.4,0-0.9,0.3-1.3c1.3-1.7,3.1-4.1,5.3-7.5C87.9,3484,57.5,3481.5,57.5,3481.5z"/>
				<path class="st3" d="M-56.2,3481.5c0,0-30.5,2.5-25.6,9.9c2.2,3.4,4,5.8,5.3,7.5c0.5,0.7,0.4,1.7-0.4,2.2
					c-0.4,0.3-0.8,0.4-1.3,0.3c-4.6-0.6-9-1.8-13.4-3.4c-7.7-3-15.2-8.2-16.5-17.2C-108,3480.8-78.7,3471.6-56.2,3481.5z"/>
				<path class="st3" d="M18.3,3598.5c0,0.3,0.1,0.5,0.1,0.8c0,5.7-7.9,10.3-17.7,10.3c-9.8,0-17.7-4.6-17.7-10.3
					c0-0.3,0-0.5,0.1-0.8H18.3z"/>
				<path class="st3" d="M-49.6,3476.1C-49.6,3476.1-49.6,3476.1-49.6,3476.1c3.1-2.9,6.3-5.5,9.6-8c0.2-0.1,0.3-0.2,0.5-0.4
					c0,0,0,0,0.1-0.1l0,0c6.7-5,14.7-9.8,20.3-9.4c10.4,0.8,14.2,3.7,19.7,4.8v-0.1c5.5-1.1,9.3-4,19.8-4.8
					c5.6-0.4,13.6,4.4,20.3,9.4l0,0c0,0,0,0,0.1,0.1c0.2,0.1,0.3,0.2,0.5,0.4c3.3,2.5,6.5,5.2,9.6,8c0,0,0,0,0,0
					c2.4,1.8,4.6,8.7-4.6,14.2c-4.5,2.7-8.8,7.9-10.2,9.7c-0.3,0.4-0.5,0.7-0.5,0.7l0-0.1l0,0.1l-6.7-12.8c-0.2,0.3-1.2,2.2-2.7,5.3
					c-5.7,12-17.8,42.6-10.4,72.6c0.4,1.8,0.9,3.6,1.5,5.3c0,0.1,0.1,0.3,0.1,0.4c0,0-15.2,3.7-16.8,19v0.3c0-0.1,0-0.1,0-0.2
					c0,0,0,0,0,0v-0.1c0-0.1,0-0.1,0-0.2c-1.8-15-16.8-18.7-16.8-18.7c0-0.1,0.1-0.3,0.1-0.4c-0.1,0.2-0.2,0.3-0.2,0.3
					c0.3-0.7,0.5-1.4,0.7-2.1c0.3-1.2,0.7-2.3,1-3.5c7.4-30-4.7-60.6-10.4-72.6c-1.5-3.1-2.5-5-2.7-5.3l-6.7,12.8l0-0.1l0,0.1
					c0,0-0.2-0.3-0.5-0.7c-1.4-1.8-5.7-7-10.2-9.7C-54.2,3484.9-52,3478-49.6,3476.1z"/>
				<path class="st3" d="M-39.9,3508.2c4.9-2.2,10,11.8,14,23.6c3.3,9.7,2,31.7,1.5,39c-0.1,1.6,0.2,3.1,0.9,4.5l6.2,7.9l-1.7-8.9
					c0,0,14.3,4.9,14.4,18.2l-0.1,0l0,0l-10.7-0.6c-1.4-0.1-2.8-0.8-3.7-1.9c-0.9-1.1-1.8-2.3-2.5-3.6c0,0.1,0.1,0.1,0.2,0.2
					c-5.8-9.7-13-30.3-15.8-42.8c-3.7-15.9-11.4-20.1-13.3-25.2S-44.8,3510.4-39.9,3508.2z"/>
				<path class="st3" d="M5.9,3592.4L5.9,3592.4L5.9,3592.4c0-13.2,14.3-18.2,14.3-18.2l-1.7,8.9l6.2-7.9c0.7-1.4,1-3,0.9-4.5
					c-0.5-7.2-1.7-29.2,1.5-39c3.9-11.7,9-25.8,14-23.6c4.9,2.2,12.6,5.1,10.7,10.3s-9.6,9.3-13.3,25.2c-2.9,12.6-10,33.1-15.8,42.8
					c0.1-0.1,0.2-0.2,0.2-0.2c-0.7,1.3-1.6,2.5-2.5,3.6c-1,1.1-2.3,1.8-3.7,1.9L5.9,3592.4z"/>
			</g>
		</g>
	</g>
</g>
<linearGradient id="SVGID_3_" gradientUnits="userSpaceOnUse" x1="386.8641" y1="3346.811" x2="659.9151" y2="3346.811" gradientTransform="matrix(1 0 0 -1 108.0471 3625.8748)">
	<stop  offset="0" style="stop-color:#5772B0"/>
	<stop  offset="0.4776" style="stop-color:#623D8B"/>
	<stop  offset="0.7133" style="stop-color:#552B6D"/>
	<stop  offset="0.9897" style="stop-color:#431344"/>
</linearGradient>
<path class="st4" d="M768,558.1c0,0-337.2-291.7-262.2-557.9l262-0.2L768,558.1z"/>
<g id="BCG-logo-white">
	<g>
		<defs>
			<rect id="SVGID_4_" x="591.2" y="125.9" width="169.7" height="342.4"/>
		</defs>
		<clipPath id="SVGID_5_">
			<use xlink:href="#SVGID_4_"  style="overflow:visible;"/>
		</clipPath>
		<g class="st5">
			<g class="st2">
				<path class="st3" d="M696.3,155.5l0.8,3.3c0.2,0.8,0.5,1.6,0.8,2.3c1.4,3.2,1.8,4.2,4.3,6.8c7.8,8.1,11.6,23.5,12,25.6
					c0,0-3.7-8-6.6-11.4c-1.7-2.1-3.9-3.7-6.3-4.9c2.6,13,6,33.7,11.7,33c1.7-0.2,3.8-0.5,6.1-1c0,0,0.1,0,0.1-0.1c0,0,0,0,0,0.1
					c9-1.9,20.6-6.1,20.6-12.8c0-8.4-26-46.9-40.6-47.8c-1.9,0.1-3.4,1.7-3.4,3.6c0,0.4,0,0.8,0.2,1.2
					C696.1,154.1,696.2,154.8,696.3,155.5z M697.5,153.7c0.1,0,0.2,0,0.2,0.1C697.7,153.7,697.6,153.7,697.5,153.7z M700.2,154.6
					c0.5,0.2,1.1,0.4,1.7,0.7C701.3,155,700.7,154.7,700.2,154.6z M721.7,190.6c0-0.6,0-1.3,0-1.9
					C721.7,189.4,721.7,190,721.7,190.6L721.7,190.6z M719.6,207.1c0.2-0.8,0.4-1.7,0.5-2.4C720,205.4,719.8,206.2,719.6,207.1z
					 M720.5,202.6c0.1-0.8,0.3-1.6,0.4-2.3C720.8,201,720.6,201.8,720.5,202.6z M721.1,198.6c0.1-0.8,0.2-1.6,0.3-2.4
					C721.3,197,721.2,197.8,721.1,198.6z M721.5,194.7c0.1-0.8,0.1-1.6,0.2-2.3C721.6,193.1,721.5,193.9,721.5,194.7z M719.2,174
					c0.1,0.4,0.3,0.9,0.4,1.3C719.4,174.8,719.3,174.4,719.2,174z M720,176.5c0.1,0.5,0.2,0.9,0.3,1.4
					C720.2,177.5,720.1,177,720,176.5z M720.7,179.3c0.1,0.5,0.2,1,0.3,1.4C720.8,180.2,720.8,179.7,720.7,179.3L720.7,179.3z
					 M721.2,182.2c0.1,0.5,0.1,1.1,0.2,1.7C721.3,183.3,721.3,182.8,721.2,182.2L721.2,182.2z M721.5,185.4c0,0.6,0.1,1.2,0.1,1.7
					C721.6,186.5,721.6,185.9,721.5,185.4L721.5,185.4z M715.4,166.5c-0.2-0.3-0.4-0.6-0.6-0.9C715,165.9,715.2,166.2,715.4,166.5z
					 M718.7,172.7c-0.1-0.4-0.3-0.7-0.4-1.1C718.4,172,718.5,172.3,718.7,172.7z M717.7,170.5c-0.2-0.4-0.3-0.7-0.5-1.1
					C717.3,169.8,717.5,170.1,717.7,170.5L717.7,170.5z M716.6,168.5c-0.2-0.3-0.4-0.7-0.6-1C716.2,167.8,716.4,168.1,716.6,168.5
					L716.6,168.5z M712.9,163.3c-0.3-0.3-0.5-0.6-0.8-0.9C712.4,162.7,712.7,163,712.9,163.3L712.9,163.3z M714.2,164.8
					c-0.2-0.3-0.4-0.6-0.7-0.9C713.7,164.2,713.9,164.5,714.2,164.8L714.2,164.8z M703.8,156.2c0.3,0.2,0.6,0.3,0.9,0.5
					C704.4,156.5,704.1,156.3,703.8,156.2L703.8,156.2z M705.2,156.9c0.2,0.1,0.5,0.3,0.8,0.5C705.7,157.2,705.4,157.1,705.2,156.9
					L705.2,156.9z M706.5,157.8c0.2,0.1,0.3,0.2,0.5,0.3C706.9,158,706.7,157.9,706.5,157.8L706.5,157.8z M707.9,158.7
					c0.1,0.1,0.2,0.2,0.3,0.3C708.2,158.9,708,158.8,707.9,158.7L707.9,158.7z M709.3,159.8c0.3,0.2,0.6,0.5,0.9,0.8
					C709.9,160.3,709.6,160.1,709.3,159.8L709.3,159.8z M710.7,161c0.3,0.3,0.6,0.6,0.9,0.9C711.4,161.6,711.1,161.3,710.7,161
					L710.7,161z M696.2,153.4c-0.1,0-0.2,0-0.2,0S696.1,153.4,696.2,153.4z"/>
				<path class="st3" d="M802.5,209.9C802.5,209.9,802.5,209.9,802.5,209.9C802.5,209.9,802.5,209.9,802.5,209.9
					c2.3,0.5,4.4,0.8,6.1,1c5.7,0.7,9.2-20,11.7-33c-2.4,1.1-4.6,2.8-6.3,4.9c-2.9,3.4-6.6,11.4-6.6,11.4c0.5-2.1,4.2-17.5,12-25.6
					c2.5-2.6,2.9-3.6,4.3-6.8c0.3-0.8,0.6-1.5,0.8-2.3l0.8-3.3c0.1-0.7,0.2-1.3,0.4-2c0.1-0.4,0.2-0.8,0.2-1.2
					c-0.1-1.9-1.5-3.4-3.4-3.6c-14.6,0.9-40.6,39.4-40.6,47.8C781.8,203.8,793.4,208,802.5,209.9z M817.9,156.8
					c1.1-0.6,2.3-1.1,3.5-1.6C820.2,155.7,819.1,156.2,817.9,156.8L817.9,156.8z M823.9,154.4c0.1,0,0.2,0,0.2-0.1
					C824.1,154.4,824,154.4,823.9,154.4L823.9,154.4z M825.5,154.1c0.1,0,0.2,0,0.2,0S825.6,154,825.5,154.1L825.5,154.1z
					 M817.8,156.9c-0.3,0.2-0.6,0.3-0.9,0.5C817.2,157.2,817.5,157,817.8,156.9L817.8,156.9z M816.5,157.6c-0.2,0.1-0.5,0.3-0.8,0.5
					C816,157.9,816.2,157.7,816.5,157.6L816.5,157.6z M815.1,158.4c-0.3,0.2-0.5,0.4-0.8,0.5C814.6,158.8,814.8,158.6,815.1,158.4
					L815.1,158.4z M813.7,159.4c-0.4,0.3-0.8,0.6-1.2,0.9C812.9,160,813.3,159.7,813.7,159.4L813.7,159.4z M812.3,160.5
					c-0.3,0.2-0.6,0.5-0.8,0.7C811.7,161,812,160.7,812.3,160.5z M810.9,161.7c-0.4,0.3-0.7,0.7-1.1,1.1
					C810.1,162.5,810.5,162.1,810.9,161.7L810.9,161.7z M809.5,163.1c-0.3,0.3-0.6,0.6-0.9,1C808.9,163.8,809.2,163.4,809.5,163.1z
					 M807.3,165.7c0.3-0.4,0.5-0.7,0.8-1C807.9,165,807.6,165.3,807.3,165.7L807.3,165.7z M806.8,166.3c-0.3,0.4-0.5,0.8-0.8,1.2
					C806.3,167.1,806.6,166.7,806.8,166.3L806.8,166.3z M802.9,173.5c0.2-0.4,0.3-0.8,0.5-1.2C803.2,172.7,803.1,173.1,802.9,173.5
					L802.9,173.5z M803.9,171.3c0.2-0.4,0.4-0.8,0.6-1.2C804.3,170.5,804.1,170.9,803.9,171.3L803.9,171.3z M804.9,169.3
					c0.2-0.4,0.4-0.8,0.7-1.1C805.4,168.5,805.2,168.9,804.9,169.3L804.9,169.3z M802.5,174.7c-0.1,0.4-0.3,0.9-0.4,1.3
					C802.2,175.5,802.3,175.1,802.5,174.7L802.5,174.7z M801.6,177.2c-0.1,0.5-0.2,0.9-0.3,1.4C801.4,178.2,801.5,177.7,801.6,177.2
					L801.6,177.2z M801,179.9c-0.1,0.5-0.2,1-0.3,1.4C800.8,180.9,800.9,180.4,801,179.9L801,179.9z M800.4,182.9
					c-0.1,0.5-0.1,1-0.2,1.5C800.3,183.9,800.4,183.4,800.4,182.9z M800.1,186.1c0,0.5,0,1-0.1,1.5
					C800.1,187.1,800.1,186.6,800.1,186.1z M799.9,189.4c0,0.5,0,1.1,0,1.6C800,190.5,799.9,190,799.9,189.4L799.9,189.4z
					 M801.9,207.2c-0.1-0.6-0.3-1.3-0.4-1.9C801.6,205.9,801.8,206.6,801.9,207.2L801.9,207.2z M801.1,203.1
					c-0.1-0.7-0.3-1.4-0.4-2.1C800.8,201.7,801,202.4,801.1,203.1L801.1,203.1z M800.5,199c-0.1-0.7-0.2-1.4-0.3-2.1
					C800.3,197.6,800.4,198.3,800.5,199L800.5,199z M800.1,194.9c0-0.6-0.1-1.2-0.1-1.8C800,193.6,800.1,194.3,800.1,194.9
					L800.1,194.9z"/>
				<path class="st3" d="M674.3,260.1c-34.2-16.3-78.9-1.2-78.9-1.2c1.9,14.9,13.4,23.4,25,28.3c6.5,2.6,13.4,4.5,20.3,5.6
					c1.4,0.2,2.7-0.7,3-2.1c0.1-0.7-0.1-1.4-0.5-1.9c-2-2.7-4.7-6.8-8-12.3C627.9,264.1,674.3,260.1,674.3,260.1z"/>
				<path class="st3" d="M847.3,260.1c0,0,46.4,4.1,39,16.3c-3.3,5.5-6,9.5-8,12.3c-0.8,1.2-0.6,2.8,0.6,3.6
					c0.6,0.4,1.2,0.6,1.9,0.5c7-1.1,13.8-2.9,20.3-5.6c11.7-4.9,23.1-13.4,25-28.3C926.2,258.8,881.5,243.8,847.3,260.1z"/>
				<path class="st3" d="M733.9,452.1c-0.1,0.4-0.1,0.9-0.1,1.3c0,9.3,12.1,16.9,27,16.9c14.9,0,27-7.6,27-16.9c0-0.4,0-0.9-0.1-1.3
					H733.9z"/>
				<path class="st3" d="M837.2,251.2C837.2,251.2,837.2,251.2,837.2,251.2c-4.7-4.7-9.5-9-14.6-13.2c-0.2-0.2-0.5-0.4-0.7-0.6
					c0,0-0.1-0.1-0.1-0.1l0,0c-10.2-8.3-22.4-16.1-30.9-15.5c-15.9,1.3-21.6,6-30,7.9v-0.2c-8.4-1.8-14.2-6.6-30.1-7.9
					c-8.5-0.7-20.7,7.2-30.9,15.5l0,0c0,0-0.1,0.1-0.1,0.1c-0.3,0.2-0.5,0.4-0.7,0.6c-5.1,4.1-10,8.5-14.6,13.1c0,0,0,0,0,0
					c-3.6,3-7.1,14.4,6.9,23.3c6.8,4.4,13.4,13,15.6,15.9c0.4,0.6,0.7,1.1,0.7,1.1s0-0.1,0-0.1c0,0,0.1,0.1,0.1,0.1l10.2-21.1
					c0.3,0.5,1.9,3.6,4.1,8.7c8.7,19.7,27.1,69.9,15.8,119.1c-0.7,2.9-1.4,5.8-2.3,8.7c-0.1,0.2-0.1,0.4-0.2,0.6
					c0,0,23.1,6.1,25.6,31.1v0.4c0-0.1,0-0.2,0-0.2c0,0,0,0,0,0.1v-0.2c0-0.1,0-0.2,0-0.3c2.7-24.7,25.6-30.7,25.6-30.7
					c-0.1-0.2-0.1-0.4-0.2-0.6c0.2,0.3,0.3,0.5,0.3,0.5c-0.4-1.2-0.7-2.3-1.1-3.5c-0.5-1.9-1.1-3.8-1.5-5.8
					c-11.3-49.2,7.1-99.4,15.8-119.1c2.3-5.1,3.8-8.2,4.1-8.7l10.2,21.1c0,0,0.1-0.1,0.1-0.1c0,0,0,0.1,0,0.1s0.3-0.5,0.7-1.1
					c2.1-2.9,8.7-11.5,15.6-15.9C844.3,265.6,840.8,254.2,837.2,251.2z"/>
				<path class="st3" d="M822.5,303.9c-7.5-3.6-15.3,19.4-21.2,38.7c-5,16-3.1,52.1-2.3,64c0.2,2.6-0.3,5.1-1.4,7.4l-9.4,12.9
					l2.5-14.5c0,0-21.8,8.1-21.9,29.8l0.1,0l0,0l16.3-1.1c2.2-0.2,4.3-1.3,5.7-3.1c1.4-1.9,2.7-3.8,3.8-5.9
					c-0.1,0.1-0.2,0.2-0.3,0.4c8.9-15.9,19.7-49.7,24.1-70.3c5.6-26.2,17.4-32.9,20.3-41.4C841.7,312.3,830,307.5,822.5,303.9z"/>
				<path class="st3" d="M752.7,442.1L752.7,442.1h0.1c-0.1-21.7-21.9-29.8-21.9-29.8l2.5,14.5l-9.4-12.9c-1.1-2.3-1.6-4.9-1.4-7.4
					c0.8-11.9,2.6-48-2.3-64c-6-19.3-13.8-42.3-21.2-38.7c-7.5,3.6-19.2,8.4-16.3,16.9s14.7,15.3,20.3,41.4
					c4.4,20.6,15.2,54.4,24.1,70.3c-0.1-0.2-0.3-0.3-0.3-0.4c1.1,2.1,2.4,4,3.8,5.9c1.4,1.8,3.5,2.9,5.7,3.1L752.7,442.1z"/>
			</g>
		</g>
	</g>
</g>
<path class="st6" d="M0,792.3h768l0,0v1269.4c0,36.1-29.2,65.3-65.3,65.3H200c-110.5,0-200-89.5-200-200L0,792.3L0,792.3z"/>
<path class="st6" d="M767.3,2481.5c0,0-558.2-15.6-767.3,259.9v356.3c0,0,768.7,310.4,768-86.9L767.3,2481.5z"/>
<path class="st3" d="M2.1,786.9c0,0,222,277.1,762.9,119l-0.4-119H2.1z"/>
</svg>
