<svg id="Layer_1" data-name="Layer 1" xmlns="http://www.w3.org/2000/svg" xmlns:xlink="http://www.w3.org/1999/xlink" viewBox="0 0 1083.58025 2969.15853"><defs><style>.cls-1{fill:none;}.cls-2{fill:url(#linear-gradient);}.cls-3{clip-path:url(#clip-path);}.cls-4{opacity:0.47;}.cls-5{fill:#fff;}.cls-6{clip-path:url(#clip-path-2);}.cls-7{fill:#efefef;}.cls-8{fill:url(#linear-gradient-2);}</style><linearGradient id="linear-gradient" x1="576.53082" y1="2654.39453" x2="130.96267" y2="3099.96267" gradientUnits="userSpaceOnUse"><stop offset="0" stop-color="#5772b0"/><stop offset="0.47758" stop-color="#623d8b"/><stop offset="0.71335" stop-color="#552b6d"/><stop offset="0.98965" stop-color="#431344"/></linearGradient><clipPath id="clip-path" transform="translate(108.04715 0.15853)"><rect class="cls-1" x="0.57441" y="2740.8975" width="111.4978" height="208.58708" transform="translate(112.64663 5690.38207) rotate(-180)"/></clipPath><clipPath id="clip-path-2" transform="translate(108.04715 0.15853)"><rect class="cls-1" x="553.95829" y="187" width="213.54171" height="430.81884"/></clipPath><linearGradient id="linear-gradient-2" x1="929.82927" y1="2675.7994" x2="1136.79869" y2="2317.31784" gradientTransform="matrix(0, -1, -1, 0, 3065.79396, 1103.5)" gradientUnits="userSpaceOnUse"><stop offset="0" stop-color="#5772b0"/><stop offset="0.27803" stop-color="#623d8b"/><stop offset="0.37484" stop-color="#5c357d"/><stop offset="0.62732" stop-color="#4e225e"/><stop offset="0.84125" stop-color="#46174b"/><stop offset="0.98965" stop-color="#431344"/></linearGradient></defs><title>tablet-portfolio-bcg</title><path id="BCG-footer-purple" class="cls-2" d="M0,2725.25s767.99968,52.75931,767.99985,125.85785c.00021,85.68613-.2,117.693-.2,117.693L0,2969Z" transform="translate(108.04715 0.15853)"/><g id="logo-bcg-footer-white"><g class="cls-3"><g class="cls-4"><path class="cls-5" d="M43.28152,2757.67509a2.13821,2.13821,0,0,0,.10211-.74432,2.32463,2.32463,0,0,0-2.25745-2.16766c-9.623.5288-26.681,23.9877-26.681,29.098,0,4.08278,7.6162,6.63048,13.56134,7.79657l-.00788-.03313a.05834.05834,0,0,0,.04466.04028c1.48226.28957,2.85925.4934,3.98631.61325,3.76668.40066,6.0187-12.20433,7.70938-20.11653a12.23073,12.23073,0,0,0-4.16986,2.97434c-1.8893,2.05106-4.31962,6.96894-4.31261,6.94019.31456-1.27782,2.76222-10.65056,7.91219-15.59882a10.441,10.441,0,0,0,2.81477-4.16057,8.20066,8.20066,0,0,0,.51107-1.42822l.50985-1.995A9.48668,9.48668,0,0,1,43.28152,2757.67509Zm-1.21428.1793c.05132-.01316.11051-.02956.15885-.04158C42.17775,2757.82483,42.11856,2757.84123,42.06724,2757.85439Zm-2.72649.91176c.38567-.15754.75908-.30208,1.10271-.42161C40.09965,2758.46407,39.72624,2758.60861,39.34075,2758.76615ZM26.33252,2779.1833c-.007.37.00893.763.01436,1.14546C26.34163,2779.94646,26.32551,2779.55327,26.33252,2779.1833Zm1.01024,9.663c.10158.48236.23277.991.351,1.48831C27.57553,2789.83744,27.44434,2789.32862,27.34276,2788.84626Zm-.48708-2.639c.07216.45718.17217.93986.26009,1.41149C27.02785,2787.14715,26.92784,2786.66447,26.85568,2786.20729Zm-.324-2.48907c.04764.46709.1226.96032.18758,1.444C26.65409,2784.67854,26.57912,2784.18531,26.53166,2783.71822Zm-.17094-2.33965c.01979.459.0655.94343.10333,1.41994C26.42622,2782.322,26.38051,2781.83737,26.36072,2781.37857ZM27.71617,2770.95c.08985-.26017.17287-.52993.27007-.78021C27.889,2770.42008,27.806,2770.68984,27.71617,2770.95Zm-.49672,1.6387c.07637-.28925.145-.58808.23-.86644C27.36448,2772.00063,27.29582,2772.29946,27.21945,2772.58871Zm-.38111,1.68856c.05587-.2938.10281-.598.16726-.88155C26.94115,2773.67945,26.89421,2773.98347,26.83834,2774.27727Zm-.29617,1.95264c.04011-.34593.07128-.70177.1226-1.03519C26.61363,2775.52814,26.5821,2775.88381,26.54217,2776.22991Zm-.15921,1.95377c.01769-.355.0254-.72077.05447-1.06394C26.40853,2777.46291,26.40082,2777.82865,26.383,2778.18368Zm4.483-13.11041c-.13994.179-.27235.37452-.40826.56193C30.59381,2765.44779,30.726,2765.25225,30.866,2765.07327Zm-2.2599,3.65955c-.10193.2134-.19126.445-.28776.66652C28.41482,2769.17782,28.50432,2768.94638,28.60608,2768.73282Zm.69358-1.32623c-.1184.20707-.22576.43184-.33891.64752C29.0739,2767.83843,29.18126,2767.61366,29.29966,2767.40659Zm.75645-1.21806c-.137.20366-.26447.42486-.39635.63794C29.79164,2766.61339,29.919,2766.392,30.05611,2766.18853Zm2.55012-3.05539c-.17252.1681-.34031.35227-.51.53043C32.26592,2763.48541,32.43371,2763.30124,32.60623,2763.13314Zm-.88694.923c-.15185.16874-.29722.35372-.44574.53124C31.42207,2764.40983,31.56762,2764.22485,31.71929,2764.05611Zm5.73006-4.40955c.20807-.109.41685-.21925.61949-.31734C37.8662,2759.42731,37.65742,2759.53759,37.44935,2759.64656Zm-.7526.41528c.165-.09485.33138-.19473.49409-.28275C37.02813,2759.86711,36.86174,2759.967,36.69675,2760.06184Zm-.726.437c.10492-.06594.21088-.13869.31527-.20187C36.18182,2760.36019,36.07586,2760.43278,35.97077,2760.49888Zm-.819.54163c.07076-.04921.14187-.10475.21245-.15266C35.29366,2760.93576,35.22255,2760.99114,35.15179,2761.04051Zm-1.30606.9928c.19739-.1624.39478-.32887.593-.47991C34.24034,2761.7046,34.0433,2761.87074,33.84573,2762.03331Zm-.923.80993c.19739-.18417.39407-.37175.59392-.54341C33.31679,2762.47149,33.12011,2762.65907,32.92272,2762.84324Zm10.28051-5.23506s-.04186.00682-.10386.01754C43.1612,2757.615,43.20323,2757.60818,43.20323,2757.60818Z" transform="translate(108.04715 0.15853)"/><path class="cls-5" d="M-13.19676,2784.28308c0-5.11034-17.05795-28.56907-26.68079-29.09787a2.32466,2.32466,0,0,0-2.25763,2.1675,2.14385,2.14385,0,0,0,.10211.74448,9.448,9.448,0,0,1,.27708,1.21822l.50985,1.99519a8.19159,8.19159,0,0,0,.51125,1.42822,10.44,10.44,0,0,0,2.81459,4.16041c5.15015,4.94825,7.59764,14.321,7.9122,15.599.007.02859-2.42332-4.88913-4.31244-6.94019a12.23244,12.23244,0,0,0-4.17-2.9745c1.69068,7.9122,3.9427,20.51719,7.70937,20.11653,1.12707-.11986,2.50406-.32352,3.98632-.61325a.05819.05819,0,0,0,.04448-.04012l-.0077.033C-20.81279,2790.91356-13.19676,2788.366-13.19676,2784.28308ZM-39.195,2758.76647a22.23346,22.23346,0,0,1,2.29791.94944A22.25266,22.25266,0,0,0-39.195,2758.76647Zm-1.78263-.53172c.04834.012.10754.02842.15886.04158C-40.8701,2758.26317-40.9293,2758.2466-40.97764,2758.23475Zm-.97714-.20464s.042.00683.10386.01754C-41.91292,2758.03694-41.95478,2758.03011-41.95478,2758.03011Zm5.75388,2.03839c-.20807-.109-.41684-.21925-.61949-.31735C-36.61774,2759.84925-36.409,2759.95952-36.2009,2760.0685Zm.7526.41528c-.165-.09485-.33137-.19489-.49408-.28275C-35.77967,2760.28905-35.61328,2760.38893-35.4483,2760.48378Zm.92214.5629c-.17076-.11011-.34223-.22542-.51142-.3279C-34.86822,2760.82126-34.69675,2760.93673-34.52616,2761.04668Zm1.17663.814c-.25624-.19147-.51265-.37873-.76819-.55218C-33.86218,2761.48178-33.60577,2761.66936-33.34953,2761.86067Zm.70584.5569c-.18268-.14941-.36483-.30386-.54838-.44353C-33.0087,2762.11387-32.82637,2762.26816-32.64369,2762.41757Zm1.10989.97624c-.24275-.23078-.48637-.45864-.7328-.67075C-32.02,2762.93517-31.77655,2763.16286-31.5338,2763.39381Zm.7498.75812c-.19091-.2022-.38041-.40862-.575-.59815C-31.16459,2763.74331-30.97491,2763.94957-30.784,2764.15193Zm.31316.32612c.18233.20268.35782.42274.53542.6381C-30.11284,2764.90079-30.28851,2764.68073-30.47084,2764.47805Zm1.37735,1.73858c-.1734-.24394-.345-.49243-.52491-.7224C-29.43853,2765.72437-29.26689,2765.97253-29.09349,2766.21663Zm1.73551,2.93747c.10964.23.20685.47862.31019.71817C-27.15113,2769.63288-27.24834,2769.38424-27.358,2769.1541Zm-.69322-1.32557c.12908.22591.24678.47.36955.70615C-27.80442,2768.2987-27.92212,2768.05444-28.0512,2767.82853Zm-.75716-1.219c.14993.22283.29.464.43384.69819C-28.51832,2767.07333-28.65843,2766.83232-28.80836,2766.60949Zm2.34065,4.76246c-.09-.26018-.17287-.52994-.27008-.78021C-26.64058,2770.842-26.55756,2771.11177-26.46771,2771.372Zm.49671,1.6387c-.07636-.28925-.145-.58808-.23-.86645C-26.116,2772.42257-26.04736,2772.7214-25.971,2773.01065Zm.38112,1.68856c-.05588-.2938-.103-.598-.16727-.88155C-25.69269,2774.10122-25.64576,2774.40541-25.58988,2774.69921Zm.27935,1.80988c-.0359-.29672-.06165-.605-.10578-.89244C-25.37218,2775.90411-25.34643,2776.21237-25.31053,2776.50909Zm.16954,1.96676c-.01681-.30955-.02241-.63112-.04764-.93157C-25.1634,2777.84473-25.1578,2778.1663-25.141,2778.47585Zm.04449,2.12706c.00333-.3318.01857-.67546.01244-.99767C-25.07793,2779.92729-25.09335,2780.27111-25.0965,2780.60291Zm-.99833,8.6687c-.08039.38117-.18688.78589-.2776,1.17649C-26.28188,2790.0575-26.17522,2789.653-26.09483,2789.27161Zm.48761-2.64238c-.065.41219-.15676.84874-.23452,1.27263C-25.764,2787.478-25.6722,2787.04142-25.60722,2786.62923Zm.32367-2.4855c-.04274.4195-.11157.86385-.16849,1.29683C-25.39512,2785.00758-25.32629,2784.5634-25.28355,2784.14373Zm.17129-2.3403c-.01559.36006-.05465.74334-.08127,1.11428C-25.16708,2782.54677-25.12767,2782.16349-25.11226,2781.80343Z" transform="translate(108.04715 0.15853)"/><path class="cls-5" d="M57.4655,2822.61987c22.44192-9.90934,51.8301-.74318,51.8301-.74318-1.25334,9.06579-8.799,14.25928-16.45667,17.21917a62.95782,62.95782,0,0,1-13.36272,3.38816,1.5871,1.5871,0,0,1-1.63411-2.47868c1.31027-1.67426,3.10025-4.12078,5.27136-7.476C87.92242,2825.09724,57.4655,2822.61987,57.4655,2822.61987Z" transform="translate(108.04715 0.15853)"/><path class="cls-5" d="M-56.217,2822.61987s-30.45674,2.47737-25.64795,9.9095c2.1711,3.35519,3.96109,5.80171,5.27135,7.476a1.587,1.587,0,0,1-1.63393,2.47868,62.95654,62.95654,0,0,1-13.3629-3.38816c-7.65771-2.95989-15.20315-8.15338-16.45667-17.21917C-108.04715,2821.87669-78.659,2812.71053-56.217,2822.61987Z" transform="translate(108.04715 0.15853)"/><path class="cls-5" d="M18.29247,2939.65157a6.09092,6.09092,0,0,1,.059.80457c0,5.69468-7.946,10.31113-17.74749,10.31113-9.80167,0-17.74732-4.61645-17.74732-10.31113a6.11806,6.11806,0,0,1,.05868-.80457Z" transform="translate(108.04715 0.15853)"/><path class="cls-5" d="M-49.58779,2817.24432c.00648-.006.00946-.01413.01611-.02014a119.97226,119.97226,0,0,1,9.59447-8.0012c.16289-.12311.31071-.23728.47937-.36364.0268-.02014.04922-.03768.07619-.05781l-.00823.00779c6.71175-5.02994,14.69716-9.8382,20.28955-9.41756,10.43254.78443,14.20132,3.661,19.73224,4.78682v-.09956c5.54476-1.12192,9.30828-4.00726,19.75659-4.79283,5.59239-.42064,13.5778,4.38762,20.28955,9.41757l-.00823-.0078c.027.02014.04939.03768.07619.05782.16866.12635.31648.24052.47937.36363a119.97439,119.97439,0,0,1,9.59447,8.0012c.00665.006.00963.01413.01611.02014,2.3727,1.83928,4.64136,8.747-4.55693,14.2-4.47374,2.65246-8.83609,7.91253-10.21659,9.67028-.27988.39286-.47131.67334-.47131.67334l.01436-.07714-.04064.0596-6.67742-12.83561c-.18635.32823-1.23075,2.19917-2.70915,5.29873-5.6938,12.00912-17.79706,42.605-10.353,72.58219.44206,1.77983.93738,3.55723,1.52271,5.32862.04309.13008.07619.261.12.39107,0,0-15.15254,3.70129-16.81169,18.95077v.25482c-.00526-.051-.01139-.10118-.01682-.15185-.00175.01608-.006.03-.00753.04628v-.11433c-.00683-.06155-.01313-.12359-.02049-.185-1.79559-15.04128-16.7912-18.69514-16.7912-18.69514.04379-.13009.07689-.261.12-.39108-.10229.19473-.17147.32092-.17147.32092.251-.71346.472-1.42984.69305-2.14623.34714-1.16706.71057-2.33315,1.00113-3.5033,7.444-29.97715-4.65922-60.57308-10.353-72.58219-1.4784-3.09956-2.5228-4.97051-2.70915-5.29873l-6.67742,12.83561-.04064-.05961.01437.07715s-.19144-.28048-.47132-.67335c-1.3805-1.7579-5.74285-7.018-10.21676-9.67027C-54.22932,2825.991-51.96066,2819.08343-49.58779,2817.24432Z" transform="translate(108.04715 0.15853)"/><path class="cls-5" d="M-39.92974,2849.325c4.91055-2.20161,10.02567,11.80334,13.95909,23.55033,3.26121,9.73978,2.03712,31.73652,1.52359,38.96937a8.642,8.642,0,0,0,.92757,4.53768l6.1674,7.865-1.66879-8.86181s14.29748,4.92324,14.36649,18.15805l-.08565-.00519.00035.00519-10.728-.64573a5.6485,5.6485,0,0,1-3.7341-1.888,26.37192,26.37192,0,0,1-2.48777-3.59913c.04309.05051.12015.13026.21613.22185-5.83077-9.6805-12.95043-30.25145-15.84769-42.8061-3.67753-15.93614-11.43787-20.07008-13.32244-25.22979S-44.84047,2851.52642-39.92974,2849.325Z" transform="translate(108.04715 0.15853)"/><path class="cls-5" d="M5.94786,2933.54355l.00035-.00519-.08564.00519c.069-13.23481,14.36648-18.15805,14.36648-18.15805l-1.66879,8.86181,6.1674-7.865a8.642,8.642,0,0,0,.92757-4.53768c-.51353-7.23285-1.73762-29.22959,1.52359-38.96937,3.93342-11.747,9.04854-25.75194,13.9591-23.55033,4.91072,2.20144,12.59838,5.112,10.71382,10.27167s-9.64491,9.29365-13.32244,25.22979c-2.89726,12.55465-10.01692,33.1256-15.84769,42.8061.096-.09159.173-.17134.21613-.22185a26.371,26.371,0,0,1-2.48777,3.59913,5.6485,5.6485,0,0,1-3.7341,1.888Z" transform="translate(108.04715 0.15853)"/></g></g></g><g id="BCG-logo-white"><g class="cls-6"><path class="cls-7" d="M686.23759,224.16917l.97647,4.12055a17.82668,17.82668,0,0,0,.97881,2.94986c1.73859,4.03031,2.24678,5.33551,5.39086,8.59331,9.86329,10.2202,14.55107,29.5788,15.15352,32.218.01342.05937-4.64115-10.0981-8.25955-14.33437a23.41,23.41,0,0,0-7.98616-6.14326c3.238,16.342,7.5511,42.37652,14.76508,41.549,2.15856-.24756,4.79579-.66853,7.63462-1.26663a.1153.1153,0,0,0,.08554-.08318c-.00571.02348-.0094.04494-.0151.06843,11.38619-2.40847,25.97281-7.67052,25.97281-16.10315,0-10.555-32.66954-59.00732-51.09964-60.09951a4.62646,4.62646,0,0,0-4.32349,4.47712,4.73936,4.73936,0,0,0,.19556,1.53732A20.90994,20.90994,0,0,1,686.23759,224.16917Zm1.4907-2.232c.09258.02482.206.0587.30424.08587C687.93425,221.99585,687.82087,221.962,687.72829,221.93715Zm3.41411,1.09823c.65813.24688,1.37329.54542,2.11193.8708C692.516,223.5808,691.80087,223.28226,691.1424,223.03538Zm26.99792,45.40655c.01039-.79.04092-1.60173.0275-2.36586C718.18124,266.8402,718.15038,267.6523,718.14032,268.44193Zm-2.57954,20.66614c.22642-1.02712.47767-2.07771.67222-3.074C716.03845,287.03036,715.7872,288.08129,715.56078,289.10807Zm1.10695-5.60923c.16839-.97412.35993-1.971.49813-2.91531C717.02766,281.52779,716.83612,282.52472,716.66773,283.49884Zm.75944-5.07387c.12445-.99894.268-2.01768.35926-2.9824C717.69552,276.40729,717.552,277.426,717.42717,278.425Zm.48874-4.882c.07245-.98418.16-1.9848.19791-2.93276C718.07591,271.55783,717.98836,272.55879,717.91591,273.543Zm-2.91532-26.08351c.18617.51691.34517,1.07408.51725,1.61146C715.34576,248.53354,715.18676,247.97637,715.00059,247.45946Zm1.02813,3.20648c.16269.57494.29418,1.19215.44043,1.78957C716.3229,251.85809,716.19141,251.24088,716.02872,250.66594Zm.85,3.45637c.12345.58568.21334,1.214.32035,1.82077C717.09206,255.33627,717.00217,254.70833,716.87872,254.12231Zm.65277,3.71568c.09829.68866.158,1.42361.23481,2.13809C717.68982,259.26126,717.62944,258.52665,717.53149,257.838Zm.4354,3.976c.05569.70879.07045,1.4642.10432,2.19747C718.037,263.27816,718.02224,262.52275,717.96689,261.814Zm-7.6997-23.72033c-.2603-.3871-.51389-.791-.78191-1.16062C709.7533,237.30266,710.00656,237.70653,710.26719,238.09363Zm4.09741,7.7745c-.18483-.45754-.3559-.93588-.55113-1.37665C714.00836,244.93259,714.17977,245.41059,714.3646,245.86813Zm-1.2304-2.77845c-.21669-.44547-.42232-.90971-.64907-1.3374C712.71188,242.18,712.91751,242.64421,713.1342,243.08968Zm-1.33874-2.53559c-.25259-.4401-.49679-.897-.7591-1.31761C711.299,239.65678,711.54287,240.114,711.79546,240.55409Zm-4.66631-6.53271c-.325-.368-.64639-.74836-.9768-1.09554C706.48276,233.273,706.80411,233.65341,707.12915,234.02138Zm1.57556,1.908c-.28445-.36664-.56287-.7487-.85369-1.09723C708.14151,235.18067,708.42026,235.56273,708.70471,235.92937ZM695.6903,225.06915c.3881.20261.788.43037,1.18645.65545C696.47825,225.49952,696.0784,225.27176,695.6903,225.06915Zm1.68156.92917c.31162.18181.63029.38811.94628.584C698.00215,226.38643,697.68348,226.18013,697.37186,225.99832Zm1.73289,1.06972c.19992.13049.40286.28077.60379.417C699.50727,227.34847,699.30433,227.19853,699.10475,227.068Zm1.76542,1.22033c.13518.099.27137.21368.40689.31532C701.14154,228.50171,701.00535,228.38733,700.87017,228.28837Zm1.77246,1.37464c.37972.312.75776.65578,1.13581.99122C703.40006,230.31846,703.02269,229.9753,702.64263,229.663Zm1.7661,1.54168c.38274.35456.75944.742,1.13748,1.12239C705.16817,231.94669,704.79147,231.55925,704.40873,231.20469Zm-18.35295-9.654c-.11875-.02214-.19892-.03623-.19892-.03623S685.93737,221.52858,686.05578,221.55072Z" transform="translate(108.04715 0.15853)"/><path class="cls-7" d="M819.84751,292.71238c-.0057-.02315-.00905-.04495-.01476-.06809a.115.115,0,0,0,.0852.08285c2.83884.59842,5.47607,1.01907,7.63463,1.26662,7.214.82753,11.52707-25.207,14.76508-41.549a23.41286,23.41286,0,0,0-7.9865,6.14359c-3.61806,4.23627-8.27263,14.39341-8.25922,14.33437.60245-2.63958,5.2899-21.99818,15.15352-32.21838,3.14408-3.25779,3.65194-4.56266,5.39053-8.593a17.8075,17.8075,0,0,0,.97915-2.94987l.97647-4.12088a20.82556,20.82556,0,0,1,.53066-2.51614,4.75154,4.75154,0,0,0,.19556-1.53766,4.62646,4.62646,0,0,0-4.32382-4.47678c-18.42977,1.09219-51.09931,49.5442-51.09931,60.09917C793.8747,285.0422,808.461,290.30392,819.84751,292.71238Zm19.41831-66.84454a40.89249,40.89249,0,0,1,4.401-1.961A40.929,40.929,0,0,0,839.26582,225.86784Zm7.51084-2.97335c.09829-.02717.21167-.061.30425-.08587C846.98833,222.83311,846.875,222.86732,846.77666,222.89449Zm1.97675-.4723c.11842-.02214.19892-.03623.19892-.03623S848.87216,222.40005,848.75341,222.42219Zm-9.63451,3.51844c-.38811.2026-.788.43037-1.18646.65545C838.331,226.371,838.73079,226.14323,839.1189,225.94063Zm-1.68157.92917c-.31162.18147-.63029.3881-.94627.584C836.807,227.2579,837.12571,227.0516,837.43733,226.8698Zm-1.73288,1.06938c-.324.21166-.65243.44983-.97949.67725C835.05168,228.38934,835.38008,228.15084,835.70445,227.93918Zm-1.76173,1.218c-.48941.35825-.9805.745-1.47125,1.1405C832.96222,229.90251,833.45331,229.51508,833.94272,229.15716Zm-1.77281,1.37464c-.35154.28848-.7004.60748-1.05026.91609C831.46951,231.13928,831.81871,230.82061,832.16991,230.5318Zm-1.77246,1.547c-.472.43808-.93857.90871-1.40349,1.38537C829.45888,232.98722,829.92515,232.51693,830.39745,232.07885Zm-1.73826,1.71578c-.37267.39146-.73562.8178-1.10125,1.23542C827.92357,234.6121,828.28686,234.18609,828.65919,233.79463Zm-2.72645,3.22693c.34013-.44479.67624-.89931,1.02544-1.31794C826.609,236.12225,826.27254,236.57677,825.93274,237.02156Zm-.60715.78091c-.3445.475-.67323.98821-1.00532,1.492C824.65236,238.79034,824.98109,238.27779,825.32559,237.80247Zm-4.92326,9.04246c.19791-.49477.38408-1.00833.59407-1.48331C820.78641,245.83694,820.60024,246.3505,820.40233,246.84493Zm1.214-2.76268c.23514-.48773.46056-.9919.70778-1.4585C822.07685,243.09035,821.85143,243.59485,821.61629,244.08225Zm1.327-2.53425c.2754-.48371.54375-.98184.83089-1.44206C823.487,240.56616,823.21869,241.064,822.94329,241.548Zm-3.13469,6.78294c-.18617.51691-.34483,1.07408-.51725,1.61145C819.46343,249.405,819.62243,248.84785,819.8086,248.33094Zm-1.02812,3.20647c-.16269.57494-.29419,1.19215-.44044,1.78957C818.48629,252.72956,818.61779,252.11235,818.78048,251.53741Zm-.85,3.45638c-.12311.58568-.21334,1.214-.32035,1.82077C817.71713,256.20775,817.807,255.57947,817.93047,254.99379Zm-.65277,3.71567c-.08453.59373-.13384,1.2304-.2026,1.84325C817.14386,259.93986,817.19317,259.30319,817.2777,258.70946Zm-.43607,3.98134c-.0483.62057-.059,1.28474-.09124,1.92409C816.78259,263.97554,816.79333,263.31137,816.84163,262.6908Zm-.20026,4.25674c-.01174.66551.01745,1.37531.02382,2.06061C816.65915,268.32285,816.62963,267.61272,816.64137,266.94754Zm2.4675,22.395c-.17376-.80674-.3777-1.64266-.53167-2.42993C818.73117,287.70023,818.93545,288.53581,819.10887,289.34255Zm-1.01638-5.259c-.14894-.8755-.32471-1.77716-.44916-2.62851C817.76778,282.30635,817.94355,283.208,818.09249,284.08351Zm-.74636-5.0836c-.109-.89428-.24084-1.812-.32269-2.67849C817.10529,277.1882,817.23712,278.10563,817.34613,278.99991Zm-.49511-5.21073c-.051-.76614-.12579-1.55778-.15564-2.30145C816.7249,272.2314,816.80037,273.023,816.851,273.78918Z" transform="translate(108.04715 0.15853)"/><path class="cls-7" d="M658.54162,355.7906c-42.981-20.4669-99.26553-1.535-99.26553-1.535,2.40041,18.72462,16.85186,29.45133,31.518,35.56473a113.46277,113.46277,0,0,0,25.59242,6.998,3.24759,3.24759,0,0,0,3.12966-5.11949c-2.50943-3.45806-5.93763-8.51113-10.09575-15.441C600.21022,360.90741,658.54162,355.7906,658.54162,355.7906Z" transform="translate(108.04715 0.15853)"/><path class="cls-7" d="M876.26758,355.7906s58.33106,5.11681,49.12121,20.46723c-4.15812,6.92986-7.58632,11.98293-10.09575,15.441a3.24746,3.24746,0,0,0,3.12933,5.11949,113.46,113.46,0,0,0,25.59275-6.998c14.66613-6.1134,29.11724-16.84011,31.518-35.56473C975.5331,354.25562,919.24856,335.3237,876.26758,355.7906Z" transform="translate(108.04715 0.15853)"/><path class="cls-7" d="M733.56621,597.5096a13.54581,13.54581,0,0,0-.113,1.66177c0,11.76188,15.21826,21.29677,33.99017,21.29677,18.77225,0,33.98984-9.53489,33.98984-21.29677a13.613,13.613,0,0,0-.11237-1.66177Z" transform="translate(108.04715 0.15853)"/><path class="cls-7" d="M863.57116,344.68786c-.01241-.01241-.01812-.02919-.03086-.0416a234.8811,234.8811,0,0,0-18.37543-16.5258c-.312-.25427-.59507-.49008-.9181-.751-.05132-.0416-.09426-.07782-.14591-.11942l.01576.0161c-12.85441-10.38892-28.14814-20.32-38.85875-19.45118-19.98051,1.62018-27.19851,7.5615-37.79138,9.88677v-.20562c-10.61938-2.31723-17.82732-8.27666-37.838-9.89918-10.71061-.8688-26.00435,9.06225-38.85876,19.45118l.01577-.01611c-.05166.0416-.0946.07783-.14592.11942-.323.261-.60614.49679-.9181.75105a234.87857,234.87857,0,0,0-18.37542,16.52581c-.01275.01241-.01845.02918-.03086.04159-4.54421,3.79886-8.88917,18.06615,8.72749,29.3289,8.56815,5.47841,16.923,16.34265,19.5669,19.97312.536.81143.90267,1.39074.90267,1.39074s-.01912-.108-.0275-.15934c.01174.01912.07782.12311.07782.12311l12.78866-26.51086c.35691.67793,2.35714,4.5422,5.18859,10.94408,10.90484,24.8038,34.08511,87.99708,19.82822,149.91232-.84665,3.67609-1.79528,7.34715-2.91632,11.0058-.08252.26869-.14591.539-.22977.80774,0,0,29.02028,7.64469,32.19791,39.1412v.5263c.01006-.10533.0218-.209.0322-.31363.00336.0332.01141.062.01443.0956v-.23615c.01308-.12714.02515-.25527.03924-.38207,3.43894-31.06647,32.15867-38.61321,32.15867-38.61321-.08386-.26869-.14726-.539-.22978-.80774.1959.40219.3284.66283.3284.66283-.48069-1.47359-.904-2.95322-1.32734-4.43285-.66484-2.41047-1.36088-4.81893-1.91737-7.23578-14.25689-61.91525,8.92338-125.10852,19.82821-149.91233,2.83145-6.40188,4.83168-10.26615,5.18859-10.94407l12.78867,26.51086s.06608-.104.07782-.12311c-.00839.05132-.02751.15933-.02751.15933s.36664-.5793.90267-1.39073c2.64394-3.63081,10.99876-14.49505,19.56725-19.97313C872.46066,362.75333,868.1157,348.48638,863.57116,344.68786Z" transform="translate(108.04715 0.15853)"/><path class="cls-7" d="M845.074,410.94773c-9.40474-4.54723-19.20128,24.3788-26.7346,48.6412-6.2459,20.1167-3.9015,65.54907-2.918,80.48791a19.04163,19.04163,0,0,1-1.7765,9.3722L801.833,565.69342l3.19608-18.30331s-27.38267,10.16854-27.51483,37.50391l.164-.01073-.00067.01073,20.54639-1.33371a10.57026,10.57026,0,0,0,7.15159-3.89949,54.7629,54.7629,0,0,0,4.76459-7.4337c-.08252.10432-.23011.269-.41393.45821,11.16715-19.99425,24.8028-62.4818,30.35165-88.41235,7.04324-32.91475,21.90593-41.45305,25.51527-52.11S854.47905,415.49462,845.074,410.94773Z" transform="translate(108.04715 0.15853)"/><path class="cls-7" d="M757.20872,584.894l-.00067-.01073.164.01073c-.13216-27.33537-27.51483-37.50391-27.51483-37.50391l3.19607,18.30331L721.24146,549.449a19.04174,19.04174,0,0,1-1.77649-9.3722c.98351-14.93884,3.3279-60.37121-2.918-80.48791-7.53332-24.2624-17.32985-53.18843-26.73459-48.6412-9.40508,4.54689-24.12856,10.55832-20.51923,21.21526s18.472,19.19524,25.51528,52.11c5.54885,25.93055,19.1845,68.4181,30.35165,88.41235-.18383-.18918-.33142-.35389-.41394-.45821a54.76285,54.76285,0,0,0,4.7646,7.4337,10.57022,10.57022,0,0,0,7.15159,3.89949Z" transform="translate(108.04715 0.15853)"/></g></g><path class="cls-8" d="M289.63418-.15853S539.45124,241.22341,767.45209,187.51788L767.666-.06089Z" transform="translate(108.04715 0.15853)"/><path class="cls-7" d="M3.00926,580.16956S136.6927,841.6392,765.5,776.99809v1027.721s-22.63423-199.00745-752.58826,38.49414Z" transform="translate(108.04715 0.15853)"/></svg>