<svg id="Layer_1" data-name="Layer 1" xmlns="http://www.w3.org/2000/svg" xmlns:xlink="http://www.w3.org/1999/xlink" viewBox="0 0 1034.26088 3626.87477"><defs><style>.cls-1{fill:none;}.cls-2{fill:url(#linear-gradient);}.cls-3{clip-path:url(#clip-path);}.cls-4{opacity:0.47;}.cls-5{fill:#fff;}.cls-6{fill:url(#linear-gradient-2);}.cls-7{clip-path:url(#clip-path-2);}.cls-8{fill:#efefef;}</style><linearGradient id="linear-gradient" x1="576.53082" y1="3312.39453" x2="130.96267" y2="3757.96267" gradientUnits="userSpaceOnUse"><stop offset="0" stop-color="#5772b0"/><stop offset="0.47758" stop-color="#623d8b"/><stop offset="0.71335" stop-color="#552b6d"/><stop offset="0.98965" stop-color="#431344"/></linearGradient><clipPath id="clip-path" transform="translate(108.04715 -0.12523)"><rect class="cls-1" x="0.57441" y="3399.8975" width="111.4978" height="208.58708" transform="translate(112.64663 7008.38207) rotate(-180)"/></clipPath><linearGradient id="linear-gradient-2" x1="494.91123" y1="279.18899" x2="767.96221" y2="279.18899" xlink:href="#linear-gradient"/><clipPath id="clip-path-2" transform="translate(108.04715 -0.12523)"><rect class="cls-1" x="591.18523" y="126.03993" width="169.70312" height="342.3748"/></clipPath></defs><title>tablet-home-bcg</title><path id="BCG-footer-purple" class="cls-2" d="M0,3383.25s767.99968,52.75931,767.99985,125.85785c.00021,85.68613-.2,117.693-.2,117.693L0,3627Z" transform="translate(108.04715 -0.12523)"/><g id="logo-bcg-footer-white"><g class="cls-3"><g class="cls-4"><path class="cls-5" d="M43.28152,3416.67509a2.13821,2.13821,0,0,0,.10211-.74432,2.32463,2.32463,0,0,0-2.25745-2.16766c-9.623.5288-26.681,23.9877-26.681,29.098,0,4.08278,7.6162,6.63048,13.56134,7.79657l-.00788-.03313a.05834.05834,0,0,0,.04466.04028c1.48226.28957,2.85925.4934,3.98631.61325,3.76668.40066,6.0187-12.20433,7.70938-20.11653a12.23073,12.23073,0,0,0-4.16986,2.97434c-1.8893,2.05106-4.31962,6.96894-4.31261,6.94019.31456-1.27782,2.76222-10.65056,7.91219-15.59882a10.441,10.441,0,0,0,2.81477-4.16057,8.20066,8.20066,0,0,0,.51107-1.42822l.50985-1.995A9.48668,9.48668,0,0,1,43.28152,3416.67509Zm-1.21428.1793c.05132-.01316.11051-.02956.15885-.04158C42.17775,3416.82483,42.11856,3416.84123,42.06724,3416.85439Zm-2.72649.91176c.38567-.15754.75908-.30208,1.10271-.42161C40.09965,3417.46407,39.72624,3417.60861,39.34075,3417.76615ZM26.33252,3438.1833c-.007.37.00893.763.01436,1.14546C26.34163,3438.94646,26.32551,3438.55327,26.33252,3438.1833Zm1.01024,9.663c.10158.48236.23277.991.351,1.48831C27.57553,3448.83744,27.44434,3448.32862,27.34276,3447.84626Zm-.48708-2.639c.07216.45718.17217.93986.26009,1.41149C27.02785,3446.14715,26.92784,3445.66447,26.85568,3445.20729Zm-.324-2.48907c.04764.46709.1226.96032.18758,1.444C26.65409,3443.67854,26.57912,3443.18531,26.53166,3442.71822Zm-.17094-2.33965c.01979.459.0655.94343.10333,1.41994C26.42622,3441.322,26.38051,3440.83737,26.36072,3440.37857ZM27.71617,3429.95c.08985-.26017.17287-.52993.27007-.78021C27.889,3429.42008,27.806,3429.68984,27.71617,3429.95Zm-.49672,1.6387c.07637-.28925.145-.58808.23-.86644C27.36448,3431.00063,27.29582,3431.29946,27.21945,3431.58871Zm-.38111,1.68856c.05587-.2938.10281-.598.16726-.88155C26.94115,3432.67945,26.89421,3432.98347,26.83834,3433.27727Zm-.29617,1.95264c.04011-.34593.07128-.70177.1226-1.03519C26.61363,3434.52814,26.5821,3434.88381,26.54217,3435.22991Zm-.15921,1.95377c.01769-.355.0254-.72077.05447-1.06394C26.40853,3436.46291,26.40082,3436.82865,26.383,3437.18368Zm4.483-13.11041c-.13994.179-.27235.37452-.40826.56193C30.59381,3424.44779,30.726,3424.25225,30.866,3424.07327Zm-2.2599,3.65955c-.10193.2134-.19126.445-.28776.66652C28.41482,3428.17782,28.50432,3427.94638,28.60608,3427.73282Zm.69358-1.32623c-.1184.20707-.22576.43184-.33891.64752C29.0739,3426.83843,29.18126,3426.61366,29.29966,3426.40659Zm.75645-1.21806c-.137.20366-.26447.42486-.39635.63794C29.79164,3425.61339,29.919,3425.392,30.05611,3425.18853Zm2.55012-3.05539c-.17252.1681-.34031.35227-.51.53043C32.26592,3422.48541,32.43371,3422.30124,32.60623,3422.13314Zm-.88694.923c-.15185.16874-.29722.35372-.44574.53124C31.42207,3423.40983,31.56762,3423.22485,31.71929,3423.05611Zm5.73006-4.40955c.20807-.109.41685-.21925.61949-.31734C37.8662,3418.42731,37.65742,3418.53759,37.44935,3418.64656Zm-.7526.41528c.165-.09485.33138-.19473.49409-.28275C37.02813,3418.86711,36.86174,3418.967,36.69675,3419.06184Zm-.726.437c.10492-.06594.21088-.13869.31527-.20187C36.18182,3419.36019,36.07586,3419.43278,35.97077,3419.49888Zm-.819.54163c.07076-.04921.14187-.10475.21245-.15266C35.29366,3419.93576,35.22255,3419.99114,35.15179,3420.04051Zm-1.30606.9928c.19739-.1624.39478-.32887.593-.47991C34.24034,3420.7046,34.0433,3420.87074,33.84573,3421.03331Zm-.923.80993c.19739-.18417.39407-.37175.59392-.54341C33.31679,3421.47149,33.12011,3421.65907,32.92272,3421.84324Zm10.28051-5.23506s-.04186.00682-.10386.01754C43.1612,3416.615,43.20323,3416.60818,43.20323,3416.60818Z" transform="translate(108.04715 -0.12523)"/><path class="cls-5" d="M-13.19676,3443.28308c0-5.11034-17.05795-28.56907-26.68079-29.09787a2.32466,2.32466,0,0,0-2.25763,2.1675,2.14385,2.14385,0,0,0,.10211.74448,9.448,9.448,0,0,1,.27708,1.21822l.50985,1.99519a8.19159,8.19159,0,0,0,.51125,1.42822,10.44,10.44,0,0,0,2.81459,4.16041c5.15015,4.94825,7.59764,14.321,7.9122,15.599.007.02859-2.42332-4.88913-4.31244-6.94019a12.23244,12.23244,0,0,0-4.17-2.9745c1.69068,7.9122,3.9427,20.51719,7.70937,20.11653,1.12707-.11986,2.50406-.32352,3.98632-.61325a.05819.05819,0,0,0,.04448-.04012l-.0077.033C-20.81279,3449.91356-13.19676,3447.366-13.19676,3443.28308ZM-39.195,3417.76647a22.23346,22.23346,0,0,1,2.29791.94944A22.25266,22.25266,0,0,0-39.195,3417.76647Zm-1.78263-.53172c.04834.012.10754.02842.15886.04158C-40.8701,3417.26317-40.9293,3417.2466-40.97764,3417.23475Zm-.97714-.20464s.042.00683.10386.01754C-41.91292,3417.03694-41.95478,3417.03011-41.95478,3417.03011Zm5.75388,2.03839c-.20807-.109-.41684-.21925-.61949-.31735C-36.61774,3418.84925-36.409,3418.95952-36.2009,3419.0685Zm.7526.41528c-.165-.09485-.33137-.19489-.49408-.28275C-35.77967,3419.28905-35.61328,3419.38893-35.4483,3419.48378Zm.92214.5629c-.17076-.11011-.34223-.22542-.51142-.3279C-34.86822,3419.82126-34.69675,3419.93673-34.52616,3420.04668Zm1.17663.814c-.25624-.19147-.51265-.37873-.76819-.55218C-33.86218,3420.48178-33.60577,3420.66936-33.34953,3420.86067Zm.70584.5569c-.18268-.14941-.36483-.30386-.54838-.44353C-33.0087,3421.11387-32.82637,3421.26816-32.64369,3421.41757Zm1.10989.97624c-.24275-.23078-.48637-.45864-.7328-.67075C-32.02,3421.93517-31.77655,3422.16286-31.5338,3422.39381Zm.7498.75812c-.19091-.2022-.38041-.40862-.575-.59815C-31.16459,3422.74331-30.97491,3422.94957-30.784,3423.15193Zm.31316.32612c.18233.20268.35782.42274.53542.6381C-30.11284,3423.90079-30.28851,3423.68073-30.47084,3423.47805Zm1.37735,1.73858c-.1734-.24394-.345-.49243-.52491-.7224C-29.43853,3424.72437-29.26689,3424.97253-29.09349,3425.21663Zm1.73551,2.93747c.10964.23.20685.47862.31019.71817C-27.15113,3428.63288-27.24834,3428.38424-27.358,3428.1541Zm-.69322-1.32557c.12908.22591.24678.47.36955.70615C-27.80442,3427.2987-27.92212,3427.05444-28.0512,3426.82853Zm-.75716-1.219c.14993.22283.29.464.43384.69819C-28.51832,3426.07333-28.65843,3425.83232-28.80836,3425.60949Zm2.34065,4.76246c-.09-.26018-.17287-.52994-.27008-.78021C-26.64058,3429.842-26.55756,3430.11177-26.46771,3430.372Zm.49671,1.6387c-.07636-.28925-.145-.58808-.23-.86645C-26.116,3431.42257-26.04736,3431.7214-25.971,3432.01065Zm.38112,1.68856c-.05588-.2938-.103-.598-.16727-.88155C-25.69269,3433.10122-25.64576,3433.40541-25.58988,3433.69921Zm.27935,1.80988c-.0359-.29672-.06165-.605-.10578-.89244C-25.37218,3434.90411-25.34643,3435.21237-25.31053,3435.50909Zm.16954,1.96676c-.01681-.30955-.02241-.63112-.04764-.93157C-25.1634,3436.84473-25.1578,3437.1663-25.141,3437.47585Zm.04449,2.12706c.00333-.3318.01857-.67546.01244-.99767C-25.07793,3438.92729-25.09335,3439.27111-25.0965,3439.60291Zm-.99833,8.6687c-.08039.38117-.18688.78589-.2776,1.17649C-26.28188,3449.0575-26.17522,3448.653-26.09483,3448.27161Zm.48761-2.64238c-.065.41219-.15676.84874-.23452,1.27263C-25.764,3446.478-25.6722,3446.04142-25.60722,3445.62923Zm.32367-2.4855c-.04274.4195-.11157.86385-.16849,1.29683C-25.39512,3444.00758-25.32629,3443.5634-25.28355,3443.14373Zm.17129-2.3403c-.01559.36006-.05465.74334-.08127,1.11428C-25.16708,3441.54677-25.12767,3441.16349-25.11226,3440.80343Z" transform="translate(108.04715 -0.12523)"/><path class="cls-5" d="M57.4655,3481.61987c22.44192-9.90934,51.8301-.74318,51.8301-.74318-1.25334,9.06579-8.799,14.25928-16.45667,17.21917a62.95782,62.95782,0,0,1-13.36272,3.38816,1.5871,1.5871,0,0,1-1.63411-2.47868c1.31027-1.67426,3.10025-4.12078,5.27136-7.476C87.92242,3484.09724,57.4655,3481.61987,57.4655,3481.61987Z" transform="translate(108.04715 -0.12523)"/><path class="cls-5" d="M-56.217,3481.61987s-30.45674,2.47737-25.64795,9.9095c2.1711,3.35519,3.96109,5.80171,5.27135,7.476a1.587,1.587,0,0,1-1.63393,2.47868,62.95654,62.95654,0,0,1-13.3629-3.38816c-7.65771-2.95989-15.20315-8.15338-16.45667-17.21917C-108.04715,3480.87669-78.659,3471.71053-56.217,3481.61987Z" transform="translate(108.04715 -0.12523)"/><path class="cls-5" d="M18.29247,3598.65157a6.09092,6.09092,0,0,1,.059.80457c0,5.69468-7.946,10.31113-17.74749,10.31113-9.80167,0-17.74732-4.61645-17.74732-10.31113a6.11806,6.11806,0,0,1,.05868-.80457Z" transform="translate(108.04715 -0.12523)"/><path class="cls-5" d="M-49.58779,3476.24432c.00648-.006.00946-.01413.01611-.02014a119.97226,119.97226,0,0,1,9.59447-8.0012c.16289-.12311.31071-.23728.47937-.36364.0268-.02014.04922-.03768.07619-.05781l-.00823.00779c6.71175-5.02994,14.69716-9.8382,20.28955-9.41756,10.43254.78443,14.20132,3.661,19.73224,4.78682v-.09956c5.54476-1.12192,9.30828-4.00726,19.75659-4.79283,5.59239-.42064,13.5778,4.38762,20.28955,9.41757l-.00823-.0078c.027.02014.04939.03768.07619.05782.16866.12635.31648.24052.47937.36363a119.97439,119.97439,0,0,1,9.59447,8.0012c.00665.006.00963.01413.01611.02014,2.3727,1.83928,4.64136,8.747-4.55693,14.2-4.47374,2.65246-8.83609,7.91253-10.21659,9.67028-.27988.39286-.47131.67334-.47131.67334l.01436-.07714-.04064.0596-6.67742-12.83561c-.18635.32823-1.23075,2.19917-2.70915,5.29873-5.6938,12.00912-17.79706,42.605-10.353,72.58219.44206,1.77983.93738,3.55723,1.52271,5.32862.04309.13008.07619.261.12.39107,0,0-15.15254,3.70129-16.81169,18.95077v.25482c-.00526-.051-.01139-.10118-.01682-.15185-.00175.01608-.006.03-.00753.04628v-.11433c-.00683-.06155-.01313-.12359-.02049-.185-1.79559-15.04128-16.7912-18.69514-16.7912-18.69514.04379-.13009.07689-.261.12-.39108-.10229.19473-.17147.32092-.17147.32092.251-.71346.472-1.42984.69305-2.14623.34714-1.16706.71057-2.33315,1.00113-3.5033,7.444-29.97715-4.65922-60.57308-10.353-72.58219-1.4784-3.09956-2.5228-4.97051-2.70915-5.29873l-6.67742,12.83561-.04064-.05961.01437.07715s-.19144-.28048-.47132-.67335c-1.3805-1.7579-5.74285-7.018-10.21676-9.67027C-54.22932,3484.991-51.96066,3478.08343-49.58779,3476.24432Z" transform="translate(108.04715 -0.12523)"/><path class="cls-5" d="M-39.92974,3508.325c4.91055-2.20161,10.02567,11.80334,13.95909,23.55033,3.26121,9.73978,2.03712,31.73652,1.52359,38.96937a8.642,8.642,0,0,0,.92757,4.53768l6.1674,7.865-1.66879-8.86181s14.29748,4.92324,14.36649,18.15805l-.08565-.00519.00035.00519-10.728-.64573a5.6485,5.6485,0,0,1-3.7341-1.888,26.37192,26.37192,0,0,1-2.48777-3.59913c.04309.05051.12015.13026.21613.22185-5.83077-9.6805-12.95043-30.25145-15.84769-42.8061-3.67753-15.93614-11.43787-20.07008-13.32244-25.22979S-44.84047,3510.52642-39.92974,3508.325Z" transform="translate(108.04715 -0.12523)"/><path class="cls-5" d="M5.94786,3592.54355l.00035-.00519-.08564.00519c.069-13.23481,14.36648-18.15805,14.36648-18.15805l-1.66879,8.86181,6.1674-7.865a8.642,8.642,0,0,0,.92757-4.53768c-.51353-7.23285-1.73762-29.22959,1.52359-38.96937,3.93342-11.747,9.04854-25.75194,13.9591-23.55033,4.91072,2.20144,12.59838,5.112,10.71382,10.27167s-9.64491,9.29365-13.32244,25.22979c-2.89726,12.55465-10.01692,33.1256-15.84769,42.8061.096-.09159.173-.17134.21613-.22185a26.371,26.371,0,0,1-2.48777,3.59913,5.6485,5.6485,0,0,1-3.7341,1.888Z" transform="translate(108.04715 -0.12523)"/></g></g></g><path class="cls-6" d="M767.96221,558.25274S430.78041,266.57805,505.80063.375L767.82581.12523Z" transform="translate(108.04715 -0.12523)"/><g id="BCG-logo-white"><g class="cls-7"><g class="cls-4"><path class="cls-5" d="M696.30853,155.57853l.776,3.27463a14.167,14.167,0,0,0,.77788,2.34428c1.38166,3.20292,1.78553,4.24017,4.28415,6.82916,7.83843,8.12207,11.56384,23.50648,12.04261,25.60391.01066.04718-3.68836-8.025-6.56392-11.39163a18.60412,18.60412,0,0,0-6.34666-4.88209c2.57326,12.98709,6.00091,33.67692,11.73391,33.01928,1.71542-.19674,3.81125-.53129,6.06729-1.0066a.09163.09163,0,0,0,.068-.06611c-.00453.01866-.00747.03572-.012.05438,9.04869-1.914,20.64078-6.09581,20.64078-12.79728,0-8.38811-25.96272-46.89354-40.60925-47.76151a3.67669,3.67669,0,0,0-3.43591,3.558,3.76646,3.76646,0,0,0,.15541,1.22172A16.6169,16.6169,0,0,1,696.30853,155.57853Zm1.18467-1.7738c.07357.01972.16367.04665.24178.06824C697.65687,153.85138,697.56677,153.82445,697.4932,153.80473Zm2.71322.87277c.523.1962,1.09136.43345,1.67836.692C701.29805,155.111,700.72971,154.8737,700.20642,154.6775Zm21.45543,36.08491c.00827-.62779.03253-1.27291.02186-1.88017C721.69438,189.4895,721.66985,190.13489,721.66185,190.76241Zm-2.05,16.42353c.17994-.81626.3796-1.65117.53422-2.44291C719.99148,205.53477,719.79182,206.37,719.61188,207.18594Zm.8797-4.4577c.13382-.77414.286-1.5664.39587-2.31682C720.77762,201.16184,720.6254,201.9541,720.49158,202.72824Zm.60353-4.03224c.0989-.79386.213-1.60346.2855-2.37013C721.30837,197.09254,721.19428,197.90214,721.09511,198.696Zm.3884-3.87976c.05758-.78213.12716-1.57733.15728-2.33068C721.61067,193.23864,721.54109,194.03411,721.48351,194.81624Zm-2.31682-20.72875c.148.4108.27431.85358.41107,1.28064C719.441,174.94107,719.31464,174.49829,719.16669,174.08749Zm.81706,2.54821c.12929.45691.23379.94742.35,1.42219C720.21754,177.58312,720.113,177.09261,719.98375,176.6357Zm.67551,2.74681c.0981.46544.16954.96474.25458,1.447C720.8288,180.34725,720.75736,179.84822,720.65926,179.38251Zm.51876,2.95287c.0781.54728.12555,1.13135.1866,1.69916C721.30384,183.46647,721.25586,182.88266,721.178,182.33538Zm.346,3.15974c.04426.56327.056,1.1636.08291,1.74634C721.57975,186.65872,721.568,186.05839,721.524,185.49512Zm-6.119-18.85072c-.20687-.30763-.4084-.62859-.62139-.92235C714.99663,166.01581,715.1979,166.33677,715.405,166.6444Zm3.25623,6.17845c-.14688-.36361-.28283-.74375-.438-1.094C718.37816,172.07937,718.51438,172.45924,718.66126,172.82285Zm-.9778-2.208c-.17221-.354-.33562-.723-.51583-1.06284C717.34784,169.89184,717.51125,170.26078,717.68346,170.6148Zm-1.06391-2.01506c-.20073-.34975-.3948-.71282-.60326-1.04711C716.225,167.88665,716.41882,168.25,716.61955,168.59974Zm-3.70835-5.19158c-.25831-.29244-.51369-.59473-.77627-.87064C712.39751,162.81343,712.65289,163.11572,712.9112,163.40816Zm1.25211,1.51629c-.226-.29137-.44731-.595-.67843-.872C713.71573,164.32945,713.93726,164.63308,714.16331,164.92445Zm-10.34265-8.63069c.30843.161.62619.342.94289.52089C704.44685,156.63577,704.12909,156.45477,703.82066,156.29376Zm1.33635.73841c.24765.14449.5009.30843.752.46411C705.65791,157.3406,705.40466,157.17666,705.157,157.03217Zm1.37714.85012c.15888.1037.32016.22312.47984.33135C706.854,158.10515,706.69276,157.986,706.53415,157.88229Zm1.403.9698c.10743.07864.21566.16981.32336.25059C708.1528,159.02164,708.04457,158.93073,707.93714,158.85209Zm1.4086,1.09244c.30176.24791.60219.52115.90263.78773C709.94767,160.46542,709.64777,160.19271,709.34574,159.94453Zm1.40352,1.22518c.30417.28177.60353.58967.904.892C711.35279,161.75938,711.05343,161.45148,710.74926,161.16971ZM696.164,153.49763c-.09436-.01759-.15808-.02879-.15808-.02879S696.06994,153.48,696.164,153.49763Z" transform="translate(108.04715 -0.12523)"/><path class="cls-5" d="M802.48929,210.05031c-.00453-.01839-.0072-.03572-.01173-.05411a.09134.09134,0,0,0,.06771.06584c2.256.47557,4.35187.80986,6.06729,1.00659,5.733.65765,9.16064-20.03218,11.73391-33.01927a18.60681,18.60681,0,0,0-6.34693,4.88235c-2.8753,3.3666-6.57432,11.43855-6.56365,11.39163.47877-2.09769,4.20391-17.48211,12.04261-25.60417,2.49862-2.589,2.90222-3.626,4.28389-6.8289a14.15081,14.15081,0,0,0,.77813-2.34428l.776-3.27489a16.55205,16.55205,0,0,1,.42172-1.9996,3.7761,3.7761,0,0,0,.15542-1.222,3.67669,3.67669,0,0,0-3.43618-3.55774c-14.64626.868-40.609,39.37313-40.609,47.76124C781.84851,203.95476,793.44034,208.13629,802.48929,210.05031Zm15.43186-53.12183a32.49766,32.49766,0,0,1,3.49749-1.55841A32.52754,32.52754,0,0,0,817.92115,156.92848Zm5.96893-2.36294c.0781-.02159.16821-.04852.24178-.06825C824.05829,154.51675,823.96818,154.544,823.89008,154.56554Zm1.57093-.37534c.09411-.0176.15808-.02879.15808-.02879S825.55538,154.1726,825.461,154.1902Zm-7.65662,2.79612c-.30843.161-.62618.342-.94288.52089C817.17821,157.32834,817.496,157.14733,817.80439,156.98632Zm-1.33635.73842c-.24765.14422-.50089.30843-.752.46411C815.96715,158.03317,816.22039,157.86922,816.468,157.72474Zm-1.37713.84985c-.25751.16821-.51849.35748-.77841.53822C814.57215,158.93233,814.83313,158.7428,815.09091,158.57459Zm-1.40006.96794c-.38894.2847-.77921.59206-1.16921.90636C812.91164,160.13486,813.30191,159.827,813.69085,159.54253ZM812.282,160.635c-.27937.22926-.55661.48277-.83465.728C811.72538,161.11773,812.00288,160.86448,812.282,160.635Zm-1.40859,1.22945c-.37508.34815-.74589.72216-1.11536,1.101C810.12751,162.5863,810.49806,162.21256,810.8734,161.86441ZM809.492,163.228c-.29616.3111-.5846.64992-.87517.98181C808.90739,163.8776,809.19609,163.53905,809.492,163.228Zm-2.16673,2.56447c.27031-.35348.53742-.71469.81492-1.04738C807.86268,165.07773,807.5953,165.43894,807.32526,165.79242Zm-.48251.62059c-.27377.37748-.535.78534-.79893,1.18574C806.30773,167.19808,806.569,166.79075,806.84275,166.413Zm-3.91254,7.18612c.15728-.39321.30523-.80133.4721-1.17881C803.23544,172.79806,803.08749,173.20619,802.93021,173.59913Zm.96474-2.19553c.18687-.3876.366-.78827.56247-1.15908C804.261,170.61533,804.08182,171.01626,803.895,171.4036Zm1.05458-2.014c.21885-.3844.43212-.78027.66031-1.146C805.38165,168.60934,805.16838,169.00494,804.94953,169.38961Zm-2.49117,5.39045c-.14795.4108-.274.85358-.41106,1.28064C802.18406,175.63364,802.31041,175.19086,802.45836,174.78006Zm-.817,2.54821c-.12929.45691-.23379.94741-.35,1.42219C801.40752,178.27568,801.512,177.78518,801.64131,177.32827Zm-.67551,2.74681c-.09783.46544-.16954.96474-.25458,1.447C800.79626,181.03982,800.8677,180.54052,800.9658,180.07508ZM800.447,183.028c-.06718.47184-.10636.9778-.161,1.46484C800.34068,184.00575,800.37986,183.49979,800.447,183.028Zm-.34655,3.164c-.03838.49317-.04692,1.021-.07251,1.52908C800.05357,187.21294,800.06211,186.68512,800.10049,186.192Zm-.15914,3.38286c-.00933.52889.01386,1.093.01892,1.63758C799.95547,190.66777,799.932,190.10343,799.94135,189.57481Zm1.96094,17.79747c-.13809-.64112-.30017-1.30543-.42253-1.93108C801.60212,206.06712,801.76447,206.73116,801.90229,207.37228Zm-.80773-4.17939c-.11836-.69577-.25805-1.41233-.35695-2.0889C800.83651,201.78056,800.9762,202.49712,801.09456,203.19289Zm-.59314-4.04c-.08663-.7107-.1914-1.44-.25644-2.12862C800.31,197.71313,800.41479,198.44222,800.50142,199.15292Zm-.39346-4.141c-.04052-.60886-.1-1.238-.1237-1.829C800.00772,193.77393,800.0677,194.40305,800.108,195.01191Z" transform="translate(108.04715 -0.12523)"/><path class="cls-5" d="M674.29834,260.179c-34.15729-16.26519-78.887-1.21985-78.887-1.21985,1.90763,14.88058,13.39229,23.40518,25.04756,28.26354a90.17,90.17,0,0,0,20.33849,5.56133,2.58089,2.58089,0,0,0,2.48716-4.0685c-1.99426-2.74814-4.71868-6.76385-8.02317-12.27107C627.942,264.24538,674.29834,260.179,674.29834,260.179Z" transform="translate(108.04715 -0.12523)"/><path class="cls-5" d="M847.32671,260.179s46.35612,4.06636,39.037,16.26545c-3.30449,5.50722-6.02891,9.52293-8.02317,12.27107a2.58078,2.58078,0,0,0,2.4869,4.0685,90.16786,90.16786,0,0,0,20.33874-5.56133c11.65528-4.85836,23.13967-13.383,25.04757-28.26354C926.21374,258.95917,881.484,243.91383,847.32671,260.179Z" transform="translate(108.04715 -0.12523)"/><path class="cls-5" d="M733.92092,452.27483a10.765,10.765,0,0,0-.08983,1.32062c0,9.34726,12.09406,16.9247,27.01223,16.9247,14.91844,0,27.012-7.57744,27.012-16.9247a10.81838,10.81838,0,0,0-.0893-1.32062Z" transform="translate(108.04715 -0.12523)"/><path class="cls-5" d="M837.23678,251.35559c-.00986-.00986-.01439-.02319-.02452-.03305a186.66261,186.66261,0,0,0-14.60308-13.13318c-.24792-.20206-.47291-.38947-.72963-.59686-.04078-.03306-.0749-.06185-.116-.0949l.01253.01279c-10.21549-8.25615-22.36953-16.14842-30.88133-15.458-15.87865,1.28757-21.61485,6.00918-30.03308,7.85709v-.16342c-8.43929-1.84151-14.16749-6.57751-30.07013-7.86694-8.5118-.69044-20.66584,7.20184-30.88133,15.458l.01253-.0128c-.04105.03306-.07518.06185-.116.0949-.25672.2074-.48171.3948-.72962.59687a186.66109,186.66109,0,0,0-14.60308,13.13317c-.01013.00987-.01467.0232-.02453.03306-3.61132,3.019-7.06429,14.35729,6.9358,23.30788,6.80917,4.35373,13.4488,12.98762,15.55,15.87278.426.64485.71736,1.10523.71736,1.10523s-.0152-.08584-.02186-.12662c.00933.01519.06184.09783.06184.09783l10.16325-21.06837c.28363.53876,1.87323,3.60972,4.12341,8.69734,8.66614,19.71176,27.08767,69.93191,15.75762,119.13639-.67284,2.92142-1.42672,5.83884-2.31762,8.74639-.06558.21353-.116.42839-.1826.64192,0,0,23.06263,6.07528,25.58791,31.10578v.41826c.008-.0837.01733-.16607.02559-.24925.00267.02639.00906.04932.01146.076v-.18767c.0104-.101.02-.20287.03119-.30363,2.73295-24.68875,25.55673-30.6862,25.55673-30.6862-.06665-.21353-.117-.42839-.18261-.64191.15568.31962.261.52675.261.52675-.382-1.17107-.71843-2.34694-1.05485-3.52281-.52835-1.91562-1.0815-3.82965-1.52375-5.75033-11.33-49.20449,7.09148-99.42464,15.75762-119.13639,2.25018-5.08762,3.83978-8.15859,4.12342-8.69734l10.16324,21.06837s.05251-.08264.06184-.09784c-.00666.04079-.02186.12663-.02186.12663s.29137-.46038.71736-1.10523c2.10116-2.88543,8.74079-11.51932,15.55023-15.87279C844.30133,265.71236,840.84836,254.37431,837.23678,251.35559Z" transform="translate(108.04715 -0.12523)"/><path class="cls-5" d="M822.53693,304.01279c-7.474-3.61372-15.25939,19.374-21.24617,38.65551-4.96366,15.98688-3.10056,52.09231-2.31895,63.96431a15.13271,15.13271,0,0,1-1.41179,7.44816l-9.387,12.90952,2.53995-14.54577s-21.7612,8.081-21.86623,29.80462l.13035-.00853-.00053.00853,16.32836-1.05991a8.40021,8.40021,0,0,0,5.68342-3.099,43.51921,43.51921,0,0,0,3.78646-5.90761c-.06558.0829-.18287.21379-.329.36414,8.87461-15.88958,19.711-49.65473,24.12068-70.26192,5.59731-26.15759,17.4088-32.943,20.27717-41.41218S830.01121,307.62623,822.53693,304.01279Z" transform="translate(108.04715 -0.12523)"/><path class="cls-5" d="M752.70979,442.24914l-.00053-.00853.13036.00853c-.105-21.72361-21.86624-29.80462-21.86624-29.80462l2.53995,14.54577-9.387-12.90952a15.13259,15.13259,0,0,1-1.41179-7.44816c.7816-11.872,2.6447-47.97743-2.319-63.96431-5.98678-19.28151-13.77216-42.26923-21.24617-38.65551-7.47428,3.61344-19.17514,8.39077-16.30677,16.85992s14.67985,15.25459,20.27716,41.41218c4.40972,20.60719,15.24607,54.37234,24.12068,70.26192-.14609-.15035-.26338-.28124-.329-.36414a43.52018,43.52018,0,0,0,3.78646,5.90761,8.40021,8.40021,0,0,0,5.68342,3.099Z" transform="translate(108.04715 -0.12523)"/></g></g></g><path class="cls-8" d="M108.04715,792.30478h768a0,0,0,0,1,0,0V2061.69556a65.29273,65.29273,0,0,1-65.29273,65.29273H308.05168a200.00454,200.00454,0,0,1-200.00454-200.00454V792.30478A0,0,0,0,1,108.04715,792.30478Z"/><path class="cls-8" d="M767.2884,2481.62969S209.06653,2466.07072,0,2741.57842V3097.9169s768.71062,310.42052,767.99951-86.90257Z" transform="translate(108.04715 -0.12523)"/><path class="cls-5" d="M2.0954,787S224.09627,1064.05915,765,906.02276L764.60286,787Z" transform="translate(108.04715 -0.12523)"/></svg>