<svg id="Layer_1" data-name="Layer 1" xmlns="http://www.w3.org/2000/svg" viewBox="0 0 47.84696 47.84397"><defs><style>.cls-1{fill:#ffd668;}.cls-2{fill:#fff;}</style></defs><title>twitter-icon_yellow</title><path class="cls-1" d="M537.12528,540.42156a23.92348,23.92348,0,1,1-23.922-23.922A23.92318,23.92318,0,0,1,537.12528,540.42156Z" transform="translate(-489.27832 -516.49957)"/><path class="cls-2" d="M527.329,528.90133a12.40024,12.40024,0,0,1-3.89739,1.46691,6.167,6.167,0,0,0-4.4776-1.90767,6.04442,6.04442,0,0,0-5.9766,7.41541,17.51227,17.51227,0,0,1-12.64526-6.30972,5.94153,5.94153,0,0,0-.83129,3.0366,6.01491,6.01491,0,0,0,2.73039,5.02561,6.19382,6.19382,0,0,1-2.779-.755v.07575a6.07018,6.07018,0,0,0,4.92234,5.92249,6.25455,6.25455,0,0,1-2.77216.10346,6.13339,6.13339,0,0,0,5.73131,4.194,12.43806,12.43806,0,0,1-7.62064,2.58507,12.737,12.737,0,0,1-1.464-.08423,17.58024,17.58024,0,0,0,9.40591,2.71256,17.19151,17.19151,0,0,0,17.45478-17.18217c0-.26154-.00389-.52319-.01555-.78175a12.343,12.343,0,0,0,3.06033-3.1267,12.37081,12.37081,0,0,1-3.52372.9506A6.07176,6.07176,0,0,0,527.329,528.90133Z" transform="translate(-489.27832 -516.49957)"/></svg>