<?xml version="1.0" encoding="utf-8"?>
<!-- Generator: Adobe Illustrator 23.0.6, SVG Export Plug-In . SVG Version: 6.00 Build 0)  -->
<svg version="1.1" id="Layer_1" xmlns="http://www.w3.org/2000/svg" xmlns:xlink="http://www.w3.org/1999/xlink" x="0px" y="0px"
	 viewBox="0 0 50.2 50.2" style="enable-background:new 0 0 50.2 50.2;" xml:space="preserve">
<style type="text/css">
	.st0{fill:#CE0037;}
	.st1{fill:#FFFFFF;}
</style>
<title>twitter-icon_orange</title>
<path class="st0" d="M50.2,25.1C50.2,39,39,50.2,25.1,50.2S0,39,0,25.1S11.2,0,25.1,0c0,0,0,0,0,0C39,0,50.2,11.2,50.2,25.1z"/>
<path class="st1" d="M39.9,13c-1.3,0.7-2.6,1.3-4.1,1.5c-1.2-1.3-2.9-2-4.7-2c-3.5-0.1-6.4,2.7-6.4,6.2c0,0.5,0,1,0.2,1.5
	c-5.2-0.2-10-2.6-13.3-6.6c-0.6,1-0.9,2.1-0.9,3.2c0,2.1,1.1,4.1,2.9,5.3c-1,0-2-0.3-2.9-0.8v0.1c0,3,2.2,5.6,5.2,6.2
	c-0.9,0.3-1.9,0.3-2.9,0.1c0.9,2.6,3.3,4.4,6,4.4c-2.3,1.8-5.1,2.7-8,2.7c-0.5,0-1,0-1.5-0.1c3,1.9,6.4,2.9,9.9,2.8
	c10,0.2,18.2-7.8,18.3-17.8c0-0.1,0-0.2,0-0.3c0-0.3,0-0.5,0-0.8c1.3-0.9,2.3-2,3.2-3.3c-1.2,0.5-2.4,0.8-3.7,1
	C38.4,15.7,39.4,14.5,39.9,13z"/>
</svg>
