<svg id="Layer_1" data-name="Layer 1" xmlns="http://www.w3.org/2000/svg" viewBox="0 0 47.09906 47.09612"><defs><style>.cls-1{fill:#9cb72e;}.cls-2{fill:#fff;}</style></defs><title>twitter-icon_green</title><path class="cls-1" d="M536.61645,540.214a23.54953,23.54953,0,1,1-23.54806-23.54806A23.54924,23.54924,0,0,1,536.61645,540.214Z" transform="translate(-489.51739 -516.66592)"/><path class="cls-2" d="M526.97332,528.87382a12.20641,12.20641,0,0,1-3.83647,1.444,6.07061,6.07061,0,0,0-4.40761-1.87786,5.95,5.95,0,0,0-5.88319,7.29951,17.23855,17.23855,0,0,1-12.4476-6.2111,5.84871,5.84871,0,0,0-.81829,2.98913,5.92089,5.92089,0,0,0,2.68771,4.94706,6.09681,6.09681,0,0,1-2.73559-.74324v.07457a5.97529,5.97529,0,0,0,4.8454,5.82991,6.157,6.157,0,0,1-2.72883.10185,6.03751,6.03751,0,0,0,5.64173,4.12846,12.24365,12.24365,0,0,1-7.50153,2.54467,12.5387,12.5387,0,0,1-1.44114-.08291,17.30556,17.30556,0,0,0,9.2589,2.67015,16.92279,16.92279,0,0,0,17.18194-16.91359c0-.25746-.00383-.515-.01531-.76953a12.14993,12.14993,0,0,0,3.01249-3.07783,12.17768,12.17768,0,0,1-3.46863.93574A5.97692,5.97692,0,0,0,526.97332,528.87382Z" transform="translate(-489.51739 -516.66592)"/></svg>