<svg id="Layer_1" data-name="Layer 1" xmlns="http://www.w3.org/2000/svg" viewBox="0 0 46.62052 46.61761"><defs><style>.cls-1{fill:#35aaa6;}.cls-2{fill:#fff;}</style></defs><title>twitter-icon_blue</title><path class="cls-1" d="M536.21045,540.66869a23.31026,23.31026,0,1,1-23.3088-23.3088A23.31,23.31,0,0,1,536.21045,540.66869Z" transform="translate(-489.58993 -517.35989)"/><path class="cls-2" d="M526.66529,529.44376a12.08231,12.08231,0,0,1-3.79749,1.42931,6.00891,6.00891,0,0,0-4.36282-1.85878,5.88949,5.88949,0,0,0-5.82341,7.22534,17.06337,17.06337,0,0,1-12.32113-6.148,5.78918,5.78918,0,0,0-.81,2.95876,5.86075,5.86075,0,0,0,2.6604,4.89679,6.035,6.035,0,0,1-2.7078-.73569v.07381a5.91459,5.91459,0,0,0,4.79618,5.77068,6.09445,6.09445,0,0,1-2.70111.10081,5.97618,5.97618,0,0,0,5.5844,4.08652,12.11922,12.11922,0,0,1-7.42531,2.51881,12.41,12.41,0,0,1-1.42649-.08207,17.1297,17.1297,0,0,0,9.16482,2.643,16.75086,16.75086,0,0,0,17.00737-16.74175c0-.25484-.00379-.50978-.01515-.76171a12.02666,12.02666,0,0,0,2.98188-3.04656,12.05381,12.05381,0,0,1-3.43339.92624A5.91614,5.91614,0,0,0,526.66529,529.44376Z" transform="translate(-489.58993 -517.35989)"/></svg>