<svg id="Layer_1" data-name="Layer 1" xmlns="http://www.w3.org/2000/svg" viewBox="0 0 34.85259 34.85041"><defs><style>.cls-1,.cls-2{fill:#fff;}.cls-1{opacity:0.2;}</style></defs><title>twitter-icon_white</title><path class="cls-1" d="M529.90856,540.50674a17.4263,17.4263,0,1,1-17.42521-17.4252A17.42608,17.42608,0,0,1,529.90856,540.50674Z" transform="translate(-495.05597 -523.08154)"/><path class="cls-2" d="M522.77279,532.1152a9.03285,9.03285,0,0,1-2.83893,1.06853,4.49215,4.49215,0,0,0-3.26157-1.38959,4.40288,4.40288,0,0,0-4.35347,5.40152,12.7562,12.7562,0,0,1-9.211-4.59611,4.32791,4.32791,0,0,0-.60553,2.21191,4.38138,4.38138,0,0,0,1.98887,3.66075,4.51169,4.51169,0,0,1-2.0243-.55v.05518a4.42163,4.42163,0,0,0,3.58553,4.31405,4.556,4.556,0,0,1-2.01929.07536,4.46765,4.46765,0,0,0,4.17479,3.055,9.06008,9.06008,0,0,1-5.551,1.883,9.27606,9.27606,0,0,1-1.06642-.06136,12.80579,12.80579,0,0,0,6.85144,1.97588,12.52261,12.52261,0,0,0,12.71438-12.5158c0-.19052-.00284-.38111-.01133-.56944a8.99089,8.99089,0,0,0,2.2292-2.27755,9.01148,9.01148,0,0,1-2.56674.69243A4.42284,4.42284,0,0,0,522.77279,532.1152Z" transform="translate(-495.05597 -523.08154)"/></svg>