<svg id="Layer_1" data-name="Layer 1" xmlns="http://www.w3.org/2000/svg" viewBox="0 0 50.20598 50.20284"><defs><style>.cls-1{fill:#ff0037;}.cls-2{fill:#fff;}</style></defs><title>twitter-icon_orange</title><path class="cls-1" d="M537.206,540.11523a25.103,25.103,0,1,1-25.10142-25.10141A25.10268,25.10268,0,0,1,537.206,540.11523Z" transform="translate(-487 -515.01382)"/><path class="cls-2" d="M526.92673,528.027a13.01176,13.01176,0,0,1-4.08955,1.53924,6.47105,6.47105,0,0,0-4.69835-2.00174,6.34246,6.34246,0,0,0-6.27128,7.781,18.37571,18.37571,0,0,1-13.26871-6.62082,6.2345,6.2345,0,0,0-.87228,3.18631,6.31145,6.31145,0,0,0,2.865,5.27339,6.49907,6.49907,0,0,1-2.916-.79226v.07949a6.36946,6.36946,0,0,0,5.165,6.21448,6.56307,6.56307,0,0,1-2.90884.10857,6.4358,6.4358,0,0,0,6.01388,4.4008,13.05134,13.05134,0,0,1-7.99637,2.71252,13.36461,13.36461,0,0,1-1.5362-.08838,18.44709,18.44709,0,0,0,9.86966,2.84629,18.03911,18.03911,0,0,0,18.31536-18.0293c0-.27444-.00408-.549-.01632-.82029a12.95145,12.95145,0,0,0,3.21121-3.28086,12.98093,12.98093,0,0,1-3.69744.99746A6.37115,6.37115,0,0,0,526.92673,528.027Z" transform="translate(-487 -515.01382)"/></svg>